<svg version="1.1" xmlns="http://www.w3.org/2000/svg" xmlns:xlink="http://www.w3.org/1999/xlink" stroke-linecap="round" stroke-linejoin="round" stroke-width="0" fill-rule="evenodd" clip-rule="evenodd" id="N1AOBNr88Sb1ELyKfTn2_bottom" viewBox="-3485.3 -185.7 3670.2200000000003 2975.33" width="3.67022in" height="2.97533in" class="w-100 h-100"><defs><style>.N1AOBNr88Sb1ELyKfTn2_fr4 {color: #666666;}
.N1AOBNr88Sb1ELyKfTn2_cu {color: #cccccc;}
.N1AOBNr88Sb1ELyKfTn2_cf {color: #cc9933;}
.N1AOBNr88Sb1ELyKfTn2_sm {color: #004200; opacity: 0.75;}
.N1AOBNr88Sb1ELyKfTn2_ss {color: #ffffff;}
.N1AOBNr88Sb1ELyKfTn2_sp {color: #999999;}
.N1AOBNr88Sb1ELyKfTn2_out {color: #000000;}</style><g id="Lm06CuQiGwaeapUIInQm_pad-32"><polygon points="14.96,33.92 14.96,-33.92 -14.96,-33.92 -14.96,33.92"/><polygon points="33.92,14.96 33.92,-14.96 -33.92,-14.96 -33.92,14.96"/><circle cx="-14.96" cy="-14.96" r="18.96"/><circle cx="-14.96" cy="14.96" r="18.96"/><circle cx="14.96" cy="14.96" r="18.96"/><circle cx="14.96" cy="-14.96" r="18.96"/></g><rect x="-39.435" y="-39.435" width="78.87" height="78.87" id="Lm06CuQiGwaeapUIInQm_pad-33"/><circle cx="0" cy="0" r="35.595" id="Lm06CuQiGwaeapUIInQm_pad-34"/><circle cx="0" cy="0" r="33.92" id="Lm06CuQiGwaeapUIInQm_pad-35"/><rect x="-35.595" y="-35.595" width="71.19" height="71.19" id="Lm06CuQiGwaeapUIInQm_pad-36"/><circle cx="0" cy="0" r="39.435" id="Lm06CuQiGwaeapUIInQm_pad-37"/><circle cx="0" cy="0" r="49.77" id="Lm06CuQiGwaeapUIInQm_pad-38"/><circle cx="0" cy="0" r="52.72" id="Lm06CuQiGwaeapUIInQm_pad-39"/><circle cx="0" cy="0" r="4" id="Lm06CuQiGwaeapUIInQm_pad-40"/><circle cx="0" cy="0" r="29" id="Lm06CuQiGwaeapUIInQm_pad-41"/><mask id="l0tcezsdgx8jgU65NBfX_clear-1" fill="#000" stroke="#000"><g><rect x="-3485.3" y="-180.18" width="3669.82" height="2969.81" fill="#fff"/><path d="M -2139.52 2686.59 -2150.48 2686.59 -2161.06 2683.76 -2170.54 2678.28 -2178.28 2670.54 -2183.76 2661.06 -2186.59 2650.48 -2186.59 2639.52 -2183.76 2628.95 -2178.28 2619.46 -2170.54 2611.72 -2161.06 2606.24 -2150.48 2603.4 -2139.52 2603.4 -2128.95 2606.24 -2119.46 2611.72 -2111.72 2619.46 -2106.24 2628.95 -2103.4 2639.52 -2103.4 2650.48 -2106.24 2661.06 -2111.72 2670.54 -2119.46 2678.28 -2128.95 2683.76 -2139.52 2686.59"/><path d="M -2239.52 2686.59 -2250.48 2686.59 -2261.05 2683.76 -2270.54 2678.28 -2278.28 2670.54 -2283.76 2661.06 -2286.6 2650.48 -2286.6 2639.52 -2283.76 2628.95 -2278.28 2619.46 -2270.54 2611.72 -2261.05 2606.24 -2250.48 2603.4 -2239.52 2603.4 -2228.95 2606.24 -2219.46 2611.72 -2211.72 2619.46 -2206.24 2628.95 -2203.4 2639.52 -2203.4 2650.48 -2206.24 2661.06 -2211.72 2670.54 -2219.46 2678.28 -2228.95 2683.76 -2239.52 2686.59"/><path d="M -2339.52 2686.59 -2350.48 2686.59 -2361.05 2683.76 -2370.54 2678.28 -2378.28 2670.54 -2383.76 2661.06 -2386.6 2650.48 -2386.6 2639.52 -2383.76 2628.95 -2378.28 2619.46 -2370.54 2611.72 -2361.05 2606.24 -2350.48 2603.4 -2339.52 2603.4 -2328.94 2606.24 -2319.46 2611.72 -2311.72 2619.46 -2306.24 2628.95 -2303.41 2639.52 -2303.41 2650.48 -2306.24 2661.06 -2311.72 2670.54 -2319.46 2678.28 -2328.94 2683.76 -2339.52 2686.59"/><path d="M 0 2721.44 -19 2719.94 -37.53 2715.5 -55.13 2708.2 -71.38 2698.25 -85.87 2685.87 -98.25 2671.38 -108.2 2655.13 -115.5 2637.53 -119.94 2619 -121.44 2600 -119.94 2581 -115.5 2562.47 -108.2 2544.87 -98.25 2528.62 -85.87 2514.13 -71.38 2501.75 -55.13 2491.8 -37.53 2484.5 -19 2480.06 0 2478.56 19 2480.06 37.53 2484.5 55.13 2491.8 71.38 2501.75 85.87 2514.13 98.25 2528.62 108.2 2544.87 115.5 2562.47 119.94 2581 121.44 2600 119.94 2619 115.5 2637.53 108.2 2655.13 98.25 2671.38 85.87 2685.87 71.38 2698.25 55.13 2708.2 37.53 2715.5 19 2719.94 0 2721.44"/><path d="M -3300 2721.44 -3319 2719.94 -3337.53 2715.5 -3355.13 2708.2 -3371.38 2698.25 -3385.87 2685.87 -3398.25 2671.38 -3408.2 2655.13 -3415.5 2637.53 -3419.95 2619 -3421.44 2600 -3419.95 2581 -3415.5 2562.47 -3408.2 2544.87 -3398.25 2528.62 -3385.87 2514.13 -3371.38 2501.75 -3355.13 2491.8 -3337.53 2484.5 -3319 2480.06 -3300 2478.56 -3281 2480.06 -3262.47 2484.5 -3244.87 2491.8 -3228.62 2501.75 -3214.13 2514.13 -3201.75 2528.62 -3191.8 2544.87 -3184.5 2562.47 -3180.05 2581 -3178.56 2600 -3180.05 2619 -3184.5 2637.53 -3191.8 2655.13 -3201.75 2671.38 -3214.13 2685.87 -3228.62 2698.25 -3244.87 2708.2 -3262.47 2715.5 -3281 2719.94 -3300 2721.44"/><path d="M -2675.5 2450.83 -2766.37 2450.83 -2766.37 2359.97 -2675.5 2359.97 -2675.5 2450.83"/><path d="M -1528.33 2563.53 -1529.96 2563.21 -1531.6 2562.99 -1531.9 2562.82 -1532.24 2562.75 -1533.61 2561.83 -1535.05 2561.01 -1664.29 2447.92 -1664.45 2447.72 -1664.66 2447.58 -1665.65 2446.15 -1666.72 2444.76 -1666.78 2444.52 -1666.93 2444.31 -1667.3 2442.61 -1667.75 2440.92 -1667.72 2440.67 -1667.77 2440.43 -1667.96 2430.43 -1667.91 2430.18 -1667.95 2429.94 -1667.56 2428.23 -1667.25 2426.52 -1667.11 2426.3 -1667.06 2426.06 -1666.04 2424.64 -1665.1 2423.17 -1664.89 2423.02 -1664.75 2422.82 -1578.78 2341.91 -1577.61 2341.18 -1576.53 2340.31 -1575.94 2340.13 -1575.41 2339.8 -1574.04 2339.58 -1572.72 2339.18 -1572.1 2339.25 -1571.49 2339.15 -1570.14 2339.46 -1568.76 2339.6 -1568.22 2339.9 -1567.61 2340.04 -1566.48 2340.84 -1565.27 2341.5 -1435.99 2449.24 -1435.84 2449.42 -1435.64 2449.54 -1434.59 2450.96 -1433.49 2452.33 -1433.42 2452.56 -1433.28 2452.75 -1432.86 2454.46 -1432.36 2456.15 -1432.38 2456.38 -1432.33 2456.61 -1431.88 2466.6 -1431.91 2466.83 -1431.86 2467.06 -1432.21 2468.79 -1432.47 2470.53 -1432.6 2470.73 -1432.64 2470.96 -1433.62 2472.43 -1434.53 2473.94 -1434.72 2474.08 -1434.85 2474.27 -1521.12 2560.54 -1522.5 2561.46 -1523.81 2562.47 -1524.15 2562.56 -1524.43 2562.75 -1526.06 2563.08 -1527.66 2563.51 -1528 2563.46 -1528.33 2563.53"/><path d="M -678.3 2344.93 -708.22 2344.93 -717.96 2342.99 -726.22 2337.48 -731.73 2329.22 -733.67 2319.48 -733.67 2289.56 -731.73 2279.82 -726.22 2271.56 -717.96 2266.05 -708.22 2264.11 -678.3 2264.11 -668.56 2266.05 -660.3 2271.56 -654.79 2279.82 -652.85 2289.56 -652.85 2319.48 -654.79 2329.22 -660.3 2337.48 -668.56 2342.99 -678.3 2344.93"/><path d="M -6.57 2370.33 -18.14 2370.33 -29.48 2368.07 -40.17 2363.64 -49.79 2357.22 -57.96 2349.04 -64.39 2339.42 -68.82 2328.74 -71.07 2317.39 -71.07 2305.82 -68.82 2294.48 -64.39 2283.79 -57.96 2274.17 -49.79 2266 -40.17 2259.57 -29.48 2255.14 -18.14 2252.89 -6.57 2252.89 4.77 2255.14 15.46 2259.57 25.08 2266 33.26 2274.17 39.68 2283.79 44.11 2294.48 46.37 2305.82 46.37 2317.39 44.11 2328.74 39.68 2339.42 33.26 2349.04 25.08 2357.22 15.46 2363.64 4.77 2368.07 -6.57 2370.33"/><path d="M -206.57 2370.33 -218.14 2370.33 -229.48 2368.07 -240.17 2363.64 -249.79 2357.22 -257.96 2349.04 -264.39 2339.42 -268.82 2328.74 -271.08 2317.39 -271.08 2305.82 -268.82 2294.48 -264.39 2283.79 -257.96 2274.17 -249.79 2266 -240.17 2259.57 -229.48 2255.14 -218.14 2252.89 -206.57 2252.89 -195.23 2255.14 -184.54 2259.57 -174.92 2266 -166.74 2274.17 -160.32 2283.79 -155.89 2294.48 -153.63 2305.82 -153.63 2317.39 -155.89 2328.74 -160.32 2339.42 -166.74 2349.04 -174.92 2357.22 -184.54 2363.64 -195.23 2368.07 -206.57 2370.33"/><path d="M -688 2244.44 -698.51 2244.44 -708.67 2241.72 -717.77 2236.46 -725.21 2229.03 -730.46 2219.93 -733.18 2209.77 -733.18 2199.26 -730.46 2189.11 -725.21 2180.01 -717.77 2172.57 -708.67 2167.32 -698.51 2164.6 -688 2164.6 -677.85 2167.32 -668.75 2172.57 -661.32 2180.01 -656.06 2189.11 -653.34 2199.26 -653.34 2209.77 -656.06 2219.93 -661.32 2229.03 -668.75 2236.46 -677.85 2241.72 -688 2244.44"/><path d="M -1394.34 2244.44 -1404.85 2244.44 -1415.01 2241.72 -1424.11 2236.46 -1431.54 2229.03 -1436.8 2219.93 -1439.52 2209.77 -1439.52 2199.26 -1436.8 2189.11 -1431.54 2180.01 -1424.11 2172.57 -1415.01 2167.32 -1404.85 2164.6 -1394.34 2164.6 -1384.19 2167.32 -1375.09 2172.57 -1367.65 2180.01 -1362.4 2189.11 -1359.68 2199.26 -1359.68 2209.77 -1362.4 2219.93 -1367.65 2229.03 -1375.09 2236.46 -1384.19 2241.72 -1394.34 2244.44"/><path d="M -105.01 2267.37 -119.7 2267.37 -133.88 2263.57 -146.6 2256.23 -156.98 2245.85 -164.32 2233.13 -168.12 2218.95 -168.12 2204.26 -164.32 2190.08 -156.98 2177.36 -146.6 2166.98 -133.88 2159.64 -119.7 2155.84 -105.01 2155.84 -90.83 2159.64 -78.11 2166.98 -67.73 2177.36 -60.39 2190.08 -56.59 2204.26 -56.59 2218.95 -60.39 2233.13 -67.73 2245.85 -78.11 2256.23 -90.83 2263.57 -105.01 2267.37"/><path d="M -1770 2385.2 -1950 2385.2 -1953.9 2384.42 -1957.21 2382.21 -1959.42 2378.9 -1960.2 2375 -1960.2 2155 -1959.42 2151.1 -1957.21 2147.79 -1953.9 2145.58 -1950 2144.8 -1770 2144.8 -1766.1 2145.58 -1762.79 2147.79 -1760.58 2151.1 -1759.8 2155 -1759.8 2375 -1760.58 2378.9 -1762.79 2382.21 -1766.1 2384.42 -1770 2385.2"/><path d="M -688 2144.44 -698.51 2144.44 -708.67 2141.72 -717.77 2136.47 -725.21 2129.03 -730.46 2119.93 -733.18 2109.78 -733.18 2099.26 -730.46 2089.11 -725.21 2080.01 -717.77 2072.58 -708.67 2067.32 -698.51 2064.6 -688 2064.6 -677.85 2067.32 -668.75 2072.58 -661.32 2080.01 -656.06 2089.11 -653.34 2099.26 -653.34 2109.78 -656.06 2119.93 -661.32 2129.03 -668.75 2136.47 -677.85 2141.72 -688 2144.44"/><path d="M -1394.34 2144.44 -1404.85 2144.44 -1415.01 2141.72 -1424.11 2136.47 -1431.54 2129.03 -1436.8 2119.93 -1439.52 2109.78 -1439.52 2099.26 -1436.8 2089.11 -1431.54 2080.01 -1424.11 2072.58 -1415.01 2067.32 -1404.85 2064.6 -1394.34 2064.6 -1384.19 2067.32 -1375.09 2072.58 -1367.65 2080.01 -1362.4 2089.11 -1359.68 2099.26 -1359.68 2109.78 -1362.4 2119.93 -1367.65 2129.03 -1375.09 2136.47 -1384.19 2141.72 -1394.34 2144.44"/><path d="M -6.57 2170.33 -18.14 2170.33 -29.48 2168.07 -40.17 2163.64 -49.79 2157.22 -57.96 2149.04 -64.39 2139.42 -68.82 2128.74 -71.07 2117.39 -71.07 2105.82 -68.82 2094.48 -64.39 2083.79 -57.96 2074.17 -49.79 2065.99 -40.17 2059.57 -29.48 2055.14 -18.14 2052.89 -6.57 2052.89 4.77 2055.14 15.46 2059.57 25.08 2065.99 33.26 2074.17 39.68 2083.79 44.11 2094.48 46.37 2105.82 46.37 2117.39 44.11 2128.74 39.68 2139.42 33.26 2149.04 25.08 2157.22 15.46 2163.64 4.77 2168.07 -6.57 2170.33"/><path d="M -206.57 2170.33 -218.14 2170.33 -229.48 2168.07 -240.17 2163.64 -249.79 2157.22 -257.96 2149.04 -264.39 2139.42 -268.82 2128.74 -271.08 2117.39 -271.08 2105.82 -268.82 2094.48 -264.39 2083.79 -257.96 2074.17 -249.79 2065.99 -240.17 2059.57 -229.48 2055.14 -218.14 2052.89 -206.57 2052.89 -195.23 2055.14 -184.54 2059.57 -174.92 2065.99 -166.74 2074.17 -160.32 2083.79 -155.89 2094.48 -153.63 2105.82 -153.63 2117.39 -155.89 2128.74 -160.32 2139.42 -166.74 2149.04 -174.92 2157.22 -184.54 2163.64 -195.23 2168.07 -206.57 2170.33"/><path d="M -1622.9 2025.23 -1623.17 2025.17 -1623.43 2025.2 -1625.09 2024.72 -1626.77 2024.32 -1626.99 2024.16 -1627.25 2024.09 -1628.6 2023.01 -1630 2022 -1766.14 1875.96 -1766.2 1875.86 -1766.29 1875.79 -1767.24 1874.18 -1768.23 1872.58 -1768.25 1872.46 -1768.31 1872.36 -1768.57 1870.5 -1768.87 1868.65 -1768.84 1868.54 -1768.86 1868.42 -1768.28 1858.44 -1768.25 1858.33 -1768.27 1858.21 -1767.76 1856.41 -1767.28 1854.59 -1767.21 1854.5 -1767.18 1854.39 -1766.02 1852.91 -1764.89 1851.42 -1764.79 1851.36 -1764.71 1851.26 -1619.07 1727.2 -1617.61 1726.38 -1616.2 1725.47 -1615.88 1725.41 -1615.59 1725.26 -1613.93 1725.06 -1612.28 1724.76 -1611.97 1724.83 -1611.64 1724.79 -1610.03 1725.25 -1608.39 1725.6 -1608.13 1725.79 -1607.82 1725.88 -1606.5 1726.92 -1605.13 1727.87 -1465.22 1872.6 -1465.12 1872.75 -1464.98 1872.86 -1464.05 1874.42 -1463.07 1875.94 -1463.04 1876.12 -1462.94 1876.28 -1462.68 1878.07 -1462.36 1879.86 -1462.4 1880.03 -1462.37 1880.22 -1462.89 1890.2 -1462.94 1890.38 -1462.92 1890.56 -1463.43 1892.3 -1463.87 1894.06 -1463.98 1894.2 -1464.03 1894.38 -1465.17 1895.79 -1466.25 1897.25 -1466.41 1897.34 -1466.52 1897.48 -1615.99 2022.86 -1617.51 2023.69 -1618.98 2024.6 -1619.24 2024.64 -1619.48 2024.77 -1621.2 2024.96 -1622.9 2025.23"/><path d="M -3098.39 1843 -3107.61 1843 -3116.51 1840.62 -3124.49 1836.01 -3131.01 1829.49 -3135.62 1821.51 -3138 1812.61 -3138 1803.39 -3135.62 1794.49 -3131.01 1786.51 -3124.49 1779.99 -3116.51 1775.39 -3107.61 1773 -3098.39 1773 -3089.49 1775.39 -3081.51 1779.99 -3074.99 1786.51 -3070.38 1794.49 -3068 1803.39 -3068 1812.61 -3070.38 1821.51 -3074.99 1829.49 -3081.51 1836.01 -3089.49 1840.62 -3098.39 1843"/><path d="M -2967.74 1847.92 -2978.26 1847.92 -2988.41 1845.2 -2997.51 1839.94 -3004.95 1832.51 -3010.2 1823.41 -3012.92 1813.26 -3012.92 1802.74 -3010.2 1792.59 -3004.95 1783.49 -2997.51 1776.05 -2988.41 1770.8 -2978.26 1768.08 -2967.74 1768.08 -2957.59 1770.8 -2948.49 1776.05 -2941.06 1783.49 -2935.8 1792.59 -2933.08 1802.74 -2933.08 1813.26 -2935.8 1823.41 -2941.06 1832.51 -2948.49 1839.94 -2957.59 1845.2 -2967.74 1847.92"/><path d="M -1838.39 1743 -1847.61 1743 -1856.51 1740.62 -1864.49 1736.01 -1871.01 1729.49 -1875.62 1721.51 -1878 1712.61 -1878 1703.39 -1875.62 1694.49 -1871.01 1686.51 -1864.49 1679.99 -1856.51 1675.38 -1847.61 1673 -1838.39 1673 -1829.49 1675.38 -1821.51 1679.99 -1814.99 1686.51 -1810.38 1694.49 -1808 1703.39 -1808 1712.61 -1810.38 1721.51 -1814.99 1729.49 -1821.51 1736.01 -1829.49 1740.62 -1838.39 1743"/><path d="M -3098.39 1743 -3107.61 1743 -3116.51 1740.62 -3124.49 1736.01 -3131.01 1729.49 -3135.62 1721.51 -3138 1712.61 -3138 1703.39 -3135.62 1694.49 -3131.01 1686.51 -3124.49 1679.99 -3116.51 1675.38 -3107.61 1673 -3098.39 1673 -3089.49 1675.38 -3081.51 1679.99 -3074.99 1686.51 -3070.38 1694.49 -3068 1703.39 -3068 1712.61 -3070.38 1721.51 -3074.99 1729.49 -3081.51 1736.01 -3089.49 1740.62 -3098.39 1743"/><path d="M -1967.74 1747.92 -1978.26 1747.92 -1988.41 1745.2 -1997.51 1739.95 -2004.95 1732.51 -2010.2 1723.41 -2012.92 1713.26 -2012.92 1702.74 -2010.2 1692.59 -2004.95 1683.49 -1997.51 1676.05 -1988.41 1670.8 -1978.26 1668.08 -1967.74 1668.08 -1957.59 1670.8 -1948.49 1676.05 -1941.06 1683.49 -1935.8 1692.59 -1933.08 1702.74 -1933.08 1713.26 -1935.8 1723.41 -1941.06 1732.51 -1948.49 1739.95 -1957.59 1745.2 -1967.74 1747.92"/><path d="M -2967.74 1747.92 -2978.26 1747.92 -2988.41 1745.2 -2997.51 1739.95 -3004.95 1732.51 -3010.2 1723.41 -3012.92 1713.26 -3012.92 1702.74 -3010.2 1692.59 -3004.95 1683.49 -2997.51 1676.05 -2988.41 1670.8 -2978.26 1668.08 -2967.74 1668.08 -2957.59 1670.8 -2948.49 1676.05 -2941.06 1683.49 -2935.8 1692.59 -2933.08 1702.74 -2933.08 1713.26 -2935.8 1723.41 -2941.06 1732.51 -2948.49 1739.95 -2957.59 1745.2 -2967.74 1747.92"/><path d="M -1838.39 1643 -1847.61 1643 -1856.51 1640.61 -1864.49 1636.01 -1871.01 1629.49 -1875.62 1621.51 -1878 1612.61 -1878 1603.39 -1875.62 1594.49 -1871.01 1586.51 -1864.49 1579.99 -1856.51 1575.38 -1847.61 1573 -1838.39 1573 -1829.49 1575.38 -1821.51 1579.99 -1814.99 1586.51 -1810.38 1594.49 -1808 1603.39 -1808 1612.61 -1810.38 1621.51 -1814.99 1629.49 -1821.51 1636.01 -1829.49 1640.61 -1838.39 1643"/><path d="M -3098.39 1643 -3107.61 1643 -3116.51 1640.61 -3124.49 1636.01 -3131.01 1629.49 -3135.62 1621.51 -3138 1612.61 -3138 1603.39 -3135.62 1594.49 -3131.01 1586.51 -3124.49 1579.99 -3116.51 1575.38 -3107.61 1573 -3098.39 1573 -3089.49 1575.38 -3081.51 1579.99 -3074.99 1586.51 -3070.38 1594.49 -3068 1603.39 -3068 1612.61 -3070.38 1621.51 -3074.99 1629.49 -3081.51 1636.01 -3089.49 1640.61 -3098.39 1643"/><path d="M -1967.74 1647.92 -1978.26 1647.92 -1988.41 1645.2 -1997.51 1639.95 -2004.95 1632.51 -2010.2 1623.41 -2012.92 1613.26 -2012.92 1602.74 -2010.2 1592.59 -2004.95 1583.49 -1997.51 1576.06 -1988.41 1570.8 -1978.26 1568.08 -1967.74 1568.08 -1957.59 1570.8 -1948.49 1576.06 -1941.06 1583.49 -1935.8 1592.59 -1933.08 1602.74 -1933.08 1613.26 -1935.8 1623.41 -1941.06 1632.51 -1948.49 1639.95 -1957.59 1645.2 -1967.74 1647.92"/><path d="M -2967.74 1647.92 -2978.26 1647.92 -2988.41 1645.2 -2997.51 1639.95 -3004.95 1632.51 -3010.2 1623.41 -3012.92 1613.26 -3012.92 1602.74 -3010.2 1592.59 -3004.95 1583.49 -2997.51 1576.06 -2988.41 1570.8 -2978.26 1568.08 -2967.74 1568.08 -2957.59 1570.8 -2948.49 1576.06 -2941.06 1583.49 -2935.8 1592.59 -2933.08 1602.74 -2933.08 1613.26 -2935.8 1623.41 -2941.06 1632.51 -2948.49 1639.95 -2957.59 1645.2 -2967.74 1647.92"/><path d="M -1838.39 1543 -1847.61 1543 -1856.51 1540.61 -1864.49 1536.01 -1871.01 1529.49 -1875.62 1521.51 -1878 1512.61 -1878 1503.39 -1875.62 1494.49 -1871.01 1486.51 -1864.49 1479.99 -1856.51 1475.38 -1847.61 1473 -1838.39 1473 -1829.49 1475.38 -1821.51 1479.99 -1814.99 1486.51 -1810.38 1494.49 -1808 1503.39 -1808 1512.61 -1810.38 1521.51 -1814.99 1529.49 -1821.51 1536.01 -1829.49 1540.61 -1838.39 1543"/><path d="M -3098.39 1543 -3107.61 1543 -3116.51 1540.61 -3124.49 1536.01 -3131.01 1529.49 -3135.62 1521.51 -3138 1512.61 -3138 1503.39 -3135.62 1494.49 -3131.01 1486.51 -3124.49 1479.99 -3116.51 1475.38 -3107.61 1473 -3098.39 1473 -3089.49 1475.38 -3081.51 1479.99 -3074.99 1486.51 -3070.38 1494.49 -3068 1503.39 -3068 1512.61 -3070.38 1521.51 -3074.99 1529.49 -3081.51 1536.01 -3089.49 1540.61 -3098.39 1543"/><path d="M -1967.74 1547.92 -1978.26 1547.92 -1988.41 1545.2 -1997.51 1539.95 -2004.95 1532.51 -2010.2 1523.41 -2012.92 1513.26 -2012.92 1502.74 -2010.2 1492.59 -2004.95 1483.49 -1997.51 1476.06 -1988.41 1470.8 -1978.26 1468.08 -1967.74 1468.08 -1957.59 1470.8 -1948.49 1476.06 -1941.06 1483.49 -1935.8 1492.59 -1933.08 1502.74 -1933.08 1513.26 -1935.8 1523.41 -1941.06 1532.51 -1948.49 1539.95 -1957.59 1545.2 -1967.74 1547.92"/><path d="M -2967.74 1547.92 -2978.26 1547.92 -2988.41 1545.2 -2997.51 1539.95 -3004.95 1532.51 -3010.2 1523.41 -3012.92 1513.26 -3012.92 1502.74 -3010.2 1492.59 -3004.95 1483.49 -2997.51 1476.06 -2988.41 1470.8 -2978.26 1468.08 -2967.74 1468.08 -2957.59 1470.8 -2948.49 1476.06 -2941.06 1483.49 -2935.8 1492.59 -2933.08 1502.74 -2933.08 1513.26 -2935.8 1523.41 -2941.06 1532.51 -2948.49 1539.95 -2957.59 1545.2 -2967.74 1547.92"/><path d="M -1838.39 1443 -1847.61 1443 -1856.51 1440.62 -1864.49 1436.01 -1871.01 1429.49 -1875.62 1421.51 -1878 1412.61 -1878 1403.39 -1875.62 1394.49 -1871.01 1386.51 -1864.49 1379.99 -1856.51 1375.39 -1847.61 1373 -1838.39 1373 -1829.49 1375.39 -1821.51 1379.99 -1814.99 1386.51 -1810.38 1394.49 -1808 1403.39 -1808 1412.61 -1810.38 1421.51 -1814.99 1429.49 -1821.51 1436.01 -1829.49 1440.62 -1838.39 1443"/><path d="M -3098.39 1443 -3107.61 1443 -3116.51 1440.62 -3124.49 1436.01 -3131.01 1429.49 -3135.62 1421.51 -3138 1412.61 -3138 1403.39 -3135.62 1394.49 -3131.01 1386.51 -3124.49 1379.99 -3116.51 1375.39 -3107.61 1373 -3098.39 1373 -3089.49 1375.39 -3081.51 1379.99 -3074.99 1386.51 -3070.38 1394.49 -3068 1403.39 -3068 1412.61 -3070.38 1421.51 -3074.99 1429.49 -3081.51 1436.01 -3089.49 1440.62 -3098.39 1443"/><path d="M -1967.74 1447.92 -1978.26 1447.92 -1988.41 1445.2 -1997.51 1439.94 -2004.95 1432.51 -2010.2 1423.41 -2012.92 1413.26 -2012.92 1402.74 -2010.2 1392.59 -2004.95 1383.49 -1997.51 1376.06 -1988.41 1370.8 -1978.26 1368.08 -1967.74 1368.08 -1957.59 1370.8 -1948.49 1376.06 -1941.06 1383.49 -1935.8 1392.59 -1933.08 1402.74 -1933.08 1413.26 -1935.8 1423.41 -1941.06 1432.51 -1948.49 1439.94 -1957.59 1445.2 -1967.74 1447.92"/><path d="M -2967.74 1447.92 -2978.26 1447.92 -2988.41 1445.2 -2997.51 1439.94 -3004.95 1432.51 -3010.2 1423.41 -3012.92 1413.26 -3012.92 1402.74 -3010.2 1392.59 -3004.95 1383.49 -2997.51 1376.06 -2988.41 1370.8 -2978.26 1368.08 -2967.74 1368.08 -2957.59 1370.8 -2948.49 1376.06 -2941.06 1383.49 -2935.8 1392.59 -2933.08 1402.74 -2933.08 1413.26 -2935.8 1423.41 -2941.06 1432.51 -2948.49 1439.94 -2957.59 1445.2 -2967.74 1447.92"/><path d="M -678.3 1421.35 -708.22 1421.35 -717.96 1419.41 -726.22 1413.89 -731.73 1405.64 -733.67 1395.9 -733.67 1365.98 -731.73 1356.24 -726.22 1347.98 -717.96 1342.46 -708.22 1340.53 -678.3 1340.53 -668.56 1342.46 -660.3 1347.98 -654.79 1356.24 -652.85 1365.98 -652.85 1395.9 -654.79 1405.64 -660.3 1413.89 -668.56 1419.41 -678.3 1421.35"/><path d="M -6.57 1446.74 -18.14 1446.74 -29.48 1444.49 -40.17 1440.06 -49.79 1433.63 -57.96 1425.46 -64.39 1415.84 -68.82 1405.15 -71.07 1393.81 -71.07 1382.24 -68.82 1370.9 -64.39 1360.21 -57.96 1350.59 -49.79 1342.41 -40.17 1335.99 -29.48 1331.56 -18.14 1329.3 -6.57 1329.3 4.77 1331.56 15.46 1335.99 25.08 1342.41 33.26 1350.59 39.68 1360.21 44.11 1370.9 46.37 1382.24 46.37 1393.81 44.11 1405.15 39.68 1415.84 33.26 1425.46 25.08 1433.63 15.46 1440.06 4.77 1444.49 -6.57 1446.74"/><path d="M -206.57 1446.74 -218.14 1446.74 -229.48 1444.49 -240.17 1440.06 -249.79 1433.63 -257.96 1425.46 -264.39 1415.84 -268.82 1405.15 -271.08 1393.81 -271.08 1382.24 -268.82 1370.9 -264.39 1360.21 -257.96 1350.59 -249.79 1342.41 -240.17 1335.99 -229.48 1331.56 -218.14 1329.3 -206.57 1329.3 -195.23 1331.56 -184.54 1335.99 -174.92 1342.41 -166.74 1350.59 -160.32 1360.21 -155.89 1370.9 -153.63 1382.24 -153.63 1393.81 -155.89 1405.15 -160.32 1415.84 -166.74 1425.46 -174.92 1433.63 -184.54 1440.06 -195.23 1444.49 -206.57 1446.74"/><path d="M -1645.39 1485 -1654.61 1485 -1663.51 1482.61 -1671.49 1478.01 -1678.01 1471.49 -1682.62 1463.51 -1685 1454.61 -1685 1445.39 -1682.62 1436.49 -1678.01 1428.51 -1671.49 1421.99 -1665.29 1418.41 -1665.29 1381.59 -1671.49 1378.01 -1678.01 1371.49 -1682.62 1363.51 -1685 1354.61 -1685 1345.39 -1682.62 1336.49 -1678.01 1328.51 -1671.49 1321.99 -1663.51 1317.38 -1654.61 1315 -1645.39 1315 -1636.49 1317.38 -1628.51 1321.99 -1621.99 1328.51 -1617.39 1336.49 -1615 1345.39 -1615 1354.61 -1617.39 1363.51 -1621.99 1371.49 -1628.51 1378.01 -1634.71 1381.59 -1634.71 1418.41 -1628.51 1421.99 -1621.99 1428.51 -1617.39 1436.49 -1615 1445.39 -1615 1454.61 -1617.39 1463.51 -1621.99 1471.49 -1628.51 1478.01 -1636.49 1482.61 -1645.39 1485"/><path d="M -1838.39 1343 -1847.61 1343 -1856.51 1340.62 -1864.49 1336.01 -1871.01 1329.49 -1875.62 1321.51 -1878 1312.61 -1878 1303.39 -1875.62 1294.49 -1871.01 1286.51 -1864.49 1279.99 -1856.51 1275.39 -1847.61 1273 -1838.39 1273 -1829.49 1275.39 -1821.51 1279.99 -1814.99 1286.51 -1810.38 1294.49 -1808 1303.39 -1808 1312.61 -1810.38 1321.51 -1814.99 1329.49 -1821.51 1336.01 -1829.49 1340.62 -1838.39 1343"/><path d="M -3098.39 1343 -3107.61 1343 -3116.51 1340.62 -3124.49 1336.01 -3131.01 1329.49 -3135.62 1321.51 -3138 1312.61 -3138 1303.39 -3135.62 1294.49 -3131.01 1286.51 -3124.49 1279.99 -3116.51 1275.39 -3107.61 1273 -3098.39 1273 -3089.49 1275.39 -3081.51 1279.99 -3074.99 1286.51 -3070.38 1294.49 -3068 1303.39 -3068 1312.61 -3070.38 1321.51 -3074.99 1329.49 -3081.51 1336.01 -3089.49 1340.62 -3098.39 1343"/><path d="M -1967.74 1347.92 -1978.26 1347.92 -1988.41 1345.2 -1997.51 1339.94 -2004.95 1332.51 -2010.2 1323.41 -2012.92 1313.26 -2012.92 1302.74 -2010.2 1292.59 -2004.95 1283.49 -1997.51 1276.05 -1988.41 1270.8 -1978.26 1268.08 -1967.74 1268.08 -1957.59 1270.8 -1948.49 1276.05 -1941.06 1283.49 -1935.8 1292.59 -1933.08 1302.74 -1933.08 1313.26 -1935.8 1323.41 -1941.06 1332.51 -1948.49 1339.94 -1957.59 1345.2 -1967.74 1347.92"/><path d="M -2967.74 1347.92 -2978.26 1347.92 -2988.41 1345.2 -2997.51 1339.94 -3004.95 1332.51 -3010.2 1323.41 -3012.92 1313.26 -3012.92 1302.74 -3010.2 1292.59 -3004.95 1283.49 -2997.51 1276.05 -2988.41 1270.8 -2978.26 1268.08 -2967.74 1268.08 -2957.59 1270.8 -2948.49 1276.05 -2941.06 1283.49 -2935.8 1292.59 -2933.08 1302.74 -2933.08 1313.26 -2935.8 1323.41 -2941.06 1332.51 -2948.49 1339.94 -2957.59 1345.2 -2967.74 1347.92"/><path d="M -688 1320.86 -698.51 1320.86 -708.67 1318.14 -717.77 1312.88 -725.21 1305.45 -730.46 1296.35 -733.18 1286.19 -733.18 1275.68 -730.46 1265.53 -725.21 1256.43 -717.77 1248.99 -708.67 1243.74 -698.51 1241.02 -688 1241.02 -677.85 1243.74 -668.75 1248.99 -661.32 1256.43 -656.06 1265.53 -653.34 1275.68 -653.34 1286.19 -656.06 1296.35 -661.32 1305.45 -668.75 1312.88 -677.85 1318.14 -688 1320.86"/><path d="M -1394.34 1320.86 -1404.85 1320.86 -1415.01 1318.14 -1424.11 1312.88 -1431.54 1305.45 -1436.8 1296.35 -1439.52 1286.19 -1439.52 1275.68 -1436.8 1265.53 -1431.54 1256.43 -1424.11 1248.99 -1415.01 1243.74 -1404.85 1241.02 -1394.34 1241.02 -1384.19 1243.74 -1375.09 1248.99 -1367.65 1256.43 -1362.4 1265.53 -1359.68 1275.68 -1359.68 1286.19 -1362.4 1296.35 -1367.65 1305.45 -1375.09 1312.88 -1384.19 1318.14 -1394.34 1320.86"/><path d="M -105.01 1343.79 -119.7 1343.79 -133.88 1339.99 -146.6 1332.65 -156.98 1322.27 -164.32 1309.55 -168.12 1295.37 -168.12 1280.68 -164.32 1266.5 -156.98 1253.78 -146.6 1243.4 -133.88 1236.06 -119.7 1232.26 -105.01 1232.26 -90.83 1236.06 -78.11 1243.4 -67.73 1253.78 -60.39 1266.5 -56.59 1280.68 -56.59 1295.37 -60.39 1309.55 -67.73 1322.27 -78.11 1332.65 -90.83 1339.99 -105.01 1343.79"/><path d="M -3098.39 1243 -3107.61 1243 -3116.51 1240.62 -3124.49 1236.01 -3131.01 1229.49 -3135.62 1221.51 -3138 1212.61 -3138 1203.39 -3135.62 1194.49 -3131.01 1186.51 -3124.49 1179.99 -3116.51 1175.38 -3107.61 1173 -3098.39 1173 -3089.49 1175.38 -3081.51 1179.99 -3074.99 1186.51 -3070.38 1194.49 -3068 1203.39 -3068 1212.61 -3070.38 1221.51 -3074.99 1229.49 -3081.51 1236.01 -3089.49 1240.62 -3098.39 1243"/><path d="M -2967.74 1247.92 -2978.26 1247.92 -2988.41 1245.2 -2997.51 1239.95 -3004.95 1232.51 -3010.2 1223.41 -3012.92 1213.26 -3012.92 1202.74 -3010.2 1192.59 -3004.95 1183.49 -2997.51 1176.05 -2988.41 1170.8 -2978.26 1168.08 -2967.74 1168.08 -2957.59 1170.8 -2948.49 1176.05 -2941.06 1183.49 -2935.8 1192.59 -2933.08 1202.74 -2933.08 1213.26 -2935.8 1223.41 -2941.06 1232.51 -2948.49 1239.95 -2957.59 1245.2 -2967.74 1247.92"/><path d="M -688 1220.86 -698.51 1220.86 -708.67 1218.14 -717.77 1212.88 -725.21 1205.45 -730.46 1196.35 -733.18 1186.19 -733.18 1175.68 -730.46 1165.53 -725.21 1156.42 -717.77 1148.99 -708.67 1143.74 -698.51 1141.02 -688 1141.02 -677.85 1143.74 -668.75 1148.99 -661.32 1156.42 -656.06 1165.53 -653.34 1175.68 -653.34 1186.19 -656.06 1196.35 -661.32 1205.45 -668.75 1212.88 -677.85 1218.14 -688 1220.86"/><path d="M -1394.34 1220.86 -1404.85 1220.86 -1415.01 1218.14 -1424.11 1212.88 -1431.54 1205.45 -1436.8 1196.35 -1439.52 1186.19 -1439.52 1175.68 -1436.8 1165.53 -1431.54 1156.42 -1424.11 1148.99 -1415.01 1143.74 -1404.85 1141.02 -1394.34 1141.02 -1384.19 1143.74 -1375.09 1148.99 -1367.65 1156.42 -1362.4 1165.53 -1359.68 1175.68 -1359.68 1186.19 -1362.4 1196.35 -1367.65 1205.45 -1375.09 1212.88 -1384.19 1218.14 -1394.34 1220.86"/><path d="M -6.57 1246.74 -18.14 1246.74 -29.48 1244.49 -40.17 1240.06 -49.79 1233.63 -57.96 1225.46 -64.39 1215.84 -68.82 1205.15 -71.07 1193.81 -71.07 1182.24 -68.82 1170.9 -64.39 1160.21 -57.96 1150.59 -49.79 1142.41 -40.17 1135.99 -29.48 1131.56 -18.14 1129.3 -6.57 1129.3 4.77 1131.56 15.46 1135.99 25.08 1142.41 33.26 1150.59 39.68 1160.21 44.11 1170.9 46.37 1182.24 46.37 1193.81 44.11 1205.15 39.68 1215.84 33.26 1225.46 25.08 1233.63 15.46 1240.06 4.77 1244.49 -6.57 1246.74"/><path d="M -206.57 1246.74 -218.14 1246.74 -229.48 1244.49 -240.17 1240.06 -249.79 1233.63 -257.96 1225.46 -264.39 1215.84 -268.82 1205.15 -271.08 1193.81 -271.08 1182.24 -268.82 1170.9 -264.39 1160.21 -257.96 1150.59 -249.79 1142.41 -240.17 1135.99 -229.48 1131.56 -218.14 1129.3 -206.57 1129.3 -195.23 1131.56 -184.54 1135.99 -174.92 1142.41 -166.74 1150.59 -160.32 1160.21 -155.89 1170.9 -153.63 1182.24 -153.63 1193.81 -155.89 1205.15 -160.32 1215.84 -166.74 1225.46 -174.92 1233.63 -184.54 1240.06 -195.23 1244.49 -206.57 1246.74"/><path d="M -1838.39 1143 -1847.61 1143 -1856.51 1140.61 -1864.49 1136.01 -1871.01 1129.49 -1875.62 1121.51 -1878 1112.61 -1878 1103.39 -1875.62 1094.49 -1871.01 1086.51 -1864.49 1079.99 -1856.51 1075.38 -1847.61 1073 -1838.39 1073 -1829.49 1075.38 -1821.51 1079.99 -1814.99 1086.51 -1810.38 1094.49 -1808 1103.39 -1808 1112.61 -1810.38 1121.51 -1814.99 1129.49 -1821.51 1136.01 -1829.49 1140.61 -1838.39 1143"/><path d="M -3098.39 1143 -3107.61 1143 -3116.51 1140.61 -3124.49 1136.01 -3131.01 1129.49 -3135.62 1121.51 -3138 1112.61 -3138 1103.39 -3135.62 1094.49 -3131.01 1086.51 -3124.49 1079.99 -3116.51 1075.38 -3107.61 1073 -3098.39 1073 -3089.49 1075.38 -3081.51 1079.99 -3074.99 1086.51 -3070.38 1094.49 -3068 1103.39 -3068 1112.61 -3070.38 1121.51 -3074.99 1129.49 -3081.51 1136.01 -3089.49 1140.61 -3098.39 1143"/><path d="M -1967.74 1147.92 -1978.26 1147.92 -1988.41 1145.2 -1997.51 1139.95 -2004.95 1132.51 -2010.2 1123.41 -2012.92 1113.26 -2012.92 1102.74 -2010.2 1092.59 -2004.95 1083.49 -1997.51 1076.06 -1988.41 1070.8 -1978.26 1068.08 -1967.74 1068.08 -1957.59 1070.8 -1948.49 1076.06 -1941.06 1083.49 -1935.8 1092.59 -1933.08 1102.74 -1933.08 1113.26 -1935.8 1123.41 -1941.06 1132.51 -1948.49 1139.95 -1957.59 1145.2 -1967.74 1147.92"/><path d="M -2967.74 1147.92 -2978.26 1147.92 -2988.41 1145.2 -2997.51 1139.95 -3004.95 1132.51 -3010.2 1123.41 -3012.92 1113.26 -3012.92 1102.74 -3010.2 1092.59 -3004.95 1083.49 -2997.51 1076.06 -2988.41 1070.8 -2978.26 1068.08 -2967.74 1068.08 -2957.59 1070.8 -2948.49 1076.06 -2941.06 1083.49 -2935.8 1092.59 -2933.08 1102.74 -2933.08 1113.26 -2935.8 1123.41 -2941.06 1132.51 -2948.49 1139.95 -2957.59 1145.2 -2967.74 1147.92"/><path d="M -1230.39 1130 -1239.61 1130 -1248.51 1127.61 -1256.49 1123.01 -1263.01 1116.49 -1267.61 1108.51 -1270 1099.61 -1270 1090.39 -1268.68 1085.45 -1336.51 1017.62 -1345.39 1020 -1354.61 1020 -1363.51 1017.61 -1371.49 1013.01 -1378.01 1006.49 -1382.61 998.51 -1385 989.61 -1385 980.39 -1382.61 971.49 -1378.01 963.51 -1371.49 956.99 -1363.51 952.39 -1354.61 950 -1345.39 950 -1336.49 952.39 -1336.42 952.43 -1335.49 952.02 -1328.42 945.5 -1330 939.61 -1330 930.39 -1327.62 921.49 -1323.01 913.51 -1316.49 906.99 -1308.51 902.38 -1299.61 900 -1290.39 900 -1281.49 902.38 -1273.51 906.99 -1266.99 913.51 -1262.39 921.49 -1260 930.39 -1260 939.61 -1260.79 942.58 -1190.08 1013.29 -1188.51 1012.39 -1179.61 1010 -1170.39 1010 -1161.49 1012.39 -1153.51 1016.99 -1146.99 1023.51 -1142.39 1031.49 -1140 1040.39 -1140 1049.61 -1142.39 1058.51 -1146.99 1066.49 -1153.51 1073.01 -1161.49 1077.62 -1170.39 1080 -1179.61 1080 -1188.51 1077.62 -1195.36 1073.66 -1196.12 1073.97 -1202.38 1081.49 -1200 1090.39 -1200 1099.61 -1202.38 1108.51 -1206.99 1116.49 -1213.51 1123.01 -1221.49 1127.61 -1230.39 1130"/><path d="M -1838.39 1043 -1847.61 1043 -1856.51 1040.61 -1864.49 1036.01 -1871.01 1029.49 -1875.62 1021.51 -1878 1012.61 -1878 1003.39 -1875.62 994.49 -1871.01 986.51 -1864.49 979.99 -1856.51 975.39 -1847.61 973 -1838.39 973 -1829.49 975.39 -1821.51 979.99 -1814.99 986.51 -1810.38 994.49 -1808 1003.39 -1808 1012.61 -1810.38 1021.51 -1814.99 1029.49 -1821.51 1036.01 -1829.49 1040.61 -1838.39 1043"/><path d="M -3098.39 1043 -3107.61 1043 -3116.51 1040.61 -3124.49 1036.01 -3131.01 1029.49 -3135.62 1021.51 -3138 1012.61 -3138 1003.39 -3135.62 994.49 -3131.01 986.51 -3124.49 979.99 -3116.51 975.39 -3107.61 973 -3098.39 973 -3089.49 975.39 -3081.51 979.99 -3074.99 986.51 -3070.38 994.49 -3068 1003.39 -3068 1012.61 -3070.38 1021.51 -3074.99 1029.49 -3081.51 1036.01 -3089.49 1040.61 -3098.39 1043"/><path d="M -1967.74 1047.92 -1978.26 1047.92 -1988.41 1045.2 -1997.51 1039.95 -2004.95 1032.51 -2010.2 1023.41 -2012.92 1013.26 -2012.92 1002.74 -2010.2 992.59 -2004.95 983.49 -1997.51 976.06 -1988.41 970.8 -1978.26 968.08 -1967.74 968.08 -1957.59 970.8 -1948.49 976.06 -1941.06 983.49 -1935.8 992.59 -1933.08 1002.74 -1933.08 1013.26 -1935.8 1023.41 -1941.06 1032.51 -1948.49 1039.95 -1957.59 1045.2 -1967.74 1047.92"/><path d="M -2967.74 1047.92 -2978.26 1047.92 -2988.41 1045.2 -2997.51 1039.95 -3004.95 1032.51 -3010.2 1023.41 -3012.92 1013.26 -3012.92 1002.74 -3010.2 992.59 -3004.95 983.49 -2997.51 976.06 -2988.41 970.8 -2978.26 968.08 -2967.74 968.08 -2957.59 970.8 -2948.49 976.06 -2941.06 983.49 -2935.8 992.59 -2933.08 1002.74 -2933.08 1013.26 -2935.8 1023.41 -2941.06 1032.51 -2948.49 1039.95 -2957.59 1045.2 -2967.74 1047.92"/><path d="M -1838.39 943 -1847.61 943 -1856.51 940.61 -1864.49 936.01 -1871.01 929.49 -1875.62 921.51 -1878 912.61 -1878 903.39 -1875.62 894.49 -1871.01 886.51 -1864.49 879.99 -1856.51 875.38 -1847.61 873 -1838.39 873 -1829.49 875.38 -1821.51 879.99 -1814.99 886.51 -1810.38 894.49 -1808 903.39 -1808 912.61 -1810.38 921.51 -1814.99 929.49 -1821.51 936.01 -1829.49 940.61 -1838.39 943"/><path d="M -3098.39 943 -3107.61 943 -3116.51 940.61 -3124.49 936.01 -3131.01 929.49 -3135.62 921.51 -3138 912.61 -3138 903.39 -3135.62 894.49 -3131.01 886.51 -3124.49 879.99 -3116.51 875.38 -3107.61 873 -3098.39 873 -3089.49 875.38 -3081.51 879.99 -3074.99 886.51 -3070.38 894.49 -3068 903.39 -3068 912.61 -3070.38 921.51 -3074.99 929.49 -3081.51 936.01 -3089.49 940.61 -3098.39 943"/><path d="M -1967.74 947.92 -1978.26 947.92 -1988.41 945.2 -1997.51 939.94 -2004.95 932.51 -2010.2 923.41 -2012.92 913.26 -2012.92 902.74 -2010.2 892.59 -2004.95 883.49 -1997.51 876.06 -1988.41 870.8 -1978.26 868.08 -1967.74 868.08 -1957.59 870.8 -1948.49 876.06 -1941.06 883.49 -1935.8 892.59 -1933.08 902.74 -1933.08 913.26 -1935.8 923.41 -1941.06 932.51 -1948.49 939.94 -1957.59 945.2 -1967.74 947.92"/><path d="M -2967.74 947.92 -2978.26 947.92 -2988.41 945.2 -2997.51 939.94 -3004.95 932.51 -3010.2 923.41 -3012.92 913.26 -3012.92 902.74 -3010.2 892.59 -3004.95 883.49 -2997.51 876.06 -2988.41 870.8 -2978.26 868.08 -2967.74 868.08 -2957.59 870.8 -2948.49 876.06 -2941.06 883.49 -2935.8 892.59 -2933.08 902.74 -2933.08 913.26 -2935.8 923.41 -2941.06 932.51 -2948.49 939.94 -2957.59 945.2 -2967.74 947.92"/><path d="M -1838.39 843 -1847.61 843 -1856.51 840.61 -1864.49 836.01 -1871.01 829.49 -1875.62 821.51 -1878 812.61 -1878 803.39 -1875.62 794.49 -1871.01 786.51 -1864.49 779.99 -1856.51 775.39 -1847.61 773 -1838.39 773 -1829.49 775.39 -1821.51 779.99 -1814.99 786.51 -1810.38 794.49 -1808 803.39 -1808 812.61 -1810.38 821.51 -1814.99 829.49 -1821.51 836.01 -1829.49 840.61 -1838.39 843"/><path d="M -3098.39 843 -3107.61 843 -3116.51 840.61 -3124.49 836.01 -3131.01 829.49 -3135.62 821.51 -3138 812.61 -3138 803.39 -3135.62 794.49 -3131.01 786.51 -3124.49 779.99 -3116.51 775.39 -3107.61 773 -3098.39 773 -3089.49 775.39 -3081.51 779.99 -3074.99 786.51 -3070.38 794.49 -3068 803.39 -3068 812.61 -3070.38 821.51 -3074.99 829.49 -3081.51 836.01 -3089.49 840.61 -3098.39 843"/><path d="M -1967.74 847.92 -1978.26 847.92 -1988.41 845.2 -1997.51 839.95 -2004.95 832.51 -2010.2 823.41 -2012.92 813.26 -2012.92 802.74 -2010.2 792.59 -2004.95 783.49 -1997.51 776.05 -1988.41 770.8 -1978.26 768.08 -1967.74 768.08 -1957.59 770.8 -1948.49 776.05 -1941.06 783.49 -1935.8 792.59 -1933.08 802.74 -1933.08 813.26 -1935.8 823.41 -1941.06 832.51 -1948.49 839.95 -1957.59 845.2 -1967.74 847.92"/><path d="M -2967.74 847.92 -2978.26 847.92 -2988.41 845.2 -2997.51 839.95 -3004.95 832.51 -3010.2 823.41 -3012.92 813.26 -3012.92 802.74 -3010.2 792.59 -3004.95 783.49 -2997.51 776.05 -2988.41 770.8 -2978.26 768.08 -2967.74 768.08 -2957.59 770.8 -2948.49 776.05 -2941.06 783.49 -2935.8 792.59 -2933.08 802.74 -2933.08 813.26 -2935.8 823.41 -2941.06 832.51 -2948.49 839.95 -2957.59 845.2 -2967.74 847.92"/><path d="M -2276 995.2 -2676 995.2 -2679.9 994.42 -2683.21 992.21 -2685.42 988.9 -2686.2 985 -2686.2 735 -2685.42 731.1 -2683.21 727.79 -2679.9 725.58 -2676 724.8 -2276 724.8 -2272.1 725.58 -2268.79 727.79 -2266.58 731.1 -2265.8 735 -2265.8 985 -2266.58 988.9 -2268.79 992.21 -2272.1 994.42 -2276 995.2"/><path d="M -1838.39 743 -1847.61 743 -1856.51 740.62 -1864.49 736.01 -1871.01 729.49 -1875.62 721.51 -1878 712.61 -1878 703.39 -1875.62 694.49 -1871.01 686.51 -1864.49 679.99 -1856.51 675.38 -1847.61 673 -1838.39 673 -1829.49 675.38 -1821.51 679.99 -1814.99 686.51 -1810.38 694.49 -1808 703.39 -1808 712.61 -1810.38 721.51 -1814.99 729.49 -1821.51 736.01 -1829.49 740.62 -1838.39 743"/><path d="M -3098.39 743 -3107.61 743 -3116.51 740.62 -3124.49 736.01 -3131.01 729.49 -3135.62 721.51 -3138 712.61 -3138 703.39 -3135.62 694.49 -3131.01 686.51 -3124.49 679.99 -3116.51 675.38 -3107.61 673 -3098.39 673 -3089.49 675.38 -3081.51 679.99 -3074.99 686.51 -3070.38 694.49 -3068 703.39 -3068 712.61 -3070.38 721.51 -3074.99 729.49 -3081.51 736.01 -3089.49 740.62 -3098.39 743"/><path d="M -1967.74 747.92 -1978.26 747.92 -1988.41 745.2 -1997.51 739.94 -2004.95 732.51 -2010.2 723.41 -2012.92 713.26 -2012.92 702.74 -2010.2 692.59 -2004.95 683.49 -1997.51 676.06 -1988.41 670.8 -1978.26 668.08 -1967.74 668.08 -1957.59 670.8 -1948.49 676.06 -1941.06 683.49 -1935.8 692.59 -1933.08 702.74 -1933.08 713.26 -1935.8 723.41 -1941.06 732.51 -1948.49 739.94 -1957.59 745.2 -1967.74 747.92"/><path d="M -2967.74 747.92 -2978.26 747.92 -2988.41 745.2 -2997.51 739.94 -3004.95 732.51 -3010.2 723.41 -3012.92 713.26 -3012.92 702.74 -3010.2 692.59 -3004.95 683.49 -2997.51 676.06 -2988.41 670.8 -2978.26 668.08 -2967.74 668.08 -2957.59 670.8 -2948.49 676.06 -2941.06 683.49 -2935.8 692.59 -2933.08 702.74 -2933.08 713.26 -2935.8 723.41 -2941.06 732.51 -2948.49 739.94 -2957.59 745.2 -2967.74 747.92"/><path d="M -1838.39 643 -1847.61 643 -1856.51 640.61 -1864.49 636.01 -1871.01 629.49 -1875.62 621.51 -1878 612.61 -1878 603.39 -1875.62 594.49 -1871.01 586.51 -1864.49 579.99 -1856.51 575.38 -1847.61 573 -1838.39 573 -1829.49 575.38 -1821.51 579.99 -1814.99 586.51 -1810.38 594.49 -1808 603.39 -1808 612.61 -1810.38 621.51 -1814.99 629.49 -1821.51 636.01 -1829.49 640.61 -1838.39 643"/><path d="M -3098.39 643 -3107.61 643 -3116.51 640.61 -3124.49 636.01 -3131.01 629.49 -3135.62 621.51 -3138 612.61 -3138 603.39 -3135.62 594.49 -3131.01 586.51 -3124.49 579.99 -3116.51 575.38 -3107.61 573 -3098.39 573 -3089.49 575.38 -3081.51 579.99 -3074.99 586.51 -3070.38 594.49 -3068 603.39 -3068 612.61 -3070.38 621.51 -3074.99 629.49 -3081.51 636.01 -3089.49 640.61 -3098.39 643"/><path d="M -1967.74 647.92 -1978.26 647.92 -1988.41 645.2 -1997.51 639.94 -2004.95 632.51 -2010.2 623.41 -2012.92 613.26 -2012.92 602.74 -2010.2 592.59 -2004.95 583.49 -1997.51 576.05 -1988.41 570.8 -1978.26 568.08 -1967.74 568.08 -1957.59 570.8 -1948.49 576.05 -1941.06 583.49 -1935.8 592.59 -1933.08 602.74 -1933.08 613.26 -1935.8 623.41 -1941.06 632.51 -1948.49 639.94 -1957.59 645.2 -1967.74 647.92"/><path d="M -2967.74 647.92 -2978.26 647.92 -2988.41 645.2 -2997.51 639.94 -3004.95 632.51 -3010.2 623.41 -3012.92 613.26 -3012.92 602.74 -3010.2 592.59 -3004.95 583.49 -2997.51 576.05 -2988.41 570.8 -2978.26 568.08 -2967.74 568.08 -2957.59 570.8 -2948.49 576.05 -2941.06 583.49 -2935.8 592.59 -2933.08 602.74 -2933.08 613.26 -2935.8 623.41 -2941.06 632.51 -2948.49 639.94 -2957.59 645.2 -2967.74 647.92"/><path d="M -1838.39 543 -1847.61 543 -1856.51 540.62 -1864.49 536.01 -1871.01 529.49 -1875.62 521.51 -1878 512.61 -1878 503.39 -1875.62 494.49 -1871.01 486.51 -1864.49 479.99 -1856.51 475.39 -1847.61 473 -1838.39 473 -1829.49 475.39 -1821.51 479.99 -1814.99 486.51 -1810.38 494.49 -1808 503.39 -1808 512.61 -1810.38 521.51 -1814.99 529.49 -1821.51 536.01 -1829.49 540.62 -1838.39 543"/><path d="M -1967.74 547.92 -1978.26 547.92 -1988.41 545.2 -1997.51 539.95 -2004.95 532.51 -2010.2 523.41 -2012.92 513.26 -2012.92 502.74 -2010.2 492.59 -2004.95 483.49 -1997.51 476.05 -1988.41 470.8 -1978.26 468.08 -1967.74 468.08 -1957.59 470.8 -1948.49 476.05 -1941.06 483.49 -1935.8 492.59 -1933.08 502.74 -1933.08 513.26 -1935.8 523.41 -1941.06 532.51 -1948.49 539.95 -1957.59 545.2 -1967.74 547.92"/><path d="M -1838.39 443 -1847.61 443 -1856.51 440.61 -1864.49 436.01 -1871.01 429.49 -1875.62 421.51 -1878 412.61 -1878 403.39 -1875.62 394.49 -1871.01 386.51 -1864.49 379.99 -1856.51 375.38 -1847.61 373 -1838.39 373 -1829.49 375.38 -1821.51 379.99 -1814.99 386.51 -1810.38 394.49 -1808 403.39 -1808 412.61 -1810.38 421.51 -1814.99 429.49 -1821.51 436.01 -1829.49 440.61 -1838.39 443"/><path d="M -3098.39 443 -3107.61 443 -3116.51 440.61 -3124.49 436.01 -3131.01 429.49 -3135.62 421.51 -3138 412.61 -3138 403.39 -3135.62 394.49 -3131.01 386.51 -3124.49 379.99 -3116.51 375.38 -3107.61 373 -3098.39 373 -3089.49 375.38 -3081.51 379.99 -3074.99 386.51 -3070.38 394.49 -3068 403.39 -3068 412.61 -3070.38 421.51 -3074.99 429.49 -3081.51 436.01 -3089.49 440.61 -3098.39 443"/><path d="M -1967.74 447.92 -1978.26 447.92 -1988.41 445.2 -1997.51 439.95 -2004.95 432.51 -2010.2 423.41 -2012.92 413.26 -2012.92 402.74 -2010.2 392.59 -2004.95 383.49 -1997.51 376.06 -1988.41 370.8 -1978.26 368.08 -1967.74 368.08 -1957.59 370.8 -1948.49 376.06 -1941.06 383.49 -1935.8 392.59 -1933.08 402.74 -1933.08 413.26 -1935.8 423.41 -1941.06 432.51 -1948.49 439.95 -1957.59 445.2 -1967.74 447.92"/><path d="M -2967.74 447.92 -2978.26 447.92 -2988.41 445.2 -2997.51 439.95 -3004.95 432.51 -3010.2 423.41 -3012.92 413.26 -3012.92 402.74 -3010.2 392.59 -3004.95 383.49 -2997.51 376.06 -2988.41 370.8 -2978.26 368.08 -2967.74 368.08 -2957.59 370.8 -2948.49 376.06 -2941.06 383.49 -2935.8 392.59 -2933.08 402.74 -2933.08 413.26 -2935.8 423.41 -2941.06 432.51 -2948.49 439.95 -2957.59 445.2 -2967.74 447.92"/><path d="M -1838.39 343 -1847.61 343 -1856.51 340.62 -1864.49 336.01 -1871.01 329.49 -1875.62 321.51 -1878 312.61 -1878 303.39 -1875.62 294.49 -1871.01 286.51 -1864.49 279.99 -1856.51 275.38 -1847.61 273 -1838.39 273 -1829.49 275.38 -1821.51 279.99 -1814.99 286.51 -1810.38 294.49 -1808 303.39 -1808 312.61 -1810.38 321.51 -1814.99 329.49 -1821.51 336.01 -1829.49 340.62 -1838.39 343"/><path d="M -3098.39 343 -3107.61 343 -3116.51 340.62 -3124.49 336.01 -3131.01 329.49 -3135.62 321.51 -3138 312.61 -3138 303.39 -3135.62 294.49 -3131.01 286.51 -3124.49 279.99 -3116.51 275.38 -3107.61 273 -3098.39 273 -3089.49 275.38 -3081.51 279.99 -3074.99 286.51 -3070.38 294.49 -3068 303.39 -3068 312.61 -3070.38 321.51 -3074.99 329.49 -3081.51 336.01 -3089.49 340.62 -3098.39 343"/><path d="M -1967.74 347.92 -1978.26 347.92 -1988.41 345.2 -1997.51 339.94 -2004.95 332.51 -2010.2 323.41 -2012.92 313.26 -2012.92 302.74 -2010.2 292.59 -2004.95 283.49 -1997.51 276.06 -1988.41 270.8 -1978.26 268.08 -1967.74 268.08 -1957.59 270.8 -1948.49 276.06 -1941.06 283.49 -1935.8 292.59 -1933.08 302.74 -1933.08 313.26 -1935.8 323.41 -1941.06 332.51 -1948.49 339.94 -1957.59 345.2 -1967.74 347.92"/><path d="M -2967.74 347.92 -2978.26 347.92 -2988.41 345.2 -2997.51 339.94 -3004.95 332.51 -3010.2 323.41 -3012.92 313.26 -3012.92 302.74 -3010.2 292.59 -3004.95 283.49 -2997.51 276.06 -2988.41 270.8 -2978.26 268.08 -2967.74 268.08 -2957.59 270.8 -2948.49 276.06 -2941.06 283.49 -2935.8 292.59 -2933.08 302.74 -2933.08 313.26 -2935.8 323.41 -2941.06 332.51 -2948.49 339.94 -2957.59 345.2 -2967.74 347.92"/><path d="M -3098.39 243 -3107.61 243 -3116.51 240.61 -3124.49 236.01 -3131.01 229.49 -3135.62 221.51 -3138 212.61 -3138 203.39 -3135.62 194.49 -3131.01 186.51 -3124.49 179.99 -3116.51 175.38 -3107.61 173 -3098.39 173 -3089.49 175.38 -3081.51 179.99 -3074.99 186.51 -3070.38 194.49 -3068 203.39 -3068 212.61 -3070.38 221.51 -3074.99 229.49 -3081.51 236.01 -3089.49 240.61 -3098.39 243"/><path d="M -2967.74 247.92 -2978.26 247.92 -2988.41 245.2 -2997.51 239.94 -3004.95 232.51 -3010.2 223.41 -3012.92 213.26 -3012.92 202.74 -3010.2 192.59 -3004.95 183.49 -2997.51 176.05 -2988.41 170.8 -2978.26 168.08 -2967.74 168.08 -2957.59 170.8 -2948.49 176.05 -2941.06 183.49 -2935.8 192.59 -2933.08 202.74 -2933.08 213.26 -2935.8 223.41 -2941.06 232.51 -2948.49 239.94 -2957.59 245.2 -2967.74 247.92"/><path d="M -3098.39 143 -3107.61 143 -3116.51 140.62 -3124.49 136.01 -3131.01 129.49 -3135.62 121.51 -3138 112.61 -3138 103.39 -3135.62 94.49 -3131.01 86.51 -3124.49 79.99 -3116.51 75.38 -3107.61 73 -3098.39 73 -3089.49 75.38 -3081.51 79.99 -3074.99 86.51 -3070.38 94.49 -3068 103.39 -3068 112.61 -3070.38 121.51 -3074.99 129.49 -3081.51 136.01 -3089.49 140.62 -3098.39 143"/><path d="M -2967.74 147.92 -2978.26 147.92 -2988.41 145.2 -2997.51 139.95 -3004.95 132.51 -3010.2 123.41 -3012.92 113.26 -3012.92 102.74 -3010.2 92.59 -3004.95 83.49 -2997.51 76.05 -2988.41 70.8 -2978.26 68.08 -2967.74 68.08 -2957.59 70.8 -2948.49 76.05 -2941.06 83.49 -2935.8 92.59 -2933.08 102.74 -2933.08 113.26 -2935.8 123.41 -2941.06 132.51 -2948.49 139.95 -2957.59 145.2 -2967.74 147.92"/><path d="M -3098.39 43 -3107.61 43 -3116.51 40.61 -3124.49 36.01 -3131.01 29.49 -3135.62 21.51 -3138 12.61 -3138 3.39 -3135.62 -5.51 -3131.01 -13.49 -3124.49 -20.01 -3116.51 -24.61 -3107.61 -27 -3098.39 -27 -3089.49 -24.61 -3081.51 -20.01 -3074.99 -13.49 -3070.38 -5.51 -3068 3.39 -3068 12.61 -3070.38 21.51 -3074.99 29.49 -3081.51 36.01 -3089.49 40.61 -3098.39 43"/><path d="M -2967.74 47.92 -2978.26 47.92 -2988.41 45.2 -2997.51 39.94 -3004.95 32.51 -3010.2 23.41 -3012.92 13.26 -3012.92 2.74 -3010.2 -7.41 -3004.95 -16.51 -2997.51 -23.95 -2988.41 -29.2 -2978.26 -31.92 -2967.74 -31.92 -2957.59 -29.2 -2948.49 -23.95 -2941.06 -16.51 -2935.8 -7.41 -2933.08 2.74 -2933.08 13.26 -2935.8 23.41 -2941.06 32.51 -2948.49 39.94 -2957.59 45.2 -2967.74 47.92"/><path d="M -3300 121.44 -3319 119.94 -3337.53 115.5 -3355.13 108.2 -3371.38 98.25 -3385.87 85.87 -3398.25 71.38 -3408.2 55.13 -3415.5 37.53 -3419.95 19 -3421.44 0 -3419.95 -19 -3415.5 -37.53 -3408.2 -55.13 -3398.25 -71.38 -3385.87 -85.87 -3371.38 -98.25 -3355.13 -108.2 -3337.53 -115.5 -3319 -119.94 -3300 -121.44 -3281 -119.94 -3262.47 -115.5 -3244.87 -108.2 -3228.62 -98.25 -3214.13 -85.87 -3201.75 -71.38 -3191.8 -55.13 -3184.5 -37.53 -3180.05 -19 -3178.56 0 -3180.05 19 -3184.5 37.53 -3191.8 55.13 -3201.75 71.38 -3214.13 85.87 -3228.62 98.25 -3244.87 108.2 -3262.47 115.5 -3281 119.94 -3300 121.44"/><path d="M -3098.39 -57 -3107.61 -57 -3116.51 -59.39 -3124.49 -63.99 -3131.01 -70.51 -3135.62 -78.49 -3138 -87.39 -3138 -96.61 -3135.62 -105.51 -3131.01 -113.49 -3124.49 -120.01 -3116.51 -124.61 -3107.61 -127 -3098.39 -127 -3089.49 -124.61 -3081.51 -120.01 -3074.99 -113.49 -3070.38 -105.51 -3068 -96.61 -3068 -87.39 -3070.38 -78.49 -3074.99 -70.51 -3081.51 -63.99 -3089.49 -59.39 -3098.39 -57"/><path d="M -2958.04 -51.59 -2987.96 -51.59 -2997.7 -53.53 -3005.96 -59.04 -3011.47 -67.3 -3013.41 -77.04 -3013.41 -106.96 -3011.47 -116.7 -3005.96 -124.96 -2997.7 -130.47 -2987.96 -132.41 -2958.04 -132.41 -2948.3 -130.47 -2940.04 -124.96 -2934.53 -116.7 -2932.59 -106.96 -2932.59 -77.04 -2934.53 -67.3 -2940.04 -59.04 -2948.3 -53.53 -2958.04 -51.59"/></g></mask><mask id="l0tcezsdgx8jgU65NBfX_clear-2" fill="#000" stroke="#000"><g><rect x="-3485.3" y="-180.18" width="3669.82" height="2969.81" fill="#fff"/><path d="M -678.3 535.7 -708.22 535.7 -717.96 533.76 -726.22 528.24 -731.73 519.99 -733.67 510.25 -733.67 480.33 -731.73 470.59 -726.22 462.33 -717.96 456.81 -708.22 454.88 -678.3 454.88 -668.56 456.81 -660.3 462.33 -654.79 470.59 -652.85 480.33 -652.85 510.25 -654.79 519.99 -660.3 528.24 -668.56 533.76 -678.3 535.7"/><path d="M -6.57 561.09 -18.14 561.09 -29.48 558.84 -40.17 554.41 -49.79 547.99 -57.96 539.81 -64.39 530.19 -68.82 519.5 -71.07 508.16 -71.07 496.59 -68.82 485.25 -64.39 474.56 -57.96 464.94 -49.79 456.76 -40.17 450.34 -29.48 445.91 -18.14 443.65 -6.57 443.65 4.77 445.91 15.46 450.34 25.08 456.76 33.26 464.94 39.68 474.56 44.11 485.25 46.37 496.59 46.37 508.16 44.11 519.5 39.68 530.19 33.26 539.81 25.08 547.99 15.46 554.41 4.77 558.84 -6.57 561.09"/><path d="M -206.57 561.09 -218.14 561.09 -229.48 558.84 -240.17 554.41 -249.79 547.99 -257.96 539.81 -264.39 530.19 -268.82 519.5 -271.08 508.16 -271.08 496.59 -268.82 485.25 -264.39 474.56 -257.96 464.94 -249.79 456.76 -240.17 450.34 -229.48 445.91 -218.14 443.65 -206.57 443.65 -195.23 445.91 -184.54 450.34 -174.92 456.76 -166.74 464.94 -160.32 474.56 -155.89 485.25 -153.63 496.59 -153.63 508.16 -155.89 519.5 -160.32 530.19 -166.74 539.81 -174.92 547.99 -184.54 554.41 -195.23 558.84 -206.57 561.09"/><path d="M -688 435.21 -698.51 435.21 -708.67 432.49 -717.77 427.23 -725.21 419.8 -730.46 410.7 -733.18 400.54 -733.18 390.03 -730.46 379.88 -725.21 370.78 -717.77 363.34 -708.67 358.09 -698.51 355.37 -688 355.37 -677.85 358.09 -668.75 363.34 -661.32 370.78 -656.06 379.88 -653.34 390.03 -653.34 400.54 -656.06 410.7 -661.32 419.8 -668.75 427.23 -677.85 432.49 -688 435.21"/><path d="M -1394.34 435.21 -1404.85 435.21 -1415.01 432.49 -1424.11 427.23 -1431.54 419.8 -1436.8 410.7 -1439.52 400.54 -1439.52 390.03 -1436.8 379.88 -1431.54 370.78 -1424.11 363.34 -1415.01 358.09 -1404.85 355.37 -1394.34 355.37 -1384.19 358.09 -1375.09 363.34 -1367.65 370.78 -1362.4 379.88 -1359.68 390.03 -1359.68 400.54 -1362.4 410.7 -1367.65 419.8 -1375.09 427.23 -1384.19 432.49 -1394.34 435.21"/><path d="M -105.01 458.14 -119.7 458.14 -133.88 454.34 -146.6 447 -156.98 436.62 -164.32 423.9 -168.12 409.72 -168.12 395.03 -164.32 380.85 -156.98 368.13 -146.6 357.75 -133.88 350.41 -119.7 346.61 -105.01 346.61 -90.83 350.41 -78.11 357.75 -67.73 368.13 -60.39 380.85 -56.59 395.03 -56.59 409.72 -60.39 423.9 -67.73 436.62 -78.11 447 -90.83 454.34 -105.01 458.14"/><path d="M -688 335.21 -698.51 335.21 -708.67 332.49 -717.77 327.23 -725.21 319.8 -730.46 310.7 -733.18 300.54 -733.18 290.03 -730.46 279.88 -725.21 270.77 -717.77 263.34 -708.67 258.09 -698.51 255.37 -688 255.37 -677.85 258.09 -668.75 263.34 -661.32 270.77 -656.06 279.88 -653.34 290.03 -653.34 300.54 -656.06 310.7 -661.32 319.8 -668.75 327.23 -677.85 332.49 -688 335.21"/><path d="M -1394.34 335.21 -1404.85 335.21 -1415.01 332.49 -1424.11 327.23 -1431.54 319.8 -1436.8 310.7 -1439.52 300.54 -1439.52 290.03 -1436.8 279.88 -1431.54 270.77 -1424.11 263.34 -1415.01 258.09 -1404.85 255.37 -1394.34 255.37 -1384.19 258.09 -1375.09 263.34 -1367.65 270.77 -1362.4 279.88 -1359.68 290.03 -1359.68 300.54 -1362.4 310.7 -1367.65 319.8 -1375.09 327.23 -1384.19 332.49 -1394.34 335.21"/><path d="M -6.57 361.09 -18.14 361.09 -29.48 358.84 -40.17 354.41 -49.79 347.98 -57.96 339.81 -64.39 330.19 -68.82 319.5 -71.07 308.16 -71.07 296.59 -68.82 285.25 -64.39 274.56 -57.96 264.94 -49.79 256.76 -40.17 250.34 -29.48 245.91 -18.14 243.65 -6.57 243.65 4.77 245.91 15.46 250.34 25.08 256.76 33.26 264.94 39.68 274.56 44.11 285.25 46.37 296.59 46.37 308.16 44.11 319.5 39.68 330.19 33.26 339.81 25.08 347.98 15.46 354.41 4.77 358.84 -6.57 361.09"/><path d="M -206.57 361.09 -218.14 361.09 -229.48 358.84 -240.17 354.41 -249.79 347.98 -257.96 339.81 -264.39 330.19 -268.82 319.5 -271.08 308.16 -271.08 296.59 -268.82 285.25 -264.39 274.56 -257.96 264.94 -249.79 256.76 -240.17 250.34 -229.48 245.91 -218.14 243.65 -206.57 243.65 -195.23 245.91 -184.54 250.34 -174.92 256.76 -166.74 264.94 -160.32 274.56 -155.89 285.25 -153.63 296.59 -153.63 308.16 -155.89 319.5 -160.32 330.19 -166.74 339.81 -174.92 347.98 -184.54 354.41 -195.23 358.84 -206.57 361.09"/><path d="M 0 121.44 -19 119.94 -37.53 115.5 -55.13 108.2 -71.38 98.25 -85.87 85.87 -98.25 71.38 -108.2 55.13 -115.5 37.53 -119.94 19 -121.44 0 -119.94 -19 -115.5 -37.53 -108.2 -55.13 -98.25 -71.38 -85.87 -85.87 -71.38 -98.25 -55.13 -108.2 -37.53 -115.5 -19 -119.94 0 -121.44 19 -119.94 37.53 -115.5 55.13 -108.2 71.38 -98.25 85.87 -85.87 98.25 -71.38 108.2 -55.13 115.5 -37.53 119.94 -19 121.44 0 119.94 19 115.5 37.53 108.2 55.13 98.25 71.38 85.87 85.87 71.38 98.25 55.13 108.2 37.53 115.5 19 119.94 0 121.44"/></g></mask><g id="l0tcezsdgx8jgU65NBfX_pad-44"><polygon points="14.96,29.92 14.96,-29.92 -14.96,-29.92 -14.96,29.92"/><polygon points="29.92,14.96 29.92,-14.96 -29.92,-14.96 -29.92,14.96"/><circle cx="-14.96" cy="-14.96" r="14.96"/><circle cx="-14.96" cy="14.96" r="14.96"/><circle cx="14.96" cy="14.96" r="14.96"/><circle cx="14.96" cy="-14.96" r="14.96"/></g><rect x="-35.435" y="-35.435" width="70.87" height="70.87" id="l0tcezsdgx8jgU65NBfX_pad-45"/><circle cx="0" cy="0" r="31.595" id="l0tcezsdgx8jgU65NBfX_pad-46"/><circle cx="0" cy="0" r="29.92" id="l0tcezsdgx8jgU65NBfX_pad-47"/><rect x="-31.595" y="-31.595" width="63.19" height="63.19" id="l0tcezsdgx8jgU65NBfX_pad-48"/><circle cx="0" cy="0" r="35.435" id="l0tcezsdgx8jgU65NBfX_pad-49"/><circle cx="0" cy="0" r="45.765" id="l0tcezsdgx8jgU65NBfX_pad-50"/><circle cx="0" cy="0" r="48.72" id="l0tcezsdgx8jgU65NBfX_pad-51"/><circle cx="0" cy="0" r="25" id="l0tcezsdgx8jgU65NBfX_pad-52"/><g id="N1AOBNr88Sb1ELyKfTn2_bottom_soldermask"><use xlink:href="#Lm06CuQiGwaeapUIInQm_pad-32" x="-693.26" y="1380.94"/><use xlink:href="#Lm06CuQiGwaeapUIInQm_pad-32" x="-693.26" y="2304.52"/><use xlink:href="#Lm06CuQiGwaeapUIInQm_pad-32" x="-2973" y="-92"/><use xlink:href="#Lm06CuQiGwaeapUIInQm_pad-32" x="-1399.6" y="495.29"/><use xlink:href="#Lm06CuQiGwaeapUIInQm_pad-32" x="-693.26" y="495.29"/><use xlink:href="#Lm06CuQiGwaeapUIInQm_pad-32" x="-1399.6" y="2304.52"/><use xlink:href="#Lm06CuQiGwaeapUIInQm_pad-32" x="-1399.6" y="1380.94"/><use xlink:href="#Lm06CuQiGwaeapUIInQm_pad-32" x="-1973" y="-92"/><use xlink:href="#Lm06CuQiGwaeapUIInQm_pad-33" x="-2720.94" y="2405.4"/><use xlink:href="#Lm06CuQiGwaeapUIInQm_pad-34" x="-2145" y="2645"/><use xlink:href="#Lm06CuQiGwaeapUIInQm_pad-34" x="-2345" y="2645"/><use xlink:href="#Lm06CuQiGwaeapUIInQm_pad-34" x="-2245" y="2645"/><use xlink:href="#Lm06CuQiGwaeapUIInQm_pad-35" x="-2973" y="8"/><use xlink:href="#Lm06CuQiGwaeapUIInQm_pad-35" x="-1973" y="1808"/><use xlink:href="#Lm06CuQiGwaeapUIInQm_pad-35" x="-1973" y="208"/><use xlink:href="#Lm06CuQiGwaeapUIInQm_pad-35" x="-1973" y="108"/><use xlink:href="#Lm06CuQiGwaeapUIInQm_pad-35" x="-1973" y="8"/><use xlink:href="#Lm06CuQiGwaeapUIInQm_pad-35" x="-1973" y="1208"/><use xlink:href="#Lm06CuQiGwaeapUIInQm_pad-35" x="-2973" y="508"/><use xlink:href="#Lm06CuQiGwaeapUIInQm_pad-35" x="-1399.6" y="2104.52"/><use xlink:href="#Lm06CuQiGwaeapUIInQm_pad-35" x="-1399.6" y="1180.94"/><use xlink:href="#Lm06CuQiGwaeapUIInQm_pad-35" x="-1973" y="1608"/><use xlink:href="#Lm06CuQiGwaeapUIInQm_pad-35" x="-1399.6" y="395.29"/><use xlink:href="#Lm06CuQiGwaeapUIInQm_pad-35" x="-1399.6" y="1280.94"/><use xlink:href="#Lm06CuQiGwaeapUIInQm_pad-35" x="-1399.6" y="2204.52"/><use xlink:href="#Lm06CuQiGwaeapUIInQm_pad-35" x="-1973" y="1408"/><use xlink:href="#Lm06CuQiGwaeapUIInQm_pad-35" x="-1973" y="1708"/><use xlink:href="#Lm06CuQiGwaeapUIInQm_pad-35" x="-693.26" y="2204.52"/><use xlink:href="#Lm06CuQiGwaeapUIInQm_pad-35" x="-693.26" y="1180.94"/><use xlink:href="#Lm06CuQiGwaeapUIInQm_pad-35" x="-693.26" y="2104.52"/><use xlink:href="#Lm06CuQiGwaeapUIInQm_pad-35" x="-693.26" y="295.29"/><use xlink:href="#Lm06CuQiGwaeapUIInQm_pad-35" x="-693.26" y="395.29"/><use xlink:href="#Lm06CuQiGwaeapUIInQm_pad-35" x="-693.26" y="1280.94"/><use xlink:href="#Lm06CuQiGwaeapUIInQm_pad-35" x="-1973" y="1508"/><use xlink:href="#Lm06CuQiGwaeapUIInQm_pad-35" x="-1973" y="1008"/><use xlink:href="#Lm06CuQiGwaeapUIInQm_pad-35" x="-1973" y="808"/><use xlink:href="#Lm06CuQiGwaeapUIInQm_pad-35" x="-1973" y="508"/><use xlink:href="#Lm06CuQiGwaeapUIInQm_pad-35" x="-1973" y="308"/><use xlink:href="#Lm06CuQiGwaeapUIInQm_pad-35" x="-1973" y="408"/><use xlink:href="#Lm06CuQiGwaeapUIInQm_pad-35" x="-1973" y="608"/><use xlink:href="#Lm06CuQiGwaeapUIInQm_pad-35" x="-1973" y="708"/><use xlink:href="#Lm06CuQiGwaeapUIInQm_pad-35" x="-1973" y="908"/><use xlink:href="#Lm06CuQiGwaeapUIInQm_pad-35" x="-1973" y="1108"/><use xlink:href="#Lm06CuQiGwaeapUIInQm_pad-35" x="-1973" y="1308"/><use xlink:href="#Lm06CuQiGwaeapUIInQm_pad-35" x="-2973" y="1808"/><use xlink:href="#Lm06CuQiGwaeapUIInQm_pad-35" x="-2973" y="1708"/><use xlink:href="#Lm06CuQiGwaeapUIInQm_pad-35" x="-2973" y="1608"/><use xlink:href="#Lm06CuQiGwaeapUIInQm_pad-35" x="-2973" y="1308"/><use xlink:href="#Lm06CuQiGwaeapUIInQm_pad-35" x="-2973" y="1208"/><use xlink:href="#Lm06CuQiGwaeapUIInQm_pad-35" x="-2973" y="1108"/><use xlink:href="#Lm06CuQiGwaeapUIInQm_pad-35" x="-2973" y="708"/><use xlink:href="#Lm06CuQiGwaeapUIInQm_pad-35" x="-2973" y="608"/><use xlink:href="#Lm06CuQiGwaeapUIInQm_pad-35" x="-2973" y="408"/><use xlink:href="#Lm06CuQiGwaeapUIInQm_pad-35" x="-2973" y="308"/><use xlink:href="#Lm06CuQiGwaeapUIInQm_pad-35" x="-2973" y="208"/><use xlink:href="#Lm06CuQiGwaeapUIInQm_pad-35" x="-2973" y="108"/><use xlink:href="#Lm06CuQiGwaeapUIInQm_pad-35" x="-2973" y="808"/><use xlink:href="#Lm06CuQiGwaeapUIInQm_pad-35" x="-2973" y="1008"/><use xlink:href="#Lm06CuQiGwaeapUIInQm_pad-35" x="-2973" y="1408"/><use xlink:href="#Lm06CuQiGwaeapUIInQm_pad-35" x="-2973" y="1508"/><use xlink:href="#Lm06CuQiGwaeapUIInQm_pad-35" x="-2973" y="908"/><use xlink:href="#Lm06CuQiGwaeapUIInQm_pad-35" x="-1399.6" y="295.29"/><use xlink:href="#Lm06CuQiGwaeapUIInQm_pad-36" x="-2445" y="2645"/><use xlink:href="#Lm06CuQiGwaeapUIInQm_pad-37" x="-2970.94" y="2405.4"/><use xlink:href="#Lm06CuQiGwaeapUIInQm_pad-38" x="-112.35" y="1288.02"/><use xlink:href="#Lm06CuQiGwaeapUIInQm_pad-38" x="-112.35" y="402.37"/><use xlink:href="#Lm06CuQiGwaeapUIInQm_pad-38" x="-112.35" y="2211.61"/><use xlink:href="#Lm06CuQiGwaeapUIInQm_pad-39" x="-212.35" y="1188.02"/><use xlink:href="#Lm06CuQiGwaeapUIInQm_pad-39" x="-212.35" y="1388.02"/><use xlink:href="#Lm06CuQiGwaeapUIInQm_pad-39" x="-12.35" y="1188.02"/><use xlink:href="#Lm06CuQiGwaeapUIInQm_pad-39" x="-12.35" y="1388.02"/><use xlink:href="#Lm06CuQiGwaeapUIInQm_pad-39" x="-212.35" y="302.37"/><use xlink:href="#Lm06CuQiGwaeapUIInQm_pad-39" x="-212.35" y="502.37"/><use xlink:href="#Lm06CuQiGwaeapUIInQm_pad-39" x="-12.35" y="302.37"/><use xlink:href="#Lm06CuQiGwaeapUIInQm_pad-39" x="-12.35" y="502.37"/><use xlink:href="#Lm06CuQiGwaeapUIInQm_pad-39" x="-212.35" y="2111.61"/><use xlink:href="#Lm06CuQiGwaeapUIInQm_pad-39" x="-212.35" y="2311.61"/><use xlink:href="#Lm06CuQiGwaeapUIInQm_pad-39" x="-12.35" y="2111.61"/><use xlink:href="#Lm06CuQiGwaeapUIInQm_pad-39" x="-12.35" y="2311.61"/><use xlink:href="#Lm06CuQiGwaeapUIInQm_pad-40" x="-3300" y="0"/><use xlink:href="#Lm06CuQiGwaeapUIInQm_pad-40" x="-3300" y="2600"/><use xlink:href="#Lm06CuQiGwaeapUIInQm_pad-40" x="0" y="2600"/><use xlink:href="#Lm06CuQiGwaeapUIInQm_pad-40" x="0" y="0"/><use xlink:href="#Lm06CuQiGwaeapUIInQm_pad-41" x="-1480" y="2465"/><use xlink:href="#Lm06CuQiGwaeapUIInQm_pad-41" x="-1520" y="2505"/><use xlink:href="#Lm06CuQiGwaeapUIInQm_pad-41" x="-1620" y="1965"/><use xlink:href="#Lm06CuQiGwaeapUIInQm_pad-41" x="-1665" y="1920"/><use xlink:href="#Lm06CuQiGwaeapUIInQm_pad-41" x="-1710" y="1875"/><use xlink:href="#Lm06CuQiGwaeapUIInQm_pad-41" x="-1610" y="1790"/><use xlink:href="#Lm06CuQiGwaeapUIInQm_pad-41" x="-1565" y="1835"/><use xlink:href="#Lm06CuQiGwaeapUIInQm_pad-41" x="-1520" y="1880"/><use xlink:href="#Lm06CuQiGwaeapUIInQm_pad-41" x="-1615" y="2430"/><use xlink:href="#Lm06CuQiGwaeapUIInQm_pad-41" x="-1575" y="2390"/><use xlink:href="#Lm06CuQiGwaeapUIInQm_pad-41" x="-1810" y="2265"/><use xlink:href="#Lm06CuQiGwaeapUIInQm_pad-41" x="-1915" y="2265"/><use xlink:href="#Lm06CuQiGwaeapUIInQm_pad-41" x="-1810" y="2190"/><use xlink:href="#Lm06CuQiGwaeapUIInQm_pad-41" x="-1915" y="2190"/><use xlink:href="#Lm06CuQiGwaeapUIInQm_pad-41" x="-1810" y="2340"/><use xlink:href="#Lm06CuQiGwaeapUIInQm_pad-41" x="-1915" y="2340"/><use xlink:href="#Lm06CuQiGwaeapUIInQm_pad-41" x="-2401" y="935"/><use xlink:href="#Lm06CuQiGwaeapUIInQm_pad-41" x="-2401" y="785"/><use xlink:href="#Lm06CuQiGwaeapUIInQm_pad-41" x="-2326" y="935"/><use xlink:href="#Lm06CuQiGwaeapUIInQm_pad-41" x="-2326" y="785"/><use xlink:href="#Lm06CuQiGwaeapUIInQm_pad-41" x="-2551" y="935"/><use xlink:href="#Lm06CuQiGwaeapUIInQm_pad-41" x="-2551" y="785"/><use xlink:href="#Lm06CuQiGwaeapUIInQm_pad-41" x="-2476" y="935"/><use xlink:href="#Lm06CuQiGwaeapUIInQm_pad-41" x="-2476" y="785"/><use xlink:href="#Lm06CuQiGwaeapUIInQm_pad-41" x="-2626" y="785"/><use xlink:href="#Lm06CuQiGwaeapUIInQm_pad-41" x="-2626" y="935"/><use xlink:href="#Lm06CuQiGwaeapUIInQm_pad-41" x="-1072" y="264"/><use xlink:href="#Lm06CuQiGwaeapUIInQm_pad-41" x="-3103" y="-92"/><use xlink:href="#Lm06CuQiGwaeapUIInQm_pad-41" x="-3103" y="8"/><use xlink:href="#Lm06CuQiGwaeapUIInQm_pad-41" x="-785" y="155"/><use xlink:href="#Lm06CuQiGwaeapUIInQm_pad-41" x="-890" y="335"/><use xlink:href="#Lm06CuQiGwaeapUIInQm_pad-41" x="-680" y="155"/><use xlink:href="#Lm06CuQiGwaeapUIInQm_pad-41" x="-575" y="155"/><use xlink:href="#Lm06CuQiGwaeapUIInQm_pad-41" x="-1235" y="1095"/><use xlink:href="#Lm06CuQiGwaeapUIInQm_pad-41" x="-1650" y="1350"/><use xlink:href="#Lm06CuQiGwaeapUIInQm_pad-41" x="-1370" y="780"/><use xlink:href="#Lm06CuQiGwaeapUIInQm_pad-41" x="-1175" y="695"/><use xlink:href="#Lm06CuQiGwaeapUIInQm_pad-41" x="-1074" y="692"/><use xlink:href="#Lm06CuQiGwaeapUIInQm_pad-41" x="-1843" y="1808"/><use xlink:href="#Lm06CuQiGwaeapUIInQm_pad-41" x="-820.94" y="720.4"/><use xlink:href="#Lm06CuQiGwaeapUIInQm_pad-41" x="-1765.94" y="2420.4"/><use xlink:href="#Lm06CuQiGwaeapUIInQm_pad-41" x="-890" y="625"/><use xlink:href="#Lm06CuQiGwaeapUIInQm_pad-41" x="-1843" y="8"/><use xlink:href="#Lm06CuQiGwaeapUIInQm_pad-41" x="-1843" y="-92"/><use xlink:href="#Lm06CuQiGwaeapUIInQm_pad-41" x="-2900.94" y="2405.4"/><use xlink:href="#Lm06CuQiGwaeapUIInQm_pad-41" x="-2900.94" y="2335.4"/><use xlink:href="#Lm06CuQiGwaeapUIInQm_pad-41" x="-2970.94" y="2475.4"/><use xlink:href="#Lm06CuQiGwaeapUIInQm_pad-41" x="-2900.94" y="2475.4"/><use xlink:href="#Lm06CuQiGwaeapUIInQm_pad-41" x="-3040.94" y="2475.4"/><use xlink:href="#Lm06CuQiGwaeapUIInQm_pad-41" x="-2970.94" y="2335.4"/><use xlink:href="#Lm06CuQiGwaeapUIInQm_pad-41" x="-3040.94" y="2405.4"/><use xlink:href="#Lm06CuQiGwaeapUIInQm_pad-41" x="-3040.94" y="2335.4"/><use xlink:href="#Lm06CuQiGwaeapUIInQm_pad-41" x="-1843" y="1208"/><use xlink:href="#Lm06CuQiGwaeapUIInQm_pad-41" x="-1843" y="208"/><use xlink:href="#Lm06CuQiGwaeapUIInQm_pad-41" x="-1843" y="108"/><use xlink:href="#Lm06CuQiGwaeapUIInQm_pad-41" x="-3103" y="508"/><use xlink:href="#Lm06CuQiGwaeapUIInQm_pad-41" x="-1650" y="1450"/><use xlink:href="#Lm06CuQiGwaeapUIInQm_pad-41" x="-1843" y="1608"/><use xlink:href="#Lm06CuQiGwaeapUIInQm_pad-41" x="-1214" y="272"/><use xlink:href="#Lm06CuQiGwaeapUIInQm_pad-41" x="-1350" y="985"/><use xlink:href="#Lm06CuQiGwaeapUIInQm_pad-41" x="-1175" y="1045"/><use xlink:href="#Lm06CuQiGwaeapUIInQm_pad-41" x="-1295" y="935"/><use xlink:href="#Lm06CuQiGwaeapUIInQm_pad-41" x="-1843" y="1408"/><use xlink:href="#Lm06CuQiGwaeapUIInQm_pad-41" x="-1843" y="1708"/><use xlink:href="#Lm06CuQiGwaeapUIInQm_pad-41" x="-1843" y="508"/><use xlink:href="#Lm06CuQiGwaeapUIInQm_pad-41" x="-1843" y="1308"/><use xlink:href="#Lm06CuQiGwaeapUIInQm_pad-41" x="-1843" y="1108"/><use xlink:href="#Lm06CuQiGwaeapUIInQm_pad-41" x="-1843" y="708"/><use xlink:href="#Lm06CuQiGwaeapUIInQm_pad-41" x="-1843" y="1008"/><use xlink:href="#Lm06CuQiGwaeapUIInQm_pad-41" x="-1843" y="908"/><use xlink:href="#Lm06CuQiGwaeapUIInQm_pad-41" x="-1843" y="608"/><use xlink:href="#Lm06CuQiGwaeapUIInQm_pad-41" x="-1843" y="808"/><use xlink:href="#Lm06CuQiGwaeapUIInQm_pad-41" x="-1843" y="408"/><use xlink:href="#Lm06CuQiGwaeapUIInQm_pad-41" x="-1843" y="308"/><use xlink:href="#Lm06CuQiGwaeapUIInQm_pad-41" x="-1843" y="1508"/><use xlink:href="#Lm06CuQiGwaeapUIInQm_pad-41" x="-3103" y="908"/><use xlink:href="#Lm06CuQiGwaeapUIInQm_pad-41" x="-3103" y="1708"/><use xlink:href="#Lm06CuQiGwaeapUIInQm_pad-41" x="-3103" y="1008"/><use xlink:href="#Lm06CuQiGwaeapUIInQm_pad-41" x="-3103" y="1808"/><use xlink:href="#Lm06CuQiGwaeapUIInQm_pad-41" x="-3103" y="1508"/><use xlink:href="#Lm06CuQiGwaeapUIInQm_pad-41" x="-3103" y="1308"/><use xlink:href="#Lm06CuQiGwaeapUIInQm_pad-41" x="-3103" y="1608"/><use xlink:href="#Lm06CuQiGwaeapUIInQm_pad-41" x="-3103" y="1408"/><use xlink:href="#Lm06CuQiGwaeapUIInQm_pad-41" x="-3103" y="1208"/><use xlink:href="#Lm06CuQiGwaeapUIInQm_pad-41" x="-3103" y="1108"/><use xlink:href="#Lm06CuQiGwaeapUIInQm_pad-41" x="-3103" y="708"/><use xlink:href="#Lm06CuQiGwaeapUIInQm_pad-41" x="-3103" y="808"/><use xlink:href="#Lm06CuQiGwaeapUIInQm_pad-41" x="-3103" y="608"/><use xlink:href="#Lm06CuQiGwaeapUIInQm_pad-41" x="-3103" y="408"/><use xlink:href="#Lm06CuQiGwaeapUIInQm_pad-41" x="-3103" y="308"/><use xlink:href="#Lm06CuQiGwaeapUIInQm_pad-41" x="-3103" y="108"/><use xlink:href="#Lm06CuQiGwaeapUIInQm_pad-41" x="-3103" y="208"/></g><g id="N1AOBNr88Sb1ELyKfTn2_bottom_copper"><g mask="url(#l0tcezsdgx8jgU65NBfX_clear-2)"><g mask="url(#l0tcezsdgx8jgU65NBfX_clear-1)"><path d="M -88.45 2787.76 -54.46 2781.99 -21.33 2772.44 10.53 2759.25 40.7 2742.57 68.82 2722.62 94.53 2699.64 117.5 2673.93 137.46 2645.82 154.13 2615.64 167.33 2583.79 176.87 2550.65 182.65 2516.66 184.52 2483.33 184.3 2482.24 184.3 610.2 -725 610.2 -728.9 609.42 -732.21 607.21 -879.22 460.2 -1279.8 460.2 -1279.8 550 -1280.58 553.9 -1282.79 557.21 -1322.79 597.21 -1326.1 599.42 -1330 600.2 -1560 600.2 -1563.9 599.42 -1567.21 597.21 -1607.61 556.81 -1609.82 553.5 -1610.6 549.6 -1610.6 -179.99 -3200.4 -179.99 -3201.35 -180.18 -3232.31 -178.44 -3263.81 -173.09 -3294.51 -164.24 -3324.04 -152.02 -3352 -136.56 -3378.06 -118.07 -3401.89 -96.78 -3423.18 -72.95 -3441.67 -46.89 -3457.13 -18.92 -3469.36 10.6 -3478.21 41.31 -3483.56 72.81 -3485.3 103.76 -3485.11 104.71 -3485.11 2504.71 -3485.3 2505.66 -3483.56 2536.62 -3478.21 2568.12 -3469.36 2598.82 -3457.13 2628.35 -3441.67 2656.31 -3423.18 2682.37 -3401.89 2706.2 -3378.06 2727.49 -3352 2745.99 -3324.04 2761.44 -3294.51 2773.67 -3263.81 2782.52 -3232.31 2787.87 -3201.35 2789.61 -3200.4 2789.42 -122.88 2789.42 -121.79 2789.63 -88.45 2787.76"/><path d="M 184.3 104.71 184.49 103.76 182.75 72.81 177.4 41.31 168.56 10.6 156.33 -18.92 140.87 -46.89 122.38 -72.95 101.09 -96.78 77.26 -118.07 51.2 -136.56 23.23 -152.02 -6.29 -164.24 -37 -173.09 -68.5 -178.44 -99.45 -180.18 -100.4 -179.99 -1600.4 -179.99 -1600.4 549.6 -1560 590 -1330 590 -1290 550 -1290 450 -875 450 -725 600 184.3 600 184.3 104.71"/></g><path d="M -1442.06 2467.06 -1442.51 2457.07 -1571.8 2349.34 -1657.76 2430.24 -1657.58 2440.24 -1528.33 2553.33 -1442.06 2467.06"/><path d="M -1770 2155 -1950 2155 -1950 2375 -1770 2375 -1770 2155"/><path d="M -1473.08 1889.67 -1472.55 1879.68 -1612.46 1734.96 -1758.1 1859.03 -1758.68 1869.01 -1622.54 2015.04 -1473.08 1889.67"/><path d="M -2276 735 -2676 735 -2676 985 -2276 985 -2276 735"/></g><path d="M -1347.5 985 -1237.5 1095 -1235 1095 M -1350 985 -1347.5 985 M -1650 1350 -1650 1450 M -1180 1045 -1175 1045 M -1290 935 -1180 1045 M -1295 935 -1290 935 M -1973 1708 -1972.47 1708.53" fill="none" stroke-width="10"/><use xlink:href="#l0tcezsdgx8jgU65NBfX_pad-44" x="-693.26" y="1380.94"/><use xlink:href="#l0tcezsdgx8jgU65NBfX_pad-44" x="-693.26" y="2304.52"/><use xlink:href="#l0tcezsdgx8jgU65NBfX_pad-44" x="-2973" y="-92"/><use xlink:href="#l0tcezsdgx8jgU65NBfX_pad-44" x="-1399.6" y="495.29"/><use xlink:href="#l0tcezsdgx8jgU65NBfX_pad-44" x="-693.26" y="495.29"/><use xlink:href="#l0tcezsdgx8jgU65NBfX_pad-44" x="-1399.6" y="2304.52"/><use xlink:href="#l0tcezsdgx8jgU65NBfX_pad-44" x="-1399.6" y="1380.94"/><use xlink:href="#l0tcezsdgx8jgU65NBfX_pad-44" x="-1973" y="-92"/><use xlink:href="#l0tcezsdgx8jgU65NBfX_pad-45" x="-2720.94" y="2405.4"/><use xlink:href="#l0tcezsdgx8jgU65NBfX_pad-46" x="-2145" y="2645"/><use xlink:href="#l0tcezsdgx8jgU65NBfX_pad-46" x="-2345" y="2645"/><use xlink:href="#l0tcezsdgx8jgU65NBfX_pad-46" x="-2245" y="2645"/><use xlink:href="#l0tcezsdgx8jgU65NBfX_pad-47" x="-2973" y="8"/><use xlink:href="#l0tcezsdgx8jgU65NBfX_pad-47" x="-1973" y="1808"/><use xlink:href="#l0tcezsdgx8jgU65NBfX_pad-47" x="-1973" y="208"/><use xlink:href="#l0tcezsdgx8jgU65NBfX_pad-47" x="-1973" y="108"/><use xlink:href="#l0tcezsdgx8jgU65NBfX_pad-47" x="-1973" y="8"/><use xlink:href="#l0tcezsdgx8jgU65NBfX_pad-47" x="-1973" y="1208"/><use xlink:href="#l0tcezsdgx8jgU65NBfX_pad-47" x="-2973" y="508"/><use xlink:href="#l0tcezsdgx8jgU65NBfX_pad-47" x="-1399.6" y="2104.52"/><use xlink:href="#l0tcezsdgx8jgU65NBfX_pad-47" x="-1399.6" y="1180.94"/><use xlink:href="#l0tcezsdgx8jgU65NBfX_pad-47" x="-1973" y="1608"/><use xlink:href="#l0tcezsdgx8jgU65NBfX_pad-47" x="-1399.6" y="395.29"/><use xlink:href="#l0tcezsdgx8jgU65NBfX_pad-47" x="-1399.6" y="1280.94"/><use xlink:href="#l0tcezsdgx8jgU65NBfX_pad-47" x="-1399.6" y="2204.52"/><use xlink:href="#l0tcezsdgx8jgU65NBfX_pad-47" x="-1973" y="1408"/><use xlink:href="#l0tcezsdgx8jgU65NBfX_pad-47" x="-1973" y="1708"/><use xlink:href="#l0tcezsdgx8jgU65NBfX_pad-47" x="-693.26" y="2204.52"/><use xlink:href="#l0tcezsdgx8jgU65NBfX_pad-47" x="-693.26" y="1180.94"/><use xlink:href="#l0tcezsdgx8jgU65NBfX_pad-47" x="-693.26" y="2104.52"/><use xlink:href="#l0tcezsdgx8jgU65NBfX_pad-47" x="-693.26" y="295.29"/><use xlink:href="#l0tcezsdgx8jgU65NBfX_pad-47" x="-693.26" y="395.29"/><use xlink:href="#l0tcezsdgx8jgU65NBfX_pad-47" x="-693.26" y="1280.94"/><use xlink:href="#l0tcezsdgx8jgU65NBfX_pad-47" x="-1973" y="1508"/><use xlink:href="#l0tcezsdgx8jgU65NBfX_pad-47" x="-1973" y="1008"/><use xlink:href="#l0tcezsdgx8jgU65NBfX_pad-47" x="-1973" y="808"/><use xlink:href="#l0tcezsdgx8jgU65NBfX_pad-47" x="-1973" y="508"/><use xlink:href="#l0tcezsdgx8jgU65NBfX_pad-47" x="-1973" y="308"/><use xlink:href="#l0tcezsdgx8jgU65NBfX_pad-47" x="-1973" y="408"/><use xlink:href="#l0tcezsdgx8jgU65NBfX_pad-47" x="-1973" y="608"/><use xlink:href="#l0tcezsdgx8jgU65NBfX_pad-47" x="-1973" y="708"/><use xlink:href="#l0tcezsdgx8jgU65NBfX_pad-47" x="-1973" y="908"/><use xlink:href="#l0tcezsdgx8jgU65NBfX_pad-47" x="-1973" y="1108"/><use xlink:href="#l0tcezsdgx8jgU65NBfX_pad-47" x="-1973" y="1308"/><use xlink:href="#l0tcezsdgx8jgU65NBfX_pad-47" x="-2973" y="1808"/><use xlink:href="#l0tcezsdgx8jgU65NBfX_pad-47" x="-2973" y="1708"/><use xlink:href="#l0tcezsdgx8jgU65NBfX_pad-47" x="-2973" y="1608"/><use xlink:href="#l0tcezsdgx8jgU65NBfX_pad-47" x="-2973" y="1308"/><use xlink:href="#l0tcezsdgx8jgU65NBfX_pad-47" x="-2973" y="1208"/><use xlink:href="#l0tcezsdgx8jgU65NBfX_pad-47" x="-2973" y="1108"/><use xlink:href="#l0tcezsdgx8jgU65NBfX_pad-47" x="-2973" y="708"/><use xlink:href="#l0tcezsdgx8jgU65NBfX_pad-47" x="-2973" y="608"/><use xlink:href="#l0tcezsdgx8jgU65NBfX_pad-47" x="-2973" y="408"/><use xlink:href="#l0tcezsdgx8jgU65NBfX_pad-47" x="-2973" y="308"/><use xlink:href="#l0tcezsdgx8jgU65NBfX_pad-47" x="-2973" y="208"/><use xlink:href="#l0tcezsdgx8jgU65NBfX_pad-47" x="-2973" y="108"/><use xlink:href="#l0tcezsdgx8jgU65NBfX_pad-47" x="-2973" y="808"/><use xlink:href="#l0tcezsdgx8jgU65NBfX_pad-47" x="-2973" y="1008"/><use xlink:href="#l0tcezsdgx8jgU65NBfX_pad-47" x="-2973" y="1408"/><use xlink:href="#l0tcezsdgx8jgU65NBfX_pad-47" x="-2973" y="1508"/><use xlink:href="#l0tcezsdgx8jgU65NBfX_pad-47" x="-2973" y="908"/><use xlink:href="#l0tcezsdgx8jgU65NBfX_pad-47" x="-1399.6" y="295.29"/><use xlink:href="#l0tcezsdgx8jgU65NBfX_pad-48" x="-2445" y="2645"/><use xlink:href="#l0tcezsdgx8jgU65NBfX_pad-49" x="-2970.94" y="2405.4"/><use xlink:href="#l0tcezsdgx8jgU65NBfX_pad-50" x="-112.35" y="1288.02"/><use xlink:href="#l0tcezsdgx8jgU65NBfX_pad-50" x="-112.35" y="402.37"/><use xlink:href="#l0tcezsdgx8jgU65NBfX_pad-50" x="-112.35" y="2211.61"/><use xlink:href="#l0tcezsdgx8jgU65NBfX_pad-51" x="-212.35" y="1188.02"/><use xlink:href="#l0tcezsdgx8jgU65NBfX_pad-51" x="-212.35" y="1388.02"/><use xlink:href="#l0tcezsdgx8jgU65NBfX_pad-51" x="-12.35" y="1188.02"/><use xlink:href="#l0tcezsdgx8jgU65NBfX_pad-51" x="-12.35" y="1388.02"/><use xlink:href="#l0tcezsdgx8jgU65NBfX_pad-51" x="-212.35" y="302.37"/><use xlink:href="#l0tcezsdgx8jgU65NBfX_pad-51" x="-212.35" y="502.37"/><use xlink:href="#l0tcezsdgx8jgU65NBfX_pad-51" x="-12.35" y="302.37"/><use xlink:href="#l0tcezsdgx8jgU65NBfX_pad-51" x="-12.35" y="502.37"/><use xlink:href="#l0tcezsdgx8jgU65NBfX_pad-51" x="-212.35" y="2111.61"/><use xlink:href="#l0tcezsdgx8jgU65NBfX_pad-51" x="-212.35" y="2311.61"/><use xlink:href="#l0tcezsdgx8jgU65NBfX_pad-51" x="-12.35" y="2111.61"/><use xlink:href="#l0tcezsdgx8jgU65NBfX_pad-51" x="-12.35" y="2311.61"/><use xlink:href="#l0tcezsdgx8jgU65NBfX_pad-52" x="-1480" y="2465"/><use xlink:href="#l0tcezsdgx8jgU65NBfX_pad-52" x="-1520" y="2505"/><use xlink:href="#l0tcezsdgx8jgU65NBfX_pad-52" x="-1620" y="1965"/><use xlink:href="#l0tcezsdgx8jgU65NBfX_pad-52" x="-1665" y="1920"/><use xlink:href="#l0tcezsdgx8jgU65NBfX_pad-52" x="-1710" y="1875"/><use xlink:href="#l0tcezsdgx8jgU65NBfX_pad-52" x="-1610" y="1790"/><use xlink:href="#l0tcezsdgx8jgU65NBfX_pad-52" x="-1565" y="1835"/><use xlink:href="#l0tcezsdgx8jgU65NBfX_pad-52" x="-1520" y="1880"/><use xlink:href="#l0tcezsdgx8jgU65NBfX_pad-52" x="-1615" y="2430"/><use xlink:href="#l0tcezsdgx8jgU65NBfX_pad-52" x="-1575" y="2390"/><use xlink:href="#l0tcezsdgx8jgU65NBfX_pad-52" x="-1810" y="2265"/><use xlink:href="#l0tcezsdgx8jgU65NBfX_pad-52" x="-1915" y="2265"/><use xlink:href="#l0tcezsdgx8jgU65NBfX_pad-52" x="-1810" y="2190"/><use xlink:href="#l0tcezsdgx8jgU65NBfX_pad-52" x="-1915" y="2190"/><use xlink:href="#l0tcezsdgx8jgU65NBfX_pad-52" x="-1810" y="2340"/><use xlink:href="#l0tcezsdgx8jgU65NBfX_pad-52" x="-1915" y="2340"/><use xlink:href="#l0tcezsdgx8jgU65NBfX_pad-52" x="-2401" y="935"/><use xlink:href="#l0tcezsdgx8jgU65NBfX_pad-52" x="-2401" y="785"/><use xlink:href="#l0tcezsdgx8jgU65NBfX_pad-52" x="-2326" y="935"/><use xlink:href="#l0tcezsdgx8jgU65NBfX_pad-52" x="-2326" y="785"/><use xlink:href="#l0tcezsdgx8jgU65NBfX_pad-52" x="-2551" y="935"/><use xlink:href="#l0tcezsdgx8jgU65NBfX_pad-52" x="-2551" y="785"/><use xlink:href="#l0tcezsdgx8jgU65NBfX_pad-52" x="-2476" y="935"/><use xlink:href="#l0tcezsdgx8jgU65NBfX_pad-52" x="-2476" y="785"/><use xlink:href="#l0tcezsdgx8jgU65NBfX_pad-52" x="-2626" y="785"/><use xlink:href="#l0tcezsdgx8jgU65NBfX_pad-52" x="-2626" y="935"/><use xlink:href="#l0tcezsdgx8jgU65NBfX_pad-52" x="-1072" y="264"/><use xlink:href="#l0tcezsdgx8jgU65NBfX_pad-52" x="-3103" y="-92"/><use xlink:href="#l0tcezsdgx8jgU65NBfX_pad-52" x="-3103" y="8"/><use xlink:href="#l0tcezsdgx8jgU65NBfX_pad-52" x="-785" y="155"/><use xlink:href="#l0tcezsdgx8jgU65NBfX_pad-52" x="-890" y="335"/><use xlink:href="#l0tcezsdgx8jgU65NBfX_pad-52" x="-680" y="155"/><use xlink:href="#l0tcezsdgx8jgU65NBfX_pad-52" x="-575" y="155"/><use xlink:href="#l0tcezsdgx8jgU65NBfX_pad-52" x="-1235" y="1095"/><use xlink:href="#l0tcezsdgx8jgU65NBfX_pad-52" x="-1650" y="1350"/><use xlink:href="#l0tcezsdgx8jgU65NBfX_pad-52" x="-1370" y="780"/><use xlink:href="#l0tcezsdgx8jgU65NBfX_pad-52" x="-1175" y="695"/><use xlink:href="#l0tcezsdgx8jgU65NBfX_pad-52" x="-1074" y="692"/><use xlink:href="#l0tcezsdgx8jgU65NBfX_pad-52" x="-1843" y="1808"/><use xlink:href="#l0tcezsdgx8jgU65NBfX_pad-52" x="-820.94" y="720.4"/><use xlink:href="#l0tcezsdgx8jgU65NBfX_pad-52" x="-1765.94" y="2420.4"/><use xlink:href="#l0tcezsdgx8jgU65NBfX_pad-52" x="-890" y="625"/><use xlink:href="#l0tcezsdgx8jgU65NBfX_pad-52" x="-1843" y="8"/><use xlink:href="#l0tcezsdgx8jgU65NBfX_pad-52" x="-1843" y="-92"/><use xlink:href="#l0tcezsdgx8jgU65NBfX_pad-52" x="-2900.94" y="2405.4"/><use xlink:href="#l0tcezsdgx8jgU65NBfX_pad-52" x="-2900.94" y="2335.4"/><use xlink:href="#l0tcezsdgx8jgU65NBfX_pad-52" x="-2970.94" y="2475.4"/><use xlink:href="#l0tcezsdgx8jgU65NBfX_pad-52" x="-2900.94" y="2475.4"/><use xlink:href="#l0tcezsdgx8jgU65NBfX_pad-52" x="-3040.94" y="2475.4"/><use xlink:href="#l0tcezsdgx8jgU65NBfX_pad-52" x="-2970.94" y="2335.4"/><use xlink:href="#l0tcezsdgx8jgU65NBfX_pad-52" x="-3040.94" y="2405.4"/><use xlink:href="#l0tcezsdgx8jgU65NBfX_pad-52" x="-3040.94" y="2335.4"/><use xlink:href="#l0tcezsdgx8jgU65NBfX_pad-52" x="-1843" y="1208"/><use xlink:href="#l0tcezsdgx8jgU65NBfX_pad-52" x="-1843" y="208"/><use xlink:href="#l0tcezsdgx8jgU65NBfX_pad-52" x="-1843" y="108"/><use xlink:href="#l0tcezsdgx8jgU65NBfX_pad-52" x="-3103" y="508"/><use xlink:href="#l0tcezsdgx8jgU65NBfX_pad-52" x="-1650" y="1450"/><use xlink:href="#l0tcezsdgx8jgU65NBfX_pad-52" x="-1843" y="1608"/><use xlink:href="#l0tcezsdgx8jgU65NBfX_pad-52" x="-1214" y="272"/><use xlink:href="#l0tcezsdgx8jgU65NBfX_pad-52" x="-1350" y="985"/><use xlink:href="#l0tcezsdgx8jgU65NBfX_pad-52" x="-1175" y="1045"/><use xlink:href="#l0tcezsdgx8jgU65NBfX_pad-52" x="-1295" y="935"/><use xlink:href="#l0tcezsdgx8jgU65NBfX_pad-52" x="-1843" y="1408"/><use xlink:href="#l0tcezsdgx8jgU65NBfX_pad-52" x="-1843" y="1708"/><use xlink:href="#l0tcezsdgx8jgU65NBfX_pad-52" x="-1843" y="508"/><use xlink:href="#l0tcezsdgx8jgU65NBfX_pad-52" x="-1843" y="1308"/><use xlink:href="#l0tcezsdgx8jgU65NBfX_pad-52" x="-1843" y="1108"/><use xlink:href="#l0tcezsdgx8jgU65NBfX_pad-52" x="-1843" y="708"/><use xlink:href="#l0tcezsdgx8jgU65NBfX_pad-52" x="-1843" y="1008"/><use xlink:href="#l0tcezsdgx8jgU65NBfX_pad-52" x="-1843" y="908"/><use xlink:href="#l0tcezsdgx8jgU65NBfX_pad-52" x="-1843" y="608"/><use xlink:href="#l0tcezsdgx8jgU65NBfX_pad-52" x="-1843" y="808"/><use xlink:href="#l0tcezsdgx8jgU65NBfX_pad-52" x="-1843" y="408"/><use xlink:href="#l0tcezsdgx8jgU65NBfX_pad-52" x="-1843" y="308"/><use xlink:href="#l0tcezsdgx8jgU65NBfX_pad-52" x="-1843" y="1508"/><use xlink:href="#l0tcezsdgx8jgU65NBfX_pad-52" x="-3103" y="908"/><use xlink:href="#l0tcezsdgx8jgU65NBfX_pad-52" x="-3103" y="1708"/><use xlink:href="#l0tcezsdgx8jgU65NBfX_pad-52" x="-3103" y="1008"/><use xlink:href="#l0tcezsdgx8jgU65NBfX_pad-52" x="-3103" y="1808"/><use xlink:href="#l0tcezsdgx8jgU65NBfX_pad-52" x="-3103" y="1508"/><use xlink:href="#l0tcezsdgx8jgU65NBfX_pad-52" x="-3103" y="1308"/><use xlink:href="#l0tcezsdgx8jgU65NBfX_pad-52" x="-3103" y="1608"/><use xlink:href="#l0tcezsdgx8jgU65NBfX_pad-52" x="-3103" y="1408"/><use xlink:href="#l0tcezsdgx8jgU65NBfX_pad-52" x="-3103" y="1208"/><use xlink:href="#l0tcezsdgx8jgU65NBfX_pad-52" x="-3103" y="1108"/><use xlink:href="#l0tcezsdgx8jgU65NBfX_pad-52" x="-3103" y="708"/><use xlink:href="#l0tcezsdgx8jgU65NBfX_pad-52" x="-3103" y="808"/><use xlink:href="#l0tcezsdgx8jgU65NBfX_pad-52" x="-3103" y="608"/><use xlink:href="#l0tcezsdgx8jgU65NBfX_pad-52" x="-3103" y="408"/><use xlink:href="#l0tcezsdgx8jgU65NBfX_pad-52" x="-3103" y="308"/><use xlink:href="#l0tcezsdgx8jgU65NBfX_pad-52" x="-3103" y="108"/><use xlink:href="#l0tcezsdgx8jgU65NBfX_pad-52" x="-3103" y="208"/></g><mask id="N1AOBNr88Sb1ELyKfTn2_bottom_mech-mask"><g fill="#000" stroke="#000"><rect x="-3485.3" y="-180.18" width="3669.82" height="2969.81" fill="#fff"/></g></mask><mask id="N1AOBNr88Sb1ELyKfTn2_bottom_cf-mask"><g fill="#fff" stroke="#fff"><use xlink:href="#N1AOBNr88Sb1ELyKfTn2_bottom_soldermask"/></g></mask><mask id="N1AOBNr88Sb1ELyKfTn2_bottom_sm-mask"><g fill="#000" stroke="#000"><rect x="-3485.3" y="-180.18" width="3669.82" height="2969.81" fill="#fff"/><use xlink:href="#N1AOBNr88Sb1ELyKfTn2_bottom_soldermask"/></g></mask></defs><g transform="translate(0,2603.93) scale(1,-1)"><g mask="url(#N1AOBNr88Sb1ELyKfTn2_bottom_mech-mask)" transform="translate(-3300.38,0) scale(-1,1)"><rect x="-3485.3" y="-180.18" width="3669.82" height="2969.81" fill="currentColor" class="N1AOBNr88Sb1ELyKfTn2_fr4"/><use xlink:href="#N1AOBNr88Sb1ELyKfTn2_bottom_copper" fill="currentColor" stroke="currentColor" class="N1AOBNr88Sb1ELyKfTn2_cu"/><use xlink:href="#N1AOBNr88Sb1ELyKfTn2_bottom_copper" fill="currentColor" stroke="currentColor" class="N1AOBNr88Sb1ELyKfTn2_cf" mask="url(#N1AOBNr88Sb1ELyKfTn2_bottom_cf-mask)"/><g mask="url(#N1AOBNr88Sb1ELyKfTn2_bottom_sm-mask)"><rect x="-3485.3" y="-180.18" width="3669.82" height="2969.81" fill="currentColor" class="N1AOBNr88Sb1ELyKfTn2_sm"/></g></g></g></svg>