<svg version="1.1" xmlns="http://www.w3.org/2000/svg" xmlns:xlink="http://www.w3.org/1999/xlink" stroke-linecap="round" stroke-linejoin="round" stroke-width="0" fill-rule="evenodd" width="3.197855in" height="2.96425in" viewBox="-3099.865 -185.7 3197.855 2964.25" id="XvaCkiKSJisxI_Q836xx"><defs><mask id="XvaCkiKSJisxI_Q836xx_clear-1" fill="#000" stroke="#000"><g><rect x="-2768.12" y="1063.03" width="1107.18" height="1715.52" fill="#fff"/><path d="M -2397.66 1527.46 -2406.69 1527.46 -2406.69 1525.66 -2415.73 1525.66 -2415.73 1523.85 -2421.15 1523.85 -2421.15 1522.04 -2422.96 1522.04 -2422.96 1520.24 -2426.57 1520.24 -2426.57 1518.43 -2430.19 1518.43 -2430.19 1516.62 -2431.99 1516.62 -2431.99 1514.81 -2433.8 1514.81 -2433.8 1513.01 -2435.61 1513.01 -2435.61 1511.2 -2437.41 1511.2 -2437.41 1509.39 -2439.22 1509.39 -2439.22 1505.78 -2441.03 1505.78 -2441.03 1503.97 -2442.84 1503.97 -2442.84 1500.36 -2444.64 1500.36 -2444.64 1494.94 -2446.45 1494.94 -2446.45 1491.32 -2446.45 1489.51 -2446.45 1485.9 -2448.26 1485.9 -2448.26 1476.86 -2446.45 1476.86 -2446.45 1467.83 -2444.64 1467.83 -2444.64 1462.41 -2442.84 1462.41 -2442.84 1458.79 -2441.03 1458.79 -2441.03 1456.99 -2439.22 1456.99 -2439.22 1453.37 -2437.41 1453.37 -2437.41 1451.56 -2435.61 1451.56 -2435.61 1449.76 -2433.8 1449.76 -2433.8 1447.95 -2431.99 1447.95 -2431.99 1446.14 -2430.19 1446.14 -2430.19 1444.34 -2428.38 1444.34 -2428.38 1442.53 -2424.76 1442.53 -2424.76 1440.72 -2421.15 1440.72 -2421.15 1438.91 -2417.54 1438.91 -2417.54 1437.11 -2408.5 1437.11 -2408.5 1435.3 -2395.85 1435.3 -2395.85 1437.11 -2386.81 1437.11 -2386.81 1438.91 -2383.2 1438.91 -2383.2 1440.72 -2379.59 1440.72 -2379.59 1442.53 -2375.97 1442.53 -2375.97 1444.34 -2374.16 1444.34 -2374.16 1446.14 -2372.36 1446.14 -2372.36 1447.95 -2370.55 1447.95 -2370.55 1449.76 -2368.74 1449.76 -2368.74 1451.56 -2366.94 1451.56 -2366.94 1453.37 -2365.13 1453.37 -2365.13 1455.18 -2363.32 1455.18 -2363.32 1458.79 -2361.51 1458.79 -2361.51 1462.41 -2359.71 1462.41 -2359.71 1467.83 -2357.9 1467.83 -2357.9 1475.06 -2356.09 1475.06 -2356.09 1485.9 -2357.9 1485.9 -2357.9 1494.94 -2359.71 1494.94 -2359.71 1500.36 -2361.51 1500.36 -2361.51 1503.97 -2363.32 1503.97 -2363.32 1505.78 -2365.13 1505.78 -2365.13 1509.39 -2366.94 1509.39 -2366.94 1511.2 -2368.74 1511.2 -2368.74 1513.01 -2370.55 1513.01 -2370.55 1514.81 -2372.36 1514.81 -2372.36 1516.62 -2374.16 1516.62 -2374.16 1518.43 -2377.78 1518.43 -2377.78 1520.24 -2379.59 1520.24 -2379.59 1522.04 -2383.2 1522.04 -2383.2 1523.85 -2388.62 1523.85 -2388.62 1525.66 -2397.66 1525.66 -2397.66 1527.46"/><path d="M -2451.87 1417.23 -2459.1 1417.23 -2459.1 1415.42 -2471.75 1415.42 -2471.75 1413.61 -2477.17 1413.61 -2477.17 1411.81 -2482.59 1411.81 -2482.59 1410 -2486.21 1410 -2486.21 1408.19 -2489.82 1408.19 -2489.82 1406.39 -2493.44 1406.39 -2493.44 1404.58 -2495.24 1404.58 -2495.24 1402.77 -2497.05 1402.77 -2497.05 1400.96 -2498.86 1400.96 -2498.86 1399.16 -2500.66 1399.16 -2500.66 1397.35 -2504.28 1397.35 -2504.28 1393.74 -2506.09 1393.74 -2506.09 1391.93 -2507.89 1391.93 -2507.89 1390.12 -2509.7 1390.12 -2509.7 1388.31 -2511.51 1388.31 -2511.51 1384.7 -2513.31 1384.7 -2513.31 1381.09 -2515.12 1381.09 -2515.12 1377.47 -2516.93 1377.47 -2516.93 1373.86 -2518.74 1373.86 -2518.74 1368.44 -2520.54 1368.44 -2520.54 1334.1 -2518.74 1334.1 -2518.74 1328.68 -2516.93 1328.68 -2516.93 1325.06 -2515.12 1325.06 -2515.12 1321.45 -2513.31 1321.45 -2513.31 1317.84 -2511.51 1317.84 -2511.51 1316.03 -2509.7 1316.03 -2509.7 1312.41 -2507.89 1312.41 -2507.89 1310.61 -2506.09 1310.61 -2506.09 1308.8 -2504.28 1308.8 -2504.28 1306.99 -2502.47 1306.99 -2502.47 1305.19 -2500.66 1305.19 -2500.66 1303.38 -2498.86 1303.38 -2498.86 1301.57 -2497.05 1301.57 -2497.05 1299.76 -2495.24 1299.76 -2495.24 1297.96 -2491.63 1297.96 -2491.63 1296.15 -2489.82 1296.15 -2489.82 1294.34 -2486.21 1294.34 -2486.21 1292.54 -2482.59 1292.54 -2482.59 1290.73 -2477.17 1290.73 -2477.17 1288.92 -2469.94 1288.92 -2469.94 1287.11 -2442.84 1287.11 -2442.84 1288.92 -2435.61 1288.92 -2435.61 1290.73 -2430.19 1290.73 -2430.19 1292.54 -2426.57 1292.54 -2426.57 1294.34 -2424.76 1294.34 -2424.76 1296.15 -2421.15 1296.15 -2421.15 1297.96 -2417.54 1297.96 -2417.54 1299.76 -2415.73 1299.76 -2415.73 1301.57 -2413.92 1301.57 -2413.92 1303.38 -2412.11 1303.38 -2412.11 1305.19 -2410.31 1305.19 -2410.31 1306.99 -2408.5 1306.99 -2408.5 1308.8 -2406.69 1308.8 -2406.69 1310.61 -2404.89 1310.61 -2404.89 1312.41 -2403.08 1312.41 -2403.08 1316.03 -2401.27 1316.03 -2401.27 1317.84 -2399.46 1317.84 -2399.46 1321.45 -2397.66 1321.45 -2397.66 1325.06 -2395.85 1325.06 -2395.85 1330.49 -2394.04 1330.49 -2394.04 1337.71 -2392.24 1337.71 -2392.24 1364.82 -2394.04 1364.82 -2394.04 1372.05 -2395.85 1372.05 -2395.85 1377.47 -2397.66 1377.47 -2397.66 1381.09 -2399.46 1381.09 -2399.46 1384.7 -2401.27 1384.7 -2401.27 1386.51 -2403.08 1386.51 -2403.08 1390.12 -2404.89 1390.12 -2404.89 1391.93 -2406.69 1391.93 -2406.69 1393.74 -2408.5 1393.74 -2408.5 1395.54 -2410.31 1395.54 -2410.31 1397.35 -2412.11 1397.35 -2412.11 1399.16 -2413.92 1399.16 -2413.92 1400.96 -2415.73 1400.96 -2415.73 1402.77 -2417.54 1402.77 -2417.54 1404.58 -2421.15 1404.58 -2421.15 1406.39 -2422.96 1406.39 -2422.96 1408.19 -2426.57 1408.19 -2426.57 1410 -2430.19 1410 -2430.19 1411.81 -2435.61 1411.81 -2435.61 1413.61 -2441.03 1413.61 -2441.03 1415.42 -2451.87 1415.42 -2451.87 1417.23"/><path d="M -2394.04 1261.81 -2413.92 1261.81 -2413.92 1260.01 -2419.34 1260.01 -2419.34 1258.2 -2422.96 1258.2 -2422.96 1256.39 -2424.76 1256.39 -2424.76 1254.59 -2426.57 1254.59 -2426.57 1252.78 -2428.38 1252.78 -2428.38 1250.97 -2430.19 1250.97 -2430.19 1249.16 -2431.99 1249.16 -2431.99 1245.55 -2433.8 1245.55 -2433.8 1241.94 -2435.61 1241.94 -2435.61 1236.51 -2437.41 1236.51 -2437.41 1223.86 -2435.61 1223.86 -2435.61 1218.44 -2433.8 1218.44 -2433.8 1214.83 -2431.99 1214.83 -2431.99 1211.21 -2430.19 1211.21 -2430.19 1209.41 -2428.38 1209.41 -2428.38 1207.6 -2426.57 1207.6 -2426.57 1205.79 -2424.76 1205.79 -2424.76 1203.99 -2422.96 1203.99 -2422.96 1202.18 -2419.34 1202.18 -2419.34 1200.37 -2415.73 1200.37 -2415.73 1198.56 -2408.5 1198.56 -2408.5 1196.76 -2401.27 1196.76 -2401.27 1198.56 -2392.24 1198.56 -2392.24 1200.37 -2388.62 1200.37 -2388.62 1202.18 -2385.01 1202.18 -2385.01 1203.99 -2383.2 1203.99 -2383.2 1205.79 -2381.39 1205.79 -2381.39 1207.6 -2379.59 1207.6 -2379.59 1209.41 -2377.78 1209.41 -2377.78 1213.02 -2375.97 1213.02 -2375.97 1214.83 -2374.16 1214.83 -2374.16 1220.25 -2372.36 1220.25 -2372.36 1227.48 -2372.36 1229.29 -2372.36 1240.13 -2374.16 1240.13 -2374.16 1243.74 -2375.97 1243.74 -2375.97 1247.36 -2377.78 1247.36 -2377.78 1249.16 -2379.59 1249.16 -2379.59 1252.78 -2381.39 1252.78 -2381.39 1254.59 -2383.2 1254.59 -2383.2 1256.39 -2386.81 1256.39 -2386.81 1258.2 -2390.43 1258.2 -2390.43 1260.01 -2394.04 1260.01 -2394.04 1261.81"/><path d="M -2703.06 1146.16 -2742.82 1146.16 -2742.82 1144.35 -2744.63 1144.35 -2744.63 1120.86 -2699.45 1120.86 -2699.45 1122.66 -2695.84 1122.66 -2695.84 1124.47 -2694.03 1124.47 -2694.03 1126.28 -2692.22 1126.28 -2692.22 1129.89 -2690.41 1129.89 -2690.41 1137.12 -2692.22 1137.12 -2692.22 1140.74 -2694.03 1140.74 -2694.03 1142.54 -2695.84 1142.54 -2695.84 1144.35 -2703.06 1144.35 -2703.06 1146.16"/><path d="M -2695.84 1106.4 -2744.63 1106.4 -2744.63 1099.17 -2744.63 1097.36 -2744.63 1079.29 -2742.82 1079.29 -2742.82 1077.49 -2706.68 1077.49 -2706.68 1079.29 -2695.84 1079.29 -2695.84 1081.1 -2692.22 1081.1 -2692.22 1082.91 -2690.41 1082.91 -2690.41 1086.52 -2688.61 1086.52 -2688.61 1099.17 -2690.41 1099.17 -2690.41 1102.79 -2694.03 1102.79 -2694.03 1104.59 -2695.84 1104.59 -2695.84 1106.4"/><path d="M -2462.71 1129.89 -2482.59 1129.89 -2482.59 1128.09 -2486.21 1128.09 -2486.21 1126.28 -2489.82 1126.28 -2489.82 1124.47 -2491.63 1124.47 -2491.63 1122.66 -2493.44 1122.66 -2493.44 1120.86 -2495.24 1120.86 -2495.24 1119.05 -2497.05 1119.05 -2497.05 1115.44 -2498.86 1115.44 -2498.86 1111.82 -2500.66 1111.82 -2500.66 1095.56 -2498.86 1095.56 -2498.86 1090.14 -2497.05 1090.14 -2497.05 1088.33 -2495.24 1088.33 -2495.24 1084.71 -2493.44 1084.71 -2493.44 1082.91 -2491.63 1082.91 -2491.63 1081.1 -2488.01 1081.1 -2488.01 1079.29 -2484.4 1079.29 -2484.4 1077.49 -2480.79 1077.49 -2480.79 1075.68 -2464.52 1075.68 -2464.52 1077.49 -2460.91 1077.49 -2460.91 1079.29 -2457.29 1079.29 -2457.29 1081.1 -2453.68 1081.1 -2453.68 1082.91 -2451.87 1082.91 -2451.87 1084.71 -2450.06 1084.71 -2450.06 1088.33 -2448.26 1088.33 -2448.26 1090.14 -2446.45 1090.14 -2446.45 1095.56 -2444.64 1095.56 -2444.64 1111.82 -2446.45 1111.82 -2446.45 1115.44 -2448.26 1115.44 -2448.26 1119.05 -2450.06 1119.05 -2450.06 1120.86 -2451.87 1120.86 -2451.87 1122.66 -2453.68 1122.66 -2453.68 1124.47 -2455.49 1124.47 -2455.49 1126.28 -2459.1 1126.28 -2459.1 1128.09 -2462.71 1128.09 -2462.71 1129.89"/><path d="M -2354.87 2733.1 -2354.89 2733.1 -2354.92 2733.1 -2355 2733.1 -2355.09 2733.08 -2355.21 2733.06 -2355.36 2733.04 -2355.65 2732.97 -2356.01 2732.86 -2356.38 2732.69 -2356.59 2732.57 -2356.76 2732.44 -2356.94 2732.28 -2357.11 2732.11 -2357.13 2732.09 -2357.15 2732.07 -2357.19 2732 -2357.24 2731.92 -2357.32 2731.81 -2357.39 2731.68 -2357.47 2731.53 -2357.56 2731.34 -2357.64 2731.13 -2357.71 2730.91 -2357.79 2730.67 -2357.86 2730.39 -2357.92 2730.07 -2357.95 2729.75 -2357.99 2729.4 -2357.99 2722.94 -2351.63 2722.94 -2351.63 2728.67 -2351.65 2728.82 -2351.65 2728.99 -2351.67 2729.17 -2351.67 2729.38 -2351.73 2729.81 -2351.78 2730.26 -2351.88 2730.71 -2351.99 2731.1 -2351.99 2731.12 -2352.01 2731.13 -2352.06 2731.27 -2352.14 2731.44 -2352.27 2731.64 -2352.42 2731.88 -2352.62 2732.13 -2352.85 2732.37 -2353.13 2732.57 -2353.15 2732.57 -2353.17 2732.59 -2353.28 2732.65 -2353.43 2732.74 -2353.65 2732.84 -2353.91 2732.93 -2354.2 2733.02 -2354.53 2733.08 -2354.87 2733.1"/><path d="M -1674.87 2753.71 -1674.89 2753.71 -1674.92 2753.71 -1675 2753.71 -1675.09 2753.69 -1675.2 2753.68 -1675.35 2753.66 -1675.65 2753.58 -1676.01 2753.47 -1676.38 2753.3 -1676.59 2753.19 -1676.76 2753.06 -1676.94 2752.89 -1677.11 2752.72 -1677.13 2752.7 -1677.15 2752.69 -1677.19 2752.61 -1677.24 2752.54 -1677.32 2752.42 -1677.39 2752.29 -1677.47 2752.14 -1677.56 2751.96 -1677.64 2751.75 -1677.71 2751.52 -1677.79 2751.28 -1677.86 2751 -1677.92 2750.68 -1677.95 2750.37 -1677.99 2750.01 -1677.99 2743.56 -1671.63 2743.56 -1671.63 2749.28 -1671.65 2749.43 -1671.65 2749.6 -1671.67 2749.79 -1671.67 2749.99 -1671.73 2750.42 -1671.78 2750.87 -1671.88 2751.32 -1671.99 2751.71 -1671.99 2751.73 -1672.01 2751.75 -1672.06 2751.88 -1672.14 2752.05 -1672.27 2752.25 -1672.42 2752.5 -1672.62 2752.74 -1672.85 2752.98 -1673.13 2753.19 -1673.15 2753.19 -1673.17 2753.21 -1673.28 2753.26 -1673.43 2753.36 -1673.65 2753.45 -1673.92 2753.55 -1674.2 2753.64 -1674.53 2753.69 -1674.87 2753.71"/><path d="M -1668.79 2718.16 -1674.1 2716.15 -1674.14 2716.13 -1674.21 2716.11 -1674.35 2716.05 -1674.51 2716 -1674.72 2715.92 -1674.96 2715.83 -1675.22 2715.73 -1675.5 2715.64 -1676.14 2715.42 -1676.81 2715.19 -1677.47 2714.97 -1677.79 2714.87 -1678.08 2714.78 -1678.07 2714.78 -1678.01 2714.76 -1677.9 2714.74 -1677.77 2714.7 -1677.6 2714.67 -1677.41 2714.63 -1677.19 2714.57 -1676.94 2714.52 -1676.66 2714.44 -1676.38 2714.37 -1675.77 2714.18 -1675.11 2713.98 -1674.42 2713.75 -1668.79 2711.62 -1668.79 2718.16"/><path d="M -1869.87 2718.1 -1869.89 2718.1 -1869.93 2718.1 -1870 2718.1 -1870.09 2718.08 -1870.21 2718.06 -1870.36 2718.04 -1870.65 2717.97 -1871.01 2717.86 -1871.38 2717.69 -1871.59 2717.58 -1871.76 2717.44 -1871.94 2717.28 -1872.11 2717.11 -1872.13 2717.09 -1872.15 2717.07 -1872.19 2717 -1872.24 2716.92 -1872.32 2716.81 -1872.39 2716.68 -1872.47 2716.53 -1872.56 2716.34 -1872.64 2716.14 -1872.71 2715.91 -1872.79 2715.67 -1872.86 2715.39 -1872.92 2715.07 -1872.95 2714.75 -1872.99 2714.4 -1872.99 2707.95 -1866.63 2707.95 -1866.63 2713.67 -1866.65 2713.82 -1866.65 2713.98 -1866.67 2714.17 -1866.67 2714.38 -1866.73 2714.81 -1866.78 2715.26 -1866.88 2715.7 -1866.99 2716.1 -1866.99 2716.12 -1867.01 2716.14 -1867.06 2716.27 -1867.14 2716.43 -1867.27 2716.64 -1867.42 2716.88 -1867.62 2717.13 -1867.85 2717.37 -1868.13 2717.58 -1868.15 2717.58 -1868.17 2717.59 -1868.28 2717.65 -1868.43 2717.74 -1868.65 2717.84 -1868.91 2717.93 -1869.19 2718.02 -1869.53 2718.08 -1869.87 2718.1"/><path d="M -1768.48 2760.18 -1768.52 2760.18 -1768.61 2760.18 -1768.76 2760.18 -1768.97 2760.16 -1769.23 2760.15 -1769.51 2760.13 -1769.82 2760.11 -1770.18 2760.05 -1770.54 2760.02 -1770.91 2759.94 -1771.68 2759.77 -1772.05 2759.66 -1772.43 2759.53 -1772.76 2759.36 -1773.08 2759.19 -1773.1 2759.17 -1773.15 2759.16 -1773.23 2759.1 -1773.34 2759.02 -1773.47 2758.91 -1773.62 2758.8 -1773.96 2758.52 -1774.33 2758.16 -1774.69 2757.75 -1775 2757.29 -1775.15 2757.04 -1775.27 2756.78 -1775.27 2756.76 -1775.29 2756.72 -1775.31 2756.67 -1775.32 2756.59 -1775.36 2756.48 -1775.4 2756.35 -1775.44 2756.18 -1775.47 2755.99 -1775.49 2755.77 -1775.53 2755.55 -1775.57 2755.26 -1775.6 2754.97 -1775.62 2754.65 -1775.64 2754.29 -1775.66 2753.92 -1775.66 2749.49 -1761.02 2749.49 -1761.02 2753.88 -1761.04 2754.03 -1761.04 2754.22 -1761.05 2754.42 -1761.05 2754.65 -1761.09 2755.13 -1761.17 2755.62 -1761.24 2756.11 -1761.3 2756.33 -1761.35 2756.54 -1761.35 2756.56 -1761.37 2756.59 -1761.39 2756.65 -1761.43 2756.72 -1761.5 2756.91 -1761.62 2757.15 -1761.77 2757.43 -1761.93 2757.71 -1762.14 2757.99 -1762.36 2758.26 -1762.38 2758.28 -1762.4 2758.29 -1762.46 2758.35 -1762.53 2758.41 -1762.63 2758.48 -1762.72 2758.57 -1763 2758.78 -1763.36 2759.01 -1763.77 2759.25 -1764.23 2759.47 -1764.78 2759.68 -1764.79 2759.68 -1764.85 2759.7 -1764.93 2759.73 -1765.06 2759.75 -1765.21 2759.79 -1765.38 2759.85 -1765.58 2759.88 -1765.82 2759.94 -1766.07 2759.98 -1766.35 2760.02 -1766.66 2760.07 -1766.98 2760.11 -1767.34 2760.15 -1767.69 2760.16 -1768.48 2760.18"/></g></mask></defs><g transform="translate(0,2592.85) scale(1,-1)" fill="currentColor" stroke="currentColor"><g mask="url(#XvaCkiKSJisxI_Q836xx_clear-1)"><path d="M -2509.7 1686.49 -2507.89 1686.49 -2507.89 1684.69 -2506.09 1684.69 -2506.09 1682.88 -2504.28 1682.88 -2504.28 1679.26 -2502.47 1679.26 -2502.47 1677.46 -2500.66 1677.46 -2500.66 1675.65 -2498.86 1675.65 -2498.86 1672.04 -2497.05 1672.04 -2497.05 1670.23 -2495.24 1670.23 -2495.24 1668.42 -2493.44 1668.42 -2493.44 1664.81 -2491.63 1664.81 -2491.63 1663 -2489.82 1663 -2489.82 1659.39 -2488.01 1659.39 -2488.01 1657.58 -2486.21 1657.58 -2486.21 1655.77 -2484.4 1655.77 -2484.4 1652.16 -2482.59 1652.16 -2482.59 1650.35 -2480.79 1650.35 -2480.79 1646.74 -2478.98 1646.74 -2478.98 1643.12 -2477.17 1643.12 -2477.17 1641.31 -2475.36 1641.31 -2475.36 1637.7 -2473.56 1637.7 -2473.56 1635.89 -2471.75 1635.89 -2471.75 1632.28 -2469.94 1632.28 -2469.94 1630.47 -2468.14 1630.47 -2468.14 1626.86 -2466.33 1626.86 -2466.33 1623.24 -2464.52 1623.24 -2464.52 1619.63 -2462.71 1619.63 -2462.71 1616.01 -2460.91 1616.01 -2460.91 1614.21 -2459.1 1614.21 -2459.1 1610.59 -2457.29 1610.59 -2457.29 1606.98 -2455.49 1606.98 -2455.49 1603.36 -2453.68 1603.36 -2453.68 1599.75 -2451.87 1599.75 -2451.87 1594.33 -2450.06 1594.33 -2450.06 1590.71 -2448.26 1590.71 -2448.26 1585.29 -2446.45 1585.29 -2446.45 1579.87 -2444.64 1579.87 -2444.64 1570.84 -2442.84 1570.84 -2442.84 1552.76 -2444.64 1552.76 -2444.64 1543.73 -2446.45 1543.73 -2446.45 1538.31 -2448.26 1538.31 -2448.26 1534.69 -2450.06 1534.69 -2450.06 1529.27 -2451.87 1529.27 -2451.87 1527.46 -2453.68 1527.46 -2453.68 1523.85 -2455.49 1523.85 -2455.49 1522.04 -2457.29 1522.04 -2457.29 1518.43 -2459.1 1518.43 -2459.1 1516.62 -2460.91 1516.62 -2460.91 1514.81 -2462.71 1514.81 -2462.71 1513.01 -2464.52 1513.01 -2464.52 1511.2 -2466.33 1511.2 -2466.33 1509.39 -2468.14 1509.39 -2468.14 1507.59 -2469.94 1507.59 -2469.94 1505.78 -2471.75 1505.78 -2471.75 1503.97 -2473.56 1503.97 -2473.56 1502.16 -2475.36 1502.16 -2475.36 1500.36 -2478.98 1500.36 -2478.98 1498.55 -2480.79 1498.55 -2480.79 1496.74 -2482.59 1496.74 -2482.59 1494.94 -2484.4 1494.94 -2484.4 1493.13 -2488.01 1493.13 -2488.01 1491.32 -2489.82 1491.32 -2489.82 1489.51 -2491.63 1489.51 -2491.63 1487.71 -2495.24 1487.71 -2495.24 1485.9 -2497.05 1485.9 -2497.05 1484.09 -2498.86 1484.09 -2498.86 1482.29 -2500.66 1482.29 -2500.66 1480.48 -2504.28 1480.48 -2504.28 1478.67 -2506.09 1478.67 -2506.09 1476.86 -2507.89 1476.86 -2507.89 1475.06 -2511.51 1475.06 -2511.51 1473.25 -2515.12 1473.25 -2515.12 1475.06 -2516.93 1475.06 -2516.93 1476.86 -2520.54 1476.86 -2520.54 1478.67 -2522.35 1478.67 -2522.35 1480.48 -2524.16 1480.48 -2524.16 1482.29 -2527.77 1482.29 -2527.77 1484.09 -2529.58 1484.09 -2529.58 1485.9 -2531.39 1485.9 -2531.39 1487.71 -2533.19 1487.71 -2533.19 1489.51 -2536.81 1489.51 -2536.81 1491.32 -2538.61 1491.32 -2538.61 1493.13 -2540.42 1493.13 -2540.42 1494.94 -2542.23 1494.94 -2542.23 1496.74 -2545.84 1496.74 -2545.84 1498.55 -2547.65 1498.55 -2547.65 1500.36 -2549.46 1500.36 -2549.46 1502.16 -2551.26 1502.16 -2551.26 1503.97 -2554.88 1503.97 -2554.88 1505.78 -2556.69 1505.78 -2556.69 1507.59 -2558.49 1507.59 -2558.49 1509.39 -2560.3 1509.39 -2560.3 1511.2 -2562.11 1511.2 -2562.11 1513.01 -2563.91 1513.01 -2563.91 1514.81 -2565.72 1514.81 -2565.72 1516.62 -2567.53 1516.62 -2567.53 1518.43 -2569.34 1518.43 -2569.34 1520.24 -2571.14 1520.24 -2571.14 1523.85 -2572.95 1523.85 -2572.95 1525.66 -2574.76 1525.66 -2574.76 1529.27 -2576.56 1529.27 -2576.56 1532.89 -2578.37 1532.89 -2578.37 1538.31 -2580.18 1538.31 -2580.18 1543.73 -2581.99 1543.73 -2581.99 1550.96 -2583.79 1550.96 -2583.79 1570.84 -2581.99 1570.84 -2581.99 1579.87 -2580.18 1579.87 -2580.18 1585.29 -2578.37 1585.29 -2578.37 1590.71 -2576.56 1590.71 -2576.56 1594.33 -2574.76 1594.33 -2574.76 1597.94 -2572.95 1597.94 -2572.95 1601.56 -2571.14 1601.56 -2571.14 1605.17 -2569.34 1605.17 -2569.34 1608.79 -2567.53 1608.79 -2567.53 1610.59 -2565.72 1610.59 -2565.72 1614.21 -2563.91 1614.21 -2563.91 1617.82 -2562.11 1617.82 -2562.11 1621.44 -2560.3 1621.44 -2560.3 1623.24 -2558.49 1623.24 -2558.49 1626.86 -2556.69 1626.86 -2556.69 1630.47 -2554.88 1630.47 -2554.88 1632.28 -2553.07 1632.28 -2553.07 1635.89 -2551.26 1635.89 -2551.26 1637.7 -2549.46 1637.7 -2549.46 1641.31 -2547.65 1641.31 -2547.65 1643.12 -2545.84 1643.12 -2545.84 1646.74 -2544.04 1646.74 -2544.04 1648.54 -2542.23 1648.54 -2542.23 1650.35 -2540.42 1650.35 -2540.42 1653.96 -2538.61 1653.96 -2538.61 1655.77 -2536.81 1655.77 -2536.81 1657.58 -2535 1657.58 -2535 1661.19 -2533.19 1661.19 -2533.19 1663 -2531.39 1663 -2531.39 1664.81 -2529.58 1664.81 -2529.58 1668.42 -2527.77 1668.42 -2527.77 1670.23 -2525.96 1670.23 -2525.96 1672.04 -2524.16 1672.04 -2524.16 1675.65 -2522.35 1675.65 -2522.35 1677.46 -2520.54 1677.46 -2520.54 1679.26 -2518.74 1679.26 -2518.74 1682.88 -2516.93 1682.88 -2516.93 1684.69 -2515.12 1684.69 -2515.12 1686.49 -2513.31 1686.49 -2513.31 1688.3 -2509.7 1688.3 -2509.7 1686.49"/><path d="M -2394.04 1529.27 -2386.81 1529.27 -2386.81 1527.46 -2383.2 1527.46 -2383.2 1525.66 -2377.78 1525.66 -2377.78 1523.85 -2375.97 1523.85 -2375.97 1522.04 -2372.36 1522.04 -2372.36 1520.24 -2370.55 1520.24 -2370.55 1518.43 -2368.74 1518.43 -2368.74 1516.62 -2366.94 1516.62 -2366.94 1514.81 -2365.13 1514.81 -2365.13 1513.01 -2363.32 1513.01 -2363.32 1511.2 -2361.51 1511.2 -2361.51 1507.59 -2359.71 1507.59 -2359.71 1505.78 -2357.9 1505.78 -2357.9 1502.16 -2356.09 1502.16 -2356.09 1496.74 -2354.29 1496.74 -2354.29 1489.51 -2352.48 1489.51 -2352.48 1471.44 -2354.29 1471.44 -2354.29 1464.21 -2356.09 1464.21 -2356.09 1460.6 -2357.9 1460.6 -2357.9 1456.99 -2359.71 1456.99 -2359.71 1453.37 -2361.51 1453.37 -2361.51 1451.56 -2363.32 1451.56 -2363.32 1449.76 -2365.13 1449.76 -2365.13 1447.95 -2366.94 1447.95 -2366.94 1446.14 -2368.74 1446.14 -2368.74 1444.34 -2370.55 1444.34 -2370.55 1442.53 -2372.36 1442.53 -2372.36 1440.72 -2374.16 1440.72 -2374.16 1438.91 -2377.78 1438.91 -2377.78 1437.11 -2381.39 1437.11 -2381.39 1435.3 -2385.01 1435.3 -2385.01 1433.49 -2394.04 1433.49 -2394.04 1431.69 -2410.31 1431.69 -2410.31 1433.49 -2422.96 1433.49 -2422.96 1429.88 -2424.76 1429.88 -2424.76 1426.26 -2426.57 1426.26 -2426.57 1422.65 -2428.38 1422.65 -2428.38 1413.61 -2424.76 1413.61 -2424.76 1411.81 -2421.15 1411.81 -2421.15 1410 -2419.34 1410 -2419.34 1408.19 -2415.73 1408.19 -2415.73 1406.39 -2413.92 1406.39 -2413.92 1404.58 -2412.11 1404.58 -2412.11 1402.77 -2410.31 1402.77 -2410.31 1400.96 -2408.5 1400.96 -2408.5 1399.16 -2406.69 1399.16 -2406.69 1397.35 -2404.89 1397.35 -2404.89 1395.54 -2403.08 1395.54 -2403.08 1393.74 -2401.27 1393.74 -2401.27 1391.93 -2399.46 1391.93 -2399.46 1388.31 -2397.66 1388.31 -2397.66 1386.51 -2395.85 1386.51 -2395.85 1382.89 -2394.04 1382.89 -2394.04 1379.28 -2392.24 1379.28 -2392.24 1373.86 -2390.43 1373.86 -2390.43 1368.44 -2388.62 1368.44 -2388.62 1334.1 -2390.43 1334.1 -2390.43 1328.68 -2392.24 1328.68 -2392.24 1323.26 -2394.04 1323.26 -2394.04 1319.64 -2395.85 1319.64 -2395.85 1316.03 -2397.66 1316.03 -2397.66 1314.22 -2399.46 1314.22 -2399.46 1310.61 -2401.27 1310.61 -2401.27 1308.8 -2403.08 1308.8 -2403.08 1306.99 -2404.89 1306.99 -2404.89 1305.19 -2406.69 1305.19 -2406.69 1303.38 -2408.5 1303.38 -2408.5 1301.57 -2410.31 1301.57 -2410.31 1299.76 -2412.11 1299.76 -2412.11 1297.96 -2413.92 1297.96 -2413.92 1296.15 -2415.73 1296.15 -2415.73 1294.34 -2419.34 1294.34 -2419.34 1292.54 -2422.96 1292.54 -2422.96 1290.73 -2424.76 1290.73 -2424.76 1288.92 -2426.57 1288.92 -2426.57 1285.31 -2424.76 1285.31 -2424.76 1283.5 -2422.96 1283.5 -2422.96 1279.89 -2421.15 1279.89 -2421.15 1276.27 -2419.34 1276.27 -2419.34 1272.66 -2417.54 1272.66 -2417.54 1270.85 -2415.73 1270.85 -2415.73 1267.24 -2412.11 1267.24 -2412.11 1265.43 -2392.24 1265.43 -2392.24 1263.62 -2388.62 1263.62 -2388.62 1261.81 -2385.01 1261.81 -2385.01 1260.01 -2383.2 1260.01 -2383.2 1258.2 -2379.59 1258.2 -2379.59 1256.39 -2377.78 1256.39 -2377.78 1254.59 -2375.97 1254.59 -2375.97 1252.78 -2374.16 1252.78 -2374.16 1249.16 -2372.36 1249.16 -2372.36 1245.55 -2370.55 1245.55 -2370.55 1241.94 -2368.74 1241.94 -2368.74 1232.9 -2366.94 1232.9 -2366.94 1225.67 -2368.74 1225.67 -2368.74 1218.44 -2370.55 1218.44 -2370.55 1213.02 -2372.36 1213.02 -2372.36 1211.21 -2374.16 1211.21 -2374.16 1207.6 -2375.97 1207.6 -2375.97 1205.79 -2377.78 1205.79 -2377.78 1203.99 -2379.59 1203.99 -2379.59 1202.18 -2381.39 1202.18 -2381.39 1200.37 -2383.2 1200.37 -2383.2 1198.56 -2386.81 1198.56 -2386.81 1196.76 -2390.43 1196.76 -2390.43 1194.95 -2397.66 1194.95 -2397.66 1193.14 -2412.11 1193.14 -2412.11 1194.95 -2417.54 1194.95 -2417.54 1196.76 -2421.15 1196.76 -2421.15 1198.56 -2424.76 1198.56 -2424.76 1200.37 -2426.57 1200.37 -2426.57 1202.18 -2428.38 1202.18 -2428.38 1203.99 -2430.19 1203.99 -2430.19 1205.79 -2431.99 1205.79 -2431.99 1207.6 -2433.8 1207.6 -2433.8 1209.41 -2435.61 1209.41 -2435.61 1213.02 -2437.41 1213.02 -2437.41 1216.64 -2439.22 1216.64 -2439.22 1220.25 -2441.03 1220.25 -2441.03 1238.32 -2439.22 1238.32 -2439.22 1243.74 -2437.41 1243.74 -2437.41 1247.36 -2435.61 1247.36 -2435.61 1250.97 -2433.8 1250.97 -2433.8 1252.78 -2431.99 1252.78 -2431.99 1254.59 -2431.99 1258.2 -2433.8 1258.2 -2433.8 1261.81 -2435.61 1261.81 -2435.61 1265.43 -2437.41 1265.43 -2437.41 1267.24 -2439.22 1267.24 -2439.22 1270.85 -2441.03 1270.85 -2441.03 1274.46 -2442.84 1274.46 -2442.84 1276.27 -2444.64 1276.27 -2444.64 1279.89 -2446.45 1279.89 -2446.45 1281.69 -2462.71 1281.69 -2462.71 1283.5 -2473.56 1283.5 -2473.56 1285.31 -2478.98 1285.31 -2478.98 1287.11 -2482.59 1287.11 -2482.59 1288.92 -2488.01 1288.92 -2488.01 1290.73 -2491.63 1290.73 -2491.63 1292.54 -2493.44 1292.54 -2493.44 1294.34 -2497.05 1294.34 -2497.05 1296.15 -2498.86 1296.15 -2498.86 1297.96 -2500.66 1297.96 -2500.66 1299.76 -2504.28 1299.76 -2504.28 1301.57 -2506.09 1301.57 -2506.09 1303.38 -2507.89 1303.38 -2507.89 1306.99 -2509.7 1306.99 -2509.7 1308.8 -2511.51 1308.8 -2511.51 1310.61 -2513.31 1310.61 -2513.31 1314.22 -2515.12 1314.22 -2515.12 1316.03 -2516.93 1316.03 -2516.93 1319.64 -2518.74 1319.64 -2518.74 1323.26 -2520.54 1323.26 -2520.54 1328.68 -2522.35 1328.68 -2522.35 1334.1 -2524.16 1334.1 -2524.16 1343.14 -2525.96 1343.14 -2525.96 1359.4 -2524.16 1359.4 -2524.16 1368.44 -2522.35 1368.44 -2522.35 1375.66 -2520.54 1375.66 -2520.54 1379.28 -2518.74 1379.28 -2518.74 1382.89 -2516.93 1382.89 -2516.93 1386.51 -2515.12 1386.51 -2515.12 1390.12 -2513.31 1390.12 -2513.31 1391.93 -2511.51 1391.93 -2511.51 1393.74 -2509.7 1393.74 -2509.7 1395.54 -2507.89 1395.54 -2507.89 1399.16 -2506.09 1399.16 -2506.09 1400.96 -2502.47 1400.96 -2502.47 1402.77 -2500.66 1402.77 -2500.66 1404.58 -2498.86 1404.58 -2498.86 1406.39 -2497.05 1406.39 -2497.05 1408.19 -2493.44 1408.19 -2493.44 1410 -2491.63 1410 -2491.63 1411.81 -2488.01 1411.81 -2488.01 1413.61 -2484.4 1413.61 -2484.4 1415.42 -2478.98 1415.42 -2478.98 1417.23 -2473.56 1417.23 -2473.56 1419.04 -2464.52 1419.04 -2464.52 1420.84 -2451.87 1420.84 -2451.87 1422.65 -2448.26 1422.65 -2448.26 1426.26 -2446.45 1426.26 -2446.45 1431.69 -2444.64 1431.69 -2444.64 1435.3 -2442.84 1435.3 -2442.84 1438.91 -2441.03 1438.91 -2441.03 1440.72 -2439.22 1440.72 -2439.22 1449.76 -2441.03 1449.76 -2441.03 1451.56 -2442.84 1451.56 -2442.84 1455.18 -2444.64 1455.18 -2444.64 1456.99 -2446.45 1456.99 -2446.45 1460.6 -2448.26 1460.6 -2448.26 1466.02 -2450.06 1466.02 -2450.06 1471.44 -2451.87 1471.44 -2451.87 1491.32 -2450.06 1491.32 -2450.06 1496.74 -2448.26 1496.74 -2448.26 1500.36 -2446.45 1500.36 -2446.45 1505.78 -2444.64 1505.78 -2444.64 1507.59 -2442.84 1507.59 -2442.84 1511.2 -2441.03 1511.2 -2441.03 1513.01 -2439.22 1513.01 -2439.22 1514.81 -2437.41 1514.81 -2437.41 1516.62 -2435.61 1516.62 -2435.61 1518.43 -2433.8 1518.43 -2433.8 1520.24 -2431.99 1520.24 -2431.99 1522.04 -2428.38 1522.04 -2428.38 1523.85 -2426.57 1523.85 -2426.57 1525.66 -2422.96 1525.66 -2422.96 1527.46 -2417.54 1527.46 -2417.54 1529.27 -2410.31 1529.27 -2410.31 1531.08 -2394.04 1531.08 -2394.04 1529.27"/><path d="M -2666.92 1563.61 -2665.11 1563.61 -2665.11 1561.8 -2663.31 1561.8 -2663.31 1559.99 -2659.69 1559.99 -2659.69 1558.19 -2657.89 1558.19 -2657.89 1556.38 -2656.08 1556.38 -2656.08 1554.57 -2652.46 1554.57 -2652.46 1552.76 -2650.66 1552.76 -2650.66 1550.96 -2647.04 1550.96 -2647.04 1549.15 -2645.24 1549.15 -2645.24 1547.34 -2641.62 1547.34 -2641.62 1545.54 -2639.81 1545.54 -2639.81 1543.73 -2636.2 1543.73 -2636.2 1541.92 -2634.39 1541.92 -2634.39 1540.11 -2632.59 1540.11 -2632.59 1538.31 -2628.97 1538.31 -2628.97 1536.5 -2627.16 1536.5 -2627.16 1534.69 -2623.55 1534.69 -2623.55 1532.89 -2621.74 1532.89 -2621.74 1531.08 -2618.13 1531.08 -2618.13 1529.27 -2616.32 1529.27 -2616.32 1527.46 -2614.51 1527.46 -2614.51 1525.66 -2610.9 1525.66 -2610.9 1523.85 -2609.09 1523.85 -2609.09 1522.04 -2605.48 1522.04 -2605.48 1520.24 -2603.67 1520.24 -2603.67 1518.43 -2600.06 1518.43 -2600.06 1516.62 -2598.25 1516.62 -2598.25 1514.81 -2596.44 1514.81 -2596.44 1513.01 -2592.83 1513.01 -2592.83 1511.2 -2591.02 1511.2 -2591.02 1509.39 -2589.21 1509.39 -2589.21 1507.59 -2587.41 1507.59 -2587.41 1505.78 -2583.79 1505.78 -2583.79 1503.97 -2581.99 1503.97 -2581.99 1502.16 -2580.18 1502.16 -2580.18 1500.36 -2578.37 1500.36 -2578.37 1498.55 -2576.56 1498.55 -2576.56 1496.74 -2574.76 1496.74 -2574.76 1494.94 -2572.95 1494.94 -2572.95 1493.13 -2571.14 1493.13 -2571.14 1491.32 -2569.34 1491.32 -2569.34 1489.51 -2567.53 1489.51 -2567.53 1487.71 -2565.72 1487.71 -2565.72 1485.9 -2563.91 1485.9 -2563.91 1484.09 -2562.11 1484.09 -2562.11 1482.29 -2560.3 1482.29 -2560.3 1478.67 -2558.49 1478.67 -2558.49 1476.86 -2556.69 1476.86 -2556.69 1475.06 -2554.88 1475.06 -2554.88 1473.25 -2553.07 1473.25 -2553.07 1469.64 -2551.26 1469.64 -2551.26 1467.83 -2549.46 1467.83 -2549.46 1464.21 -2547.65 1464.21 -2547.65 1460.6 -2545.84 1460.6 -2545.84 1458.79 -2544.04 1458.79 -2544.04 1455.18 -2542.23 1455.18 -2542.23 1449.76 -2540.42 1449.76 -2540.42 1444.34 -2538.61 1444.34 -2538.61 1438.91 -2536.81 1438.91 -2536.81 1429.88 -2535 1429.88 -2535 1410 -2533.19 1410 -2533.19 1400.96 -2535 1400.96 -2535 1377.47 -2536.81 1377.47 -2536.81 1366.63 -2538.61 1366.63 -2538.61 1359.4 -2540.42 1359.4 -2540.42 1357.59 -2540.42 1355.79 -2540.42 1352.17 -2547.65 1352.17 -2547.65 1353.98 -2551.26 1353.98 -2551.26 1355.79 -2556.69 1355.79 -2556.69 1357.59 -2560.3 1357.59 -2560.3 1359.4 -2563.91 1359.4 -2563.91 1361.21 -2569.34 1361.21 -2569.34 1363.01 -2572.95 1363.01 -2572.95 1364.82 -2578.37 1364.82 -2578.37 1366.63 -2581.99 1366.63 -2581.99 1368.44 -2585.6 1368.44 -2585.6 1370.24 -2589.21 1370.24 -2589.21 1372.05 -2594.64 1372.05 -2594.64 1373.86 -2598.25 1373.86 -2598.25 1375.66 -2601.86 1375.66 -2601.86 1377.47 -2607.29 1377.47 -2607.29 1379.28 -2610.9 1379.28 -2610.9 1381.09 -2614.51 1381.09 -2614.51 1382.89 -2619.94 1382.89 -2619.94 1384.7 -2623.55 1384.7 -2623.55 1386.51 -2627.16 1386.51 -2627.16 1388.31 -2628.97 1388.31 -2628.97 1390.12 -2632.59 1390.12 -2632.59 1391.93 -2636.2 1391.93 -2636.2 1393.74 -2638.01 1393.74 -2638.01 1395.54 -2639.81 1395.54 -2639.81 1397.35 -2641.62 1397.35 -2641.62 1399.16 -2643.43 1399.16 -2643.43 1400.96 -2645.24 1400.96 -2645.24 1402.77 -2647.04 1402.77 -2647.04 1404.58 -2648.85 1404.58 -2648.85 1408.19 -2650.66 1408.19 -2650.66 1410 -2652.46 1410 -2652.46 1411.81 -2654.27 1411.81 -2654.27 1415.42 -2656.08 1415.42 -2656.08 1419.04 -2657.89 1419.04 -2657.89 1422.65 -2659.69 1422.65 -2659.69 1426.26 -2661.5 1426.26 -2661.5 1431.69 -2663.31 1431.69 -2663.31 1437.11 -2665.11 1437.11 -2665.11 1442.53 -2666.92 1442.53 -2666.92 1449.76 -2668.73 1449.76 -2668.73 1464.21 -2670.54 1464.21 -2670.54 1500.36 -2668.73 1500.36 -2668.73 1541.92 -2666.92 1541.92 -2666.92 1558.19 -2668.73 1558.19 -2668.73 1565.41 -2666.92 1565.41 -2666.92 1563.61"/><path d="M -2674.15 1400.96 -2672.34 1400.96 -2672.34 1399.16 -2668.73 1399.16 -2668.73 1397.35 -2666.92 1397.35 -2666.92 1395.54 -2663.31 1395.54 -2663.31 1393.74 -2659.69 1393.74 -2659.69 1391.93 -2657.89 1391.93 -2657.89 1390.12 -2654.27 1390.12 -2654.27 1388.31 -2650.66 1388.31 -2650.66 1386.51 -2648.85 1386.51 -2648.85 1384.7 -2645.24 1384.7 -2645.24 1382.89 -2641.62 1382.89 -2641.62 1381.09 -2639.81 1381.09 -2639.81 1379.28 -2636.2 1379.28 -2636.2 1377.47 -2634.39 1377.47 -2634.39 1375.66 -2630.78 1375.66 -2630.78 1373.86 -2627.16 1373.86 -2627.16 1372.05 -2625.36 1372.05 -2625.36 1370.24 -2621.74 1370.24 -2621.74 1368.44 -2618.13 1368.44 -2618.13 1366.63 -2616.32 1366.63 -2616.32 1364.82 -2612.71 1364.82 -2612.71 1363.01 -2610.9 1363.01 -2610.9 1361.21 -2607.29 1361.21 -2607.29 1359.4 -2603.67 1359.4 -2603.67 1357.59 -2601.86 1357.59 -2601.86 1355.79 -2598.25 1355.79 -2598.25 1353.98 -2596.44 1353.98 -2596.44 1352.17 -2594.64 1352.17 -2594.64 1350.36 -2591.02 1350.36 -2591.02 1348.56 -2589.21 1348.56 -2589.21 1346.75 -2585.6 1346.75 -2585.6 1344.94 -2583.79 1344.94 -2583.79 1343.14 -2581.99 1343.14 -2581.99 1341.33 -2580.18 1341.33 -2580.18 1339.52 -2578.37 1339.52 -2578.37 1337.71 -2574.76 1337.71 -2574.76 1335.91 -2572.95 1335.91 -2572.95 1334.1 -2571.14 1334.1 -2571.14 1332.29 -2569.34 1332.29 -2569.34 1330.49 -2567.53 1330.49 -2567.53 1328.68 -2565.72 1328.68 -2565.72 1326.87 -2563.91 1326.87 -2563.91 1325.06 -2562.11 1325.06 -2562.11 1323.26 -2560.3 1323.26 -2560.3 1321.45 -2558.49 1321.45 -2558.49 1317.84 -2556.69 1317.84 -2556.69 1316.03 -2554.88 1316.03 -2554.88 1314.22 -2553.07 1314.22 -2553.07 1312.41 -2551.26 1312.41 -2551.26 1308.8 -2549.46 1308.8 -2549.46 1306.99 -2547.65 1306.99 -2547.65 1303.38 -2545.84 1303.38 -2545.84 1299.76 -2544.04 1299.76 -2544.04 1296.15 -2542.23 1296.15 -2542.23 1292.54 -2540.42 1292.54 -2540.42 1287.11 -2538.61 1287.11 -2538.61 1281.69 -2536.81 1281.69 -2536.81 1274.46 -2535 1274.46 -2535 1263.62 -2533.19 1263.62 -2533.19 1261.81 -2533.19 1214.83 -2535 1214.83 -2535 1203.99 -2536.81 1203.99 -2536.81 1198.56 -2544.04 1198.56 -2544.04 1200.37 -2549.46 1200.37 -2549.46 1202.18 -2554.88 1202.18 -2554.88 1203.99 -2560.3 1203.99 -2560.3 1205.79 -2565.72 1205.79 -2565.72 1207.6 -2571.14 1207.6 -2571.14 1209.41 -2574.76 1209.41 -2574.76 1211.21 -2581.99 1211.21 -2581.99 1213.02 -2587.41 1213.02 -2587.41 1214.83 -2592.83 1214.83 -2592.83 1216.64 -2596.44 1216.64 -2596.44 1218.44 -2601.86 1218.44 -2601.86 1220.25 -2607.29 1220.25 -2607.29 1222.06 -2610.9 1222.06 -2610.9 1223.86 -2614.51 1223.86 -2614.51 1225.67 -2619.94 1225.67 -2619.94 1227.48 -2623.55 1227.48 -2623.55 1229.29 -2627.16 1229.29 -2627.16 1231.09 -2630.78 1231.09 -2630.78 1232.9 -2632.59 1232.9 -2632.59 1234.71 -2636.2 1234.71 -2636.2 1236.51 -2638.01 1236.51 -2638.01 1238.32 -2639.81 1238.32 -2639.81 1240.13 -2643.43 1240.13 -2643.43 1241.94 -2645.24 1241.94 -2645.24 1243.74 -2647.04 1243.74 -2647.04 1247.36 -2648.85 1247.36 -2648.85 1249.16 -2650.66 1249.16 -2650.66 1250.97 -2652.46 1250.97 -2652.46 1252.78 -2654.27 1252.78 -2654.27 1256.39 -2656.08 1256.39 -2656.08 1258.2 -2657.89 1258.2 -2657.89 1261.81 -2659.69 1261.81 -2659.69 1265.43 -2661.5 1265.43 -2661.5 1269.04 -2663.31 1269.04 -2663.31 1272.66 -2665.11 1272.66 -2665.11 1278.08 -2666.92 1278.08 -2666.92 1283.5 -2668.73 1283.5 -2668.73 1288.92 -2670.54 1288.92 -2670.54 1297.96 -2672.34 1297.96 -2672.34 1308.8 -2674.15 1308.8 -2674.15 1353.98 -2675.96 1353.98 -2675.96 1395.54 -2677.76 1395.54 -2677.76 1402.77 -2674.15 1402.77 -2674.15 1400.96"/><path d="M -2280.19 1142.54 -2282 1142.54 -2282 1144.35 -2285.61 1144.35 -2285.61 1146.16 -2314.53 1146.16 -2314.53 1144.35 -2316.34 1144.35 -2316.34 1066.64 -2314.53 1066.64 -2314.53 1064.84 -2339.83 1064.84 -2339.83 1066.64 -2338.02 1066.64 -2338.02 1068.45 -2336.21 1068.45 -2336.21 1144.35 -2339.83 1144.35 -2339.83 1146.16 -2368.74 1146.16 -2368.74 1144.35 -2372.36 1144.35 -2372.36 1142.54 -2374.16 1142.54 -2374.16 1162.42 -2372.36 1162.42 -2372.36 1160.61 -2368.74 1160.61 -2368.74 1158.81 -2283.81 1158.81 -2283.81 1160.61 -2282 1160.61 -2282 1162.42 -2280.19 1162.42 -2280.19 1142.54"/><path d="M -2580.18 1157 -2581.99 1157 -2581.99 1155.19 -2583.79 1155.19 -2583.79 1068.45 -2581.99 1068.45 -2581.99 1066.64 -2580.18 1066.64 -2580.18 1064.84 -2605.48 1064.84 -2605.48 1066.64 -2603.67 1066.64 -2603.67 1070.26 -2601.86 1070.26 -2601.86 1128.09 -2601.86 1129.89 -2601.86 1153.39 -2603.67 1153.39 -2603.67 1157 -2605.48 1157 -2605.48 1158.81 -2580.18 1158.81 -2580.18 1157"/><path d="M -2688.61 1157 -2684.99 1157 -2684.99 1155.19 -2681.38 1155.19 -2681.38 1153.39 -2677.76 1153.39 -2677.76 1151.58 -2675.96 1151.58 -2675.96 1147.96 -2674.15 1147.96 -2674.15 1144.35 -2672.34 1144.35 -2672.34 1126.28 -2674.15 1126.28 -2674.15 1122.66 -2675.96 1122.66 -2675.96 1120.86 -2677.76 1120.86 -2677.76 1119.05 -2679.57 1119.05 -2679.57 1117.24 -2681.38 1117.24 -2681.38 1111.82 -2677.76 1111.82 -2677.76 1110.01 -2675.96 1110.01 -2675.96 1108.21 -2674.15 1108.21 -2674.15 1106.4 -2672.34 1106.4 -2672.34 1104.59 -2670.54 1104.59 -2670.54 1100.98 -2668.73 1100.98 -2668.73 1093.75 -2666.92 1093.75 -2666.92 1090.14 -2668.73 1090.14 -2668.73 1082.91 -2670.54 1082.91 -2670.54 1077.49 -2672.34 1077.49 -2672.34 1075.68 -2674.15 1075.68 -2674.15 1073.87 -2675.96 1073.87 -2675.96 1072.06 -2677.76 1072.06 -2677.76 1070.26 -2679.57 1070.26 -2679.57 1068.45 -2683.19 1068.45 -2683.19 1066.64 -2690.41 1066.64 -2690.41 1064.84 -2768.12 1064.84 -2768.12 1066.64 -2766.31 1066.64 -2766.31 1068.45 -2764.51 1068.45 -2764.51 1155.19 -2766.31 1155.19 -2766.31 1157 -2768.12 1157 -2768.12 1158.81 -2688.61 1158.81 -2688.61 1157"/><path d="M -2265.74 1082.91 -2262.12 1082.91 -2262.12 1081.1 -2258.51 1081.1 -2258.51 1077.49 -2256.7 1077.49 -2256.7 1068.45 -2258.51 1068.45 -2258.51 1066.64 -2260.31 1066.64 -2260.31 1064.84 -2262.12 1064.84 -2262.12 1063.03 -2272.96 1063.03 -2272.96 1064.84 -2274.77 1064.84 -2274.77 1066.64 -2276.58 1066.64 -2276.58 1070.26 -2278.39 1070.26 -2278.39 1077.49 -2276.58 1077.49 -2276.58 1079.29 -2274.77 1079.29 -2274.77 1081.1 -2272.96 1081.1 -2272.96 1082.91 -2269.35 1082.91 -2269.35 1084.71 -2265.74 1084.71 -2265.74 1082.91"/><path d="M -2395.85 1082.91 -2392.24 1082.91 -2392.24 1081.1 -2390.43 1081.1 -2390.43 1079.29 -2388.62 1079.29 -2388.62 1073.87 -2386.81 1073.87 -2386.81 1072.06 -2388.62 1072.06 -2388.62 1066.64 -2390.43 1066.64 -2390.43 1064.84 -2394.04 1064.84 -2394.04 1063.03 -2403.08 1063.03 -2403.08 1064.84 -2404.89 1064.84 -2404.89 1066.64 -2406.69 1066.64 -2406.69 1068.45 -2408.5 1068.45 -2408.5 1079.29 -2406.69 1079.29 -2406.69 1081.1 -2404.89 1081.1 -2404.89 1082.91 -2399.46 1082.91 -2399.46 1084.71 -2395.85 1084.71 -2395.85 1082.91"/><path d="M -2466.33 1142.54 -2457.29 1142.54 -2457.29 1140.74 -2451.87 1140.74 -2451.87 1138.93 -2448.26 1138.93 -2448.26 1137.12 -2444.64 1137.12 -2444.64 1135.31 -2442.84 1135.31 -2442.84 1133.51 -2439.22 1133.51 -2439.22 1131.7 -2437.41 1131.7 -2437.41 1129.89 -2435.61 1129.89 -2435.61 1128.09 -2433.8 1128.09 -2433.8 1124.47 -2431.99 1124.47 -2431.99 1120.86 -2430.19 1120.86 -2430.19 1117.24 -2428.38 1117.24 -2428.38 1111.82 -2426.57 1111.82 -2426.57 1093.75 -2428.38 1093.75 -2428.38 1088.33 -2430.19 1088.33 -2430.19 1084.71 -2431.99 1084.71 -2431.99 1081.1 -2433.8 1081.1 -2433.8 1079.29 -2435.61 1079.29 -2435.61 1077.49 -2437.41 1077.49 -2437.41 1075.68 -2439.22 1075.68 -2439.22 1073.87 -2441.03 1073.87 -2441.03 1072.06 -2442.84 1072.06 -2442.84 1070.26 -2446.45 1070.26 -2446.45 1068.45 -2448.26 1068.45 -2448.26 1066.64 -2453.68 1066.64 -2453.68 1064.84 -2460.91 1064.84 -2460.91 1063.03 -2484.4 1063.03 -2484.4 1064.84 -2491.63 1064.84 -2491.63 1066.64 -2497.05 1066.64 -2497.05 1068.45 -2498.86 1068.45 -2498.86 1070.26 -2502.47 1070.26 -2502.47 1072.06 -2504.28 1072.06 -2504.28 1073.87 -2506.09 1073.87 -2506.09 1075.68 -2507.89 1075.68 -2507.89 1077.49 -2509.7 1077.49 -2509.7 1079.29 -2511.51 1079.29 -2511.51 1081.1 -2513.31 1081.1 -2513.31 1084.71 -2515.12 1084.71 -2515.12 1088.33 -2516.93 1088.33 -2516.93 1095.56 -2518.74 1095.56 -2518.74 1111.82 -2516.93 1111.82 -2516.93 1117.24 -2515.12 1117.24 -2515.12 1122.66 -2513.31 1122.66 -2513.31 1124.47 -2511.51 1124.47 -2511.51 1128.09 -2509.7 1128.09 -2509.7 1129.89 -2507.89 1129.89 -2507.89 1131.7 -2506.09 1131.7 -2506.09 1133.51 -2502.47 1133.51 -2502.47 1135.31 -2500.66 1135.31 -2500.66 1137.12 -2497.05 1137.12 -2497.05 1138.93 -2493.44 1138.93 -2493.44 1140.74 -2488.01 1140.74 -2488.01 1142.54 -2477.17 1142.54 -2477.17 1144.35 -2466.33 1144.35 -2466.33 1142.54"/><path d="M -2544.04 1082.91 -2540.42 1082.91 -2540.42 1081.1 -2538.61 1081.1 -2538.61 1079.29 -2536.81 1079.29 -2536.81 1066.64 -2538.61 1066.64 -2538.61 1064.84 -2542.23 1064.84 -2542.23 1063.03 -2551.26 1063.03 -2551.26 1064.84 -2554.88 1064.84 -2554.88 1066.64 -2556.69 1066.64 -2556.69 1079.29 -2554.88 1079.29 -2554.88 1081.1 -2553.07 1081.1 -2553.07 1082.91 -2549.46 1082.91 -2549.46 1084.71 -2544.04 1084.71 -2544.04 1082.91"/><path d="M -2636.2 1082.91 -2632.59 1082.91 -2632.59 1081.1 -2630.78 1081.1 -2630.78 1079.29 -2628.97 1079.29 -2628.97 1068.45 -2630.78 1068.45 -2630.78 1064.84 -2634.39 1064.84 -2634.39 1063.03 -2643.43 1063.03 -2643.43 1064.84 -2647.04 1064.84 -2647.04 1066.64 -2648.85 1066.64 -2648.85 1068.45 -2648.85 1070.26 -2648.85 1079.29 -2647.04 1079.29 -2647.04 1081.1 -2645.24 1081.1 -2645.24 1082.91 -2641.62 1082.91 -2641.62 1084.71 -2636.2 1084.71 -2636.2 1082.91"/><path d="M -2438.89 2738.11 -2438.85 2738.05 -2438.76 2737.94 -2438.67 2737.81 -2438.54 2737.64 -2438.41 2737.44 -2438.26 2737.19 -2438.09 2736.95 -2437.9 2736.67 -2437.71 2736.37 -2437.36 2735.72 -2437 2735.01 -2436.69 2734.26 -2436.69 2734.24 -2436.65 2734.16 -2436.61 2734.07 -2436.57 2733.92 -2436.52 2733.74 -2436.44 2733.53 -2436.39 2733.29 -2436.31 2733.01 -2436.24 2732.71 -2436.18 2732.39 -2436.11 2732.05 -2436.05 2731.7 -2435.98 2730.97 -2435.94 2730.18 -2435.94 2729.9 -2435.96 2729.71 -2435.98 2729.45 -2435.99 2729.17 -2436.03 2728.84 -2436.09 2728.48 -2436.14 2728.09 -2436.24 2727.69 -2436.33 2727.26 -2436.44 2726.82 -2436.57 2726.37 -2436.74 2725.92 -2436.93 2725.49 -2437.13 2725.04 -2437.15 2725.02 -2437.19 2724.95 -2437.26 2724.81 -2437.36 2724.66 -2437.49 2724.48 -2437.64 2724.25 -2437.83 2724.01 -2438.03 2723.75 -2438.26 2723.47 -2438.52 2723.19 -2438.82 2722.89 -2439.12 2722.61 -2439.45 2722.33 -2439.83 2722.05 -2440.22 2721.8 -2440.63 2721.56 -2440.65 2721.54 -2440.74 2721.5 -2440.86 2721.45 -2441.04 2721.37 -2441.25 2721.3 -2441.51 2721.19 -2441.81 2721.09 -2442.13 2720.98 -2442.5 2720.87 -2442.89 2720.78 -2443.32 2720.66 -2443.77 2720.59 -2444.24 2720.51 -2444.73 2720.46 -2445.23 2720.42 -2445.76 2720.4 -2445.79 2720.4 -2445.89 2720.4 -2446.03 2720.4 -2446.22 2720.42 -2446.48 2720.44 -2446.76 2720.46 -2447.1 2720.49 -2447.46 2720.55 -2447.85 2720.61 -2448.26 2720.68 -2448.69 2720.78 -2449.14 2720.89 -2449.59 2721.02 -2450.06 2721.19 -2450.51 2721.35 -2450.97 2721.56 -2451.01 2721.58 -2451.08 2721.62 -2451.2 2721.69 -2451.36 2721.79 -2451.57 2721.9 -2451.8 2722.05 -2452.06 2722.21 -2452.34 2722.42 -2452.62 2722.65 -2452.92 2722.91 -2453.22 2723.17 -2453.52 2723.49 -2453.81 2723.8 -2454.09 2724.16 -2454.34 2724.53 -2454.58 2724.93 -2454.6 2724.95 -2454.64 2725.02 -2454.69 2725.15 -2454.77 2725.32 -2454.86 2725.52 -2454.96 2725.77 -2455.07 2726.07 -2455.18 2726.39 -2455.27 2726.74 -2455.38 2727.13 -2455.48 2727.55 -2455.57 2727.99 -2455.65 2728.46 -2455.7 2728.95 -2455.74 2729.47 -2455.76 2730 -2455.76 2730.2 -2455.74 2730.35 -2455.74 2730.52 -2455.72 2730.74 -2455.7 2730.99 -2455.67 2731.25 -2455.63 2731.53 -2455.59 2731.83 -2455.46 2732.44 -2455.29 2733.1 -2455.07 2733.74 -2455.07 2733.75 -2455.03 2733.81 -2454.99 2733.9 -2454.94 2734.01 -2454.88 2734.15 -2454.79 2734.31 -2454.58 2734.69 -2454.32 2735.12 -2454 2735.55 -2453.63 2735.98 -2453.2 2736.37 -2453.18 2736.39 -2453.14 2736.41 -2453.07 2736.46 -2452.97 2736.54 -2452.86 2736.61 -2452.71 2736.71 -2452.54 2736.8 -2452.36 2736.91 -2452.15 2737.05 -2451.91 2737.16 -2451.64 2737.27 -2451.36 2737.4 -2451.07 2737.51 -2450.75 2737.62 -2450.41 2737.74 -2450.06 2737.83 -2449.44 2735.55 -2449.46 2735.55 -2449.5 2735.53 -2449.59 2735.51 -2449.68 2735.47 -2449.79 2735.44 -2449.94 2735.38 -2450.28 2735.25 -2450.63 2735.1 -2451.03 2734.91 -2451.4 2734.71 -2451.74 2734.46 -2451.76 2734.46 -2451.78 2734.43 -2451.87 2734.35 -2452.04 2734.2 -2452.22 2734 -2452.43 2733.74 -2452.66 2733.42 -2452.88 2733.06 -2453.08 2732.63 -2453.08 2732.61 -2453.1 2732.57 -2453.14 2732.52 -2453.16 2732.43 -2453.2 2732.31 -2453.25 2732.18 -2453.29 2732.03 -2453.35 2731.86 -2453.42 2731.47 -2453.52 2731.02 -2453.57 2730.52 -2453.59 2730 -2453.59 2729.7 -2453.57 2729.55 -2453.57 2729.38 -2453.55 2729.19 -2453.52 2728.97 -2453.46 2728.5 -2453.37 2727.99 -2453.23 2727.47 -2453.05 2726.98 -2453.05 2726.96 -2453.03 2726.93 -2452.99 2726.87 -2452.95 2726.78 -2452.9 2726.67 -2452.84 2726.55 -2452.67 2726.25 -2452.47 2725.94 -2452.24 2725.6 -2451.96 2725.26 -2451.64 2724.95 -2451.61 2724.91 -2451.5 2724.81 -2451.33 2724.68 -2451.08 2724.52 -2450.8 2724.31 -2450.49 2724.12 -2450.13 2723.92 -2449.76 2723.75 -2449.74 2723.75 -2449.68 2723.71 -2449.59 2723.67 -2449.44 2723.64 -2449.29 2723.58 -2449.08 2723.52 -2448.86 2723.45 -2448.62 2723.39 -2448.33 2723.32 -2448.04 2723.24 -2447.72 2723.19 -2447.38 2723.13 -2446.67 2723.06 -2445.9 2723.02 -2445.87 2723.02 -2445.79 2723.02 -2445.66 2723.02 -2445.47 2723.04 -2445.25 2723.04 -2445.01 2723.08 -2444.73 2723.09 -2444.41 2723.13 -2444.07 2723.17 -2443.73 2723.24 -2443.01 2723.39 -2442.3 2723.62 -2441.94 2723.75 -2441.6 2723.9 -2441.59 2723.92 -2441.53 2723.94 -2441.44 2723.99 -2441.32 2724.07 -2441.17 2724.16 -2441.02 2724.27 -2440.84 2724.4 -2440.63 2724.55 -2440.42 2724.72 -2440.22 2724.91 -2440.01 2725.11 -2439.79 2725.36 -2439.58 2725.6 -2439.4 2725.86 -2439.21 2726.16 -2439.04 2726.46 -2439.04 2726.48 -2439 2726.54 -2438.97 2726.63 -2438.91 2726.76 -2438.85 2726.91 -2438.78 2727.1 -2438.7 2727.3 -2438.63 2727.55 -2438.56 2727.79 -2438.48 2728.07 -2438.35 2728.69 -2438.26 2729.34 -2438.24 2729.68 -2438.22 2730.03 -2438.22 2730.2 -2438.24 2730.31 -2438.24 2730.46 -2438.26 2730.63 -2438.28 2730.84 -2438.29 2731.06 -2438.37 2731.55 -2438.48 2732.09 -2438.63 2732.67 -2438.84 2733.25 -2438.84 2733.27 -2438.87 2733.32 -2438.89 2733.4 -2438.95 2733.51 -2439 2733.64 -2439.08 2733.79 -2439.25 2734.15 -2439.45 2734.52 -2439.68 2734.91 -2439.94 2735.31 -2440.2 2735.64 -2443.77 2735.64 -2443.77 2730.01 -2446.03 2730.01 -2446.03 2738.13 -2438.91 2738.13 -2438.89 2738.11"/><path d="M -2340.94 2752.19 -2347.76 2747.35 -2347.78 2747.33 -2347.86 2747.27 -2347.99 2747.2 -2348.14 2747.09 -2348.3 2746.97 -2348.51 2746.84 -2348.96 2746.54 -2348.94 2746.54 -2348.92 2746.53 -2348.79 2746.45 -2348.62 2746.34 -2348.42 2746.21 -2348.19 2746.06 -2347.95 2745.91 -2347.74 2745.76 -2347.57 2745.65 -2340.94 2740.78 -2340.94 2737.74 -2350.87 2745.14 -2360.1 2738.62 -2360.1 2741.65 -2355.21 2745.14 -2355.19 2745.16 -2355.13 2745.2 -2355.06 2745.25 -2354.96 2745.31 -2354.83 2745.4 -2354.68 2745.52 -2354.35 2745.74 -2353.95 2745.98 -2353.56 2746.24 -2353.19 2746.47 -2352.85 2746.66 -2352.87 2746.66 -2352.89 2746.69 -2352.94 2746.73 -2353.02 2746.77 -2353.22 2746.92 -2353.5 2747.09 -2353.82 2747.31 -2354.18 2747.57 -2354.59 2747.85 -2355 2748.17 -2360.1 2752.02 -2360.1 2754.79 -2351 2748.13 -2340.94 2755.31 -2340.94 2752.19"/><path d="M -2340.94 2734.09 -2344.92 2731.55 -2344.94 2731.53 -2345 2731.49 -2345.09 2731.44 -2345.2 2731.36 -2345.35 2731.27 -2345.52 2731.15 -2345.89 2730.91 -2346.32 2730.61 -2346.75 2730.31 -2347.18 2730 -2347.37 2729.86 -2347.56 2729.71 -2347.57 2729.71 -2347.59 2729.68 -2347.71 2729.6 -2347.88 2729.45 -2348.06 2729.28 -2348.27 2729.08 -2348.47 2728.87 -2348.68 2728.65 -2348.83 2728.42 -2348.85 2728.4 -2348.89 2728.33 -2348.96 2728.22 -2349.03 2728.07 -2349.13 2727.9 -2349.2 2727.71 -2349.3 2727.51 -2349.35 2727.28 -2349.35 2727.26 -2349.37 2727.21 -2349.39 2727.1 -2349.41 2726.95 -2349.41 2726.76 -2349.43 2726.52 -2349.45 2726.22 -2349.45 2722.94 -2340.94 2722.94 -2340.94 2720.4 -2360.1 2720.4 -2360.1 2729.32 -2360.09 2729.53 -2360.09 2729.77 -2360.07 2730.05 -2360.05 2730.33 -2359.97 2730.97 -2359.88 2731.62 -2359.75 2732.24 -2359.67 2732.52 -2359.58 2732.78 -2359.58 2732.8 -2359.56 2732.84 -2359.52 2732.91 -2359.49 2733.01 -2359.41 2733.12 -2359.34 2733.25 -2359.15 2733.55 -2358.91 2733.88 -2358.59 2734.24 -2358.2 2734.6 -2357.75 2734.91 -2357.73 2734.93 -2357.69 2734.95 -2357.62 2734.99 -2357.52 2735.04 -2357.39 2735.1 -2357.24 2735.17 -2357.09 2735.25 -2356.91 2735.32 -2356.48 2735.46 -2355.99 2735.59 -2355.45 2735.68 -2355.17 2735.72 -2354.87 2735.72 -2354.85 2735.72 -2354.77 2735.72 -2354.66 2735.72 -2354.53 2735.7 -2354.35 2735.68 -2354.16 2735.64 -2353.91 2735.61 -2353.67 2735.55 -2353.41 2735.47 -2353.13 2735.4 -2352.85 2735.29 -2352.55 2735.16 -2352.27 2735.01 -2351.97 2734.82 -2351.69 2734.63 -2351.43 2734.39 -2351.41 2734.37 -2351.37 2734.33 -2351.3 2734.26 -2351.2 2734.15 -2351.09 2734 -2350.96 2733.83 -2350.83 2733.62 -2350.68 2733.38 -2350.53 2733.12 -2350.38 2732.82 -2350.23 2732.48 -2350.08 2732.11 -2349.95 2731.71 -2349.84 2731.29 -2349.73 2730.82 -2349.65 2730.31 -2349.65 2730.33 -2349.63 2730.35 -2349.6 2730.41 -2349.58 2730.48 -2349.46 2730.67 -2349.35 2730.89 -2349.2 2731.13 -2349.05 2731.38 -2348.87 2731.62 -2348.7 2731.85 -2348.68 2731.86 -2348.66 2731.9 -2348.58 2731.96 -2348.51 2732.03 -2348.42 2732.13 -2348.29 2732.24 -2348.16 2732.37 -2347.99 2732.52 -2347.61 2732.84 -2347.18 2733.19 -2346.68 2733.57 -2346.14 2733.94 -2340.94 2737.25 -2340.94 2734.09"/><path d="M -1660.94 2776.1 -1676.98 2776.1 -1660.94 2770.51 -1660.94 2768.22 -1677.26 2762.67 -1660.94 2762.67 -1660.94 2760.22 -1680.1 2760.22 -1680.1 2764.03 -1666.53 2768.58 -1666.51 2768.58 -1666.45 2768.62 -1666.34 2768.64 -1666.21 2768.69 -1666.06 2768.73 -1665.87 2768.8 -1665.67 2768.86 -1665.46 2768.93 -1664.99 2769.08 -1664.53 2769.23 -1664.08 2769.38 -1663.87 2769.44 -1663.69 2769.5 -1663.7 2769.5 -1663.74 2769.52 -1663.8 2769.53 -1663.87 2769.55 -1663.99 2769.59 -1664.12 2769.65 -1664.28 2769.68 -1664.47 2769.76 -1664.66 2769.81 -1664.9 2769.89 -1665.15 2769.98 -1665.42 2770.08 -1665.72 2770.17 -1666.04 2770.28 -1666.38 2770.39 -1666.75 2770.52 -1680.1 2775.13 -1680.1 2778.55 -1660.94 2778.55 -1660.94 2776.1"/><path d="M -1660.94 2754.7 -1664.92 2752.16 -1664.94 2752.14 -1664.99 2752.1 -1665.09 2752.05 -1665.2 2751.97 -1665.35 2751.88 -1665.52 2751.77 -1665.89 2751.52 -1666.32 2751.23 -1666.75 2750.93 -1667.18 2750.61 -1667.37 2750.48 -1667.56 2750.33 -1667.58 2750.33 -1667.59 2750.29 -1667.71 2750.22 -1667.88 2750.07 -1668.06 2749.9 -1668.27 2749.69 -1668.47 2749.49 -1668.68 2749.26 -1668.83 2749.04 -1668.85 2749.02 -1668.88 2748.94 -1668.96 2748.83 -1669.03 2748.68 -1669.13 2748.51 -1669.2 2748.33 -1669.3 2748.12 -1669.35 2747.9 -1669.35 2747.88 -1669.37 2747.82 -1669.39 2747.71 -1669.41 2747.56 -1669.41 2747.37 -1669.43 2747.13 -1669.45 2746.83 -1669.45 2743.56 -1660.94 2743.56 -1660.94 2741.02 -1680.1 2741.02 -1680.1 2749.94 -1680.09 2750.14 -1680.09 2750.39 -1680.07 2750.66 -1680.05 2750.95 -1679.97 2751.58 -1679.88 2752.24 -1679.75 2752.85 -1679.67 2753.13 -1679.58 2753.4 -1679.58 2753.41 -1679.56 2753.45 -1679.53 2753.53 -1679.49 2753.62 -1679.41 2753.73 -1679.34 2753.86 -1679.15 2754.16 -1678.91 2754.5 -1678.59 2754.85 -1678.2 2755.21 -1677.75 2755.53 -1677.73 2755.55 -1677.69 2755.56 -1677.62 2755.6 -1677.52 2755.66 -1677.39 2755.71 -1677.24 2755.79 -1677.09 2755.86 -1676.91 2755.94 -1676.48 2756.07 -1675.99 2756.2 -1675.45 2756.29 -1675.17 2756.33 -1674.87 2756.33 -1674.85 2756.33 -1674.78 2756.33 -1674.66 2756.33 -1674.53 2756.31 -1674.35 2756.29 -1674.16 2756.26 -1673.92 2756.22 -1673.67 2756.16 -1673.41 2756.09 -1673.13 2756.01 -1672.85 2755.9 -1672.55 2755.77 -1672.27 2755.62 -1671.97 2755.43 -1671.69 2755.25 -1671.43 2755 -1671.41 2754.99 -1671.37 2754.95 -1671.3 2754.87 -1671.2 2754.76 -1671.09 2754.61 -1670.96 2754.44 -1670.83 2754.24 -1670.68 2753.99 -1670.53 2753.73 -1670.38 2753.43 -1670.23 2753.1 -1670.08 2752.72 -1669.95 2752.33 -1669.84 2751.9 -1669.73 2751.43 -1669.65 2750.93 -1669.65 2750.95 -1669.63 2750.96 -1669.6 2751.02 -1669.58 2751.1 -1669.46 2751.28 -1669.35 2751.51 -1669.2 2751.75 -1669.05 2751.99 -1668.87 2752.24 -1668.7 2752.46 -1668.68 2752.48 -1668.66 2752.52 -1668.58 2752.57 -1668.51 2752.65 -1668.42 2752.74 -1668.29 2752.85 -1668.15 2752.98 -1667.99 2753.13 -1667.61 2753.45 -1667.18 2753.81 -1666.68 2754.18 -1666.14 2754.55 -1660.94 2757.86 -1660.94 2754.7"/><path d="M -1660.94 2725.98 -1680.1 2725.98 -1680.1 2728.52 -1663.2 2728.52 -1663.2 2737.95 -1660.94 2737.95 -1660.94 2725.98"/><path d="M -1660.94 2721.17 -1666.73 2718.95 -1666.73 2710.91 -1660.94 2708.81 -1660.94 2706.14 -1680.1 2713.47 -1680.1 2716.22 -1660.94 2724.06 -1660.94 2721.17"/><path d="M -2130.94 2730.44 -2130.94 2727.81 -2150.1 2720.4 -2150.1 2723.15 -2136.17 2728.13 -2136.15 2728.13 -2136.1 2728.14 -2136 2728.18 -2135.89 2728.22 -2135.74 2728.27 -2135.56 2728.33 -2135.37 2728.4 -2135.14 2728.48 -2134.66 2728.63 -2134.14 2728.8 -2133.59 2728.97 -2133.03 2729.14 -2133.05 2729.14 -2133.11 2729.15 -2133.18 2729.17 -2133.29 2729.21 -2133.44 2729.26 -2133.61 2729.3 -2133.8 2729.36 -2134.02 2729.43 -2134.49 2729.58 -2135.01 2729.75 -2135.59 2729.96 -2136.17 2730.16 -2150.1 2735.36 -2150.1 2737.94 -2130.94 2730.44"/><path d="M -1855.94 2737.19 -1862.76 2732.35 -1862.78 2732.33 -1862.86 2732.27 -1862.99 2732.2 -1863.14 2732.09 -1863.3 2731.97 -1863.51 2731.84 -1863.96 2731.54 -1863.94 2731.54 -1863.92 2731.53 -1863.79 2731.45 -1863.62 2731.34 -1863.42 2731.21 -1863.19 2731.06 -1862.95 2730.91 -1862.74 2730.76 -1862.58 2730.65 -1855.94 2725.79 -1855.94 2722.74 -1865.87 2730.14 -1875.1 2723.61 -1875.1 2726.64 -1870.21 2730.14 -1870.19 2730.16 -1870.13 2730.2 -1870.05 2730.25 -1869.96 2730.31 -1869.83 2730.4 -1869.68 2730.52 -1869.34 2730.74 -1868.95 2730.98 -1868.56 2731.25 -1868.19 2731.47 -1867.85 2731.66 -1867.87 2731.66 -1867.89 2731.69 -1867.94 2731.73 -1868.02 2731.77 -1868.22 2731.92 -1868.5 2732.09 -1868.82 2732.31 -1869.18 2732.57 -1869.59 2732.85 -1870 2733.17 -1875.1 2737.02 -1875.1 2739.79 -1866 2733.13 -1855.94 2740.31 -1855.94 2737.19"/><path d="M -1855.94 2719.09 -1859.92 2716.55 -1859.94 2716.53 -1860 2716.49 -1860.09 2716.43 -1860.2 2716.36 -1860.35 2716.27 -1860.52 2716.15 -1860.89 2715.91 -1861.32 2715.61 -1861.75 2715.31 -1862.18 2714.99 -1862.37 2714.86 -1862.56 2714.71 -1862.58 2714.71 -1862.59 2714.68 -1862.71 2714.6 -1862.87 2714.45 -1863.06 2714.28 -1863.27 2714.08 -1863.47 2713.87 -1863.68 2713.65 -1863.83 2713.42 -1863.85 2713.4 -1863.88 2713.33 -1863.96 2713.22 -1864.03 2713.07 -1864.13 2712.9 -1864.2 2712.71 -1864.3 2712.51 -1864.35 2712.28 -1864.35 2712.27 -1864.37 2712.21 -1864.39 2712.1 -1864.41 2711.95 -1864.41 2711.76 -1864.43 2711.52 -1864.45 2711.22 -1864.45 2707.95 -1855.94 2707.95 -1855.94 2705.4 -1875.1 2705.4 -1875.1 2714.32 -1875.09 2714.53 -1875.09 2714.77 -1875.07 2715.05 -1875.05 2715.33 -1874.97 2715.97 -1874.88 2716.62 -1874.75 2717.24 -1874.67 2717.52 -1874.58 2717.78 -1874.58 2717.8 -1874.56 2717.84 -1874.52 2717.91 -1874.49 2718 -1874.41 2718.12 -1874.34 2718.25 -1874.15 2718.55 -1873.91 2718.88 -1873.59 2719.24 -1873.2 2719.59 -1872.75 2719.91 -1872.73 2719.93 -1872.69 2719.95 -1872.62 2719.99 -1872.52 2720.04 -1872.39 2720.1 -1872.24 2720.18 -1872.09 2720.25 -1871.91 2720.32 -1871.48 2720.45 -1870.99 2720.59 -1870.45 2720.68 -1870.17 2720.72 -1869.87 2720.72 -1869.85 2720.72 -1869.78 2720.72 -1869.66 2720.72 -1869.53 2720.7 -1869.34 2720.68 -1869.16 2720.64 -1868.91 2720.6 -1868.67 2720.55 -1868.41 2720.47 -1868.13 2720.4 -1867.85 2720.29 -1867.55 2720.16 -1867.27 2720.01 -1866.97 2719.82 -1866.69 2719.63 -1866.43 2719.39 -1866.41 2719.37 -1866.37 2719.33 -1866.3 2719.26 -1866.2 2719.15 -1866.09 2719 -1865.96 2718.83 -1865.83 2718.62 -1865.68 2718.38 -1865.53 2718.12 -1865.38 2717.82 -1865.23 2717.48 -1865.08 2717.11 -1864.95 2716.72 -1864.84 2716.28 -1864.73 2715.82 -1864.65 2715.31 -1864.65 2715.33 -1864.63 2715.35 -1864.6 2715.41 -1864.58 2715.48 -1864.46 2715.67 -1864.35 2715.89 -1864.2 2716.14 -1864.05 2716.38 -1863.87 2716.62 -1863.7 2716.85 -1863.68 2716.87 -1863.66 2716.9 -1863.58 2716.96 -1863.51 2717.03 -1863.42 2717.13 -1863.29 2717.24 -1863.16 2717.37 -1862.99 2717.52 -1862.61 2717.84 -1862.18 2718.19 -1861.68 2718.57 -1861.14 2718.94 -1855.94 2722.25 -1855.94 2719.09"/><path d="M -1807.19 2736.45 -1814.01 2731.61 -1814.03 2731.59 -1814.11 2731.53 -1814.24 2731.46 -1814.39 2731.35 -1814.56 2731.24 -1814.76 2731.11 -1815.21 2730.8 -1815.19 2730.8 -1815.17 2730.79 -1815.04 2730.71 -1814.87 2730.6 -1814.67 2730.47 -1814.44 2730.32 -1814.2 2730.17 -1813.99 2730.02 -1813.83 2729.91 -1807.19 2725.05 -1807.19 2722 -1817.12 2729.4 -1826.35 2722.88 -1826.35 2725.91 -1821.46 2729.4 -1821.44 2729.42 -1821.38 2729.46 -1821.31 2729.52 -1821.21 2729.57 -1821.08 2729.67 -1820.93 2729.78 -1820.6 2730 -1820.2 2730.24 -1819.81 2730.51 -1819.44 2730.73 -1819.1 2730.92 -1819.12 2730.92 -1819.14 2730.95 -1819.19 2730.99 -1819.27 2731.03 -1819.47 2731.18 -1819.75 2731.35 -1820.07 2731.57 -1820.43 2731.83 -1820.84 2732.12 -1821.25 2732.43 -1826.35 2736.28 -1826.35 2739.05 -1817.25 2732.39 -1807.19 2739.58 -1807.19 2736.45"/><path d="M -1824.09 2715 -1807.19 2715 -1807.19 2712.46 -1824.09 2712.46 -1824.09 2706.14 -1826.35 2706.14 -1826.35 2721.34 -1824.09 2721.34 -1824.09 2715"/><path d="M -1767.88 2762.78 -1767.66 2762.78 -1767.41 2762.76 -1767.13 2762.74 -1766.83 2762.71 -1766.53 2762.67 -1765.88 2762.58 -1765.21 2762.45 -1764.55 2762.28 -1764.53 2762.28 -1764.48 2762.26 -1764.38 2762.22 -1764.27 2762.18 -1764.12 2762.13 -1763.95 2762.07 -1763.77 2762 -1763.58 2761.92 -1763.13 2761.73 -1762.66 2761.51 -1762.2 2761.25 -1761.77 2760.97 -1761.75 2760.97 -1761.71 2760.93 -1761.65 2760.89 -1761.58 2760.84 -1761.39 2760.67 -1761.13 2760.46 -1760.85 2760.2 -1760.57 2759.9 -1760.29 2759.58 -1760.03 2759.23 -1760.03 2759.21 -1760.01 2759.19 -1759.97 2759.14 -1759.91 2759.06 -1759.88 2758.97 -1759.8 2758.86 -1759.67 2758.59 -1759.52 2758.26 -1759.35 2757.86 -1759.2 2757.42 -1759.07 2756.93 -1759.07 2756.91 -1759.05 2756.87 -1759.04 2756.8 -1759.02 2756.69 -1759 2756.57 -1758.98 2756.42 -1758.94 2756.24 -1758.92 2756.05 -1758.89 2755.83 -1758.85 2755.6 -1758.81 2755.08 -1758.77 2754.5 -1758.75 2753.86 -1758.75 2746.94 -1777.92 2746.94 -1777.92 2754.11 -1777.9 2754.31 -1777.9 2754.55 -1777.88 2754.8 -1777.85 2755.36 -1777.81 2755.92 -1777.74 2756.46 -1777.7 2756.72 -1777.64 2756.95 -1777.64 2756.97 -1777.62 2757.02 -1777.61 2757.12 -1777.57 2757.23 -1777.53 2757.38 -1777.47 2757.53 -1777.4 2757.71 -1777.32 2757.92 -1777.14 2758.37 -1776.89 2758.84 -1776.61 2759.32 -1776.26 2759.77 -1776.24 2759.79 -1776.2 2759.85 -1776.13 2759.92 -1776.03 2760.02 -1775.9 2760.15 -1775.75 2760.29 -1775.57 2760.45 -1775.38 2760.63 -1775.15 2760.8 -1774.89 2760.99 -1774.63 2761.17 -1774.35 2761.36 -1774.03 2761.55 -1773.7 2761.72 -1772.99 2762.03 -1772.97 2762.03 -1772.89 2762.07 -1772.78 2762.11 -1772.63 2762.15 -1772.44 2762.22 -1772.22 2762.28 -1771.96 2762.35 -1771.68 2762.43 -1771.36 2762.48 -1771 2762.56 -1770.63 2762.63 -1770.24 2762.69 -1769.81 2762.73 -1769.38 2762.76 -1768.44 2762.8 -1768.42 2762.8 -1768.35 2762.8 -1768.24 2762.8 -1768.07 2762.8 -1767.88 2762.78"/><path d="M -1758.75 2740.08 -1773.79 2730.02 -1758.75 2730.02 -1758.75 2727.59 -1777.92 2727.59 -1777.92 2730.19 -1762.87 2740.27 -1777.92 2740.27 -1777.92 2742.7 -1758.75 2742.7 -1758.75 2740.08"/><path d="M -1761.39 2723.85 -1761.35 2723.79 -1761.26 2723.68 -1761.17 2723.55 -1761.04 2723.38 -1760.91 2723.18 -1760.76 2722.93 -1760.59 2722.69 -1760.4 2722.41 -1760.21 2722.11 -1759.86 2721.46 -1759.5 2720.75 -1759.18 2720 -1759.18 2719.98 -1759.15 2719.9 -1759.11 2719.81 -1759.07 2719.66 -1759.02 2719.47 -1758.94 2719.27 -1758.89 2719.02 -1758.81 2718.74 -1758.74 2718.45 -1758.68 2718.13 -1758.61 2717.79 -1758.55 2717.43 -1758.47 2716.71 -1758.44 2715.92 -1758.44 2715.64 -1758.46 2715.45 -1758.47 2715.19 -1758.49 2714.91 -1758.53 2714.57 -1758.59 2714.22 -1758.64 2713.83 -1758.74 2713.43 -1758.83 2713 -1758.94 2712.55 -1759.07 2712.11 -1759.24 2711.66 -1759.43 2711.23 -1759.63 2710.78 -1759.65 2710.76 -1759.69 2710.68 -1759.77 2710.55 -1759.86 2710.4 -1759.99 2710.22 -1760.14 2709.99 -1760.33 2709.75 -1760.53 2709.49 -1760.76 2709.21 -1761.02 2708.93 -1761.32 2708.63 -1761.62 2708.35 -1761.95 2708.07 -1762.33 2707.79 -1762.72 2707.54 -1763.13 2707.3 -1763.15 2707.28 -1763.24 2707.24 -1763.36 2707.19 -1763.54 2707.11 -1763.75 2707.04 -1764.01 2706.93 -1764.31 2706.83 -1764.63 2706.72 -1765 2706.61 -1765.39 2706.51 -1765.82 2706.4 -1766.27 2706.33 -1766.74 2706.25 -1767.23 2706.2 -1767.73 2706.16 -1768.25 2706.14 -1768.29 2706.14 -1768.39 2706.14 -1768.54 2706.14 -1768.72 2706.16 -1768.98 2706.18 -1769.26 2706.2 -1769.6 2706.23 -1769.96 2706.29 -1770.35 2706.35 -1770.76 2706.42 -1771.19 2706.51 -1771.64 2706.63 -1772.09 2706.76 -1772.56 2706.93 -1773.01 2707.09 -1773.47 2707.3 -1773.51 2707.32 -1773.58 2707.36 -1773.7 2707.43 -1773.86 2707.52 -1774.07 2707.64 -1774.29 2707.79 -1774.56 2707.95 -1774.84 2708.16 -1775.12 2708.38 -1775.42 2708.65 -1775.72 2708.91 -1776.02 2709.23 -1776.31 2709.54 -1776.59 2709.9 -1776.84 2710.27 -1777.08 2710.67 -1777.1 2710.68 -1777.14 2710.76 -1777.19 2710.89 -1777.27 2711.06 -1777.36 2711.26 -1777.45 2711.51 -1777.57 2711.81 -1777.68 2712.12 -1777.77 2712.48 -1777.88 2712.87 -1777.98 2713.28 -1778.07 2713.73 -1778.15 2714.2 -1778.2 2714.69 -1778.24 2715.21 -1778.26 2715.73 -1778.26 2715.94 -1778.24 2716.09 -1778.24 2716.26 -1778.22 2716.48 -1778.2 2716.72 -1778.17 2716.99 -1778.13 2717.27 -1778.09 2717.57 -1777.96 2718.18 -1777.79 2718.84 -1777.57 2719.47 -1777.57 2719.49 -1777.53 2719.55 -1777.49 2719.64 -1777.44 2719.75 -1777.38 2719.89 -1777.29 2720.05 -1777.08 2720.43 -1776.82 2720.86 -1776.5 2721.29 -1776.13 2721.72 -1775.7 2722.11 -1775.68 2722.13 -1775.64 2722.15 -1775.57 2722.2 -1775.47 2722.28 -1775.36 2722.35 -1775.21 2722.45 -1775.04 2722.54 -1774.86 2722.65 -1774.65 2722.78 -1774.41 2722.89 -1774.15 2723.01 -1773.86 2723.14 -1773.57 2723.25 -1773.25 2723.36 -1772.91 2723.47 -1772.56 2723.57 -1771.94 2721.29 -1771.96 2721.29 -1771.99 2721.27 -1772.09 2721.25 -1772.18 2721.21 -1772.29 2721.17 -1772.44 2721.12 -1772.78 2720.99 -1773.13 2720.84 -1773.53 2720.65 -1773.9 2720.45 -1774.24 2720.2 -1774.26 2720.2 -1774.28 2720.17 -1774.37 2720.09 -1774.54 2719.94 -1774.72 2719.73 -1774.93 2719.47 -1775.15 2719.16 -1775.38 2718.8 -1775.59 2718.37 -1775.59 2718.35 -1775.6 2718.31 -1775.64 2718.26 -1775.66 2718.16 -1775.7 2718.05 -1775.75 2717.92 -1775.79 2717.77 -1775.85 2717.6 -1775.92 2717.21 -1776.02 2716.76 -1776.07 2716.26 -1776.09 2715.73 -1776.09 2715.43 -1776.07 2715.29 -1776.07 2715.12 -1776.05 2714.93 -1776.02 2714.7 -1775.96 2714.24 -1775.87 2713.73 -1775.74 2713.21 -1775.55 2712.72 -1775.55 2712.7 -1775.53 2712.67 -1775.49 2712.61 -1775.45 2712.52 -1775.4 2712.4 -1775.34 2712.29 -1775.17 2711.99 -1774.97 2711.67 -1774.74 2711.34 -1774.46 2711 -1774.15 2710.68 -1774.11 2710.65 -1774 2710.55 -1773.83 2710.42 -1773.58 2710.25 -1773.3 2710.05 -1772.99 2709.86 -1772.63 2709.66 -1772.26 2709.49 -1772.24 2709.49 -1772.18 2709.45 -1772.09 2709.41 -1771.94 2709.37 -1771.79 2709.32 -1771.58 2709.26 -1771.36 2709.19 -1771.12 2709.13 -1770.84 2709.06 -1770.54 2708.98 -1770.22 2708.93 -1769.88 2708.87 -1769.17 2708.8 -1768.4 2708.76 -1768.37 2708.76 -1768.29 2708.76 -1768.16 2708.76 -1767.97 2708.78 -1767.75 2708.78 -1767.51 2708.81 -1767.23 2708.83 -1766.91 2708.87 -1766.57 2708.91 -1766.23 2708.98 -1765.51 2709.13 -1764.79 2709.36 -1764.44 2709.49 -1764.1 2709.64 -1764.09 2709.66 -1764.03 2709.68 -1763.93 2709.73 -1763.82 2709.81 -1763.67 2709.9 -1763.52 2710.01 -1763.34 2710.14 -1763.13 2710.29 -1762.93 2710.46 -1762.72 2710.65 -1762.51 2710.85 -1762.29 2711.1 -1762.08 2711.34 -1761.9 2711.6 -1761.71 2711.9 -1761.54 2712.2 -1761.54 2712.22 -1761.5 2712.27 -1761.47 2712.37 -1761.41 2712.5 -1761.35 2712.65 -1761.28 2712.84 -1761.2 2713.04 -1761.13 2713.28 -1761.05 2713.53 -1760.98 2713.81 -1760.85 2714.42 -1760.76 2715.08 -1760.74 2715.42 -1760.72 2715.77 -1760.72 2715.94 -1760.74 2716.05 -1760.74 2716.2 -1760.76 2716.37 -1760.77 2716.57 -1760.79 2716.8 -1760.87 2717.28 -1760.98 2717.83 -1761.13 2718.41 -1761.34 2718.99 -1761.34 2719.01 -1761.37 2719.06 -1761.39 2719.14 -1761.45 2719.25 -1761.5 2719.38 -1761.58 2719.53 -1761.75 2719.89 -1761.95 2720.26 -1762.18 2720.65 -1762.44 2721.04 -1762.7 2721.38 -1766.27 2721.38 -1766.27 2715.75 -1768.54 2715.75 -1768.54 2723.87 -1761.41 2723.87 -1761.39 2723.85"/><path d="M -1715.95 2761.46 -1715.78 2761.4 -1715.58 2761.34 -1715.32 2761.25 -1715.02 2761.14 -1714.68 2760.99 -1714.32 2760.84 -1713.93 2760.65 -1713.54 2760.45 -1713.15 2760.2 -1712.75 2759.94 -1712.36 2759.64 -1711.99 2759.34 -1711.63 2758.99 -1711.31 2758.61 -1711.3 2758.59 -1711.24 2758.52 -1711.16 2758.41 -1711.05 2758.24 -1710.94 2758.03 -1710.81 2757.79 -1710.66 2757.51 -1710.51 2757.21 -1710.34 2756.86 -1710.21 2756.46 -1710.06 2756.05 -1709.95 2755.6 -1709.84 2755.12 -1709.76 2754.63 -1709.71 2754.09 -1709.69 2753.55 -1709.69 2753.25 -1709.71 2753.02 -1709.73 2752.76 -1709.76 2752.46 -1709.8 2752.12 -1709.84 2751.75 -1709.91 2751.36 -1709.99 2750.95 -1710.1 2750.53 -1710.21 2750.1 -1710.36 2749.69 -1710.53 2749.26 -1710.72 2748.87 -1710.94 2748.5 -1710.96 2748.48 -1711 2748.42 -1711.07 2748.31 -1711.18 2748.18 -1711.3 2748.01 -1711.46 2747.84 -1711.65 2747.63 -1711.87 2747.41 -1712.12 2747.17 -1712.38 2746.93 -1712.68 2746.68 -1713.02 2746.44 -1713.37 2746.21 -1713.74 2745.97 -1714.16 2745.76 -1714.59 2745.56 -1714.62 2745.54 -1714.7 2745.52 -1714.83 2745.47 -1715 2745.41 -1715.22 2745.34 -1715.48 2745.24 -1715.78 2745.15 -1716.12 2745.05 -1716.49 2744.96 -1716.89 2744.87 -1717.32 2744.79 -1717.77 2744.7 -1718.23 2744.64 -1718.72 2744.59 -1719.22 2744.57 -1719.73 2744.55 -1719.77 2744.55 -1719.86 2744.55 -1720.03 2744.55 -1720.23 2744.57 -1720.5 2744.59 -1720.8 2744.61 -1721.13 2744.64 -1721.51 2744.7 -1721.9 2744.76 -1722.31 2744.83 -1722.76 2744.92 -1723.19 2745.04 -1723.64 2745.17 -1724.09 2745.32 -1724.52 2745.49 -1724.95 2745.69 -1724.96 2745.71 -1725.04 2745.75 -1725.17 2745.8 -1725.32 2745.9 -1725.51 2746.03 -1725.71 2746.16 -1725.96 2746.33 -1726.22 2746.53 -1726.48 2746.74 -1726.76 2746.98 -1727.04 2747.26 -1727.32 2747.54 -1727.6 2747.86 -1727.86 2748.2 -1728.12 2748.55 -1728.35 2748.94 -1728.37 2748.96 -1728.41 2749.04 -1728.46 2749.15 -1728.54 2749.32 -1728.61 2749.51 -1728.72 2749.75 -1728.82 2750.01 -1728.93 2750.33 -1729.04 2750.65 -1729.14 2751 -1729.25 2751.39 -1729.32 2751.81 -1729.4 2752.24 -1729.45 2752.67 -1729.49 2753.13 -1729.51 2753.6 -1729.51 2753.88 -1729.49 2754.09 -1729.47 2754.33 -1729.43 2754.61 -1729.38 2754.93 -1729.32 2755.28 -1729.25 2755.64 -1729.15 2756.03 -1729.02 2756.44 -1728.89 2756.84 -1728.72 2757.25 -1728.52 2757.66 -1728.29 2758.05 -1728.03 2758.42 -1728.01 2758.44 -1727.96 2758.52 -1727.88 2758.61 -1727.77 2758.74 -1727.62 2758.91 -1727.43 2759.08 -1727.21 2759.29 -1726.97 2759.51 -1726.69 2759.73 -1726.39 2759.96 -1726.05 2760.18 -1725.68 2760.41 -1725.28 2760.63 -1724.85 2760.84 -1724.4 2761.01 -1723.92 2761.17 -1723.34 2758.67 -1723.36 2758.67 -1723.43 2758.63 -1723.54 2758.59 -1723.68 2758.54 -1723.84 2758.48 -1724.05 2758.39 -1724.25 2758.29 -1724.5 2758.18 -1724.98 2757.9 -1725.49 2757.57 -1725.96 2757.17 -1726.18 2756.95 -1726.37 2756.72 -1726.39 2756.71 -1726.41 2756.67 -1726.46 2756.59 -1726.52 2756.5 -1726.59 2756.37 -1726.67 2756.22 -1726.76 2756.05 -1726.85 2755.85 -1726.95 2755.64 -1727.04 2755.4 -1727.12 2755.13 -1727.19 2754.85 -1727.3 2754.24 -1727.32 2753.9 -1727.34 2753.55 -1727.34 2753.34 -1727.32 2753.17 -1727.3 2752.98 -1727.28 2752.76 -1727.25 2752.52 -1727.21 2752.25 -1727.08 2751.66 -1727 2751.36 -1726.89 2751.04 -1726.76 2750.74 -1726.63 2750.42 -1726.46 2750.12 -1726.27 2749.84 -1726.26 2749.82 -1726.22 2749.79 -1726.16 2749.71 -1726.09 2749.6 -1725.98 2749.49 -1725.84 2749.34 -1725.69 2749.19 -1725.53 2749.04 -1725.32 2748.85 -1725.11 2748.68 -1724.87 2748.51 -1724.61 2748.35 -1724.35 2748.18 -1724.05 2748.03 -1723.75 2747.9 -1723.41 2747.77 -1723.39 2747.77 -1723.34 2747.75 -1723.25 2747.71 -1723.11 2747.67 -1722.95 2747.63 -1722.76 2747.58 -1722.53 2747.52 -1722.29 2747.47 -1722.03 2747.41 -1721.73 2747.35 -1721.11 2747.26 -1720.44 2747.19 -1719.75 2747.17 -1719.73 2747.17 -1719.64 2747.17 -1719.5 2747.17 -1719.34 2747.19 -1719.13 2747.19 -1718.87 2747.21 -1718.61 2747.22 -1718.29 2747.26 -1717.97 2747.3 -1717.64 2747.34 -1716.9 2747.47 -1716.18 2747.63 -1715.47 2747.88 -1715.45 2747.88 -1715.39 2747.92 -1715.3 2747.95 -1715.17 2748.01 -1715.02 2748.08 -1714.85 2748.18 -1714.46 2748.42 -1714.01 2748.74 -1713.56 2749.11 -1713.13 2749.56 -1712.94 2749.82 -1712.75 2750.09 -1712.74 2750.1 -1712.72 2750.16 -1712.68 2750.24 -1712.62 2750.35 -1712.55 2750.48 -1712.47 2750.65 -1712.4 2750.83 -1712.3 2751.06 -1712.23 2751.28 -1712.14 2751.54 -1712.01 2752.09 -1711.89 2752.7 -1711.87 2753.02 -1711.86 2753.34 -1711.86 2753.55 -1711.87 2753.69 -1711.89 2753.88 -1711.91 2754.09 -1711.95 2754.33 -1712.01 2754.59 -1712.16 2755.15 -1712.25 2755.45 -1712.36 2755.77 -1712.51 2756.07 -1712.68 2756.37 -1712.87 2756.67 -1713.07 2756.95 -1713.09 2756.97 -1713.13 2757 -1713.2 2757.1 -1713.3 2757.19 -1713.43 2757.3 -1713.6 2757.45 -1713.78 2757.6 -1713.99 2757.75 -1714.23 2757.92 -1714.51 2758.09 -1714.81 2758.26 -1715.13 2758.42 -1715.48 2758.57 -1715.88 2758.71 -1716.29 2758.84 -1716.72 2758.95 -1716.08 2761.49 -1716.05 2761.49 -1715.95 2761.46"/><path d="M -1715.95 2742.12 -1715.78 2742.06 -1715.58 2742.01 -1715.32 2741.91 -1715.02 2741.8 -1714.68 2741.65 -1714.32 2741.5 -1713.93 2741.31 -1713.54 2741.11 -1713.15 2740.87 -1712.75 2740.6 -1712.36 2740.3 -1711.99 2740.01 -1711.63 2739.65 -1711.31 2739.28 -1711.3 2739.26 -1711.24 2739.18 -1711.16 2739.07 -1711.05 2738.9 -1710.94 2738.7 -1710.81 2738.45 -1710.66 2738.17 -1710.51 2737.87 -1710.34 2737.52 -1710.21 2737.13 -1710.06 2736.72 -1709.95 2736.27 -1709.84 2735.78 -1709.76 2735.29 -1709.71 2734.75 -1709.69 2734.21 -1709.69 2733.91 -1709.71 2733.69 -1709.73 2733.42 -1709.76 2733.12 -1709.8 2732.79 -1709.84 2732.41 -1709.91 2732.02 -1709.99 2731.61 -1710.1 2731.2 -1710.21 2730.77 -1710.36 2730.36 -1710.53 2729.93 -1710.72 2729.53 -1710.94 2729.16 -1710.96 2729.14 -1711 2729.08 -1711.07 2728.97 -1711.18 2728.84 -1711.3 2728.67 -1711.46 2728.5 -1711.65 2728.3 -1711.87 2728.08 -1712.12 2727.83 -1712.38 2727.59 -1712.68 2727.35 -1713.02 2727.1 -1713.37 2726.88 -1713.74 2726.63 -1714.16 2726.43 -1714.59 2726.22 -1714.62 2726.21 -1714.7 2726.19 -1714.83 2726.13 -1715 2726.07 -1715.22 2726 -1715.48 2725.91 -1715.78 2725.81 -1716.12 2725.72 -1716.49 2725.63 -1716.89 2725.53 -1717.32 2725.46 -1717.77 2725.36 -1718.23 2725.31 -1718.72 2725.25 -1719.22 2725.23 -1719.73 2725.21 -1719.77 2725.21 -1719.86 2725.21 -1720.03 2725.21 -1720.23 2725.23 -1720.5 2725.25 -1720.8 2725.27 -1721.13 2725.31 -1721.51 2725.36 -1721.9 2725.42 -1722.31 2725.5 -1722.76 2725.59 -1723.19 2725.7 -1723.64 2725.83 -1724.09 2725.98 -1724.52 2726.15 -1724.95 2726.36 -1724.96 2726.37 -1725.04 2726.41 -1725.17 2726.47 -1725.32 2726.56 -1725.51 2726.69 -1725.71 2726.82 -1725.96 2726.99 -1726.22 2727.2 -1726.48 2727.4 -1726.76 2727.64 -1727.04 2727.93 -1727.32 2728.21 -1727.6 2728.52 -1727.86 2728.86 -1728.12 2729.22 -1728.35 2729.61 -1728.37 2729.63 -1728.41 2729.7 -1728.46 2729.81 -1728.54 2729.98 -1728.61 2730.17 -1728.72 2730.41 -1728.82 2730.67 -1728.93 2730.99 -1729.04 2731.31 -1729.14 2731.67 -1729.25 2732.06 -1729.32 2732.47 -1729.4 2732.9 -1729.45 2733.33 -1729.49 2733.8 -1729.51 2734.27 -1729.51 2734.55 -1729.49 2734.75 -1729.47 2734.99 -1729.43 2735.28 -1729.38 2735.59 -1729.32 2735.95 -1729.25 2736.3 -1729.15 2736.7 -1729.02 2737.11 -1728.89 2737.5 -1728.72 2737.91 -1728.52 2738.32 -1728.29 2738.72 -1728.03 2739.09 -1728.01 2739.11 -1727.96 2739.18 -1727.88 2739.28 -1727.77 2739.41 -1727.62 2739.58 -1727.43 2739.74 -1727.21 2739.95 -1726.97 2740.17 -1726.69 2740.4 -1726.39 2740.62 -1726.05 2740.85 -1725.68 2741.07 -1725.28 2741.3 -1724.85 2741.5 -1724.4 2741.67 -1723.92 2741.84 -1723.34 2739.33 -1723.36 2739.33 -1723.43 2739.3 -1723.54 2739.26 -1723.68 2739.2 -1723.84 2739.15 -1724.05 2739.05 -1724.25 2738.96 -1724.5 2738.85 -1724.98 2738.57 -1725.49 2738.23 -1725.96 2737.84 -1726.18 2737.61 -1726.37 2737.39 -1726.39 2737.37 -1726.41 2737.33 -1726.46 2737.26 -1726.52 2737.16 -1726.59 2737.03 -1726.67 2736.88 -1726.76 2736.72 -1726.85 2736.51 -1726.95 2736.3 -1727.04 2736.06 -1727.12 2735.8 -1727.19 2735.52 -1727.3 2734.9 -1727.32 2734.56 -1727.34 2734.21 -1727.34 2734 -1727.32 2733.83 -1727.3 2733.65 -1727.28 2733.42 -1727.25 2733.18 -1727.21 2732.92 -1727.08 2732.32 -1727 2732.02 -1726.89 2731.7 -1726.76 2731.4 -1726.63 2731.09 -1726.46 2730.79 -1726.27 2730.51 -1726.26 2730.49 -1726.22 2730.45 -1726.16 2730.38 -1726.09 2730.26 -1725.98 2730.15 -1725.84 2730 -1725.69 2729.85 -1725.53 2729.7 -1725.32 2729.52 -1725.11 2729.35 -1724.87 2729.18 -1724.61 2729.01 -1724.35 2728.84 -1724.05 2728.69 -1723.75 2728.56 -1723.41 2728.43 -1723.39 2728.43 -1723.34 2728.41 -1723.25 2728.37 -1723.11 2728.34 -1722.95 2728.3 -1722.76 2728.24 -1722.53 2728.19 -1722.29 2728.13 -1722.03 2728.08 -1721.73 2728.02 -1721.11 2727.93 -1720.44 2727.85 -1719.75 2727.83 -1719.73 2727.83 -1719.64 2727.83 -1719.5 2727.83 -1719.34 2727.85 -1719.13 2727.85 -1718.87 2727.87 -1718.61 2727.89 -1718.29 2727.93 -1717.97 2727.96 -1717.64 2728 -1716.9 2728.13 -1716.18 2728.3 -1715.47 2728.54 -1715.45 2728.54 -1715.39 2728.58 -1715.3 2728.62 -1715.17 2728.67 -1715.02 2728.75 -1714.85 2728.84 -1714.46 2729.08 -1714.01 2729.4 -1713.56 2729.78 -1713.13 2730.23 -1712.94 2730.49 -1712.75 2730.75 -1712.74 2730.77 -1712.72 2730.82 -1712.68 2730.9 -1712.62 2731.01 -1712.55 2731.14 -1712.47 2731.31 -1712.4 2731.5 -1712.3 2731.72 -1712.23 2731.95 -1712.14 2732.21 -1712.01 2732.75 -1711.89 2733.37 -1711.87 2733.69 -1711.86 2734 -1711.86 2734.21 -1711.87 2734.36 -1711.89 2734.55 -1711.91 2734.75 -1711.95 2734.99 -1712.01 2735.26 -1712.16 2735.82 -1712.25 2736.12 -1712.36 2736.43 -1712.51 2736.73 -1712.68 2737.03 -1712.87 2737.33 -1713.07 2737.61 -1713.09 2737.63 -1713.13 2737.67 -1713.2 2737.76 -1713.3 2737.85 -1713.43 2737.97 -1713.6 2738.12 -1713.78 2738.27 -1713.99 2738.42 -1714.23 2738.58 -1714.51 2738.75 -1714.81 2738.92 -1715.13 2739.09 -1715.48 2739.24 -1715.88 2739.37 -1716.29 2739.5 -1716.72 2739.61 -1716.08 2742.16 -1716.05 2742.16 -1715.95 2742.12"/><path d="M -1710.01 2716.18 -1710.01 2713.55 -1729.17 2706.14 -1729.17 2708.89 -1715.24 2713.86 -1715.22 2713.86 -1715.17 2713.88 -1715.07 2713.92 -1714.96 2713.96 -1714.81 2714.01 -1714.62 2714.07 -1714.44 2714.14 -1714.21 2714.22 -1713.73 2714.37 -1713.2 2714.54 -1712.66 2714.7 -1712.1 2714.87 -1712.12 2714.87 -1712.17 2714.89 -1712.25 2714.91 -1712.36 2714.95 -1712.51 2715 -1712.68 2715.04 -1712.87 2715.1 -1713.09 2715.17 -1713.56 2715.32 -1714.08 2715.49 -1714.66 2715.7 -1715.24 2715.9 -1729.17 2721.1 -1729.17 2723.68 -1710.01 2716.18"/><path d="M -2235.94 2750.71 -2242.76 2745.87 -2242.78 2745.85 -2242.86 2745.8 -2242.99 2745.72 -2243.14 2745.61 -2243.3 2745.5 -2243.51 2745.37 -2243.96 2745.07 -2243.94 2745.07 -2243.92 2745.05 -2243.79 2744.97 -2243.62 2744.86 -2243.42 2744.73 -2243.19 2744.58 -2242.95 2744.43 -2242.74 2744.28 -2242.57 2744.17 -2235.94 2739.31 -2235.94 2736.26 -2245.87 2743.66 -2255.1 2737.14 -2255.1 2740.17 -2250.21 2743.66 -2250.19 2743.68 -2250.13 2743.72 -2250.06 2743.78 -2249.96 2743.83 -2249.83 2743.93 -2249.68 2744.04 -2249.35 2744.26 -2248.95 2744.51 -2248.56 2744.77 -2248.19 2744.99 -2247.85 2745.18 -2247.87 2745.18 -2247.89 2745.22 -2247.94 2745.25 -2248.02 2745.29 -2248.22 2745.44 -2248.5 2745.61 -2248.82 2745.83 -2249.18 2746.09 -2249.59 2746.38 -2250 2746.69 -2255.1 2750.55 -2255.1 2753.31 -2246 2746.66 -2235.94 2753.84 -2235.94 2750.71"/><path d="M -2252.84 2729.26 -2235.94 2729.26 -2235.94 2726.72 -2252.84 2726.72 -2252.84 2720.4 -2255.1 2720.4 -2255.1 2735.61 -2252.84 2735.61 -2252.84 2729.26"/></g><path d="M -905.4 618.73 A 9.84 9.84 0 0 1 -925.08 618.73 9.84 9.84 0 0 1 -905.4 618.73" fill="none" stroke-width="0"/><path d="M -1394.68 2388.38 A 4.92 4.92 0 0 1 -1404.52 2388.38 4.92 4.92 0 0 1 -1394.68 2388.38 M -1624.2 2504.1 A 4.92 4.92 0 0 1 -1634.04 2504.1 4.92 4.92 0 0 1 -1624.2 2504.1 M -1968.08 -175.86 A 4.92 4.92 0 0 1 -1977.92 -175.86 4.92 4.92 0 0 1 -1968.08 -175.86 M -2968.08 -175.86 A 4.92 4.92 0 0 1 -2977.92 -175.86 4.92 4.92 0 0 1 -2968.08 -175.86 M -688.34 579.15 A 4.92 4.92 0 0 1 -698.18 579.15 4.92 4.92 0 0 1 -688.34 579.15 M -1394.68 579.15 A 4.92 4.92 0 0 1 -1404.52 579.15 4.92 4.92 0 0 1 -1394.68 579.15 M -688.34 1464.79 A 4.92 4.92 0 0 1 -698.18 1464.79 4.92 4.92 0 0 1 -688.34 1464.79 M -1394.68 1464.79 A 4.92 4.92 0 0 1 -1404.52 1464.79 4.92 4.92 0 0 1 -1394.68 1464.79 M -2716.02 2742.02 A 4.92 4.92 0 0 1 -2725.86 2742.02 4.92 4.92 0 0 1 -2716.02 2742.02 M -2220.08 2297.4 A 4.92 4.92 0 0 1 -2229.92 2297.4 4.92 4.92 0 0 1 -2220.08 2297.4 M -688.34 2388.38 A 4.92 4.92 0 0 1 -698.18 2388.38 4.92 4.92 0 0 1 -688.34 2388.38" fill="none" stroke-width="9.84"/><path d="M -2525.71 2643.03 A 3.94 3.94 0 0 1 -2533.59 2643.03 3.94 3.94 0 0 1 -2525.71 2643.03 M -1346.45 2039.76 -1346.45 2369.28 M -1452.75 2039.76 -1346.45 2039.76 M -1452.75 2039.76 -1452.75 2369.28 -1346.45 2369.28 M -1929.32 2684.22 -1929.32 2696.03 M -1988.38 2684.22 -1929.32 2684.22 M -1929.32 2524.77 -1891.92 2524.77 M -1929.32 2524.77 -1929.32 2544.46 M -1602.55 2684.22 -1543.5 2684.22 M -1602.55 2684.22 -1602.55 2696.03 M -1929.32 2696.03 -1602.55 2696.03 M -1602.55 2524.77 -1602.55 2544.46 M -1639.95 2524.77 -1602.55 2524.77 M -2026.15 -156.76 -1919.85 -156.76 -1919.85 1872.76 M -2026.15 1872.76 -1919.85 1872.76 M -2026.15 -156.76 -2026.15 1872.76 M -3026.15 -156.76 -3026.15 1872.76 -2919.85 1872.76 M -2919.85 -156.76 -2919.85 1872.76 M -3026.15 -156.76 -2919.85 -156.76 M -640.11 230.52 -640.11 560.05 M -746.41 230.52 -640.11 230.52 M -746.41 230.52 -746.41 560.05 -640.11 560.05 M -1346.45 230.52 -1346.45 560.05 M -1452.75 230.52 -1346.45 230.52 M -1452.75 230.52 -1452.75 560.05 -1346.45 560.05 M -746.41 1445.7 -640.11 1445.7 M -746.41 1116.17 -746.41 1445.7 M -746.41 1116.17 -640.11 1116.17 -640.11 1445.7 M -1452.75 1445.7 -1346.45 1445.7 M -1452.75 1116.17 -1452.75 1445.7 M -1452.75 1116.17 -1346.45 1116.17 -1346.45 1445.7 M -2595.94 2224.3 -2595.94 2716.42 M -3095.93 2224.31 -2595.94 2224.31 M -3095.93 2224.31 -3095.93 2716.42 -2595.94 2716.42 M -2198.43 2382.05 -2198.43 2387.95 M -2251.57 2382.05 -2251.57 2387.95 M -2488.31 2331.61 -2488.31 2428.39 M -2401.69 2331.61 -2401.69 2428.39 M -640.11 2039.76 -640.11 2369.28 M -746.41 2039.76 -640.11 2039.76 M -746.41 2039.76 -746.41 2369.28 -640.11 2369.28" fill="none" stroke-width="7.87"/><path d="M -1207.24 365.7 -1194.11 365.7 M -1207.24 365.7 -1207.24 586.17 -1194.11 586.17 M -925.09 365.7 -911.96 365.7 -911.96 586.17 M -925.09 586.17 -911.96 586.17" fill="none" stroke-width="4.72"/><path d="M 25.44 1248.65 25.44 1327.39 M -151.72 1150.23 -72.98 1150.23 M -250.15 1248.65 -250.15 1327.39 M -151.72 1425.82 -72.98 1425.82 M 25.44 363 25.44 441.74 M -151.72 264.58 -72.98 264.58 M -250.15 363 -250.15 441.74 M -151.72 540.17 -72.98 540.17 M 25.44 2172.24 25.44 2250.98 M -151.72 2073.81 -72.98 2073.81 M -250.15 2172.24 -250.15 2250.98 M -151.72 2349.4 -72.98 2349.4 M -2504.84 2595 -2504.84 2695 M -2504.84 2595 -2085.16 2595 -2085.16 2695 M -2504.84 2695 -2085.16 2695" fill="none" stroke-width="5"/><path d="M -2773.94 223.4 -2773.94 283.38 -2753.94 263.38 -2733.95 283.38 -2733.95 223.4 M -2703.96 263.38 -2683.97 263.38 -2673.97 253.39 -2673.97 223.4 -2703.96 223.4 -2713.96 233.39 -2703.96 243.39 -2673.97 243.39 M -2613.99 283.38 -2613.99 223.4 -2643.98 223.4 -2653.98 233.39 -2653.98 253.39 -2643.98 263.38 -2613.99 263.38 M -2564 223.4 -2584 223.4 -2594 233.39 -2594 253.39 -2584 263.38 -2564 263.38 -2554.01 253.39 -2554.01 243.39 -2594 243.39 M -2474.03 283.38 -2474.03 223.4 -2444.04 223.4 -2434.05 233.39 -2434.05 243.39 -2434.05 253.39 -2444.04 263.38 -2474.03 263.38 M -2414.05 263.38 -2414.05 233.39 -2404.06 223.4 -2374.07 223.4 -2374.07 213.4 -2384.06 203.4 -2394.06 203.4 M -2374.07 223.4 -2374.07 263.38 M -2354.07 263.38 -2344.08 263.38 -2344.08 253.39 -2354.07 253.39 -2354.07 263.38 M -2354.07 233.39 -2344.08 233.39 -2344.08 223.4 -2354.07 223.4 -2354.07 233.39 M 92.99 2177 53 2177 53 2157.01 59.66 2150.34 86.32 2150.34 92.99 2157.01 92.99 2177 M 53 2137.01 59.66 2137.01 59.66 2130.35 53 2130.35 53 2137.01 M 92.99 2083.7 92.99 2097.03 86.32 2103.69 59.66 2103.69 53 2097.03 53 2083.7 59.66 2077.03 86.32 2077.03 92.99 2083.7 M 53 2063.7 59.66 2063.7 59.66 2057.04 53 2057.04 53 2063.7 M 35.44 501.74 75.43 501.74 75.43 481.75 68.76 475.09 55.43 475.09 48.77 481.75 48.77 501.74 M 88.76 461.76 48.77 461.76 68.76 461.76 68.76 435.1 88.76 435.1 48.77 435.1 M 53 1347 92.99 1347 92.99 1327.01 86.32 1320.34 72.99 1320.34 66.33 1327.01 66.33 1347 M 66.33 1333.67 53 1320.34 M 92.99 1307.01 92.99 1280.35 92.99 1293.68 53 1293.68 M 92.99 1267.03 53 1267.03 53 1247.03 59.66 1240.37 86.32 1240.37 92.99 1247.03 92.99 1267.03 M -2773.94 108.4 -2773.94 148.38 -2753.94 168.38 -2733.95 148.38 -2733.95 108.4 -2733.95 138.38 -2773.94 138.38 M -2713.96 108.4 -2713.96 148.38 -2683.97 148.38 -2673.97 138.38 -2673.97 108.4 M -2613.99 168.38 -2613.99 108.4 -2643.98 108.4 -2653.98 118.39 -2653.98 138.38 -2643.98 148.38 -2613.99 148.38 M -2594 148.38 -2594 118.39 -2584 108.4 -2554.01 108.4 -2554.01 98.4 -2564 88.4 -2574 88.4 M -2554.01 108.4 -2554.01 148.38 M -2434.05 158.38 -2444.04 168.38 -2464.04 168.38 -2474.03 158.38 -2474.03 148.38 -2464.04 138.38 -2444.04 138.38 -2434.05 128.39 -2434.05 118.39 -2444.04 108.4 -2464.04 108.4 -2474.03 118.39 M -2414.05 108.4 -2414.05 118.39 -2404.06 118.39 -2404.06 108.4 -2414.05 108.4 M -2733.95 43.38 -2773.94 43.38 -2773.94 -16.6 -2733.95 -16.6 M -2773.94 13.39 -2753.94 13.39 M -2713.96 -16.6 -2693.96 -16.6 -2703.96 -16.6 -2703.96 43.38 -2713.96 43.38 M -2663.97 -16.6 -2643.98 -16.6 -2653.98 -16.6 -2653.98 23.39 -2663.97 23.39 M -2613.99 23.39 -2574 23.39 -2613.99 -16.6 -2574 -16.6 M -2544.01 23.39 -2524.02 23.39 -2514.02 13.39 -2514.02 -16.6 -2544.01 -16.6 -2554.01 -6.6 -2544.01 3.4 -2514.02 3.4 M -2494.03 43.38 -2494.03 -16.6 -2464.04 -16.6 -2454.04 -6.6 -2454.04 3.4 -2454.04 13.39 -2464.04 23.39 -2494.03 23.39 M -2404.06 -16.6 -2424.05 -16.6 -2434.05 -6.6 -2434.05 13.39 -2424.05 23.39 -2404.06 23.39 -2394.06 13.39 -2394.06 3.4 -2434.05 3.4 M -2364.07 33.39 -2364.07 23.39 -2374.07 23.39 -2354.07 23.39 -2364.07 23.39 -2364.07 -6.6 -2354.07 -16.6 M -2324.08 43.38 -2324.08 -16.6 -2324.08 13.39 -2314.09 23.39 -2294.09 23.39 -2284.1 13.39 -2284.1 -16.6 M -2204.12 43.38 -2204.12 -16.6 -2164.13 -16.6 M -2144.14 -16.6 -2144.14 -6.6 -2134.14 -6.6 -2134.14 -16.6 -2144.14 -16.6 M -764.61 2095.93 -764.61 2115.93 -764.61 2105.93 -814.59 2105.93 -824.59 2115.93 -824.59 2125.92 -814.59 2135.92 M -774.6 2075.94 -764.61 2065.94 -764.61 2045.95 -774.6 2035.95 -784.6 2035.95 -794.6 2045.95 -804.59 2035.95 -814.59 2035.95 -824.59 2045.95 -824.59 2065.94 -814.59 2075.94 -804.59 2075.94 -794.6 2065.94 -784.6 2075.94 -774.6 2075.94 M -794.6 2065.94 -794.6 2045.95 M -1474.61 2095.93 -1474.61 2115.93 -1474.61 2105.93 -1524.59 2105.93 -1534.59 2115.93 -1534.59 2125.92 -1524.59 2135.92 M -1484.6 2075.94 -1474.61 2065.94 -1474.61 2045.95 -1484.6 2035.95 -1494.6 2035.95 -1504.6 2045.95 -1504.6 2055.95 -1504.6 2045.95 -1514.6 2035.95 -1524.59 2035.95 -1534.59 2045.95 -1534.59 2065.94 -1524.59 2075.94 M -282.01 2241.99 -282.01 2261.99 -282.01 2251.99 -331.99 2251.99 -341.99 2261.99 -341.99 2271.98 -331.99 2281.98 M -341.99 2222 -341.99 2202 -341.99 2212 -282.01 2212 -292.01 2222 M -341.99 2172.01 -341.99 2152.02 -341.99 2162.02 -282.01 2162.02 -292.01 2172.01 M -282.01 431.99 -282.01 451.98 -282.01 441.99 -331.99 441.99 -341.99 451.98 -341.99 461.98 -331.99 471.98 M -341.99 411.99 -341.99 392 -341.99 402 -282.01 402 -292.01 411.99 M -292.01 362.01 -282.01 352.01 -282.01 332.02 -292.01 322.02 -331.99 322.02 -341.99 332.02 -341.99 352.01 -331.99 362.01 -292.01 362.01 M -282.01 1307 -282.01 1326.99 -282.01 1316.99 -331.99 1316.99 -341.99 1326.99 -341.99 1336.99 -331.99 1346.98 M -331.99 1287 -341.99 1277.01 -341.99 1257.01 -331.99 1247.02 -292.01 1247.02 -282.01 1257.01 -282.01 1277.01 -292.01 1287 -302 1287 -312 1277.01 -312 1247.02 M -764.61 293.43 -764.61 313.43 -764.61 303.43 -814.59 303.43 -824.59 313.43 -824.59 323.42 -814.59 333.42 M -764.61 273.44 -764.61 233.45 -774.6 233.45 -814.59 273.44 -824.59 273.44 M -764.61 1175.93 -764.61 1195.93 -764.61 1185.93 -814.59 1185.93 -824.59 1195.93 -824.59 1205.92 -814.59 1215.92 M -764.61 1115.95 -774.6 1135.95 -794.6 1155.94 -814.59 1155.94 -824.59 1145.94 -824.59 1125.95 -814.59 1115.95 -804.59 1115.95 -794.6 1125.95 -794.6 1155.94 M -1469.61 285.93 -1469.61 305.93 -1469.61 295.93 -1519.59 295.93 -1529.59 305.93 -1529.59 315.92 -1519.59 325.92 M -1529.59 225.95 -1529.59 265.94 -1489.6 225.95 -1479.6 225.95 -1469.61 235.95 -1469.61 255.94 -1479.6 265.94 M -1469.61 1150.94 -1469.61 1170.93 -1469.61 1160.93 -1519.59 1160.93 -1529.59 1170.93 -1529.59 1180.93 -1519.59 1190.92 M -1529.59 1130.94 -1529.59 1110.95 -1529.59 1120.95 -1469.61 1120.95 -1479.6 1130.94" fill="none" stroke-width="10"/></g></svg>