<svg version="1.1" xmlns="http://www.w3.org/2000/svg" xmlns:xlink="http://www.w3.org/1999/xlink" stroke-linecap="round" stroke-linejoin="round" stroke-width="0" fill-rule="evenodd" width="1.9796500000000001in" height="2.69048in" viewBox="-2470.785 -17.085 1979.65 2690.48" id="KuoKlVW9A247Wt0PuB72"><defs><g id="KuoKlVW9A247Wt0PuB72_pad-16"><polygon points="26.575,-27.56 26.575,27.56 -26.575,27.56 -26.575,-27.56"/><polygon points="33.465,-20.67 33.465,20.67 -33.465,20.67 -33.465,-20.67"/><circle cx="26.57" cy="20.67" r="6.89"/><circle cx="26.57" cy="-20.67" r="6.89"/><circle cx="-26.57" cy="-20.67" r="6.89"/><circle cx="-26.57" cy="20.67" r="6.89"/></g><rect x="-23.62" y="-23.62" width="47.24" height="47.24" id="KuoKlVW9A247Wt0PuB72_pad-17"/><rect x="-9.355" y="-33.505" width="18.71" height="67.01" id="KuoKlVW9A247Wt0PuB72_pad-18"/><rect x="-15.945" y="-31.495" width="31.89" height="62.99" id="KuoKlVW9A247Wt0PuB72_pad-19"/><g id="KuoKlVW9A247Wt0PuB72_pad-20"><rect x="-19.685" y="-28.545" width="39.37" height="57.09"/><rect x="-14.765" y="-33.465" width="29.53" height="66.93"/><circle cx="14.76" cy="-28.54" r="4.92"/><circle cx="-14.76" cy="-28.54" r="4.92"/><circle cx="-14.76" cy="28.54" r="4.92"/><circle cx="14.76" cy="28.54" r="4.92"/></g><g id="KuoKlVW9A247Wt0PuB72_pad-21"><polygon points="28.545,19.685 28.545,-19.685 -28.545,-19.685 -28.545,19.685"/><polygon points="33.465,14.765 33.465,-14.765 -33.465,-14.765 -33.465,14.765"/><circle cx="-28.54" cy="-14.76" r="4.92"/><circle cx="-28.54" cy="14.76" r="4.92"/><circle cx="28.54" cy="14.76" r="4.92"/><circle cx="28.54" cy="-14.76" r="4.92"/></g><g id="KuoKlVW9A247Wt0PuB72_pad-22"><polygon points="16.735,11.81 16.735,-11.81 -16.735,-11.81 -16.735,11.81"/><polygon points="19.685,8.86 19.685,-8.86 -19.685,-8.86 -19.685,8.86"/><circle cx="-16.73" cy="-8.86" r="2.955"/><circle cx="-16.73" cy="8.86" r="2.955"/><circle cx="16.73" cy="8.86" r="2.955"/><circle cx="16.73" cy="-8.86" r="2.955"/></g><rect x="-25.785" y="-17.835" width="51.57" height="35.67" id="KuoKlVW9A247Wt0PuB72_pad-23"/><rect x="-41.34" y="-59.055" width="82.68" height="118.11" id="KuoKlVW9A247Wt0PuB72_pad-24"/></defs><g transform="translate(0,2656.31) scale(1,-1)" fill="currentColor" stroke="currentColor"><use xlink:href="#KuoKlVW9A247Wt0PuB72_pad-16" x="-734.6" y="100.94"/><use xlink:href="#KuoKlVW9A247Wt0PuB72_pad-16" x="-734.6" y="10.94"/><use xlink:href="#KuoKlVW9A247Wt0PuB72_pad-16" x="-629.6" y="100.94"/><use xlink:href="#KuoKlVW9A247Wt0PuB72_pad-16" x="-629.6" y="10.94"/><use xlink:href="#KuoKlVW9A247Wt0PuB72_pad-16" x="-760.94" y="810.4"/><use xlink:href="#KuoKlVW9A247Wt0PuB72_pad-16" x="-880.94" y="810.4"/><use xlink:href="#KuoKlVW9A247Wt0PuB72_pad-16" x="-839.6" y="100.94"/><use xlink:href="#KuoKlVW9A247Wt0PuB72_pad-16" x="-524.6" y="100.94"/><use xlink:href="#KuoKlVW9A247Wt0PuB72_pad-16" x="-839.6" y="10.94"/><use xlink:href="#KuoKlVW9A247Wt0PuB72_pad-16" x="-524.6" y="10.94"/><use xlink:href="#KuoKlVW9A247Wt0PuB72_pad-16" x="-880.94" y="720.4"/><use xlink:href="#KuoKlVW9A247Wt0PuB72_pad-16" x="-760.94" y="720.4"/><use xlink:href="#KuoKlVW9A247Wt0PuB72_pad-17" x="-2225" y="2426.34"/><use xlink:href="#KuoKlVW9A247Wt0PuB72_pad-17" x="-2225" y="2343.66"/><use xlink:href="#KuoKlVW9A247Wt0PuB72_pad-18" x="-1149.17" y="617.78"/><use xlink:href="#KuoKlVW9A247Wt0PuB72_pad-18" x="-1021.21" y="617.78"/><use xlink:href="#KuoKlVW9A247Wt0PuB72_pad-18" x="-1174.76" y="334.09"/><use xlink:href="#KuoKlVW9A247Wt0PuB72_pad-18" x="-944.44" y="334.09"/><use xlink:href="#KuoKlVW9A247Wt0PuB72_pad-18" x="-1046.8" y="334.09"/><use xlink:href="#KuoKlVW9A247Wt0PuB72_pad-18" x="-1097.98" y="334.09"/><use xlink:href="#KuoKlVW9A247Wt0PuB72_pad-18" x="-1149.17" y="334.09"/><use xlink:href="#KuoKlVW9A247Wt0PuB72_pad-18" x="-1021.21" y="334.09"/><use xlink:href="#KuoKlVW9A247Wt0PuB72_pad-18" x="-1123.57" y="334.09"/><use xlink:href="#KuoKlVW9A247Wt0PuB72_pad-18" x="-995.62" y="334.09"/><use xlink:href="#KuoKlVW9A247Wt0PuB72_pad-18" x="-970.03" y="334.09"/><use xlink:href="#KuoKlVW9A247Wt0PuB72_pad-18" x="-1123.57" y="617.78"/><use xlink:href="#KuoKlVW9A247Wt0PuB72_pad-18" x="-1072.39" y="334.09"/><use xlink:href="#KuoKlVW9A247Wt0PuB72_pad-18" x="-1072.39" y="617.78"/><use xlink:href="#KuoKlVW9A247Wt0PuB72_pad-18" x="-995.62" y="617.78"/><use xlink:href="#KuoKlVW9A247Wt0PuB72_pad-18" x="-970.03" y="617.78"/><use xlink:href="#KuoKlVW9A247Wt0PuB72_pad-18" x="-944.44" y="617.78"/><use xlink:href="#KuoKlVW9A247Wt0PuB72_pad-18" x="-1046.8" y="617.78"/><use xlink:href="#KuoKlVW9A247Wt0PuB72_pad-18" x="-1097.98" y="617.78"/><use xlink:href="#KuoKlVW9A247Wt0PuB72_pad-18" x="-1174.76" y="617.78"/><use xlink:href="#KuoKlVW9A247Wt0PuB72_pad-19" x="-1716.72" y="2500.16"/><use xlink:href="#KuoKlVW9A247Wt0PuB72_pad-19" x="-1765.94" y="2500.16"/><use xlink:href="#KuoKlVW9A247Wt0PuB72_pad-19" x="-1864.36" y="2500.16"/><use xlink:href="#KuoKlVW9A247Wt0PuB72_pad-19" x="-1815.15" y="2500.16"/><use xlink:href="#KuoKlVW9A247Wt0PuB72_pad-19" x="-1667.51" y="2500.16"/><use xlink:href="#KuoKlVW9A247Wt0PuB72_pad-20" x="-1042" y="2205.94"/><use xlink:href="#KuoKlVW9A247Wt0PuB72_pad-20" x="-1044.8" y="2100"/><use xlink:href="#KuoKlVW9A247Wt0PuB72_pad-20" x="-1142.6" y="2205"/><use xlink:href="#KuoKlVW9A247Wt0PuB72_pad-20" x="-1142.6" y="2100"/><use xlink:href="#KuoKlVW9A247Wt0PuB72_pad-20" x="-1207.4" y="200"/><use xlink:href="#KuoKlVW9A247Wt0PuB72_pad-20" x="-1217.4" y="2100"/><use xlink:href="#KuoKlVW9A247Wt0PuB72_pad-20" x="-1132.6" y="200"/><use xlink:href="#KuoKlVW9A247Wt0PuB72_pad-20" x="-1217.4" y="2205"/><use xlink:href="#KuoKlVW9A247Wt0PuB72_pad-20" x="-970" y="2100"/><use xlink:href="#KuoKlVW9A247Wt0PuB72_pad-20" x="-967.2" y="2205.94"/><use xlink:href="#KuoKlVW9A247Wt0PuB72_pad-21" x="-1200" y="2.6"/><use xlink:href="#KuoKlVW9A247Wt0PuB72_pad-21" x="-1080" y="5.2"/><use xlink:href="#KuoKlVW9A247Wt0PuB72_pad-21" x="-960" y="5.2"/><use xlink:href="#KuoKlVW9A247Wt0PuB72_pad-21" x="-1080" y="80"/><use xlink:href="#KuoKlVW9A247Wt0PuB72_pad-21" x="-960" y="80"/><use xlink:href="#KuoKlVW9A247Wt0PuB72_pad-21" x="-1200" y="77.4"/><use xlink:href="#KuoKlVW9A247Wt0PuB72_pad-22" x="-1438.74" y="797.6"/><use xlink:href="#KuoKlVW9A247Wt0PuB72_pad-22" x="-1438.74" y="872.4"/><use xlink:href="#KuoKlVW9A247Wt0PuB72_pad-22" x="-1360" y="835"/><use xlink:href="#KuoKlVW9A247Wt0PuB72_pad-23" x="-2445" y="2410.55"/><use xlink:href="#KuoKlVW9A247Wt0PuB72_pad-23" x="-2445" y="2349.45"/><use xlink:href="#KuoKlVW9A247Wt0PuB72_pad-24" x="-1964.76" y="2614.34"/><use xlink:href="#KuoKlVW9A247Wt0PuB72_pad-24" x="-1567.12" y="2614.34"/></g></svg>