<svg version="1.1" xmlns="http://www.w3.org/2000/svg" xmlns:xlink="http://www.w3.org/1999/xlink" stroke-linecap="round" stroke-linejoin="round" stroke-width="0" fill-rule="evenodd" width="3.34437in" height="2.806515in" viewBox="-3304 -125.92 3344.37 2806.515" id="oGGThvR8JEtwzHcNhKuA"><defs><rect x="-23.62" y="-23.62" width="47.24" height="47.24" id="oGGThvR8JEtwzHcNhKuA_pad-17"/><rect x="-25.785" y="-17.835" width="51.57" height="35.67" id="oGGThvR8JEtwzHcNhKuA_pad-23"/><g id="oGGThvR8JEtwzHcNhKuA_pad-25"><polygon points="26.575,-31.56 26.575,31.56 -26.575,31.56 -26.575,-31.56"/><polygon points="37.465,-20.67 37.465,20.67 -37.465,20.67 -37.465,-20.67"/><circle cx="26.57" cy="20.67" r="10.89"/><circle cx="26.57" cy="-20.67" r="10.89"/><circle cx="-26.57" cy="-20.67" r="10.89"/><circle cx="-26.57" cy="20.67" r="10.89"/></g><rect x="-13.37" y="-37.52" width="26.74" height="75.04" id="oGGThvR8JEtwzHcNhKuA_pad-26"/><rect x="-19.945" y="-35.495" width="39.89" height="70.99" id="oGGThvR8JEtwzHcNhKuA_pad-27"/><g id="oGGThvR8JEtwzHcNhKuA_pad-28"><rect x="-23.685" y="-28.545" width="47.37" height="57.09"/><rect x="-14.765" y="-37.465" width="29.53" height="74.93"/><circle cx="14.76" cy="-28.54" r="8.92"/><circle cx="-14.76" cy="-28.54" r="8.92"/><circle cx="-14.76" cy="28.54" r="8.92"/><circle cx="14.76" cy="28.54" r="8.92"/></g><g id="oGGThvR8JEtwzHcNhKuA_pad-29"><polygon points="28.545,23.685 28.545,-23.685 -28.545,-23.685 -28.545,23.685"/><polygon points="37.465,14.765 37.465,-14.765 -37.465,-14.765 -37.465,14.765"/><circle cx="-28.54" cy="-14.76" r="8.92"/><circle cx="-28.54" cy="14.76" r="8.92"/><circle cx="28.54" cy="14.76" r="8.92"/><circle cx="28.54" cy="-14.76" r="8.92"/></g><g id="oGGThvR8JEtwzHcNhKuA_pad-30"><polygon points="16.735,15.81 16.735,-15.81 -16.735,-15.81 -16.735,15.81"/><polygon points="23.685,8.86 23.685,-8.86 -23.685,-8.86 -23.685,8.86"/><circle cx="-16.73" cy="-8.86" r="6.955"/><circle cx="-16.73" cy="8.86" r="6.955"/><circle cx="16.73" cy="8.86" r="6.955"/><circle cx="16.73" cy="-8.86" r="6.955"/></g><rect x="-45.34" y="-63.055" width="90.68" height="126.11" id="oGGThvR8JEtwzHcNhKuA_pad-31"/><g id="oGGThvR8JEtwzHcNhKuA_pad-32"><polygon points="14.96,33.92 14.96,-33.92 -14.96,-33.92 -14.96,33.92"/><polygon points="33.92,14.96 33.92,-14.96 -33.92,-14.96 -33.92,14.96"/><circle cx="-14.96" cy="-14.96" r="18.96"/><circle cx="-14.96" cy="14.96" r="18.96"/><circle cx="14.96" cy="14.96" r="18.96"/><circle cx="14.96" cy="-14.96" r="18.96"/></g><rect x="-39.435" y="-39.435" width="78.87" height="78.87" id="oGGThvR8JEtwzHcNhKuA_pad-33"/><circle cx="0" cy="0" r="35.595" id="oGGThvR8JEtwzHcNhKuA_pad-34"/><circle cx="0" cy="0" r="33.92" id="oGGThvR8JEtwzHcNhKuA_pad-35"/><rect x="-35.595" y="-35.595" width="71.19" height="71.19" id="oGGThvR8JEtwzHcNhKuA_pad-36"/><circle cx="0" cy="0" r="39.435" id="oGGThvR8JEtwzHcNhKuA_pad-37"/><circle cx="0" cy="0" r="49.77" id="oGGThvR8JEtwzHcNhKuA_pad-38"/><circle cx="0" cy="0" r="52.72" id="oGGThvR8JEtwzHcNhKuA_pad-39"/><circle cx="0" cy="0" r="4" id="oGGThvR8JEtwzHcNhKuA_pad-40"/><circle cx="0" cy="0" r="29" id="oGGThvR8JEtwzHcNhKuA_pad-41"/></defs><g transform="translate(0,2554.6749999999997) scale(1,-1)" fill="currentColor" stroke="currentColor"><use xlink:href="#oGGThvR8JEtwzHcNhKuA_pad-17" x="-2225" y="2426.34"/><use xlink:href="#oGGThvR8JEtwzHcNhKuA_pad-17" x="-2225" y="2343.66"/><use xlink:href="#oGGThvR8JEtwzHcNhKuA_pad-23" x="-2445" y="2410.55"/><use xlink:href="#oGGThvR8JEtwzHcNhKuA_pad-23" x="-2445" y="2349.45"/><use xlink:href="#oGGThvR8JEtwzHcNhKuA_pad-25" x="-734.6" y="100.94"/><use xlink:href="#oGGThvR8JEtwzHcNhKuA_pad-25" x="-734.6" y="10.94"/><use xlink:href="#oGGThvR8JEtwzHcNhKuA_pad-25" x="-629.6" y="100.94"/><use xlink:href="#oGGThvR8JEtwzHcNhKuA_pad-25" x="-629.6" y="10.94"/><use xlink:href="#oGGThvR8JEtwzHcNhKuA_pad-25" x="-760.94" y="810.4"/><use xlink:href="#oGGThvR8JEtwzHcNhKuA_pad-25" x="-880.94" y="810.4"/><use xlink:href="#oGGThvR8JEtwzHcNhKuA_pad-25" x="-839.6" y="100.94"/><use xlink:href="#oGGThvR8JEtwzHcNhKuA_pad-25" x="-524.6" y="100.94"/><use xlink:href="#oGGThvR8JEtwzHcNhKuA_pad-25" x="-839.6" y="10.94"/><use xlink:href="#oGGThvR8JEtwzHcNhKuA_pad-25" x="-524.6" y="10.94"/><use xlink:href="#oGGThvR8JEtwzHcNhKuA_pad-25" x="-880.94" y="720.4"/><use xlink:href="#oGGThvR8JEtwzHcNhKuA_pad-25" x="-760.94" y="720.4"/><use xlink:href="#oGGThvR8JEtwzHcNhKuA_pad-26" x="-1149.17" y="617.78"/><use xlink:href="#oGGThvR8JEtwzHcNhKuA_pad-26" x="-1021.21" y="617.78"/><use xlink:href="#oGGThvR8JEtwzHcNhKuA_pad-26" x="-1174.76" y="334.09"/><use xlink:href="#oGGThvR8JEtwzHcNhKuA_pad-26" x="-944.44" y="334.09"/><use xlink:href="#oGGThvR8JEtwzHcNhKuA_pad-26" x="-1046.8" y="334.09"/><use xlink:href="#oGGThvR8JEtwzHcNhKuA_pad-26" x="-1097.98" y="334.09"/><use xlink:href="#oGGThvR8JEtwzHcNhKuA_pad-26" x="-1149.17" y="334.09"/><use xlink:href="#oGGThvR8JEtwzHcNhKuA_pad-26" x="-1021.21" y="334.09"/><use xlink:href="#oGGThvR8JEtwzHcNhKuA_pad-26" x="-1123.57" y="334.09"/><use xlink:href="#oGGThvR8JEtwzHcNhKuA_pad-26" x="-995.62" y="334.09"/><use xlink:href="#oGGThvR8JEtwzHcNhKuA_pad-26" x="-970.03" y="334.09"/><use xlink:href="#oGGThvR8JEtwzHcNhKuA_pad-26" x="-1123.57" y="617.78"/><use xlink:href="#oGGThvR8JEtwzHcNhKuA_pad-26" x="-1072.39" y="334.09"/><use xlink:href="#oGGThvR8JEtwzHcNhKuA_pad-26" x="-1072.39" y="617.78"/><use xlink:href="#oGGThvR8JEtwzHcNhKuA_pad-26" x="-995.62" y="617.78"/><use xlink:href="#oGGThvR8JEtwzHcNhKuA_pad-26" x="-970.03" y="617.78"/><use xlink:href="#oGGThvR8JEtwzHcNhKuA_pad-26" x="-944.44" y="617.78"/><use xlink:href="#oGGThvR8JEtwzHcNhKuA_pad-26" x="-1046.8" y="617.78"/><use xlink:href="#oGGThvR8JEtwzHcNhKuA_pad-26" x="-1097.98" y="617.78"/><use xlink:href="#oGGThvR8JEtwzHcNhKuA_pad-26" x="-1174.76" y="617.78"/><use xlink:href="#oGGThvR8JEtwzHcNhKuA_pad-27" x="-1716.72" y="2500.16"/><use xlink:href="#oGGThvR8JEtwzHcNhKuA_pad-27" x="-1765.94" y="2500.16"/><use xlink:href="#oGGThvR8JEtwzHcNhKuA_pad-27" x="-1864.36" y="2500.16"/><use xlink:href="#oGGThvR8JEtwzHcNhKuA_pad-27" x="-1815.15" y="2500.16"/><use xlink:href="#oGGThvR8JEtwzHcNhKuA_pad-27" x="-1667.51" y="2500.16"/><use xlink:href="#oGGThvR8JEtwzHcNhKuA_pad-28" x="-1042" y="2205.94"/><use xlink:href="#oGGThvR8JEtwzHcNhKuA_pad-28" x="-1044.8" y="2100"/><use xlink:href="#oGGThvR8JEtwzHcNhKuA_pad-28" x="-1142.6" y="2205"/><use xlink:href="#oGGThvR8JEtwzHcNhKuA_pad-28" x="-1142.6" y="2100"/><use xlink:href="#oGGThvR8JEtwzHcNhKuA_pad-28" x="-1207.4" y="200"/><use xlink:href="#oGGThvR8JEtwzHcNhKuA_pad-28" x="-1217.4" y="2100"/><use xlink:href="#oGGThvR8JEtwzHcNhKuA_pad-28" x="-1132.6" y="200"/><use xlink:href="#oGGThvR8JEtwzHcNhKuA_pad-28" x="-1217.4" y="2205"/><use xlink:href="#oGGThvR8JEtwzHcNhKuA_pad-28" x="-970" y="2100"/><use xlink:href="#oGGThvR8JEtwzHcNhKuA_pad-28" x="-967.2" y="2205.94"/><use xlink:href="#oGGThvR8JEtwzHcNhKuA_pad-29" x="-1200" y="2.6"/><use xlink:href="#oGGThvR8JEtwzHcNhKuA_pad-29" x="-1080" y="5.2"/><use xlink:href="#oGGThvR8JEtwzHcNhKuA_pad-29" x="-960" y="5.2"/><use xlink:href="#oGGThvR8JEtwzHcNhKuA_pad-29" x="-1080" y="80"/><use xlink:href="#oGGThvR8JEtwzHcNhKuA_pad-29" x="-960" y="80"/><use xlink:href="#oGGThvR8JEtwzHcNhKuA_pad-29" x="-1200" y="77.4"/><use xlink:href="#oGGThvR8JEtwzHcNhKuA_pad-30" x="-1438.74" y="797.6"/><use xlink:href="#oGGThvR8JEtwzHcNhKuA_pad-30" x="-1438.74" y="872.4"/><use xlink:href="#oGGThvR8JEtwzHcNhKuA_pad-30" x="-1360" y="835"/><use xlink:href="#oGGThvR8JEtwzHcNhKuA_pad-31" x="-1964.76" y="2614.34"/><use xlink:href="#oGGThvR8JEtwzHcNhKuA_pad-31" x="-1567.12" y="2614.34"/><use xlink:href="#oGGThvR8JEtwzHcNhKuA_pad-32" x="-693.26" y="1380.94"/><use xlink:href="#oGGThvR8JEtwzHcNhKuA_pad-32" x="-693.26" y="2304.52"/><use xlink:href="#oGGThvR8JEtwzHcNhKuA_pad-32" x="-2973" y="-92"/><use xlink:href="#oGGThvR8JEtwzHcNhKuA_pad-32" x="-1399.6" y="495.29"/><use xlink:href="#oGGThvR8JEtwzHcNhKuA_pad-32" x="-693.26" y="495.29"/><use xlink:href="#oGGThvR8JEtwzHcNhKuA_pad-32" x="-1399.6" y="2304.52"/><use xlink:href="#oGGThvR8JEtwzHcNhKuA_pad-32" x="-1399.6" y="1380.94"/><use xlink:href="#oGGThvR8JEtwzHcNhKuA_pad-32" x="-1973" y="-92"/><use xlink:href="#oGGThvR8JEtwzHcNhKuA_pad-33" x="-2720.94" y="2405.4"/><use xlink:href="#oGGThvR8JEtwzHcNhKuA_pad-34" x="-2145" y="2645"/><use xlink:href="#oGGThvR8JEtwzHcNhKuA_pad-34" x="-2345" y="2645"/><use xlink:href="#oGGThvR8JEtwzHcNhKuA_pad-34" x="-2245" y="2645"/><use xlink:href="#oGGThvR8JEtwzHcNhKuA_pad-35" x="-2973" y="8"/><use xlink:href="#oGGThvR8JEtwzHcNhKuA_pad-35" x="-1973" y="1808"/><use xlink:href="#oGGThvR8JEtwzHcNhKuA_pad-35" x="-1973" y="208"/><use xlink:href="#oGGThvR8JEtwzHcNhKuA_pad-35" x="-1973" y="108"/><use xlink:href="#oGGThvR8JEtwzHcNhKuA_pad-35" x="-1973" y="8"/><use xlink:href="#oGGThvR8JEtwzHcNhKuA_pad-35" x="-1973" y="1208"/><use xlink:href="#oGGThvR8JEtwzHcNhKuA_pad-35" x="-2973" y="508"/><use xlink:href="#oGGThvR8JEtwzHcNhKuA_pad-35" x="-1399.6" y="2104.52"/><use xlink:href="#oGGThvR8JEtwzHcNhKuA_pad-35" x="-1399.6" y="1180.94"/><use xlink:href="#oGGThvR8JEtwzHcNhKuA_pad-35" x="-1973" y="1608"/><use xlink:href="#oGGThvR8JEtwzHcNhKuA_pad-35" x="-1399.6" y="395.29"/><use xlink:href="#oGGThvR8JEtwzHcNhKuA_pad-35" x="-1399.6" y="1280.94"/><use xlink:href="#oGGThvR8JEtwzHcNhKuA_pad-35" x="-1399.6" y="2204.52"/><use xlink:href="#oGGThvR8JEtwzHcNhKuA_pad-35" x="-1973" y="1408"/><use xlink:href="#oGGThvR8JEtwzHcNhKuA_pad-35" x="-1973" y="1708"/><use xlink:href="#oGGThvR8JEtwzHcNhKuA_pad-35" x="-693.26" y="2204.52"/><use xlink:href="#oGGThvR8JEtwzHcNhKuA_pad-35" x="-693.26" y="1180.94"/><use xlink:href="#oGGThvR8JEtwzHcNhKuA_pad-35" x="-693.26" y="2104.52"/><use xlink:href="#oGGThvR8JEtwzHcNhKuA_pad-35" x="-693.26" y="295.29"/><use xlink:href="#oGGThvR8JEtwzHcNhKuA_pad-35" x="-693.26" y="395.29"/><use xlink:href="#oGGThvR8JEtwzHcNhKuA_pad-35" x="-693.26" y="1280.94"/><use xlink:href="#oGGThvR8JEtwzHcNhKuA_pad-35" x="-1973" y="1508"/><use xlink:href="#oGGThvR8JEtwzHcNhKuA_pad-35" x="-1973" y="1008"/><use xlink:href="#oGGThvR8JEtwzHcNhKuA_pad-35" x="-1973" y="808"/><use xlink:href="#oGGThvR8JEtwzHcNhKuA_pad-35" x="-1973" y="508"/><use xlink:href="#oGGThvR8JEtwzHcNhKuA_pad-35" x="-1973" y="308"/><use xlink:href="#oGGThvR8JEtwzHcNhKuA_pad-35" x="-1973" y="408"/><use xlink:href="#oGGThvR8JEtwzHcNhKuA_pad-35" x="-1973" y="608"/><use xlink:href="#oGGThvR8JEtwzHcNhKuA_pad-35" x="-1973" y="708"/><use xlink:href="#oGGThvR8JEtwzHcNhKuA_pad-35" x="-1973" y="908"/><use xlink:href="#oGGThvR8JEtwzHcNhKuA_pad-35" x="-1973" y="1108"/><use xlink:href="#oGGThvR8JEtwzHcNhKuA_pad-35" x="-1973" y="1308"/><use xlink:href="#oGGThvR8JEtwzHcNhKuA_pad-35" x="-2973" y="1808"/><use xlink:href="#oGGThvR8JEtwzHcNhKuA_pad-35" x="-2973" y="1708"/><use xlink:href="#oGGThvR8JEtwzHcNhKuA_pad-35" x="-2973" y="1608"/><use xlink:href="#oGGThvR8JEtwzHcNhKuA_pad-35" x="-2973" y="1308"/><use xlink:href="#oGGThvR8JEtwzHcNhKuA_pad-35" x="-2973" y="1208"/><use xlink:href="#oGGThvR8JEtwzHcNhKuA_pad-35" x="-2973" y="1108"/><use xlink:href="#oGGThvR8JEtwzHcNhKuA_pad-35" x="-2973" y="708"/><use xlink:href="#oGGThvR8JEtwzHcNhKuA_pad-35" x="-2973" y="608"/><use xlink:href="#oGGThvR8JEtwzHcNhKuA_pad-35" x="-2973" y="408"/><use xlink:href="#oGGThvR8JEtwzHcNhKuA_pad-35" x="-2973" y="308"/><use xlink:href="#oGGThvR8JEtwzHcNhKuA_pad-35" x="-2973" y="208"/><use xlink:href="#oGGThvR8JEtwzHcNhKuA_pad-35" x="-2973" y="108"/><use xlink:href="#oGGThvR8JEtwzHcNhKuA_pad-35" x="-2973" y="808"/><use xlink:href="#oGGThvR8JEtwzHcNhKuA_pad-35" x="-2973" y="1008"/><use xlink:href="#oGGThvR8JEtwzHcNhKuA_pad-35" x="-2973" y="1408"/><use xlink:href="#oGGThvR8JEtwzHcNhKuA_pad-35" x="-2973" y="1508"/><use xlink:href="#oGGThvR8JEtwzHcNhKuA_pad-35" x="-2973" y="908"/><use xlink:href="#oGGThvR8JEtwzHcNhKuA_pad-35" x="-1399.6" y="295.29"/><use xlink:href="#oGGThvR8JEtwzHcNhKuA_pad-36" x="-2445" y="2645"/><use xlink:href="#oGGThvR8JEtwzHcNhKuA_pad-37" x="-2970.94" y="2405.4"/><use xlink:href="#oGGThvR8JEtwzHcNhKuA_pad-38" x="-112.35" y="1288.02"/><use xlink:href="#oGGThvR8JEtwzHcNhKuA_pad-38" x="-112.35" y="402.37"/><use xlink:href="#oGGThvR8JEtwzHcNhKuA_pad-38" x="-112.35" y="2211.61"/><use xlink:href="#oGGThvR8JEtwzHcNhKuA_pad-39" x="-212.35" y="1188.02"/><use xlink:href="#oGGThvR8JEtwzHcNhKuA_pad-39" x="-212.35" y="1388.02"/><use xlink:href="#oGGThvR8JEtwzHcNhKuA_pad-39" x="-12.35" y="1188.02"/><use xlink:href="#oGGThvR8JEtwzHcNhKuA_pad-39" x="-12.35" y="1388.02"/><use xlink:href="#oGGThvR8JEtwzHcNhKuA_pad-39" x="-212.35" y="302.37"/><use xlink:href="#oGGThvR8JEtwzHcNhKuA_pad-39" x="-212.35" y="502.37"/><use xlink:href="#oGGThvR8JEtwzHcNhKuA_pad-39" x="-12.35" y="302.37"/><use xlink:href="#oGGThvR8JEtwzHcNhKuA_pad-39" x="-12.35" y="502.37"/><use xlink:href="#oGGThvR8JEtwzHcNhKuA_pad-39" x="-212.35" y="2111.61"/><use xlink:href="#oGGThvR8JEtwzHcNhKuA_pad-39" x="-212.35" y="2311.61"/><use xlink:href="#oGGThvR8JEtwzHcNhKuA_pad-39" x="-12.35" y="2111.61"/><use xlink:href="#oGGThvR8JEtwzHcNhKuA_pad-39" x="-12.35" y="2311.61"/><use xlink:href="#oGGThvR8JEtwzHcNhKuA_pad-40" x="-3300" y="0"/><use xlink:href="#oGGThvR8JEtwzHcNhKuA_pad-40" x="-3300" y="2600"/><use xlink:href="#oGGThvR8JEtwzHcNhKuA_pad-40" x="0" y="2600"/><use xlink:href="#oGGThvR8JEtwzHcNhKuA_pad-40" x="0" y="0"/><use xlink:href="#oGGThvR8JEtwzHcNhKuA_pad-41" x="-1480" y="2465"/><use xlink:href="#oGGThvR8JEtwzHcNhKuA_pad-41" x="-1520" y="2505"/><use xlink:href="#oGGThvR8JEtwzHcNhKuA_pad-41" x="-1620" y="1965"/><use xlink:href="#oGGThvR8JEtwzHcNhKuA_pad-41" x="-1665" y="1920"/><use xlink:href="#oGGThvR8JEtwzHcNhKuA_pad-41" x="-1710" y="1875"/><use xlink:href="#oGGThvR8JEtwzHcNhKuA_pad-41" x="-1610" y="1790"/><use xlink:href="#oGGThvR8JEtwzHcNhKuA_pad-41" x="-1565" y="1835"/><use xlink:href="#oGGThvR8JEtwzHcNhKuA_pad-41" x="-1520" y="1880"/><use xlink:href="#oGGThvR8JEtwzHcNhKuA_pad-41" x="-1615" y="2430"/><use xlink:href="#oGGThvR8JEtwzHcNhKuA_pad-41" x="-1575" y="2390"/><use xlink:href="#oGGThvR8JEtwzHcNhKuA_pad-41" x="-1810" y="2265"/><use xlink:href="#oGGThvR8JEtwzHcNhKuA_pad-41" x="-1915" y="2265"/><use xlink:href="#oGGThvR8JEtwzHcNhKuA_pad-41" x="-1810" y="2190"/><use xlink:href="#oGGThvR8JEtwzHcNhKuA_pad-41" x="-1915" y="2190"/><use xlink:href="#oGGThvR8JEtwzHcNhKuA_pad-41" x="-1810" y="2340"/><use xlink:href="#oGGThvR8JEtwzHcNhKuA_pad-41" x="-1915" y="2340"/><use xlink:href="#oGGThvR8JEtwzHcNhKuA_pad-41" x="-2401" y="935"/><use xlink:href="#oGGThvR8JEtwzHcNhKuA_pad-41" x="-2401" y="785"/><use xlink:href="#oGGThvR8JEtwzHcNhKuA_pad-41" x="-2326" y="935"/><use xlink:href="#oGGThvR8JEtwzHcNhKuA_pad-41" x="-2326" y="785"/><use xlink:href="#oGGThvR8JEtwzHcNhKuA_pad-41" x="-2551" y="935"/><use xlink:href="#oGGThvR8JEtwzHcNhKuA_pad-41" x="-2551" y="785"/><use xlink:href="#oGGThvR8JEtwzHcNhKuA_pad-41" x="-2476" y="935"/><use xlink:href="#oGGThvR8JEtwzHcNhKuA_pad-41" x="-2476" y="785"/><use xlink:href="#oGGThvR8JEtwzHcNhKuA_pad-41" x="-2626" y="785"/><use xlink:href="#oGGThvR8JEtwzHcNhKuA_pad-41" x="-2626" y="935"/><use xlink:href="#oGGThvR8JEtwzHcNhKuA_pad-41" x="-1072" y="264"/><use xlink:href="#oGGThvR8JEtwzHcNhKuA_pad-41" x="-3103" y="-92"/><use xlink:href="#oGGThvR8JEtwzHcNhKuA_pad-41" x="-3103" y="8"/><use xlink:href="#oGGThvR8JEtwzHcNhKuA_pad-41" x="-785" y="155"/><use xlink:href="#oGGThvR8JEtwzHcNhKuA_pad-41" x="-890" y="335"/><use xlink:href="#oGGThvR8JEtwzHcNhKuA_pad-41" x="-680" y="155"/><use xlink:href="#oGGThvR8JEtwzHcNhKuA_pad-41" x="-575" y="155"/><use xlink:href="#oGGThvR8JEtwzHcNhKuA_pad-41" x="-1235" y="1095"/><use xlink:href="#oGGThvR8JEtwzHcNhKuA_pad-41" x="-1650" y="1350"/><use xlink:href="#oGGThvR8JEtwzHcNhKuA_pad-41" x="-1370" y="780"/><use xlink:href="#oGGThvR8JEtwzHcNhKuA_pad-41" x="-1175" y="695"/><use xlink:href="#oGGThvR8JEtwzHcNhKuA_pad-41" x="-1074" y="692"/><use xlink:href="#oGGThvR8JEtwzHcNhKuA_pad-41" x="-1843" y="1808"/><use xlink:href="#oGGThvR8JEtwzHcNhKuA_pad-41" x="-820.94" y="720.4"/><use xlink:href="#oGGThvR8JEtwzHcNhKuA_pad-41" x="-1765.94" y="2420.4"/><use xlink:href="#oGGThvR8JEtwzHcNhKuA_pad-41" x="-890" y="625"/><use xlink:href="#oGGThvR8JEtwzHcNhKuA_pad-41" x="-1843" y="8"/><use xlink:href="#oGGThvR8JEtwzHcNhKuA_pad-41" x="-1843" y="-92"/><use xlink:href="#oGGThvR8JEtwzHcNhKuA_pad-41" x="-2900.94" y="2405.4"/><use xlink:href="#oGGThvR8JEtwzHcNhKuA_pad-41" x="-2900.94" y="2335.4"/><use xlink:href="#oGGThvR8JEtwzHcNhKuA_pad-41" x="-2970.94" y="2475.4"/><use xlink:href="#oGGThvR8JEtwzHcNhKuA_pad-41" x="-2900.94" y="2475.4"/><use xlink:href="#oGGThvR8JEtwzHcNhKuA_pad-41" x="-3040.94" y="2475.4"/><use xlink:href="#oGGThvR8JEtwzHcNhKuA_pad-41" x="-2970.94" y="2335.4"/><use xlink:href="#oGGThvR8JEtwzHcNhKuA_pad-41" x="-3040.94" y="2405.4"/><use xlink:href="#oGGThvR8JEtwzHcNhKuA_pad-41" x="-3040.94" y="2335.4"/><use xlink:href="#oGGThvR8JEtwzHcNhKuA_pad-41" x="-1843" y="1208"/><use xlink:href="#oGGThvR8JEtwzHcNhKuA_pad-41" x="-1843" y="208"/><use xlink:href="#oGGThvR8JEtwzHcNhKuA_pad-41" x="-1843" y="108"/><use xlink:href="#oGGThvR8JEtwzHcNhKuA_pad-41" x="-3103" y="508"/><use xlink:href="#oGGThvR8JEtwzHcNhKuA_pad-41" x="-1650" y="1450"/><use xlink:href="#oGGThvR8JEtwzHcNhKuA_pad-41" x="-1843" y="1608"/><use xlink:href="#oGGThvR8JEtwzHcNhKuA_pad-41" x="-1214" y="272"/><use xlink:href="#oGGThvR8JEtwzHcNhKuA_pad-41" x="-1350" y="985"/><use xlink:href="#oGGThvR8JEtwzHcNhKuA_pad-41" x="-1175" y="1045"/><use xlink:href="#oGGThvR8JEtwzHcNhKuA_pad-41" x="-1295" y="935"/><use xlink:href="#oGGThvR8JEtwzHcNhKuA_pad-41" x="-1843" y="1408"/><use xlink:href="#oGGThvR8JEtwzHcNhKuA_pad-41" x="-1843" y="1708"/><use xlink:href="#oGGThvR8JEtwzHcNhKuA_pad-41" x="-1843" y="508"/><use xlink:href="#oGGThvR8JEtwzHcNhKuA_pad-41" x="-1843" y="1308"/><use xlink:href="#oGGThvR8JEtwzHcNhKuA_pad-41" x="-1843" y="1108"/><use xlink:href="#oGGThvR8JEtwzHcNhKuA_pad-41" x="-1843" y="708"/><use xlink:href="#oGGThvR8JEtwzHcNhKuA_pad-41" x="-1843" y="1008"/><use xlink:href="#oGGThvR8JEtwzHcNhKuA_pad-41" x="-1843" y="908"/><use xlink:href="#oGGThvR8JEtwzHcNhKuA_pad-41" x="-1843" y="608"/><use xlink:href="#oGGThvR8JEtwzHcNhKuA_pad-41" x="-1843" y="808"/><use xlink:href="#oGGThvR8JEtwzHcNhKuA_pad-41" x="-1843" y="408"/><use xlink:href="#oGGThvR8JEtwzHcNhKuA_pad-41" x="-1843" y="308"/><use xlink:href="#oGGThvR8JEtwzHcNhKuA_pad-41" x="-1843" y="1508"/><use xlink:href="#oGGThvR8JEtwzHcNhKuA_pad-41" x="-3103" y="908"/><use xlink:href="#oGGThvR8JEtwzHcNhKuA_pad-41" x="-3103" y="1708"/><use xlink:href="#oGGThvR8JEtwzHcNhKuA_pad-41" x="-3103" y="1008"/><use xlink:href="#oGGThvR8JEtwzHcNhKuA_pad-41" x="-3103" y="1808"/><use xlink:href="#oGGThvR8JEtwzHcNhKuA_pad-41" x="-3103" y="1508"/><use xlink:href="#oGGThvR8JEtwzHcNhKuA_pad-41" x="-3103" y="1308"/><use xlink:href="#oGGThvR8JEtwzHcNhKuA_pad-41" x="-3103" y="1608"/><use xlink:href="#oGGThvR8JEtwzHcNhKuA_pad-41" x="-3103" y="1408"/><use xlink:href="#oGGThvR8JEtwzHcNhKuA_pad-41" x="-3103" y="1208"/><use xlink:href="#oGGThvR8JEtwzHcNhKuA_pad-41" x="-3103" y="1108"/><use xlink:href="#oGGThvR8JEtwzHcNhKuA_pad-41" x="-3103" y="708"/><use xlink:href="#oGGThvR8JEtwzHcNhKuA_pad-41" x="-3103" y="808"/><use xlink:href="#oGGThvR8JEtwzHcNhKuA_pad-41" x="-3103" y="608"/><use xlink:href="#oGGThvR8JEtwzHcNhKuA_pad-41" x="-3103" y="408"/><use xlink:href="#oGGThvR8JEtwzHcNhKuA_pad-41" x="-3103" y="308"/><use xlink:href="#oGGThvR8JEtwzHcNhKuA_pad-41" x="-3103" y="108"/><use xlink:href="#oGGThvR8JEtwzHcNhKuA_pad-41" x="-3103" y="208"/></g></svg>