<svg version="1.1" xmlns="http://www.w3.org/2000/svg" xmlns:xlink="http://www.w3.org/1999/xlink" stroke-linecap="round" stroke-linejoin="round" stroke-width="0" fill-rule="evenodd" width="3.66981in" height="2.96981in" viewBox="-3484.89 -184.89 3669.81 2969.81" id="hig-ZGadIfDj0pQnI1bS"><defs><mask id="hig-ZGadIfDj0pQnI1bS_clear-1" fill="#000" stroke="#000"><g><rect x="-3484.89" y="-184.89" width="3669.81" height="2969.81" fill="#fff"/><path d="M -2239.52 2686.59 -2250.48 2686.59 -2261.05 2683.76 -2270.54 2678.28 -2278.28 2670.54 -2283.76 2661.06 -2286.6 2650.48 -2286.6 2639.52 -2283.76 2628.95 -2283.64 2628.75 -2291.65 2622.61 -2304.5 2635.45 -2303.41 2639.52 -2303.41 2650.48 -2306.24 2661.06 -2311.72 2670.54 -2319.46 2678.28 -2328.94 2683.76 -2339.52 2686.59 -2350.48 2686.59 -2361.05 2683.76 -2370.54 2678.28 -2378.28 2670.54 -2383.76 2661.06 -2386.6 2650.48 -2386.6 2639.52 -2383.76 2628.95 -2378.28 2619.46 -2370.54 2611.72 -2361.05 2606.24 -2350.48 2603.4 -2339.52 2603.4 -2328.94 2606.24 -2322.35 2610.05 -2201.65 2489.35 -2196.69 2486.04 -2190.83 2484.87 -1890.31 2484.87 -1890.31 2458.67 -1879.66 2458.67 -1879.66 2150.12 -2066.81 1962.97 -2070.13 1958 -2071.29 1952.15 -2071.29 1630 -2070.13 1624.15 -2066.81 1619.19 -2044.81 1597.19 -2039.85 1593.87 -2034 1592.71 -2010.23 1592.71 -2010.2 1592.59 -2004.95 1583.49 -1997.51 1576.06 -1988.41 1570.8 -1978.26 1568.08 -1967.74 1568.08 -1957.59 1570.8 -1948.49 1576.06 -1941.06 1583.49 -1940.15 1585.06 -1869.56 1585.06 -1864.49 1579.99 -1856.51 1575.38 -1847.61 1573 -1838.39 1573 -1831.48 1574.85 -1700.81 1444.19 -1695.85 1440.87 -1690 1439.71 -1687.56 1439.71 -1683.65 1432.16 -1688.86 1423.29 -1811.41 1423.29 -1814.99 1429.49 -1821.51 1436.01 -1829.49 1440.62 -1838.39 1443 -1847.61 1443 -1856.51 1440.62 -1864.49 1436.01 -1869.56 1430.94 -1940.15 1430.94 -1941.06 1432.51 -1948.49 1439.94 -1957.59 1445.2 -1967.74 1447.92 -1978.26 1447.92 -1988.41 1445.2 -1997.51 1439.94 -2004.95 1432.51 -2010.2 1423.41 -2012.92 1413.26 -2012.92 1402.74 -2010.2 1392.59 -2004.95 1383.49 -1997.51 1376.06 -1988.41 1370.8 -1978.26 1368.08 -1967.74 1368.08 -1957.59 1370.8 -1948.49 1376.06 -1941.06 1383.49 -1940.15 1385.06 -1869.56 1385.06 -1864.49 1379.99 -1856.51 1375.39 -1847.61 1373 -1838.39 1373 -1829.49 1375.39 -1821.58 1379.95 -1730.81 1289.19 -1725.85 1285.87 -1720 1284.71 -1596.34 1284.71 -1425.81 1114.19 -1420.85 1110.87 -1415 1109.71 -1396.34 1109.71 -1010.92 724.29 -1010.92 661.29 -1014.98 661.29 -1014.98 574.28 -925.09 574.28 -925.09 574.8 -820 574.8 -816.1 575.58 -812.79 577.79 -810.58 581.1 -809.8 585 -809.8 674.8 -705 674.8 -701.1 675.58 -697.79 677.79 -695.58 681.1 -694.8 685 -694.8 765 -695.58 768.9 -697.79 772.21 -701.1 774.42 -705 775.2 -945 775.2 -948.9 774.42 -952.21 772.21 -953.37 770.48 -960.63 768.24 -964.83 767.8 -1249.27 1052.24 -1244.09 1061.2 -1239.61 1060 -1230.39 1060 -1221.49 1062.38 -1214.64 1066.34 -1213.88 1066.03 -1207.62 1058.51 -1210 1049.61 -1210 1040.39 -1207.62 1031.49 -1203.01 1023.51 -1196.49 1016.99 -1188.51 1012.39 -1179.61 1010 -1170.39 1010 -1161.49 1012.39 -1153.51 1016.99 -1146.99 1023.51 -1142.39 1031.49 -1140 1040.39 -1140 1049.61 -1142.39 1058.51 -1146.99 1066.49 -1153.51 1073.01 -1161.49 1077.62 -1169.71 1079.82 -1169.71 1462.63 -859.19 1773.15 -855.87 1778.11 -854.71 1783.97 -854.71 2170 -855.87 2175.85 -859.19 2180.81 -895.12 2216.75 -900.08 2220.07 -905.94 2221.23 -937.22 2221.23 -937.22 2234.48 -938.38 2240.3 -941.68 2245.24 -946.61 2248.54 -952.43 2249.69 -981.96 2249.69 -987.78 2248.54 -992.72 2245.24 -996.02 2240.3 -997.17 2234.48 -997.17 2177.67 -999.28 2175.51 -1000.31 2174.59 -1006.09 2170.94 -1010.54 2171.83 -1183.63 2171.83 -1187.42 2176.46 -1187.42 2233.54 -1188.58 2239.37 -1191.88 2244.3 -1196.82 2247.6 -1202.11 2248.65 -1202.11 2252.4 -1203.27 2258.26 -1206.59 2263.22 -1334.19 2390.81 -1339.15 2394.13 -1345 2395.29 -1453.67 2395.29 -1594.41 2536.04 -1590.59 2545.28 -1515.78 2545.28 -1515.78 2683.39 -1618.46 2683.39 -1618.46 2573.15 -1627.7 2569.32 -1629.21 2570.84 -1634.17 2574.16 -1640.03 2575.32 -1879.97 2575.32 -1885.83 2574.16 -1890.79 2570.84 -1904.18 2557.45 -1913.42 2561.28 -1913.42 2683.39 -2016.09 2683.39 -2016.09 2545.28 -2016.09 2545.28 -2016.52 2535.46 -2113.83 2535.46 -2206.63 2628.26 -2206.24 2628.95 -2203.4 2639.52 -2203.4 2650.48 -2206.24 2661.06 -2211.72 2670.54 -2219.46 2678.28 -2228.95 2683.76 -2239.52 2686.59"/><path d="M 0 2721.44 -19 2719.94 -37.53 2715.5 -55.13 2708.2 -71.38 2698.25 -85.87 2685.87 -98.25 2671.38 -108.2 2655.13 -115.5 2637.53 -119.94 2619 -121.44 2600 -119.94 2581 -115.5 2562.47 -108.2 2544.87 -98.25 2528.62 -85.87 2514.13 -71.38 2501.75 -55.13 2491.8 -37.53 2484.5 -19 2480.06 0 2478.56 19 2480.06 37.53 2484.5 55.13 2491.8 71.38 2501.75 85.87 2514.13 98.25 2528.62 108.2 2544.87 115.5 2562.47 119.94 2581 121.44 2600 119.94 2619 115.5 2637.53 108.2 2655.13 98.25 2671.38 85.87 2685.87 71.38 2698.25 55.13 2708.2 37.53 2715.5 19 2719.94 0 2721.44"/><path d="M -3300 2721.44 -3319 2719.94 -3337.53 2715.5 -3355.13 2708.2 -3371.38 2698.25 -3385.87 2685.87 -3398.25 2671.38 -3408.2 2655.13 -3415.5 2637.53 -3419.95 2619 -3421.44 2600 -3419.95 2581 -3415.5 2562.47 -3408.2 2544.87 -3398.25 2528.62 -3385.87 2514.13 -3371.38 2501.75 -3355.13 2491.8 -3337.53 2484.5 -3319 2480.06 -3300 2478.56 -3281 2480.06 -3262.47 2484.5 -3244.87 2491.8 -3228.62 2501.75 -3214.13 2514.13 -3201.75 2528.62 -3191.8 2544.87 -3184.5 2562.47 -3180.05 2581 -3178.56 2600 -3180.05 2619 -3184.5 2637.53 -3191.8 2655.13 -3201.75 2671.38 -3214.13 2685.87 -3228.62 2698.25 -3244.87 2708.2 -3262.47 2715.5 -3281 2719.94 -3300 2721.44"/><path d="M -6.57 2370.33 -18.14 2370.33 -29.48 2368.07 -40.17 2363.64 -49.79 2357.22 -57.96 2349.04 -61.76 2343.36 -162.95 2343.36 -166.74 2349.04 -174.92 2357.22 -184.54 2363.64 -195.23 2368.07 -206.57 2370.33 -218.14 2370.33 -229.48 2368.07 -240.17 2363.64 -249.79 2357.22 -257.96 2349.04 -264.39 2339.42 -268.82 2328.74 -271.08 2317.39 -271.08 2305.82 -268.82 2294.48 -264.39 2283.79 -257.96 2274.17 -249.79 2266 -240.17 2259.57 -229.48 2255.14 -218.14 2252.89 -206.57 2252.89 -195.23 2255.14 -184.54 2259.57 -174.92 2266 -168.16 2272.76 -142.67 2272.76 -141.18 2270.91 -143.61 2257.95 -146.6 2256.23 -156.98 2245.85 -160.46 2239.82 -674.56 2239.82 -677.85 2241.72 -688 2244.44 -698.51 2244.44 -708.67 2241.72 -717.77 2236.46 -725.21 2229.03 -730.46 2219.93 -733.18 2209.77 -733.18 2199.26 -730.46 2189.11 -725.21 2180.01 -717.77 2172.57 -708.67 2167.32 -698.51 2164.6 -688 2164.6 -677.85 2167.32 -674.56 2169.22 -249.83 2169.22 -246.79 2159.22 -249.79 2157.22 -257.96 2149.04 -264.12 2139.82 -674.56 2139.82 -677.85 2141.72 -688 2144.44 -698.51 2144.44 -708.67 2141.72 -717.77 2136.47 -725.21 2129.03 -730.46 2119.93 -733.18 2109.78 -733.18 2099.26 -730.46 2089.11 -725.21 2080.01 -717.77 2072.58 -708.67 2067.32 -698.51 2064.6 -688 2064.6 -677.85 2067.32 -674.56 2069.22 -253.01 2069.22 -249.79 2065.99 -240.17 2059.57 -229.48 2055.14 -218.14 2052.89 -206.57 2052.89 -195.23 2055.14 -184.54 2059.57 -174.92 2065.99 -168.16 2072.76 -56.55 2072.76 -49.79 2065.99 -40.17 2059.57 -29.48 2055.14 -18.14 2052.89 -6.57 2052.89 4.77 2055.14 15.46 2059.57 25.08 2065.99 33.26 2074.17 39.68 2083.79 44.11 2094.48 46.37 2105.82 46.37 2117.39 44.11 2128.74 39.68 2139.42 33.26 2149.04 25.08 2157.22 19.4 2161.01 19.4 2262.2 25.08 2266 33.26 2274.17 39.68 2283.79 44.11 2294.48 46.37 2305.82 46.37 2317.39 44.11 2328.74 39.68 2339.42 33.26 2349.04 25.08 2357.22 15.46 2363.64 4.77 2368.07 -6.57 2370.33"/><path d="M -2403.4 2686.59 -2486.59 2686.59 -2486.59 2603.4 -2460.29 2603.4 -2460.29 2438.39 -2480.78 2438.39 -2480.78 2387.28 -2480.78 2380 -2480.78 2372.72 -2480.78 2321.61 -2409.22 2321.61 -2409.22 2334.15 -2258.62 2334.15 -2258.62 2310.04 -2191.38 2310.04 -2191.38 2377.28 -2258.62 2377.28 -2258.62 2364.74 -2402.14 2364.74 -2409.22 2371.81 -2409.22 2380 -2409.22 2387.28 -2409.22 2438.39 -2429.71 2438.39 -2429.71 2603.4 -2403.4 2603.4 -2403.4 2686.59"/><path d="M -2868.5 2525.2 -3073.5 2525.2 -3077.4 2524.42 -3080.71 2522.21 -3082.92 2518.9 -3083.7 2515 -3083.7 2295 -3082.92 2291.1 -3080.71 2287.79 -3077.4 2285.58 -3073.5 2284.8 -2868.5 2284.8 -2864.6 2285.58 -2861.29 2287.79 -2859.08 2291.1 -2858.3 2295 -2858.3 2515 -2859.08 2518.9 -2861.29 2522.21 -2864.6 2524.42 -2868.5 2525.2"/><path d="M -2967.74 1847.92 -2978.26 1847.92 -2988.41 1845.2 -2997.51 1839.94 -3004.95 1832.51 -3005.85 1830.94 -3076.44 1830.94 -3081.51 1836.01 -3089.49 1840.62 -3098.39 1843 -3107.61 1843 -3116.51 1840.62 -3124.49 1836.01 -3131.01 1829.49 -3135.62 1821.51 -3138 1812.61 -3138 1803.39 -3135.62 1794.49 -3131.01 1786.51 -3124.49 1779.99 -3116.51 1775.39 -3107.61 1773 -3098.39 1773 -3089.49 1775.39 -3081.51 1779.99 -3076.44 1785.06 -3005.85 1785.06 -3004.95 1783.49 -2997.51 1776.05 -2988.41 1770.8 -2978.26 1768.08 -2967.74 1768.08 -2957.59 1770.8 -2948.49 1776.05 -2941.06 1783.49 -2935.8 1792.59 -2933.08 1802.74 -2933.08 1813.26 -2935.8 1823.41 -2941.06 1832.51 -2948.49 1839.94 -2957.59 1845.2 -2967.74 1847.92"/><path d="M -2967.74 1747.92 -2978.26 1747.92 -2988.41 1745.2 -2997.51 1739.95 -3004.95 1732.51 -3005.85 1730.94 -3076.44 1730.94 -3081.51 1736.01 -3089.49 1740.62 -3098.39 1743 -3107.61 1743 -3116.51 1740.62 -3124.49 1736.01 -3131.01 1729.49 -3135.62 1721.51 -3138 1712.61 -3138 1703.39 -3135.62 1694.49 -3131.01 1686.51 -3124.49 1679.99 -3116.51 1675.38 -3107.61 1673 -3098.39 1673 -3089.49 1675.38 -3081.51 1679.99 -3076.44 1685.06 -3005.85 1685.06 -3004.95 1683.49 -2997.51 1676.05 -2988.41 1670.8 -2978.26 1668.08 -2967.74 1668.08 -2957.59 1670.8 -2948.49 1676.05 -2941.06 1683.49 -2935.8 1692.59 -2933.08 1702.74 -2933.08 1713.26 -2935.8 1723.41 -2941.06 1732.51 -2948.49 1739.95 -2957.59 1745.2 -2967.74 1747.92"/><path d="M -2967.74 1647.92 -2978.26 1647.92 -2988.41 1645.2 -2997.51 1639.95 -3004.95 1632.51 -3005.85 1630.94 -3076.44 1630.94 -3081.51 1636.01 -3089.49 1640.61 -3098.39 1643 -3107.61 1643 -3116.51 1640.61 -3124.49 1636.01 -3131.01 1629.49 -3135.62 1621.51 -3138 1612.61 -3138 1603.39 -3135.62 1594.49 -3131.01 1586.51 -3124.49 1579.99 -3116.51 1575.38 -3107.61 1573 -3098.39 1573 -3089.49 1575.38 -3081.51 1579.99 -3076.44 1585.06 -3005.85 1585.06 -3004.95 1583.49 -2997.51 1576.06 -2988.41 1570.8 -2978.26 1568.08 -2967.74 1568.08 -2957.59 1570.8 -2948.49 1576.06 -2941.06 1583.49 -2935.8 1592.59 -2933.08 1602.74 -2933.08 1613.26 -2935.8 1623.41 -2941.06 1632.51 -2948.49 1639.95 -2957.59 1645.2 -2967.74 1647.92"/><path d="M -2967.74 1547.92 -2978.26 1547.92 -2988.41 1545.2 -2997.51 1539.95 -3004.95 1532.51 -3005.85 1530.94 -3076.44 1530.94 -3081.51 1536.01 -3089.49 1540.61 -3098.39 1543 -3107.61 1543 -3116.51 1540.61 -3124.49 1536.01 -3131.01 1529.49 -3135.62 1521.51 -3138 1512.61 -3138 1503.39 -3135.62 1494.49 -3131.01 1486.51 -3124.49 1479.99 -3116.51 1475.38 -3107.61 1473 -3098.39 1473 -3089.49 1475.38 -3081.51 1479.99 -3076.44 1485.06 -3005.85 1485.06 -3004.95 1483.49 -2997.51 1476.06 -2988.41 1470.8 -2978.26 1468.08 -2967.74 1468.08 -2957.59 1470.8 -2948.49 1476.06 -2941.06 1483.49 -2935.8 1492.59 -2933.08 1502.74 -2933.08 1513.26 -2935.8 1523.41 -2941.06 1532.51 -2948.49 1539.95 -2957.59 1545.2 -2967.74 1547.92"/><path d="M -1967.74 1547.92 -1978.26 1547.92 -1988.41 1545.2 -1997.51 1539.95 -2004.95 1532.51 -2010.2 1523.41 -2012.92 1513.26 -2012.92 1502.74 -2010.2 1492.59 -2004.95 1483.49 -1997.51 1476.06 -1988.41 1470.8 -1978.26 1468.08 -1967.74 1468.08 -1957.59 1470.8 -1948.49 1476.06 -1941.06 1483.49 -1940.15 1485.06 -1869.56 1485.06 -1864.49 1479.99 -1856.51 1475.38 -1847.61 1473 -1838.39 1473 -1829.49 1475.38 -1821.51 1479.99 -1814.99 1486.51 -1810.38 1494.49 -1808 1503.39 -1808 1512.61 -1810.38 1521.51 -1814.99 1529.49 -1821.51 1536.01 -1829.49 1540.61 -1838.39 1543 -1847.61 1543 -1856.51 1540.61 -1864.49 1536.01 -1869.56 1530.94 -1940.15 1530.94 -1941.06 1532.51 -1948.49 1539.95 -1957.59 1545.2 -1967.74 1547.92"/><path d="M -2967.74 1447.92 -2978.26 1447.92 -2988.41 1445.2 -2997.51 1439.94 -3004.95 1432.51 -3005.85 1430.94 -3076.44 1430.94 -3081.51 1436.01 -3089.49 1440.62 -3098.39 1443 -3107.61 1443 -3116.51 1440.62 -3124.49 1436.01 -3131.01 1429.49 -3135.62 1421.51 -3138 1412.61 -3138 1403.39 -3135.62 1394.49 -3131.01 1386.51 -3124.49 1379.99 -3116.51 1375.39 -3107.61 1373 -3098.39 1373 -3089.49 1375.39 -3081.51 1379.99 -3076.44 1385.06 -3005.85 1385.06 -3004.95 1383.49 -2997.51 1376.06 -2988.41 1370.8 -2978.26 1368.08 -2967.74 1368.08 -2957.59 1370.8 -2948.49 1376.06 -2941.06 1383.49 -2935.8 1392.59 -2933.08 1402.74 -2933.08 1413.26 -2935.8 1423.41 -2941.06 1432.51 -2948.49 1439.94 -2957.59 1445.2 -2967.74 1447.92"/><path d="M -6.57 1446.74 -18.14 1446.74 -29.48 1444.49 -40.17 1440.06 -49.79 1433.63 -57.96 1425.46 -61.76 1419.78 -162.95 1419.78 -166.74 1425.46 -174.92 1433.63 -184.54 1440.06 -195.23 1444.49 -206.57 1446.74 -218.14 1446.74 -229.48 1444.49 -240.17 1440.06 -249.79 1433.63 -257.96 1425.46 -264.39 1415.84 -268.82 1405.15 -271.08 1393.81 -271.08 1382.24 -268.82 1370.9 -264.39 1360.21 -257.96 1350.59 -249.79 1342.41 -240.17 1335.99 -229.48 1331.56 -218.14 1329.3 -206.57 1329.3 -195.23 1331.56 -184.54 1335.99 -174.92 1342.41 -168.16 1349.18 -142.67 1349.18 -141.18 1347.32 -143.61 1334.37 -146.6 1332.65 -156.98 1322.27 -160.46 1316.24 -674.56 1316.24 -677.85 1318.14 -688 1320.86 -698.51 1320.86 -708.67 1318.14 -717.77 1312.88 -725.21 1305.45 -730.46 1296.35 -733.18 1286.19 -733.18 1275.68 -730.46 1265.53 -725.21 1256.43 -717.77 1248.99 -708.67 1243.74 -698.51 1241.02 -688 1241.02 -677.85 1243.74 -674.56 1245.64 -249.83 1245.64 -246.79 1235.64 -249.79 1233.63 -257.96 1225.46 -264.12 1216.24 -674.56 1216.24 -677.85 1218.14 -688 1220.86 -698.51 1220.86 -708.67 1218.14 -717.77 1212.88 -725.21 1205.45 -730.46 1196.35 -733.18 1186.19 -733.18 1175.68 -730.46 1165.53 -725.21 1156.42 -717.77 1148.99 -708.67 1143.74 -698.51 1141.02 -688 1141.02 -677.85 1143.74 -674.56 1145.64 -253.01 1145.64 -249.79 1142.41 -240.17 1135.99 -229.48 1131.56 -218.14 1129.3 -206.57 1129.3 -195.23 1131.56 -184.54 1135.99 -174.92 1142.41 -168.16 1149.18 -56.55 1149.18 -49.79 1142.41 -40.17 1135.99 -29.48 1131.56 -18.14 1129.3 -6.57 1129.3 4.77 1131.56 15.46 1135.99 25.08 1142.41 33.26 1150.59 39.68 1160.21 44.11 1170.9 46.37 1182.24 46.37 1193.81 44.11 1205.15 39.68 1215.84 33.26 1225.46 25.08 1233.63 19.4 1237.43 19.4 1338.62 25.08 1342.41 33.26 1350.59 39.68 1360.21 44.11 1370.9 46.37 1382.24 46.37 1393.81 44.11 1405.15 39.68 1415.84 33.26 1425.46 25.08 1433.63 15.46 1440.06 4.77 1444.49 -6.57 1446.74"/><path d="M -2967.74 1347.92 -2978.26 1347.92 -2988.41 1345.2 -2997.51 1339.94 -3004.95 1332.51 -3005.85 1330.94 -3076.44 1330.94 -3081.51 1336.01 -3089.49 1340.62 -3098.39 1343 -3107.61 1343 -3116.51 1340.62 -3124.49 1336.01 -3131.01 1329.49 -3135.62 1321.51 -3138 1312.61 -3138 1303.39 -3135.62 1294.49 -3131.01 1286.51 -3124.49 1279.99 -3116.51 1275.39 -3107.61 1273 -3098.39 1273 -3089.49 1275.39 -3081.51 1279.99 -3076.44 1285.06 -3005.85 1285.06 -3004.95 1283.49 -2997.51 1276.05 -2988.41 1270.8 -2978.26 1268.08 -2967.74 1268.08 -2957.59 1270.8 -2948.49 1276.05 -2941.06 1283.49 -2935.8 1292.59 -2933.08 1302.74 -2933.08 1313.26 -2935.8 1323.41 -2941.06 1332.51 -2948.49 1339.94 -2957.59 1345.2 -2967.74 1347.92"/><path d="M -1967.74 1347.92 -1978.26 1347.92 -1988.41 1345.2 -1997.51 1339.94 -2004.95 1332.51 -2010.2 1323.41 -2012.92 1313.26 -2012.92 1302.74 -2010.2 1292.59 -2004.95 1283.49 -1997.51 1276.05 -1988.41 1270.8 -1978.26 1268.08 -1967.74 1268.08 -1957.59 1270.8 -1948.49 1276.05 -1941.06 1283.49 -1940.15 1285.06 -1869.56 1285.06 -1864.49 1279.99 -1856.51 1275.39 -1847.61 1273 -1838.39 1273 -1829.49 1275.39 -1821.51 1279.99 -1814.99 1286.51 -1810.38 1294.49 -1808 1303.39 -1808 1312.61 -1810.38 1321.51 -1814.99 1329.49 -1821.51 1336.01 -1829.49 1340.62 -1838.39 1343 -1847.61 1343 -1856.51 1340.62 -1864.49 1336.01 -1869.56 1330.94 -1940.15 1330.94 -1941.06 1332.51 -1948.49 1339.94 -1957.59 1345.2 -1967.74 1347.92"/><path d="M -2967.74 1247.92 -2978.26 1247.92 -2988.41 1245.2 -2997.51 1239.95 -3004.95 1232.51 -3005.85 1230.94 -3076.44 1230.94 -3081.51 1236.01 -3089.49 1240.62 -3098.39 1243 -3107.61 1243 -3116.51 1240.62 -3124.49 1236.01 -3131.01 1229.49 -3135.62 1221.51 -3138 1212.61 -3138 1203.39 -3135.62 1194.49 -3131.01 1186.51 -3124.49 1179.99 -3116.51 1175.38 -3107.61 1173 -3098.39 1173 -3089.49 1175.38 -3081.51 1179.99 -3076.44 1185.06 -3005.85 1185.06 -3004.95 1183.49 -2997.51 1176.05 -2988.41 1170.8 -2978.26 1168.08 -2967.74 1168.08 -2957.59 1170.8 -2948.49 1176.05 -2941.06 1183.49 -2935.8 1192.59 -2933.08 1202.74 -2933.08 1213.26 -2935.8 1223.41 -2941.06 1232.51 -2948.49 1239.95 -2957.59 1245.2 -2967.74 1247.92"/><path d="M -1838.39 1243 -1847.61 1243 -1856.51 1240.62 -1864.49 1236.01 -1871.01 1229.49 -1875.62 1221.51 -1878 1212.61 -1878 1203.39 -1875.62 1194.49 -1871.01 1186.51 -1864.49 1179.99 -1856.51 1175.38 -1847.61 1173 -1838.39 1173 -1829.49 1175.38 -1821.51 1179.99 -1814.99 1186.51 -1810.38 1194.49 -1808 1203.39 -1808 1212.61 -1810.38 1221.51 -1814.99 1229.49 -1821.51 1236.01 -1829.49 1240.62 -1838.39 1243"/><path d="M -1967.74 1247.92 -1978.26 1247.92 -1988.41 1245.2 -1997.51 1239.95 -2004.95 1232.51 -2010.2 1223.41 -2012.92 1213.26 -2012.92 1202.74 -2010.2 1192.59 -2004.95 1183.49 -1997.51 1176.05 -1988.41 1170.8 -1978.26 1168.08 -1967.74 1168.08 -1957.59 1170.8 -1948.49 1176.05 -1941.06 1183.49 -1935.8 1192.59 -1933.08 1202.74 -1933.08 1213.26 -1935.8 1223.41 -1941.06 1232.51 -1948.49 1239.95 -1957.59 1245.2 -1967.74 1247.92"/><path d="M -2967.74 1147.92 -2978.26 1147.92 -2988.41 1145.2 -2997.51 1139.95 -3004.95 1132.51 -3005.85 1130.94 -3076.44 1130.94 -3081.51 1136.01 -3089.49 1140.61 -3098.39 1143 -3107.61 1143 -3116.51 1140.61 -3124.49 1136.01 -3131.01 1129.49 -3135.62 1121.51 -3138 1112.61 -3138 1103.39 -3135.62 1094.49 -3131.01 1086.51 -3124.49 1079.99 -3116.51 1075.38 -3107.61 1073 -3098.39 1073 -3089.49 1075.38 -3081.51 1079.99 -3076.44 1085.06 -3005.85 1085.06 -3004.95 1083.49 -2997.51 1076.06 -2988.41 1070.8 -2978.26 1068.08 -2967.74 1068.08 -2957.59 1070.8 -2948.49 1076.06 -2941.06 1083.49 -2935.8 1092.59 -2933.08 1102.74 -2933.08 1113.26 -2935.8 1123.41 -2941.06 1132.51 -2948.49 1139.95 -2957.59 1145.2 -2967.74 1147.92"/><path d="M -1967.74 1147.92 -1978.26 1147.92 -1988.41 1145.2 -1997.51 1139.95 -2004.95 1132.51 -2010.2 1123.41 -2012.92 1113.26 -2012.92 1102.74 -2010.2 1092.59 -2004.95 1083.49 -1997.51 1076.06 -1988.41 1070.8 -1978.26 1068.08 -1967.74 1068.08 -1957.59 1070.8 -1948.49 1076.06 -1941.06 1083.49 -1940.15 1085.06 -1869.56 1085.06 -1864.49 1079.99 -1856.51 1075.38 -1847.61 1073 -1838.39 1073 -1829.49 1075.38 -1821.51 1079.99 -1814.99 1086.51 -1810.38 1094.49 -1808 1103.39 -1808 1112.61 -1810.38 1121.51 -1814.99 1129.49 -1821.51 1136.01 -1829.49 1140.61 -1838.39 1143 -1847.61 1143 -1856.51 1140.61 -1864.49 1136.01 -1869.56 1130.94 -1940.15 1130.94 -1941.06 1132.51 -1948.49 1139.95 -1957.59 1145.2 -1967.74 1147.92"/><path d="M -2967.74 1047.92 -2978.26 1047.92 -2988.41 1045.2 -2997.51 1039.95 -3004.95 1032.51 -3005.85 1030.94 -3076.44 1030.94 -3081.51 1036.01 -3089.49 1040.61 -3098.39 1043 -3107.61 1043 -3116.51 1040.61 -3124.49 1036.01 -3131.01 1029.49 -3135.62 1021.51 -3138 1012.61 -3138 1003.39 -3135.62 994.49 -3131.01 986.51 -3124.49 979.99 -3116.51 975.39 -3107.61 973 -3098.39 973 -3089.49 975.39 -3081.51 979.99 -3076.44 985.06 -3005.85 985.06 -3004.95 983.49 -2997.51 976.06 -2988.41 970.8 -2978.26 968.08 -2967.74 968.08 -2957.59 970.8 -2948.49 976.06 -2941.06 983.49 -2935.8 992.59 -2933.08 1002.74 -2933.08 1013.26 -2935.8 1023.41 -2941.06 1032.51 -2948.49 1039.95 -2957.59 1045.2 -2967.74 1047.92"/><path d="M -1967.74 1047.92 -1978.26 1047.92 -1988.41 1045.2 -1997.51 1039.95 -2004.95 1032.51 -2010.2 1023.41 -2012.92 1013.26 -2012.92 1002.74 -2010.2 992.59 -2004.95 983.49 -1997.51 976.06 -1988.41 970.8 -1978.26 968.08 -1967.74 968.08 -1957.59 970.8 -1948.49 976.06 -1941.06 983.49 -1940.15 985.06 -1869.56 985.06 -1864.49 979.99 -1856.51 975.39 -1847.61 973 -1838.39 973 -1829.49 975.39 -1821.51 979.99 -1814.99 986.51 -1810.38 994.49 -1808 1003.39 -1808 1012.61 -1810.38 1021.51 -1814.99 1029.49 -1821.51 1036.01 -1829.49 1040.61 -1838.39 1043 -1847.61 1043 -1856.51 1040.61 -1864.49 1036.01 -1869.56 1030.94 -1940.15 1030.94 -1941.06 1032.51 -1948.49 1039.95 -1957.59 1045.2 -1967.74 1047.92"/><path d="M -1345.39 1020 -1354.61 1020 -1363.51 1017.61 -1371.49 1013.01 -1378.01 1006.49 -1382.61 998.51 -1385 989.61 -1385 980.39 -1383.15 973.48 -1435.78 920.85 -1439.09 915.89 -1440.26 910.04 -1440.26 894.47 -1455.47 894.47 -1460.53 893.46 -1464.81 890.6 -1466.75 887.7 -1647.4 887.7 -1653.25 886.53 -1658.22 883.22 -1666.14 875.29 -1812.07 875.29 -1816.21 885.29 -1814.99 886.51 -1810.38 894.49 -1808 903.39 -1808 912.61 -1810.38 921.51 -1814.99 929.49 -1821.51 936.01 -1829.49 940.61 -1838.39 943 -1847.61 943 -1856.51 940.61 -1864.49 936.01 -1869.56 930.94 -1940.15 930.94 -1941.06 932.51 -1948.49 939.94 -1957.59 945.2 -1967.74 947.92 -1978.26 947.92 -1988.41 945.2 -1997.51 939.94 -2004.95 932.51 -2010.2 923.41 -2012.92 913.26 -2012.92 902.74 -2010.2 892.59 -2005.99 885.29 -2008.13 879.11 -2010.89 875.29 -2918.66 875.29 -2935.86 892.49 -2935.8 892.59 -2933.08 902.74 -2933.08 913.26 -2935.8 923.41 -2941.06 932.51 -2948.49 939.94 -2957.59 945.2 -2967.74 947.92 -2978.26 947.92 -2988.41 945.2 -2997.51 939.94 -3004.95 932.51 -3010.2 923.41 -3012.92 913.26 -3012.92 902.74 -3010.2 892.59 -3004.95 883.49 -2997.51 876.06 -2988.41 870.8 -2978.26 868.08 -2967.74 868.08 -2957.59 870.8 -2957.49 870.86 -2935.81 849.19 -2930.85 845.87 -2925 844.71 -2006.89 844.71 -2002.75 834.71 -2004.95 832.51 -2010.2 823.41 -2012.92 813.26 -2012.92 802.74 -2010.2 792.59 -2004.95 783.49 -1997.51 776.05 -1988.41 770.8 -1978.26 768.08 -1967.74 768.08 -1957.59 770.8 -1948.49 776.05 -1941.06 783.49 -1940.15 785.06 -1869.56 785.06 -1864.49 779.99 -1856.51 775.39 -1847.61 773 -1838.39 773 -1829.49 775.39 -1821.51 779.99 -1814.99 786.51 -1810.38 794.49 -1808 803.39 -1808 812.61 -1810.38 821.51 -1814.99 829.49 -1820.21 834.71 -1819.23 840.03 -1816.58 844.71 -1659.8 844.71 -1653.95 845.87 -1648.99 849.19 -1641.07 857.11 -1466.75 857.11 -1464.81 854.21 -1460.53 851.34 -1455.47 850.34 -1422.01 850.34 -1416.95 851.34 -1412.67 854.21 -1409.81 858.49 -1408.8 863.54 -1408.8 881.26 -1409.67 885.63 -1409.67 903.7 -1361.52 951.85 -1354.61 950 -1345.39 950 -1336.49 952.39 -1336.42 952.43 -1335.49 952.02 -1328.42 945.5 -1330 939.61 -1330 930.39 -1328.15 923.48 -1370.81 880.81 -1374.13 875.85 -1375.29 870 -1375.29 857.07 -1376.73 857.07 -1381.79 856.06 -1386.07 853.2 -1388.93 848.91 -1389.94 843.86 -1389.94 826.14 -1389.75 825.2 -1395.32 816.44 -1397.02 815.2 -1412.27 815.2 -1412.67 815.8 -1416.95 818.66 -1422.01 819.66 -1455.47 819.66 -1460.53 818.66 -1464.81 815.8 -1467.2 812.21 -1467.21 812.21 -1469.42 808.9 -1470.2 805 -1470.2 750 -1469.42 746.1 -1467.21 742.79 -1463.9 740.58 -1460 739.8 -1340 739.8 -1336.1 740.58 -1332.79 742.79 -1330.58 746.1 -1329.8 750 -1329.8 805 -1330.58 808.9 -1331.03 809.95 -1327.97 818.13 -1326.69 819.71 -1246.34 819.71 -1171.06 744.44 -1174.89 735.2 -1205 735.2 -1208.9 734.42 -1212.21 732.21 -1214.42 728.9 -1215.2 725 -1215.2 665 -1214.42 661.1 -1212.21 657.79 -1208.9 655.58 -1205 654.8 -1194.11 654.8 -1194.11 574.28 -1155.4 574.28 -1155.4 654.8 -1145 654.8 -1142.93 653.11 -1142.93 574.28 -1027.45 574.28 -1027.45 661.29 -1027.8 661.29 -1027.8 721 -1028.58 724.9 -1030.79 728.21 -1034.1 730.42 -1038 731.2 -1107 731.2 -1110.9 730.42 -1112.95 729.05 -1114 730.63 -1229.19 845.81 -1234.15 849.13 -1240 850.29 -1331.99 850.29 -1333.93 853.2 -1338.21 856.06 -1338.7 856.15 -1341.54 866.83 -1306.52 901.85 -1299.61 900 -1290.39 900 -1281.49 902.38 -1273.51 906.99 -1266.99 913.51 -1262.39 921.49 -1260 930.39 -1260 939.61 -1262.39 948.51 -1266.99 956.49 -1273.51 963.01 -1281.49 967.62 -1290.39 970 -1299.61 970 -1308.51 967.62 -1308.58 967.57 -1309.51 967.98 -1316.58 974.5 -1315 980.39 -1315 989.61 -1317.38 998.51 -1321.99 1006.49 -1328.51 1013.01 -1336.49 1017.61 -1345.39 1020"/><path d="M -3098.39 943 -3107.61 943 -3116.51 940.61 -3124.49 936.01 -3131.01 929.49 -3135.62 921.51 -3138 912.61 -3138 903.39 -3135.62 894.49 -3131.01 886.51 -3124.49 879.99 -3116.51 875.38 -3107.61 873 -3098.39 873 -3089.49 875.38 -3081.51 879.99 -3074.99 886.51 -3070.38 894.49 -3068 903.39 -3068 912.61 -3070.38 921.51 -3074.99 929.49 -3081.51 936.01 -3089.49 940.61 -3098.39 943"/><path d="M -2967.74 847.92 -2978.26 847.92 -2988.41 845.2 -2997.51 839.95 -3004.95 832.51 -3005.85 830.94 -3076.44 830.94 -3081.51 836.01 -3089.49 840.61 -3098.39 843 -3107.61 843 -3116.51 840.61 -3124.49 836.01 -3131.01 829.49 -3135.62 821.51 -3138 812.61 -3138 803.39 -3135.62 794.49 -3131.01 786.51 -3124.49 779.99 -3116.51 775.39 -3107.61 773 -3098.39 773 -3089.49 775.39 -3081.51 779.99 -3076.44 785.06 -3005.85 785.06 -3004.95 783.49 -2997.51 776.05 -2988.41 770.8 -2978.26 768.08 -2967.74 768.08 -2957.59 770.8 -2948.49 776.05 -2941.06 783.49 -2935.8 792.59 -2933.08 802.74 -2933.08 813.26 -2935.8 823.41 -2941.06 832.51 -2948.49 839.95 -2957.59 845.2 -2967.74 847.92"/><path d="M -2967.74 747.92 -2978.26 747.92 -2988.41 745.2 -2997.51 739.94 -3004.95 732.51 -3005.85 730.94 -3076.44 730.94 -3081.51 736.01 -3089.49 740.62 -3098.39 743 -3107.61 743 -3116.51 740.62 -3124.49 736.01 -3131.01 729.49 -3135.62 721.51 -3138 712.61 -3138 703.39 -3135.62 694.49 -3131.01 686.51 -3124.49 679.99 -3116.51 675.38 -3107.61 673 -3098.39 673 -3089.49 675.38 -3081.51 679.99 -3076.44 685.06 -3005.85 685.06 -3004.95 683.49 -2997.51 676.06 -2988.41 670.8 -2978.26 668.08 -2967.74 668.08 -2957.59 670.8 -2948.49 676.06 -2941.06 683.49 -2935.8 692.59 -2933.08 702.74 -2933.08 713.26 -2935.8 723.41 -2941.06 732.51 -2948.49 739.94 -2957.59 745.2 -2967.74 747.92"/><path d="M -1967.74 747.92 -1978.26 747.92 -1988.41 745.2 -1997.51 739.94 -2004.95 732.51 -2010.2 723.41 -2012.92 713.26 -2012.92 702.74 -2010.2 692.59 -2004.95 683.49 -1997.51 676.06 -1988.41 670.8 -1978.26 668.08 -1967.74 668.08 -1957.59 670.8 -1948.49 676.06 -1941.06 683.49 -1940.15 685.06 -1869.56 685.06 -1864.49 679.99 -1856.51 675.38 -1847.61 673 -1838.39 673 -1829.49 675.38 -1821.51 679.99 -1814.99 686.51 -1810.38 694.49 -1808 703.39 -1808 712.61 -1810.38 721.51 -1814.99 729.49 -1821.51 736.01 -1829.49 740.62 -1838.39 743 -1847.61 743 -1856.51 740.62 -1864.49 736.01 -1869.56 730.94 -1940.15 730.94 -1941.06 732.51 -1948.49 739.94 -1957.59 745.2 -1967.74 747.92"/><path d="M -2967.74 647.92 -2978.26 647.92 -2988.41 645.2 -2997.51 639.94 -3004.95 632.51 -3005.85 630.94 -3076.44 630.94 -3081.51 636.01 -3089.49 640.61 -3098.39 643 -3107.61 643 -3116.51 640.61 -3124.49 636.01 -3131.01 629.49 -3135.62 621.51 -3138 612.61 -3138 603.39 -3135.62 594.49 -3131.01 586.51 -3124.49 579.99 -3116.51 575.38 -3107.61 573 -3098.39 573 -3089.49 575.38 -3081.51 579.99 -3076.44 585.06 -3005.85 585.06 -3004.95 583.49 -2997.51 576.05 -2988.41 570.8 -2978.26 568.08 -2967.74 568.08 -2957.59 570.8 -2948.49 576.05 -2941.06 583.49 -2935.8 592.59 -2933.08 602.74 -2933.08 613.26 -2935.8 623.41 -2941.06 632.51 -2948.49 639.94 -2957.59 645.2 -2967.74 647.92"/><path d="M -1967.74 647.92 -1978.26 647.92 -1988.41 645.2 -1997.51 639.94 -2004.95 632.51 -2010.2 623.41 -2012.92 613.26 -2012.92 602.74 -2010.2 592.59 -2004.95 583.49 -1997.51 576.05 -1988.41 570.8 -1978.26 568.08 -1967.74 568.08 -1957.59 570.8 -1948.49 576.05 -1941.06 583.49 -1940.15 585.06 -1869.56 585.06 -1864.49 579.99 -1856.51 575.38 -1847.61 573 -1838.39 573 -1829.49 575.38 -1821.51 579.99 -1814.99 586.51 -1810.38 594.49 -1808 603.39 -1808 612.61 -1810.38 621.51 -1814.99 629.49 -1821.51 636.01 -1829.49 640.61 -1838.39 643 -1847.61 643 -1856.51 640.61 -1864.49 636.01 -1869.56 630.94 -1940.15 630.94 -1941.06 632.51 -1948.49 639.94 -1957.59 645.2 -1967.74 647.92"/><path d="M -1967.74 547.92 -1978.26 547.92 -1988.41 545.2 -1997.51 539.95 -2004.95 532.51 -2010.2 523.41 -2012.92 513.26 -2012.92 502.74 -2010.2 492.59 -2004.95 483.49 -1997.51 476.05 -1988.41 470.8 -1978.26 468.08 -1967.74 468.08 -1957.59 470.8 -1948.49 476.05 -1941.06 483.49 -1940.15 485.06 -1869.56 485.06 -1864.49 479.99 -1856.51 475.39 -1847.61 473 -1838.39 473 -1829.49 475.39 -1821.51 479.99 -1814.99 486.51 -1810.38 494.49 -1808 503.39 -1808 512.61 -1810.38 521.51 -1814.99 529.49 -1821.51 536.01 -1829.49 540.62 -1838.39 543 -1847.61 543 -1856.51 540.62 -1864.49 536.01 -1869.56 530.94 -1940.15 530.94 -1941.06 532.51 -1948.49 539.95 -1957.59 545.2 -1967.74 547.92"/><path d="M -3098.39 543 -3107.61 543 -3116.51 540.62 -3124.49 536.01 -3131.01 529.49 -3135.62 521.51 -3138 512.61 -3138 503.39 -3135.62 494.49 -3131.01 486.51 -3124.49 479.99 -3116.51 475.39 -3107.61 473 -3098.39 473 -3089.49 475.39 -3081.51 479.99 -3074.99 486.51 -3070.38 494.49 -3068 503.39 -3068 512.61 -3070.38 521.51 -3074.99 529.49 -3081.51 536.01 -3089.49 540.62 -3098.39 543"/><path d="M -2967.74 547.92 -2978.26 547.92 -2988.41 545.2 -2997.51 539.95 -3004.95 532.51 -3010.2 523.41 -3012.92 513.26 -3012.92 502.74 -3010.2 492.59 -3004.95 483.49 -2997.51 476.05 -2988.41 470.8 -2978.26 468.08 -2967.74 468.08 -2957.59 470.8 -2948.49 476.05 -2941.06 483.49 -2935.8 492.59 -2933.08 502.74 -2933.08 513.26 -2935.8 523.41 -2941.06 532.51 -2948.49 539.95 -2957.59 545.2 -2967.74 547.92"/><path d="M -2967.74 447.92 -2978.26 447.92 -2988.41 445.2 -2997.51 439.95 -3004.95 432.51 -3005.85 430.94 -3076.44 430.94 -3081.51 436.01 -3089.49 440.61 -3098.39 443 -3107.61 443 -3116.51 440.61 -3124.49 436.01 -3131.01 429.49 -3135.62 421.51 -3138 412.61 -3138 403.39 -3135.62 394.49 -3131.01 386.51 -3124.49 379.99 -3116.51 375.38 -3107.61 373 -3098.39 373 -3089.49 375.38 -3081.51 379.99 -3076.44 385.06 -3005.85 385.06 -3004.95 383.49 -2997.51 376.06 -2988.41 370.8 -2978.26 368.08 -2967.74 368.08 -2957.59 370.8 -2948.49 376.06 -2941.06 383.49 -2935.8 392.59 -2933.08 402.74 -2933.08 413.26 -2935.8 423.41 -2941.06 432.51 -2948.49 439.95 -2957.59 445.2 -2967.74 447.92"/><path d="M -1967.74 447.92 -1978.26 447.92 -1988.41 445.2 -1997.51 439.95 -2004.95 432.51 -2010.2 423.41 -2012.92 413.26 -2012.92 402.74 -2010.2 392.59 -2004.95 383.49 -1997.51 376.06 -1988.41 370.8 -1978.26 368.08 -1967.74 368.08 -1957.59 370.8 -1948.49 376.06 -1941.06 383.49 -1940.15 385.06 -1869.56 385.06 -1864.49 379.99 -1856.51 375.38 -1847.61 373 -1838.39 373 -1829.49 375.38 -1821.51 379.99 -1814.99 386.51 -1810.38 394.49 -1808 403.39 -1808 412.61 -1810.38 421.51 -1814.99 429.49 -1821.51 436.01 -1829.49 440.61 -1838.39 443 -1847.61 443 -1856.51 440.61 -1864.49 436.01 -1869.56 430.94 -1940.15 430.94 -1941.06 432.51 -1948.49 439.95 -1957.59 445.2 -1967.74 447.92"/><path d="M -2967.74 347.92 -2978.26 347.92 -2988.41 345.2 -2997.51 339.94 -3004.95 332.51 -3005.85 330.94 -3076.44 330.94 -3081.51 336.01 -3089.49 340.62 -3098.39 343 -3107.61 343 -3116.51 340.62 -3124.49 336.01 -3131.01 329.49 -3135.62 321.51 -3138 312.61 -3138 303.39 -3135.62 294.49 -3131.01 286.51 -3124.49 279.99 -3116.51 275.38 -3107.61 273 -3098.39 273 -3089.49 275.38 -3081.51 279.99 -3076.44 285.06 -3005.85 285.06 -3004.95 283.49 -2997.51 276.06 -2988.41 270.8 -2978.26 268.08 -2967.74 268.08 -2957.59 270.8 -2948.49 276.06 -2941.06 283.49 -2935.8 292.59 -2933.08 302.74 -2933.08 313.26 -2935.8 323.41 -2941.06 332.51 -2948.49 339.94 -2957.59 345.2 -2967.74 347.92"/><path d="M -1967.74 347.92 -1978.26 347.92 -1988.41 345.2 -1997.51 339.94 -2004.95 332.51 -2010.2 323.41 -2012.92 313.26 -2012.92 302.74 -2010.2 292.59 -2004.95 283.49 -1997.51 276.06 -1988.41 270.8 -1978.26 268.08 -1967.74 268.08 -1957.59 270.8 -1948.49 276.06 -1941.06 283.49 -1940.15 285.06 -1869.56 285.06 -1864.49 279.99 -1856.51 275.38 -1847.61 273 -1838.39 273 -1829.49 275.38 -1821.51 279.99 -1814.99 286.51 -1810.38 294.49 -1808 303.39 -1808 312.61 -1810.38 321.51 -1814.99 329.49 -1821.51 336.01 -1829.49 340.62 -1838.39 343 -1847.61 343 -1856.51 340.62 -1864.49 336.01 -1869.56 330.94 -1940.15 330.94 -1941.06 332.51 -1948.49 339.94 -1957.59 345.2 -1967.74 347.92"/><path d="M -2967.74 247.92 -2978.26 247.92 -2988.41 245.2 -2997.51 239.94 -3004.95 232.51 -3005.85 230.94 -3076.44 230.94 -3081.51 236.01 -3089.49 240.61 -3098.39 243 -3107.61 243 -3116.51 240.61 -3124.49 236.01 -3131.01 229.49 -3135.62 221.51 -3138 212.61 -3138 203.39 -3135.62 194.49 -3131.01 186.51 -3124.49 179.99 -3116.51 175.38 -3107.61 173 -3098.39 173 -3089.49 175.38 -3081.51 179.99 -3076.44 185.06 -3005.85 185.06 -3004.95 183.49 -2997.51 176.05 -2988.41 170.8 -2978.26 168.08 -2967.74 168.08 -2957.59 170.8 -2948.49 176.05 -2941.06 183.49 -2935.8 192.59 -2933.08 202.74 -2933.08 213.26 -2935.8 223.41 -2941.06 232.51 -2948.49 239.94 -2957.59 245.2 -2967.74 247.92"/><path d="M -1838.39 243 -1847.61 243 -1856.51 240.61 -1864.49 236.01 -1871.01 229.49 -1875.62 221.51 -1878 212.61 -1878 203.39 -1875.62 194.49 -1871.01 186.51 -1864.49 179.99 -1856.51 175.38 -1847.61 173 -1838.39 173 -1829.49 175.38 -1821.51 179.99 -1814.99 186.51 -1810.38 194.49 -1808 203.39 -1808 212.61 -1810.38 221.51 -1814.99 229.49 -1821.51 236.01 -1829.49 240.61 -1838.39 243"/><path d="M -1967.74 247.92 -1978.26 247.92 -1988.41 245.2 -1997.51 239.94 -2004.95 232.51 -2010.2 223.41 -2012.92 213.26 -2012.92 202.74 -2010.2 192.59 -2004.95 183.49 -1997.51 176.05 -1988.41 170.8 -1978.26 168.08 -1967.74 168.08 -1957.59 170.8 -1948.49 176.05 -1941.06 183.49 -1935.8 192.59 -1933.08 202.74 -1933.08 213.26 -1935.8 223.41 -1941.06 232.51 -1948.49 239.94 -1957.59 245.2 -1967.74 247.92"/><path d="M -2967.74 147.92 -2978.26 147.92 -2988.41 145.2 -2997.51 139.95 -3004.95 132.51 -3005.85 130.94 -3076.44 130.94 -3081.51 136.01 -3089.49 140.62 -3098.39 143 -3107.61 143 -3116.51 140.62 -3124.49 136.01 -3131.01 129.49 -3135.62 121.51 -3138 112.61 -3138 103.39 -3135.62 94.49 -3131.01 86.51 -3124.49 79.99 -3116.51 75.38 -3107.61 73 -3098.39 73 -3089.49 75.38 -3081.51 79.99 -3076.44 85.06 -3005.85 85.06 -3004.95 83.49 -2997.51 76.05 -2988.41 70.8 -2978.26 68.08 -2967.74 68.08 -2957.59 70.8 -2948.49 76.05 -2941.06 83.49 -2935.8 92.59 -2933.08 102.74 -2933.08 113.26 -2935.8 123.41 -2941.06 132.51 -2948.49 139.95 -2957.59 145.2 -2967.74 147.92"/><path d="M -1838.39 143 -1847.61 143 -1856.51 140.62 -1864.49 136.01 -1871.01 129.49 -1875.62 121.51 -1878 112.61 -1878 103.39 -1875.62 94.49 -1871.01 86.51 -1864.49 79.99 -1856.51 75.38 -1847.61 73 -1838.39 73 -1829.49 75.38 -1821.51 79.99 -1814.99 86.51 -1810.38 94.49 -1808 103.39 -1808 112.61 -1810.38 121.51 -1814.99 129.49 -1821.51 136.01 -1829.49 140.62 -1838.39 143"/><path d="M -1967.74 147.92 -1978.26 147.92 -1988.41 145.2 -1997.51 139.95 -2004.95 132.51 -2010.2 123.41 -2012.92 113.26 -2012.92 102.74 -2010.2 92.59 -2004.95 83.49 -1997.51 76.05 -1988.41 70.8 -1978.26 68.08 -1967.74 68.08 -1957.59 70.8 -1948.49 76.05 -1941.06 83.49 -1935.8 92.59 -1933.08 102.74 -1933.08 113.26 -1935.8 123.41 -1941.06 132.51 -1948.49 139.95 -1957.59 145.2 -1967.74 147.92"/><path d="M -1838.39 43 -1847.61 43 -1856.51 40.61 -1864.49 36.01 -1871.01 29.49 -1875.62 21.51 -1878 12.61 -1878 3.39 -1875.62 -5.51 -1871.01 -13.49 -1864.49 -20.01 -1856.51 -24.61 -1847.61 -27 -1838.39 -27 -1829.49 -24.61 -1821.51 -20.01 -1814.99 -13.49 -1810.38 -5.51 -1808 3.39 -1808 12.61 -1810.38 21.51 -1814.99 29.49 -1821.51 36.01 -1829.49 40.61 -1838.39 43"/><path d="M -1967.74 47.92 -1978.26 47.92 -1988.41 45.2 -1997.51 39.94 -2004.95 32.51 -2010.2 23.41 -2012.92 13.26 -2012.92 2.74 -2010.2 -7.41 -2004.95 -16.51 -1997.51 -23.95 -1988.41 -29.2 -1978.26 -31.92 -1967.74 -31.92 -1957.59 -29.2 -1948.49 -23.95 -1941.06 -16.51 -1935.8 -7.41 -1933.08 2.74 -1933.08 13.26 -1935.8 23.41 -1941.06 32.51 -1948.49 39.94 -1957.59 45.2 -1967.74 47.92"/><path d="M -3300 121.44 -3319 119.94 -3337.53 115.5 -3355.13 108.2 -3371.38 98.25 -3385.87 85.87 -3398.25 71.38 -3408.2 55.13 -3415.5 37.53 -3419.95 19 -3421.44 0 -3419.95 -19 -3415.5 -37.53 -3408.2 -55.13 -3398.25 -71.38 -3385.87 -85.87 -3371.38 -98.25 -3355.13 -108.2 -3337.53 -115.5 -3319 -119.94 -3300 -121.44 -3281 -119.94 -3262.47 -115.5 -3244.87 -108.2 -3228.62 -98.25 -3214.13 -85.87 -3201.75 -71.38 -3191.8 -55.13 -3184.5 -37.53 -3180.05 -19 -3178.56 0 -3180.05 19 -3184.5 37.53 -3191.8 55.13 -3201.75 71.38 -3214.13 85.87 -3228.62 98.25 -3244.87 108.2 -3262.47 115.5 -3281 119.94 -3300 121.44"/><path d="M -1838.39 -57 -1847.61 -57 -1856.51 -59.39 -1864.49 -63.99 -1871.01 -70.51 -1875.62 -78.49 -1878 -87.39 -1878 -96.61 -1875.62 -105.51 -1871.01 -113.49 -1864.49 -120.01 -1856.51 -124.61 -1847.61 -127 -1838.39 -127 -1829.49 -124.61 -1821.51 -120.01 -1814.99 -113.49 -1810.38 -105.51 -1808 -96.61 -1808 -87.39 -1810.38 -78.49 -1814.99 -70.51 -1821.51 -63.99 -1829.49 -59.39 -1838.39 -57"/><path d="M -1958.04 -51.59 -1987.96 -51.59 -1997.7 -53.53 -2005.96 -59.04 -2011.47 -67.3 -2013.41 -77.04 -2013.41 -106.96 -2011.47 -116.7 -2005.96 -124.96 -1997.7 -130.47 -1987.96 -132.41 -1958.04 -132.41 -1948.3 -130.47 -1940.04 -124.96 -1934.53 -116.7 -1932.59 -106.96 -1932.59 -77.04 -1934.53 -67.3 -1940.04 -59.04 -1948.3 -53.53 -1958.04 -51.59"/></g></mask><mask id="hig-ZGadIfDj0pQnI1bS_clear-2" fill="#000" stroke="#000"><g><rect x="-3484.89" y="-184.89" width="3669.81" height="2969.81" fill="#fff"/><path d="M -1838.39 1843 -1847.61 1843 -1856.51 1840.62 -1864.49 1836.01 -1871.01 1829.49 -1875.62 1821.51 -1878 1812.61 -1878 1803.39 -1875.62 1794.49 -1871.01 1786.51 -1864.49 1779.99 -1856.51 1775.39 -1847.61 1773 -1838.39 1773 -1829.49 1775.39 -1821.51 1779.99 -1814.99 1786.51 -1810.38 1794.49 -1808 1803.39 -1808 1812.61 -1810.38 1821.51 -1814.99 1829.49 -1821.51 1836.01 -1829.49 1840.62 -1838.39 1843"/><path d="M -1967.74 1847.92 -1978.26 1847.92 -1988.41 1845.2 -1997.51 1839.94 -2004.95 1832.51 -2010.2 1823.41 -2012.92 1813.26 -2012.92 1802.74 -2010.2 1792.59 -2004.95 1783.49 -1997.51 1776.05 -1988.41 1770.8 -1978.26 1768.08 -1967.74 1768.08 -1957.59 1770.8 -1948.49 1776.05 -1941.06 1783.49 -1935.8 1792.59 -1933.08 1802.74 -1933.08 1813.26 -1935.8 1823.41 -1941.06 1832.51 -1948.49 1839.94 -1957.59 1845.2 -1967.74 1847.92"/></g></mask><mask id="hig-ZGadIfDj0pQnI1bS_clear-3" fill="#000" stroke="#000"><g><rect x="-3484.89" y="-184.89" width="3669.81" height="2969.81" fill="#fff"/><path d="M -6.57 561.09 -18.14 561.09 -29.48 558.84 -40.17 554.41 -49.79 547.99 -57.96 539.81 -59.39 537.68 -165.32 537.68 -166.74 539.81 -174.92 547.99 -184.54 554.41 -195.23 558.84 -206.57 561.09 -218.14 561.09 -229.48 558.84 -240.17 554.41 -249.79 547.99 -257.96 539.81 -264.39 530.19 -268.82 519.5 -271.08 508.16 -271.08 496.59 -268.82 485.25 -264.39 474.56 -257.96 464.94 -249.79 456.76 -240.17 450.34 -229.48 445.91 -220.55 444.13 -221.53 434.13 -683.99 434.13 -688 435.21 -698.51 435.21 -708.67 432.49 -717.77 427.23 -725.21 419.8 -730.46 410.7 -733.18 400.54 -733.18 390.03 -730.46 379.88 -725.21 370.78 -717.77 363.34 -708.67 358.09 -698.51 355.37 -688 355.37 -677.85 358.09 -668.75 363.34 -668.56 363.53 -244.12 363.53 -241.57 357.65 -241.49 353.53 -249.79 347.98 -257.96 339.81 -261.76 334.13 -683.99 334.13 -688 335.21 -698.51 335.21 -708.67 332.49 -717.77 327.23 -725.21 319.8 -730.46 310.7 -733.18 300.54 -733.18 290.03 -730.46 279.88 -725.21 270.77 -717.77 263.34 -708.67 258.09 -698.51 255.37 -688 255.37 -677.85 258.09 -668.75 263.34 -668.56 263.53 -256.55 263.53 -249.79 256.76 -240.17 250.34 -229.48 245.91 -218.14 243.65 -206.57 243.65 -195.23 245.91 -184.54 250.34 -174.92 256.76 -166.74 264.94 -165.32 267.07 -59.39 267.07 -57.96 264.94 -49.79 256.76 -40.17 250.34 -29.48 245.91 -18.14 243.65 -6.57 243.65 4.77 245.91 15.46 250.34 25.08 256.76 33.26 264.94 39.68 274.56 44.11 285.25 46.37 296.59 46.37 308.16 44.11 319.5 39.68 330.19 33.26 339.81 25.08 347.98 22.95 349.41 22.95 455.34 25.08 456.76 33.26 464.94 39.68 474.56 44.11 485.25 46.37 496.59 46.37 508.16 44.11 519.5 39.68 530.19 33.26 539.81 25.08 547.99 15.46 554.41 4.77 558.84 -6.57 561.09"/><path d="M -1155.4 377.59 -1194.11 377.59 -1194.11 377.2 -1245 377.2 -1248.9 376.42 -1252.21 374.21 -1254.42 370.9 -1255.2 367 -1255.2 167 -1254.42 163.1 -1252.21 159.79 -1248.9 157.58 -1245 156.8 -1224.99 156.8 -1222.16 156.24 -1192.64 156.24 -1189.82 156.8 -1188 156.8 -1184.1 157.58 -1180.79 159.79 -1178.58 163.1 -1177.8 167 -1177.8 169.55 -1177.42 171.46 -1177.42 228.54 -1177.8 230.45 -1177.8 290.59 -1155.4 290.59 -1155.4 377.59"/><path d="M -470 200.2 -890 200.2 -893.9 199.42 -897.21 197.21 -899.42 193.9 -900.2 190 -900.2 70 -899.42 66.1 -897.21 62.79 -893.9 60.58 -890 59.8 -470 59.8 -466.1 60.58 -462.79 62.79 -460.58 66.1 -459.8 70 -459.8 190 -460.58 193.9 -462.79 197.21 -466.1 199.42 -470 200.2"/><path d="M 0 121.44 -19 119.94 -37.53 115.5 -55.13 108.2 -71.38 98.25 -85.87 85.87 -98.25 71.38 -108.2 55.13 -115.5 37.53 -119.94 19 -121.44 0 -119.94 -19 -115.5 -37.53 -108.2 -55.13 -98.25 -71.38 -85.87 -85.87 -71.38 -98.25 -55.13 -108.2 -37.53 -115.5 -19 -119.94 0 -121.44 19 -119.94 37.53 -115.5 55.13 -108.2 71.38 -98.25 85.87 -85.87 98.25 -71.38 108.2 -55.13 115.5 -37.53 119.94 -19 121.44 0 119.94 19 115.5 37.53 108.2 55.13 98.25 71.38 85.87 85.87 71.38 98.25 55.13 108.2 37.53 115.5 19 119.94 0 121.44"/></g></mask><g id="hig-ZGadIfDj0pQnI1bS_pad-16"><polygon points="26.575,-27.56 26.575,27.56 -26.575,27.56 -26.575,-27.56"/><polygon points="33.465,-20.67 33.465,20.67 -33.465,20.67 -33.465,-20.67"/><circle cx="26.57" cy="20.67" r="6.89"/><circle cx="26.57" cy="-20.67" r="6.89"/><circle cx="-26.57" cy="-20.67" r="6.89"/><circle cx="-26.57" cy="20.67" r="6.89"/></g><rect x="-23.62" y="-23.62" width="47.24" height="47.24" id="hig-ZGadIfDj0pQnI1bS_pad-17"/><rect x="-9.355" y="-33.505" width="18.71" height="67.01" id="hig-ZGadIfDj0pQnI1bS_pad-18"/><rect x="-15.945" y="-31.495" width="31.89" height="62.99" id="hig-ZGadIfDj0pQnI1bS_pad-19"/><g id="hig-ZGadIfDj0pQnI1bS_pad-20"><rect x="-19.685" y="-28.545" width="39.37" height="57.09"/><rect x="-14.765" y="-33.465" width="29.53" height="66.93"/><circle cx="14.76" cy="-28.54" r="4.92"/><circle cx="-14.76" cy="-28.54" r="4.92"/><circle cx="-14.76" cy="28.54" r="4.92"/><circle cx="14.76" cy="28.54" r="4.92"/></g><g id="hig-ZGadIfDj0pQnI1bS_pad-21"><polygon points="28.545,19.685 28.545,-19.685 -28.545,-19.685 -28.545,19.685"/><polygon points="33.465,14.765 33.465,-14.765 -33.465,-14.765 -33.465,14.765"/><circle cx="-28.54" cy="-14.76" r="4.92"/><circle cx="-28.54" cy="14.76" r="4.92"/><circle cx="28.54" cy="14.76" r="4.92"/><circle cx="28.54" cy="-14.76" r="4.92"/></g><g id="hig-ZGadIfDj0pQnI1bS_pad-22"><polygon points="16.735,11.81 16.735,-11.81 -16.735,-11.81 -16.735,11.81"/><polygon points="19.685,8.86 19.685,-8.86 -19.685,-8.86 -19.685,8.86"/><circle cx="-16.73" cy="-8.86" r="2.955"/><circle cx="-16.73" cy="8.86" r="2.955"/><circle cx="16.73" cy="8.86" r="2.955"/><circle cx="16.73" cy="-8.86" r="2.955"/></g><rect x="-25.785" y="-17.835" width="51.57" height="35.67" id="hig-ZGadIfDj0pQnI1bS_pad-23"/><rect x="-41.34" y="-59.055" width="82.68" height="118.11" id="hig-ZGadIfDj0pQnI1bS_pad-24"/><g id="hig-ZGadIfDj0pQnI1bS_pad-44"><polygon points="14.96,29.92 14.96,-29.92 -14.96,-29.92 -14.96,29.92"/><polygon points="29.92,14.96 29.92,-14.96 -29.92,-14.96 -29.92,14.96"/><circle cx="-14.96" cy="-14.96" r="14.96"/><circle cx="-14.96" cy="14.96" r="14.96"/><circle cx="14.96" cy="14.96" r="14.96"/><circle cx="14.96" cy="-14.96" r="14.96"/></g><rect x="-35.435" y="-35.435" width="70.87" height="70.87" id="hig-ZGadIfDj0pQnI1bS_pad-45"/><circle cx="0" cy="0" r="31.595" id="hig-ZGadIfDj0pQnI1bS_pad-46"/><circle cx="0" cy="0" r="29.92" id="hig-ZGadIfDj0pQnI1bS_pad-47"/><rect x="-31.595" y="-31.595" width="63.19" height="63.19" id="hig-ZGadIfDj0pQnI1bS_pad-48"/><circle cx="0" cy="0" r="35.435" id="hig-ZGadIfDj0pQnI1bS_pad-49"/><circle cx="0" cy="0" r="45.765" id="hig-ZGadIfDj0pQnI1bS_pad-50"/><circle cx="0" cy="0" r="48.72" id="hig-ZGadIfDj0pQnI1bS_pad-51"/><circle cx="0" cy="0" r="25" id="hig-ZGadIfDj0pQnI1bS_pad-52"/></defs><g transform="translate(0,2600.0299999999997) scale(1,-1)" fill="currentColor" stroke="currentColor"><g mask="url(#hig-ZGadIfDj0pQnI1bS_clear-3)"><g mask="url(#hig-ZGadIfDj0pQnI1bS_clear-2)"><g mask="url(#hig-ZGadIfDj0pQnI1bS_clear-1)"><path d="M -88.05 2783.05 -54.06 2777.28 -20.93 2767.73 10.93 2754.54 41.1 2737.86 69.22 2717.91 94.93 2694.93 117.91 2669.22 137.86 2641.1 154.54 2610.93 167.73 2579.07 177.28 2545.94 183.05 2511.95 184.92 2478.61 184.71 2477.53 184.71 610.2 -725 610.2 -728.9 609.42 -732.21 607.21 -879.22 460.2 -970.31 460.2 -974.21 459.42 -977.51 457.21 -988.83 455.46 -1019.19 485.81 -1024.15 489.13 -1030 490.29 -1347.59 490.29 -1349.19 489.98 -1358.02 495.65 -1359.19 497.32 -1359.19 510.25 -1361.12 519.99 -1366.64 528.24 -1374.9 533.76 -1384.64 535.7 -1414.56 535.7 -1424.3 533.76 -1432.55 528.24 -1438.07 519.99 -1440.01 510.25 -1440.01 480.33 -1438.07 470.59 -1438 470.49 -1440.49 464.5 -1445.45 461.18 -1451.16 455.46 -1462.48 457.21 -1465.79 459.42 -1469.69 460.2 -1600 460.2 -1603.9 459.42 -1607.21 457.21 -1609.42 453.9 -1610.2 450 -1610.2 -184.71 -3200 -184.71 -3200.95 -184.89 -3231.9 -183.16 -3263.41 -177.8 -3294.11 -168.96 -3323.63 -156.73 -3351.6 -141.27 -3377.66 -122.78 -3401.49 -101.49 -3422.78 -77.66 -3441.27 -51.6 -3456.73 -23.63 -3468.96 5.89 -3477.8 36.59 -3483.16 68.1 -3484.89 99.05 -3484.71 100 -3484.71 2500 -3484.89 2500.95 -3483.16 2531.9 -3477.8 2563.41 -3468.96 2594.11 -3456.73 2623.63 -3441.27 2651.6 -3422.78 2677.66 -3401.49 2701.49 -3377.66 2722.78 -3351.6 2741.27 -3323.63 2756.73 -3294.11 2768.96 -3263.41 2777.8 -3231.9 2783.16 -3200.95 2784.89 -3200 2784.71 -122.47 2784.71 -121.39 2784.92 -88.05 2783.05"/><path d="M -859 301 -950.68 301 -950.68 368 -859 368 -859 301"/><path d="M -1040.57 290.59 -1038 290.59 -1038 233 -1103.51 233 -1103.78 234.37 -1107 239.19 -1107 290.59 -1104.22 290.59 -1104.22 309 -1091.75 309 -1091.75 290.59 -1053.04 290.59 -1053.04 312 -1040.57 312 -1040.57 290.59"/><path d="M 184.71 100 184.89 99.05 183.16 68.1 177.8 36.59 168.96 5.89 156.73 -23.63 141.27 -51.6 122.78 -77.66 101.49 -101.49 77.66 -122.78 51.6 -141.27 23.63 -156.73 -5.89 -168.96 -36.59 -177.8 -68.1 -183.16 -99.05 -184.89 -100 -184.71 -1600 -184.71 -1600 450 -1469.69 450 -1465.87 440.76 -1480.81 425.81 -1484.13 420.85 -1485.29 415 -1485.29 310 -1484.13 304.15 -1480.81 299.19 -1466.1 284.47 -1461.14 281.16 -1455.29 279.99 -1436.83 279.99 -1436.8 279.88 -1431.54 270.77 -1424.11 263.34 -1415.01 258.09 -1404.85 255.37 -1394.34 255.37 -1384.19 258.09 -1375.09 263.34 -1367.65 270.77 -1362.4 279.88 -1359.68 290.03 -1359.68 300.54 -1362.4 310.7 -1367.65 319.8 -1375.09 327.23 -1384.19 332.49 -1394.34 335.21 -1404.85 335.21 -1415.01 332.49 -1424.11 327.23 -1431.54 319.8 -1436.8 310.7 -1436.83 310.58 -1448.95 310.58 -1454.71 316.33 -1454.71 408.67 -1442.43 420.94 -1434.43 414.8 -1436.8 410.7 -1439.52 400.54 -1439.52 390.03 -1436.8 379.88 -1431.54 370.78 -1424.11 363.34 -1415.01 358.09 -1404.85 355.37 -1394.34 355.37 -1384.19 358.09 -1375.09 363.34 -1367.65 370.78 -1362.4 379.88 -1359.68 390.03 -1359.68 400.54 -1362.4 410.7 -1362.46 410.8 -1354.87 418.39 -1353.13 419.55 -1332.98 439.71 -1056.33 439.71 -1012.15 395.52 -1012.15 377.59 -1014.98 377.59 -1014.98 290.59 -1010.92 290.59 -1010.92 190.71 -1081.99 119.64 -1085.3 114.68 -1086.24 109.98 -1108.54 109.98 -1109.71 109.75 -1118.8 115.76 -1119.71 117.18 -1119.71 156.24 -1117.84 156.24 -1112.01 157.4 -1107.08 160.7 -1103.78 165.64 -1102.62 171.46 -1102.62 222.8 -1038 222.8 -1034.1 223.58 -1030.79 225.79 -1028.58 229.1 -1027.8 233 -1027.8 290.59 -1027.45 290.59 -1027.45 377.59 -1142.93 377.59 -1142.93 290.59 -1138.87 290.59 -1138.87 279.69 -1143.41 275.15 -1146.73 270.18 -1147.89 264.33 -1147.89 243.65 -1153.18 242.6 -1158.12 239.3 -1161.42 234.37 -1162.58 228.54 -1162.58 171.46 -1161.42 165.64 -1158.12 160.7 -1153.18 157.4 -1150.29 156.83 -1150.29 105.56 -1159.19 102.69 -1160.7 102.92 -1165.63 106.22 -1171.46 107.38 -1228.54 107.38 -1234.36 106.22 -1239.3 102.92 -1242.6 97.99 -1243.76 92.17 -1243.76 62.64 -1242.6 56.82 -1239.3 51.88 -1234.36 48.58 -1228.54 47.42 -1171.46 47.42 -1165.63 48.58 -1160.7 51.88 -1157.4 56.82 -1156.35 62.11 -1152.6 62.11 -1146.75 63.27 -1141.78 66.59 -1133.76 74.61 -1123.76 70.47 -1123.76 65.24 -1122.6 59.41 -1119.3 54.48 -1114.36 51.18 -1108.54 50.02 -1051.46 50.02 -1045.63 51.18 -1040.7 54.48 -1037.4 59.41 -1036.24 65.24 -1036.24 94.76 -1037.4 100.59 -1040.7 105.52 -1041.04 117.33 -987.07 171.3 -984.46 171.83 -975.29 165.58 -975.29 109.98 -988.54 109.98 -994.36 108.82 -999.3 105.52 -1002.6 100.59 -1003.76 94.76 -1003.76 65.24 -1002.6 59.41 -999.3 54.48 -994.36 51.18 -988.54 50.02 -931.46 50.02 -925.63 51.18 -920.7 54.48 -917.4 59.41 -916.24 65.24 -916.24 94.76 -917.4 100.59 -920.7 105.52 -925.63 108.82 -931.46 109.98 -944.71 109.98 -944.71 180 -945.87 185.85 -949.19 190.81 -955.97 197.6 -955.97 290.59 -925.09 290.59 -925.09 290.8 -859 290.8 -855.1 291.58 -851.79 293.79 -849.58 297.1 -848.8 301 -848.8 368 -849.58 371.9 -851.79 375.21 -855.1 377.42 -859 378.2 -950.68 378.2 -955.97 387.19 -955.97 416.27 -957.14 422.12 -960.45 427.08 -974.13 440.76 -970.31 450 -875 450 -725 600 184.71 600 184.71 100"/></g><path d="M -1751 2450 -1736 2450 -1736 2390 -1796 2390 -1796 2450 -1781 2450 -1781 2480 -1751 2480 -1751 2450"/><path d="M -1693.46 2541.66 -1693.46 2458.67 -1641.57 2458.67 -1641.57 2484.87 -1621.5 2484.87 -1520.29 2383.67 -1520.29 2006.34 -1802.24 1724.39 -1812.53 1725.23 -1814.99 1729.49 -1821.51 1736.01 -1829.49 1740.62 -1838.39 1743 -1847.61 1743 -1856.51 1740.62 -1864.49 1736.01 -1869.56 1730.94 -1940.15 1730.94 -1941.06 1732.51 -1948.49 1739.95 -1957.59 1745.2 -1967.74 1747.92 -1978.26 1747.92 -1988.41 1745.2 -1997.51 1739.95 -2004.95 1732.51 -2010.2 1723.41 -2012.92 1713.26 -2012.92 1702.74 -2010.2 1692.59 -2004.95 1683.49 -1997.51 1676.05 -1988.41 1670.8 -1978.26 1668.08 -1967.74 1668.08 -1957.59 1670.8 -1948.49 1676.05 -1941.06 1683.49 -1940.15 1685.06 -1869.56 1685.06 -1864.49 1679.99 -1856.51 1675.38 -1847.61 1673 -1838.39 1673 -1828.25 1665.37 -1827.92 1663.71 -1846.16 1645.47 -1847.85 1642.93 -1856.51 1640.61 -1864.49 1636.01 -1869.56 1630.94 -1940.15 1630.94 -1941.06 1632.51 -1948.49 1639.95 -1957.59 1645.2 -1967.74 1647.92 -1978.26 1647.92 -1988.41 1645.2 -1997.51 1639.95 -2004.95 1632.51 -2010.2 1623.41 -2010.23 1623.29 -2027.66 1623.29 -2040.71 1636.34 -2040.71 1945.81 -1853.55 2132.97 -1850.23 2137.93 -1849.07 2143.79 -1849.07 2458.67 -1813.89 2458.67 -1812.87 2458.1 -1806.2 2450 -1806.2 2390 -1805.42 2386.1 -1803.21 2382.79 -1799.9 2380.58 -1796 2379.8 -1736 2379.8 -1732.1 2380.58 -1728.79 2382.79 -1726.58 2386.1 -1725.8 2390 -1725.8 2450 -1726.58 2453.9 -1728.79 2457.21 -1732.1 2459.42 -1736 2460.2 -1739.99 2460.2 -1739.99 2541.66 -1731.26 2544.73 -1702.18 2544.73 -1693.46 2541.66"/><path d="M -1019.98 1756.65 -1275.81 1500.81 -1279.13 1495.85 -1280.29 1490 -1280.29 1311.33 -1295.4 1296.23 -1362.37 1296.23 -1362.4 1296.35 -1367.65 1305.45 -1375.09 1312.88 -1384.19 1318.14 -1394.34 1320.86 -1404.85 1320.86 -1415.01 1318.14 -1415.11 1318.08 -1433.86 1336.82 -1427.48 1344.59 -1424.3 1342.46 -1414.56 1340.53 -1384.64 1340.53 -1374.9 1342.46 -1366.64 1347.98 -1361.12 1356.24 -1359.19 1365.98 -1359.19 1395.9 -1361.12 1405.64 -1366.64 1413.89 -1374.9 1419.41 -1384.64 1421.35 -1414.56 1421.35 -1424.3 1419.41 -1432.55 1413.89 -1438.07 1405.64 -1440.01 1395.9 -1440.01 1365.98 -1438.07 1356.24 -1435.94 1353.05 -1443.71 1346.68 -1515.85 1418.81 -1520.81 1422.13 -1526.66 1423.29 -1613.61 1423.29 -1619.23 1433.29 -1617.39 1436.49 -1615 1445.39 -1615 1454.61 -1617.39 1463.51 -1621.99 1471.49 -1628.51 1478.01 -1636.49 1482.61 -1645.39 1485 -1654.61 1485 -1663.51 1482.61 -1671.49 1478.01 -1678.01 1471.49 -1687.51 1474.14 -1809.85 1596.48 -1808 1603.39 -1808 1612.61 -1810.38 1621.51 -1814.99 1629.49 -1816.94 1631.43 -1393.49 2054.88 -1390.17 2059.84 -1389.01 2065.7 -1389.01 2066.03 -1384.19 2067.32 -1375.09 2072.58 -1367.65 2080.01 -1362.4 2089.11 -1362.37 2089.23 -1247.38 2089.23 -1247.38 2071.46 -1246.22 2065.63 -1242.92 2060.7 -1237.99 2057.4 -1232.16 2056.24 -1202.64 2056.24 -1196.82 2057.4 -1191.88 2060.7 -1188.58 2065.63 -1187.42 2071.46 -1187.42 2128.54 -1187.96 2131.24 -1183.16 2139.38 -1181.15 2141.24 -1019.98 2141.24 -1019.98 1756.65"/><path d="M -705 685 -820 685 -820 585 -945 585 -945 765 -705 765 -705 685"/></g><path d="M -2868.5 2295 -3073.5 2295 -3073.5 2515 -2868.5 2515 -2868.5 2295"/><path d="M -1340 750 -1460 750 -1460 805 -1340 805 -1340 750"/><path d="M -1038 661.29 -1040.57 661.29 -1040.57 646 -1053.04 646 -1053.04 661.29 -1091.75 661.29 -1091.75 646 -1104.22 646 -1104.22 661.29 -1107 661.29 -1107 721 -1038 721 -1038 661.29"/><path d="M -1145 718.37 -1145 665 -1170 665 -1170 645 -1180 645 -1180 665 -1205 665 -1205 725 -1151.63 725 -1145 718.37"/></g><path d="M -1168.52 301 -1188 301 -1188 167 -1245 167 -1245 367 -1168.52 367 -1168.52 301"/><path d="M -470 70 -890 70 -890 190 -470 190 -470 70"/><path d="M -1505 2000 -1505 2390 M -1615.16 2500.16 -1505 2390 M -1667.51 2500.16 -1615.16 2500.16 M -1640.03 2560.03 -1460 2380 M -1345 2380 -1217.4 2252.4 M -1460 2380 -1345 2380 M -1217.4 2205 -1217.4 2252.4 M -1835.35 1615.65 -1835.35 1634.65 M -1404.3 2065.7 -1404.3 2099.81 M -1843 1608 -1835.35 1615.65 M -1835.35 1634.65 -1404.3 2065.7 M -1404.3 2099.81 -1399.6 2104.52 M -1843 1708 -1797 1708 -1505 2000 M -2056 1630 -2056 1952.15 M -2056 1630 -2034 1608 M -2056 1952.15 -1864.36 2143.79 M -2034 1608 -1973 1608 M -1864.36 2143.79 -1864.36 2500.16 M -2190.83 2500.16 -1864.36 2500.16 M -2345 2645 -2335.67 2645 -2190.83 2500.16 M -2120.17 2520.16 -1919.83 2520.16 M -2245 2645 -2120.17 2520.16 M -1919.83 2520.16 -1879.97 2560.03 M -2925 860 -1659.8 860 M -2973 908 -2925 860 M -1647.4 872.4 -1438.74 872.4 M -1659.8 860 -1647.4 872.4 M -1124.81 619.02 -1124.81 719.81 M -1240 835 -1124.81 719.81 M -1352.13 835 -1240 835 M -1200 77.4 -1152.6 77.4 M -1135 95 -1135 200 M -1152.6 77.4 -1135 95 M -1185 1070.86 -1182.65 1068.51 M -1182.65 1052.65 -1175 1045 M -1182.65 1052.65 -1182.65 1068.51 M -1185 1468.97 -870 1783.97 M -1185 1070.86 -1185 1468.97 M -1235 1095 -1235 1470 M -1289.06 1280.94 -1265 1305 M -1399.6 1280.94 -1289.06 1280.94 M -1265 1305 -1265 1490 -1004.69 1750.31 -1004.69 2150.68 M -1211.54 2156.53 -1010.54 2156.53 -1004.69 2150.68 M -1720 1300 -1590 1300 -1415 1125 -1390 1125 M -1817.22 1397.22 -1720 1300 M -1821.39 1397.22 -1817.22 1397.22 M -1828 1403.82 -1821.39 1397.22 M -1390 1125 -995.62 730.62 M -1843 1408 -1828 1408 M -1828 1403.82 -1828 1408 -1526.66 1408 M -1650 1350 -1568.66 1350 -1399.6 1180.94 M -2445 2410.55 -2445 2645 M -1221.92 2104.52 -1217.4 2100 M -1399.6 2104.52 -1221.92 2104.52 M -1655 1455 -1650 1450 M -1399.6 1180.94 -970.03 751.37 M -970.03 617.78 -970.03 751.37 M -1843 1608 -1690 1455 -1655 1455 M -1071.17 108.83 -995.62 184.38 -995.62 334.09 M -1080 80 -1071.17 88.83 -1071.17 108.83 M -996.86 335.33 -996.86 401.86 M -996.86 335.33 -995.62 334.09 M -1339.31 455 -1050 455 -996.86 401.86 M -1363.94 430.37 -1339.31 455 M -1364.52 430.37 -1363.94 430.37 M -1399.6 395.29 -1364.52 430.37 M -1132.6 264.33 -1123.57 273.36 M -1132.6 200 -1132.6 264.33 M -1123.57 273.36 -1123.57 331.51 M -1526.66 1408 -1399.6 1280.94 M -1424.96 910.04 -1350 985 M -1360 835 -1360 870 M -1360 835 -1352.13 835 M -1360 870 -1295 935 M -1124.81 619.02 -1123.57 617.78 M -1217.88 2204.52 -1217.4 2205 M -1310 2204.52 -1217.88 2204.52 M -1399.6 2204.52 -1310 2204.52 M -1217.4 2162.39 -1211.54 2156.53 M -1217.4 2162.39 -1217.4 2205 M -925 2100 -910 2085 M -910 1795 -910 2085 M -1235 1470 -910 1795 M -970 2100 -925 2100 M -995.62 617.78 -995.62 730.62 M -971.27 191.27 -971.27 332.85 -970.03 334.09 M -960 80 -960 180 M -971.27 191.27 -960 180 M -1470 310 -1470 415 -1434.63 450.37 M -1470 310 -1455.29 295.29 M -1434.63 450.37 -1372.23 450.37 M -1455.29 295.29 -1399.6 295.29 M -971.27 335.33 -971.27 416.27 M -1347.59 475 -1030 475 -971.27 416.27 M -971.27 335.33 -970.03 334.09 M -1372.23 450.37 -1347.59 475 M -1424.96 879.21 -1424.96 910.04 M -1431.77 872.4 -1424.96 879.21 M -870 1783.97 -870 2170 M -967.2 2205.94 -905.94 2205.94 -870 2170 M -693.26 395.29 -689.72 398.83 M -693.26 295.29 -689.72 298.83 M -1815.15 2560.03 -1640.03 2560.03 M -1815.15 2500.16 -1815.15 2560.03 M -1879.97 2560.03 -1815.15 2560.03 M -2445 2349.45 -2230.78 2349.45 -2225 2343.66" fill="none" stroke-width="10"/><use xlink:href="#hig-ZGadIfDj0pQnI1bS_pad-16" x="-734.6" y="100.94"/><use xlink:href="#hig-ZGadIfDj0pQnI1bS_pad-16" x="-734.6" y="10.94"/><use xlink:href="#hig-ZGadIfDj0pQnI1bS_pad-16" x="-629.6" y="100.94"/><use xlink:href="#hig-ZGadIfDj0pQnI1bS_pad-16" x="-629.6" y="10.94"/><use xlink:href="#hig-ZGadIfDj0pQnI1bS_pad-16" x="-760.94" y="810.4"/><use xlink:href="#hig-ZGadIfDj0pQnI1bS_pad-16" x="-880.94" y="810.4"/><use xlink:href="#hig-ZGadIfDj0pQnI1bS_pad-16" x="-839.6" y="100.94"/><use xlink:href="#hig-ZGadIfDj0pQnI1bS_pad-16" x="-524.6" y="100.94"/><use xlink:href="#hig-ZGadIfDj0pQnI1bS_pad-16" x="-839.6" y="10.94"/><use xlink:href="#hig-ZGadIfDj0pQnI1bS_pad-16" x="-524.6" y="10.94"/><use xlink:href="#hig-ZGadIfDj0pQnI1bS_pad-16" x="-880.94" y="720.4"/><use xlink:href="#hig-ZGadIfDj0pQnI1bS_pad-16" x="-760.94" y="720.4"/><use xlink:href="#hig-ZGadIfDj0pQnI1bS_pad-17" x="-2225" y="2426.34"/><use xlink:href="#hig-ZGadIfDj0pQnI1bS_pad-17" x="-2225" y="2343.66"/><use xlink:href="#hig-ZGadIfDj0pQnI1bS_pad-18" x="-1149.17" y="617.78"/><use xlink:href="#hig-ZGadIfDj0pQnI1bS_pad-18" x="-1021.21" y="617.78"/><use xlink:href="#hig-ZGadIfDj0pQnI1bS_pad-18" x="-1174.76" y="334.09"/><use xlink:href="#hig-ZGadIfDj0pQnI1bS_pad-18" x="-944.44" y="334.09"/><use xlink:href="#hig-ZGadIfDj0pQnI1bS_pad-18" x="-1046.8" y="334.09"/><use xlink:href="#hig-ZGadIfDj0pQnI1bS_pad-18" x="-1097.98" y="334.09"/><use xlink:href="#hig-ZGadIfDj0pQnI1bS_pad-18" x="-1149.17" y="334.09"/><use xlink:href="#hig-ZGadIfDj0pQnI1bS_pad-18" x="-1021.21" y="334.09"/><use xlink:href="#hig-ZGadIfDj0pQnI1bS_pad-18" x="-1123.57" y="334.09"/><use xlink:href="#hig-ZGadIfDj0pQnI1bS_pad-18" x="-995.62" y="334.09"/><use xlink:href="#hig-ZGadIfDj0pQnI1bS_pad-18" x="-970.03" y="334.09"/><use xlink:href="#hig-ZGadIfDj0pQnI1bS_pad-18" x="-1123.57" y="617.78"/><use xlink:href="#hig-ZGadIfDj0pQnI1bS_pad-18" x="-1072.39" y="334.09"/><use xlink:href="#hig-ZGadIfDj0pQnI1bS_pad-18" x="-1072.39" y="617.78"/><use xlink:href="#hig-ZGadIfDj0pQnI1bS_pad-18" x="-995.62" y="617.78"/><use xlink:href="#hig-ZGadIfDj0pQnI1bS_pad-18" x="-970.03" y="617.78"/><use xlink:href="#hig-ZGadIfDj0pQnI1bS_pad-18" x="-944.44" y="617.78"/><use xlink:href="#hig-ZGadIfDj0pQnI1bS_pad-18" x="-1046.8" y="617.78"/><use xlink:href="#hig-ZGadIfDj0pQnI1bS_pad-18" x="-1097.98" y="617.78"/><use xlink:href="#hig-ZGadIfDj0pQnI1bS_pad-18" x="-1174.76" y="617.78"/><use xlink:href="#hig-ZGadIfDj0pQnI1bS_pad-19" x="-1716.72" y="2500.16"/><use xlink:href="#hig-ZGadIfDj0pQnI1bS_pad-19" x="-1765.94" y="2500.16"/><use xlink:href="#hig-ZGadIfDj0pQnI1bS_pad-19" x="-1864.36" y="2500.16"/><use xlink:href="#hig-ZGadIfDj0pQnI1bS_pad-19" x="-1815.15" y="2500.16"/><use xlink:href="#hig-ZGadIfDj0pQnI1bS_pad-19" x="-1667.51" y="2500.16"/><use xlink:href="#hig-ZGadIfDj0pQnI1bS_pad-20" x="-1042" y="2205.94"/><use xlink:href="#hig-ZGadIfDj0pQnI1bS_pad-20" x="-1044.8" y="2100"/><use xlink:href="#hig-ZGadIfDj0pQnI1bS_pad-20" x="-1142.6" y="2205"/><use xlink:href="#hig-ZGadIfDj0pQnI1bS_pad-20" x="-1142.6" y="2100"/><use xlink:href="#hig-ZGadIfDj0pQnI1bS_pad-20" x="-1207.4" y="200"/><use xlink:href="#hig-ZGadIfDj0pQnI1bS_pad-20" x="-1217.4" y="2100"/><use xlink:href="#hig-ZGadIfDj0pQnI1bS_pad-20" x="-1132.6" y="200"/><use xlink:href="#hig-ZGadIfDj0pQnI1bS_pad-20" x="-1217.4" y="2205"/><use xlink:href="#hig-ZGadIfDj0pQnI1bS_pad-20" x="-970" y="2100"/><use xlink:href="#hig-ZGadIfDj0pQnI1bS_pad-20" x="-967.2" y="2205.94"/><use xlink:href="#hig-ZGadIfDj0pQnI1bS_pad-21" x="-1200" y="2.6"/><use xlink:href="#hig-ZGadIfDj0pQnI1bS_pad-21" x="-1080" y="5.2"/><use xlink:href="#hig-ZGadIfDj0pQnI1bS_pad-21" x="-960" y="5.2"/><use xlink:href="#hig-ZGadIfDj0pQnI1bS_pad-21" x="-1080" y="80"/><use xlink:href="#hig-ZGadIfDj0pQnI1bS_pad-21" x="-960" y="80"/><use xlink:href="#hig-ZGadIfDj0pQnI1bS_pad-21" x="-1200" y="77.4"/><use xlink:href="#hig-ZGadIfDj0pQnI1bS_pad-22" x="-1438.74" y="797.6"/><use xlink:href="#hig-ZGadIfDj0pQnI1bS_pad-22" x="-1438.74" y="872.4"/><use xlink:href="#hig-ZGadIfDj0pQnI1bS_pad-22" x="-1360" y="835"/><use xlink:href="#hig-ZGadIfDj0pQnI1bS_pad-23" x="-2445" y="2410.55"/><use xlink:href="#hig-ZGadIfDj0pQnI1bS_pad-23" x="-2445" y="2349.45"/><use xlink:href="#hig-ZGadIfDj0pQnI1bS_pad-24" x="-1964.76" y="2614.34"/><use xlink:href="#hig-ZGadIfDj0pQnI1bS_pad-24" x="-1567.12" y="2614.34"/><path d="M -1973 1508 -1843 1508 M -1973 1608 -1843 1608 M -1973 1708 -1843 1708 M -1973 1408 -1843 1408 M -1973 1308 -1843 1308 M -3103 808 -2973 808 M -3103 1008 -2973 1008 M -3103 1108 -2973 1108 M -3103 708 -2973 708 M -3103 408 -2973 408 M -3103 308 -2973 308 M -3103 608 -2973 608 M -3103 1208 -2973 1208 M -3103 1308 -2973 1308 M -3103 1808 -2973 1808 M -3103 1408 -2973 1408 M -3103 1508 -2973 1508 M -3103 1708 -2973 1708 M -3103 1608 -2973 1608 M -3103 108 -2973 108 M -3103 208 -2973 208 M -1973 1108 -1843 1108 M -1973 708 -1843 708 M -1973 808 -1843 808 M -1973 1008 -1843 1008 M -1973 608 -1843 608 M -1973 508 -1843 508 M -1973 908 -1843 908 M -1973 408 -1843 408 M -1973 308 -1843 308" fill="none" stroke-width="25"/><path d="M -693.26 2104.52 -219.44 2104.52 -215.9 2108.06 -15.9 2108.06 -15.9 2308.06 M -215.9 2308.06 -15.9 2308.06 M -119.44 2204.52 -115.9 2208.06 M -693.26 2204.52 -119.44 2204.52 M -693.26 1180.94 -219.44 1180.94 -215.9 1184.48 -15.9 1184.48 -15.9 1384.48 M -215.9 1384.48 -15.9 1384.48 M -119.44 1280.94 -115.9 1284.48 M -693.26 1280.94 -119.44 1280.94 M -689.72 398.83 -115.9 398.83 -112.35 402.37 M -212.35 502.37 -12.35 502.37 M -12.35 302.37 -12.35 502.37 M -212.35 302.37 -12.35 302.37 M -215.9 298.83 -212.35 302.37 M -689.72 298.83 -215.9 298.83" fill="none" stroke-width="50"/><use xlink:href="#hig-ZGadIfDj0pQnI1bS_pad-44" x="-693.26" y="1380.94"/><use xlink:href="#hig-ZGadIfDj0pQnI1bS_pad-44" x="-693.26" y="2304.52"/><use xlink:href="#hig-ZGadIfDj0pQnI1bS_pad-44" x="-2973" y="-92"/><use xlink:href="#hig-ZGadIfDj0pQnI1bS_pad-44" x="-1399.6" y="495.29"/><use xlink:href="#hig-ZGadIfDj0pQnI1bS_pad-44" x="-693.26" y="495.29"/><use xlink:href="#hig-ZGadIfDj0pQnI1bS_pad-44" x="-1399.6" y="2304.52"/><use xlink:href="#hig-ZGadIfDj0pQnI1bS_pad-44" x="-1399.6" y="1380.94"/><use xlink:href="#hig-ZGadIfDj0pQnI1bS_pad-44" x="-1973" y="-92"/><use xlink:href="#hig-ZGadIfDj0pQnI1bS_pad-45" x="-2720.94" y="2405.4"/><use xlink:href="#hig-ZGadIfDj0pQnI1bS_pad-46" x="-2145" y="2645"/><use xlink:href="#hig-ZGadIfDj0pQnI1bS_pad-46" x="-2345" y="2645"/><use xlink:href="#hig-ZGadIfDj0pQnI1bS_pad-46" x="-2245" y="2645"/><use xlink:href="#hig-ZGadIfDj0pQnI1bS_pad-47" x="-2973" y="8"/><use xlink:href="#hig-ZGadIfDj0pQnI1bS_pad-47" x="-1973" y="1808"/><use xlink:href="#hig-ZGadIfDj0pQnI1bS_pad-47" x="-1973" y="208"/><use xlink:href="#hig-ZGadIfDj0pQnI1bS_pad-47" x="-1973" y="108"/><use xlink:href="#hig-ZGadIfDj0pQnI1bS_pad-47" x="-1973" y="8"/><use xlink:href="#hig-ZGadIfDj0pQnI1bS_pad-47" x="-1973" y="1208"/><use xlink:href="#hig-ZGadIfDj0pQnI1bS_pad-47" x="-2973" y="508"/><use xlink:href="#hig-ZGadIfDj0pQnI1bS_pad-47" x="-1399.6" y="2104.52"/><use xlink:href="#hig-ZGadIfDj0pQnI1bS_pad-47" x="-1399.6" y="1180.94"/><use xlink:href="#hig-ZGadIfDj0pQnI1bS_pad-47" x="-1973" y="1608"/><use xlink:href="#hig-ZGadIfDj0pQnI1bS_pad-47" x="-1399.6" y="395.29"/><use xlink:href="#hig-ZGadIfDj0pQnI1bS_pad-47" x="-1399.6" y="1280.94"/><use xlink:href="#hig-ZGadIfDj0pQnI1bS_pad-47" x="-1399.6" y="2204.52"/><use xlink:href="#hig-ZGadIfDj0pQnI1bS_pad-47" x="-1973" y="1408"/><use xlink:href="#hig-ZGadIfDj0pQnI1bS_pad-47" x="-1973" y="1708"/><use xlink:href="#hig-ZGadIfDj0pQnI1bS_pad-47" x="-693.26" y="2204.52"/><use xlink:href="#hig-ZGadIfDj0pQnI1bS_pad-47" x="-693.26" y="1180.94"/><use xlink:href="#hig-ZGadIfDj0pQnI1bS_pad-47" x="-693.26" y="2104.52"/><use xlink:href="#hig-ZGadIfDj0pQnI1bS_pad-47" x="-693.26" y="295.29"/><use xlink:href="#hig-ZGadIfDj0pQnI1bS_pad-47" x="-693.26" y="395.29"/><use xlink:href="#hig-ZGadIfDj0pQnI1bS_pad-47" x="-693.26" y="1280.94"/><use xlink:href="#hig-ZGadIfDj0pQnI1bS_pad-47" x="-1973" y="1508"/><use xlink:href="#hig-ZGadIfDj0pQnI1bS_pad-47" x="-1973" y="1008"/><use xlink:href="#hig-ZGadIfDj0pQnI1bS_pad-47" x="-1973" y="808"/><use xlink:href="#hig-ZGadIfDj0pQnI1bS_pad-47" x="-1973" y="508"/><use xlink:href="#hig-ZGadIfDj0pQnI1bS_pad-47" x="-1973" y="308"/><use xlink:href="#hig-ZGadIfDj0pQnI1bS_pad-47" x="-1973" y="408"/><use xlink:href="#hig-ZGadIfDj0pQnI1bS_pad-47" x="-1973" y="608"/><use xlink:href="#hig-ZGadIfDj0pQnI1bS_pad-47" x="-1973" y="708"/><use xlink:href="#hig-ZGadIfDj0pQnI1bS_pad-47" x="-1973" y="908"/><use xlink:href="#hig-ZGadIfDj0pQnI1bS_pad-47" x="-1973" y="1108"/><use xlink:href="#hig-ZGadIfDj0pQnI1bS_pad-47" x="-1973" y="1308"/><use xlink:href="#hig-ZGadIfDj0pQnI1bS_pad-47" x="-2973" y="1808"/><use xlink:href="#hig-ZGadIfDj0pQnI1bS_pad-47" x="-2973" y="1708"/><use xlink:href="#hig-ZGadIfDj0pQnI1bS_pad-47" x="-2973" y="1608"/><use xlink:href="#hig-ZGadIfDj0pQnI1bS_pad-47" x="-2973" y="1308"/><use xlink:href="#hig-ZGadIfDj0pQnI1bS_pad-47" x="-2973" y="1208"/><use xlink:href="#hig-ZGadIfDj0pQnI1bS_pad-47" x="-2973" y="1108"/><use xlink:href="#hig-ZGadIfDj0pQnI1bS_pad-47" x="-2973" y="708"/><use xlink:href="#hig-ZGadIfDj0pQnI1bS_pad-47" x="-2973" y="608"/><use xlink:href="#hig-ZGadIfDj0pQnI1bS_pad-47" x="-2973" y="408"/><use xlink:href="#hig-ZGadIfDj0pQnI1bS_pad-47" x="-2973" y="308"/><use xlink:href="#hig-ZGadIfDj0pQnI1bS_pad-47" x="-2973" y="208"/><use xlink:href="#hig-ZGadIfDj0pQnI1bS_pad-47" x="-2973" y="108"/><use xlink:href="#hig-ZGadIfDj0pQnI1bS_pad-47" x="-2973" y="808"/><use xlink:href="#hig-ZGadIfDj0pQnI1bS_pad-47" x="-2973" y="1008"/><use xlink:href="#hig-ZGadIfDj0pQnI1bS_pad-47" x="-2973" y="1408"/><use xlink:href="#hig-ZGadIfDj0pQnI1bS_pad-47" x="-2973" y="1508"/><use xlink:href="#hig-ZGadIfDj0pQnI1bS_pad-47" x="-2973" y="908"/><use xlink:href="#hig-ZGadIfDj0pQnI1bS_pad-47" x="-1399.6" y="295.29"/><use xlink:href="#hig-ZGadIfDj0pQnI1bS_pad-48" x="-2445" y="2645"/><use xlink:href="#hig-ZGadIfDj0pQnI1bS_pad-49" x="-2970.94" y="2405.4"/><use xlink:href="#hig-ZGadIfDj0pQnI1bS_pad-50" x="-112.35" y="1288.02"/><use xlink:href="#hig-ZGadIfDj0pQnI1bS_pad-50" x="-112.35" y="402.37"/><use xlink:href="#hig-ZGadIfDj0pQnI1bS_pad-50" x="-112.35" y="2211.61"/><use xlink:href="#hig-ZGadIfDj0pQnI1bS_pad-51" x="-212.35" y="1188.02"/><use xlink:href="#hig-ZGadIfDj0pQnI1bS_pad-51" x="-212.35" y="1388.02"/><use xlink:href="#hig-ZGadIfDj0pQnI1bS_pad-51" x="-12.35" y="1188.02"/><use xlink:href="#hig-ZGadIfDj0pQnI1bS_pad-51" x="-12.35" y="1388.02"/><use xlink:href="#hig-ZGadIfDj0pQnI1bS_pad-51" x="-212.35" y="302.37"/><use xlink:href="#hig-ZGadIfDj0pQnI1bS_pad-51" x="-212.35" y="502.37"/><use xlink:href="#hig-ZGadIfDj0pQnI1bS_pad-51" x="-12.35" y="302.37"/><use xlink:href="#hig-ZGadIfDj0pQnI1bS_pad-51" x="-12.35" y="502.37"/><use xlink:href="#hig-ZGadIfDj0pQnI1bS_pad-51" x="-212.35" y="2111.61"/><use xlink:href="#hig-ZGadIfDj0pQnI1bS_pad-51" x="-212.35" y="2311.61"/><use xlink:href="#hig-ZGadIfDj0pQnI1bS_pad-51" x="-12.35" y="2111.61"/><use xlink:href="#hig-ZGadIfDj0pQnI1bS_pad-51" x="-12.35" y="2311.61"/><use xlink:href="#hig-ZGadIfDj0pQnI1bS_pad-52" x="-1480" y="2465"/><use xlink:href="#hig-ZGadIfDj0pQnI1bS_pad-52" x="-1520" y="2505"/><use xlink:href="#hig-ZGadIfDj0pQnI1bS_pad-52" x="-1620" y="1965"/><use xlink:href="#hig-ZGadIfDj0pQnI1bS_pad-52" x="-1665" y="1920"/><use xlink:href="#hig-ZGadIfDj0pQnI1bS_pad-52" x="-1710" y="1875"/><use xlink:href="#hig-ZGadIfDj0pQnI1bS_pad-52" x="-1610" y="1790"/><use xlink:href="#hig-ZGadIfDj0pQnI1bS_pad-52" x="-1565" y="1835"/><use xlink:href="#hig-ZGadIfDj0pQnI1bS_pad-52" x="-1520" y="1880"/><use xlink:href="#hig-ZGadIfDj0pQnI1bS_pad-52" x="-1615" y="2430"/><use xlink:href="#hig-ZGadIfDj0pQnI1bS_pad-52" x="-1575" y="2390"/><use xlink:href="#hig-ZGadIfDj0pQnI1bS_pad-52" x="-1810" y="2265"/><use xlink:href="#hig-ZGadIfDj0pQnI1bS_pad-52" x="-1915" y="2265"/><use xlink:href="#hig-ZGadIfDj0pQnI1bS_pad-52" x="-1810" y="2190"/><use xlink:href="#hig-ZGadIfDj0pQnI1bS_pad-52" x="-1915" y="2190"/><use xlink:href="#hig-ZGadIfDj0pQnI1bS_pad-52" x="-1810" y="2340"/><use xlink:href="#hig-ZGadIfDj0pQnI1bS_pad-52" x="-1915" y="2340"/><use xlink:href="#hig-ZGadIfDj0pQnI1bS_pad-52" x="-2401" y="935"/><use xlink:href="#hig-ZGadIfDj0pQnI1bS_pad-52" x="-2401" y="785"/><use xlink:href="#hig-ZGadIfDj0pQnI1bS_pad-52" x="-2326" y="935"/><use xlink:href="#hig-ZGadIfDj0pQnI1bS_pad-52" x="-2326" y="785"/><use xlink:href="#hig-ZGadIfDj0pQnI1bS_pad-52" x="-2551" y="935"/><use xlink:href="#hig-ZGadIfDj0pQnI1bS_pad-52" x="-2551" y="785"/><use xlink:href="#hig-ZGadIfDj0pQnI1bS_pad-52" x="-2476" y="935"/><use xlink:href="#hig-ZGadIfDj0pQnI1bS_pad-52" x="-2476" y="785"/><use xlink:href="#hig-ZGadIfDj0pQnI1bS_pad-52" x="-2626" y="785"/><use xlink:href="#hig-ZGadIfDj0pQnI1bS_pad-52" x="-2626" y="935"/><use xlink:href="#hig-ZGadIfDj0pQnI1bS_pad-52" x="-1072" y="264"/><use xlink:href="#hig-ZGadIfDj0pQnI1bS_pad-52" x="-3103" y="-92"/><use xlink:href="#hig-ZGadIfDj0pQnI1bS_pad-52" x="-3103" y="8"/><use xlink:href="#hig-ZGadIfDj0pQnI1bS_pad-52" x="-785" y="155"/><use xlink:href="#hig-ZGadIfDj0pQnI1bS_pad-52" x="-890" y="335"/><use xlink:href="#hig-ZGadIfDj0pQnI1bS_pad-52" x="-680" y="155"/><use xlink:href="#hig-ZGadIfDj0pQnI1bS_pad-52" x="-575" y="155"/><use xlink:href="#hig-ZGadIfDj0pQnI1bS_pad-52" x="-1235" y="1095"/><use xlink:href="#hig-ZGadIfDj0pQnI1bS_pad-52" x="-1650" y="1350"/><use xlink:href="#hig-ZGadIfDj0pQnI1bS_pad-52" x="-1370" y="780"/><use xlink:href="#hig-ZGadIfDj0pQnI1bS_pad-52" x="-1175" y="695"/><use xlink:href="#hig-ZGadIfDj0pQnI1bS_pad-52" x="-1074" y="692"/><use xlink:href="#hig-ZGadIfDj0pQnI1bS_pad-52" x="-1843" y="1808"/><use xlink:href="#hig-ZGadIfDj0pQnI1bS_pad-52" x="-820.94" y="720.4"/><use xlink:href="#hig-ZGadIfDj0pQnI1bS_pad-52" x="-1765.94" y="2420.4"/><use xlink:href="#hig-ZGadIfDj0pQnI1bS_pad-52" x="-890" y="625"/><use xlink:href="#hig-ZGadIfDj0pQnI1bS_pad-52" x="-1843" y="8"/><use xlink:href="#hig-ZGadIfDj0pQnI1bS_pad-52" x="-1843" y="-92"/><use xlink:href="#hig-ZGadIfDj0pQnI1bS_pad-52" x="-2900.94" y="2405.4"/><use xlink:href="#hig-ZGadIfDj0pQnI1bS_pad-52" x="-2900.94" y="2335.4"/><use xlink:href="#hig-ZGadIfDj0pQnI1bS_pad-52" x="-2970.94" y="2475.4"/><use xlink:href="#hig-ZGadIfDj0pQnI1bS_pad-52" x="-2900.94" y="2475.4"/><use xlink:href="#hig-ZGadIfDj0pQnI1bS_pad-52" x="-3040.94" y="2475.4"/><use xlink:href="#hig-ZGadIfDj0pQnI1bS_pad-52" x="-2970.94" y="2335.4"/><use xlink:href="#hig-ZGadIfDj0pQnI1bS_pad-52" x="-3040.94" y="2405.4"/><use xlink:href="#hig-ZGadIfDj0pQnI1bS_pad-52" x="-3040.94" y="2335.4"/><use xlink:href="#hig-ZGadIfDj0pQnI1bS_pad-52" x="-1843" y="1208"/><use xlink:href="#hig-ZGadIfDj0pQnI1bS_pad-52" x="-1843" y="208"/><use xlink:href="#hig-ZGadIfDj0pQnI1bS_pad-52" x="-1843" y="108"/><use xlink:href="#hig-ZGadIfDj0pQnI1bS_pad-52" x="-3103" y="508"/><use xlink:href="#hig-ZGadIfDj0pQnI1bS_pad-52" x="-1650" y="1450"/><use xlink:href="#hig-ZGadIfDj0pQnI1bS_pad-52" x="-1843" y="1608"/><use xlink:href="#hig-ZGadIfDj0pQnI1bS_pad-52" x="-1214" y="272"/><use xlink:href="#hig-ZGadIfDj0pQnI1bS_pad-52" x="-1350" y="985"/><use xlink:href="#hig-ZGadIfDj0pQnI1bS_pad-52" x="-1175" y="1045"/><use xlink:href="#hig-ZGadIfDj0pQnI1bS_pad-52" x="-1295" y="935"/><use xlink:href="#hig-ZGadIfDj0pQnI1bS_pad-52" x="-1843" y="1408"/><use xlink:href="#hig-ZGadIfDj0pQnI1bS_pad-52" x="-1843" y="1708"/><use xlink:href="#hig-ZGadIfDj0pQnI1bS_pad-52" x="-1843" y="508"/><use xlink:href="#hig-ZGadIfDj0pQnI1bS_pad-52" x="-1843" y="1308"/><use xlink:href="#hig-ZGadIfDj0pQnI1bS_pad-52" x="-1843" y="1108"/><use xlink:href="#hig-ZGadIfDj0pQnI1bS_pad-52" x="-1843" y="708"/><use xlink:href="#hig-ZGadIfDj0pQnI1bS_pad-52" x="-1843" y="1008"/><use xlink:href="#hig-ZGadIfDj0pQnI1bS_pad-52" x="-1843" y="908"/><use xlink:href="#hig-ZGadIfDj0pQnI1bS_pad-52" x="-1843" y="608"/><use xlink:href="#hig-ZGadIfDj0pQnI1bS_pad-52" x="-1843" y="808"/><use xlink:href="#hig-ZGadIfDj0pQnI1bS_pad-52" x="-1843" y="408"/><use xlink:href="#hig-ZGadIfDj0pQnI1bS_pad-52" x="-1843" y="308"/><use xlink:href="#hig-ZGadIfDj0pQnI1bS_pad-52" x="-1843" y="1508"/><use xlink:href="#hig-ZGadIfDj0pQnI1bS_pad-52" x="-3103" y="908"/><use xlink:href="#hig-ZGadIfDj0pQnI1bS_pad-52" x="-3103" y="1708"/><use xlink:href="#hig-ZGadIfDj0pQnI1bS_pad-52" x="-3103" y="1008"/><use xlink:href="#hig-ZGadIfDj0pQnI1bS_pad-52" x="-3103" y="1808"/><use xlink:href="#hig-ZGadIfDj0pQnI1bS_pad-52" x="-3103" y="1508"/><use xlink:href="#hig-ZGadIfDj0pQnI1bS_pad-52" x="-3103" y="1308"/><use xlink:href="#hig-ZGadIfDj0pQnI1bS_pad-52" x="-3103" y="1608"/><use xlink:href="#hig-ZGadIfDj0pQnI1bS_pad-52" x="-3103" y="1408"/><use xlink:href="#hig-ZGadIfDj0pQnI1bS_pad-52" x="-3103" y="1208"/><use xlink:href="#hig-ZGadIfDj0pQnI1bS_pad-52" x="-3103" y="1108"/><use xlink:href="#hig-ZGadIfDj0pQnI1bS_pad-52" x="-3103" y="708"/><use xlink:href="#hig-ZGadIfDj0pQnI1bS_pad-52" x="-3103" y="808"/><use xlink:href="#hig-ZGadIfDj0pQnI1bS_pad-52" x="-3103" y="608"/><use xlink:href="#hig-ZGadIfDj0pQnI1bS_pad-52" x="-3103" y="408"/><use xlink:href="#hig-ZGadIfDj0pQnI1bS_pad-52" x="-3103" y="308"/><use xlink:href="#hig-ZGadIfDj0pQnI1bS_pad-52" x="-3103" y="108"/><use xlink:href="#hig-ZGadIfDj0pQnI1bS_pad-52" x="-3103" y="208"/></g></svg>